<svg xmlns="http://www.w3.org/2000/svg" width="84.795" height="99.529" viewBox="0 0 84.795 99.529">
  <g id="_0" data-name="0" transform="translate(-55.95 -23.814)" fill="#ef9f5e" stroke-miterlimit="10">
    <path d="M 93.45899963378906 123.0040969848633 L 93.45700073242188 123.0040969848633 C 84.09026336669922 123.0031127929688 76.011474609375 119.0543594360352 69.44507598876953 111.2675247192383 C 58.62172317504883 98.43456268310547 55.05818557739258 78.73905181884766 56.64703750610352 69.45516204833984 C 59.03017425537109 55.52946090698242 64.55245971679688 43.89771270751953 72.61687469482422 35.81739807128906 C 80.12494659423828 28.29543685913086 89.67436981201172 24.15289878845215 99.50599670410156 24.15289878845215 C 110.7600708007812 24.15289878845215 121.8113098144531 29.50371170043945 130.6239776611328 39.21968460083008 C 133.1810455322266 42.03851318359375 135.3064880371094 45.66848754882812 136.9412536621094 50.0088005065918 C 138.5240936279297 54.21122360229492 139.5810546875 58.89486312866211 140.0827789306641 63.92959976196289 C 140.5848541259766 68.96800994873047 140.505126953125 74.09968566894531 139.8457641601562 79.18205261230469 C 139.1632385253906 84.44300079345703 137.8867340087891 89.41676330566406 136.0517120361328 93.96520233154297 C 129.0333557128906 111.3642120361328 114.7093200683594 121.6500091552734 95.71824645996094 122.927864074707 C 94.95952606201172 122.9784469604492 94.19933319091797 123.0040969848633 93.45899963378906 123.0040969848633 Z M 108.4700012207031 67.94709777832031 C 105.0974960327148 67.94709777832031 100.6887741088867 70.20458984375 96.67668914794922 73.98587036132812 C 92.68014526367188 77.75250244140625 89.70294952392578 82.43667602539062 88.71267700195312 86.51605224609375 C 87.62253570556641 91.00367736816406 88.00102233886719 95.55351257324219 89.77839660644531 99.32740020751953 C 91.51586151123047 103.0157623291016 94.38739776611328 105.5116577148438 97.86407470703125 106.355339050293 C 98.43441009521484 106.4937210083008 99.04672241210938 106.5638961791992 99.68399810791016 106.5638961791992 C 103.110107421875 106.5638961791992 107.2559967041016 104.5788497924805 111.0586090087891 101.1177520751953 C 114.8485336303711 97.66819763183594 117.5747833251953 93.41289520263672 118.5383377075195 89.44293975830078 C 119.6477127075195 84.87143707275391 119.3701248168945 79.90638732910156 117.7767333984375 75.82086181640625 C 116.1605987548828 71.67636108398438 113.4197006225586 68.94454956054688 110.0589447021484 68.12867736816406 C 109.5633239746094 68.00820159912109 109.0287017822266 67.94709777832031 108.4700012207031 67.94709777832031 Z" stroke="none"/>
    <path d="M 99.50599670410156 24.49178314208984 C 89.7650146484375 24.49178314208984 80.30076599121094 28.5989990234375 72.85674285888672 36.05680084228516 C 64.842041015625 44.08729553222656 59.35232543945312 55.65604400634766 56.9810791015625 69.51234436035156 C 56.58576965332031 71.82217407226562 56.52088928222656 74.77318572998047 56.79345703125 78.04635620117188 C 57.08174133300781 81.50830078125 57.74819946289062 85.27241516113281 58.72079467773438 88.93177032470703 C 59.80043029785156 92.99384307861328 61.22868347167969 96.88017272949219 62.96588134765625 100.4828186035156 C 64.89112854003906 104.4754028320312 67.158203125 108.0303802490234 69.70414733886719 111.0490570068359 C 76.20317077636719 118.7559814453125 84.19480895996094 122.6642303466797 93.45899963378906 122.6652145385742 C 94.19184112548828 122.6652145385742 94.9444580078125 122.6398010253906 95.69549560546875 122.5897369384766 C 100.3767700195312 122.2747421264648 104.8340377807617 121.3994979858398 108.9434967041016 119.9882965087891 C 113.0144271850586 118.59033203125 116.7947692871094 116.6490707397461 120.1795272827148 114.2184600830078 C 123.5638580322266 111.7881469726562 126.594482421875 108.8385543823242 129.1872253417969 105.45166015625 C 131.8041534423828 102.0331573486328 134.0079650878906 98.12590026855469 135.7374267578125 93.83840942382812 C 137.5617065429688 89.31664276123047 138.8308563232422 84.37086486816406 139.5096893310547 79.13845825195312 C 140.1657257080078 74.08165740966797 140.2450714111328 68.97596740722656 139.7455444335938 63.96321105957031 C 139.2467498779297 58.95780944824219 138.1965637207031 54.30307006835938 136.6241149902344 50.12824249267578 C 135.0044403076172 45.82802581787109 132.9012451171875 42.23446655273438 130.3729553222656 39.44737243652344 C 121.6253433227539 29.80311584472656 110.6632385253906 24.49178314208984 99.50599670410156 24.49178314208984 M 99.68399810791016 106.9027862548828 C 99.01982879638672 106.9027862548828 98.38063049316406 106.8294143676758 97.78415679931641 106.6846694946289 C 94.20587158203125 105.8163452148438 91.25382995605469 103.254768371582 89.47180938720703 99.4718017578125 C 87.66156768798828 95.62814331054688 87.27500915527344 90.99861145019531 88.38333892822266 86.43611145019531 C 89.38847351074219 82.29553985595703 92.40190124511719 77.54905700683594 96.44425201416016 73.7392578125 C 100.5784378051758 69.84288787841797 104.9616546630859 67.60821533203125 108.4700012207031 67.60821533203125 C 109.0556411743164 67.60821533203125 109.6171951293945 67.67253112792969 110.1389007568359 67.79933929443359 C 113.6103286743164 68.64209747314453 116.4349517822266 71.4471435546875 118.0924682617188 75.69773101806641 C 119.7104873657227 79.84641265869141 119.9930419921875 84.88546752929688 118.8676681518555 89.52287292480469 C 117.8885726928711 93.55691528320312 115.1254272460938 97.87444305419922 111.2867279052734 101.3683700561523 C 107.4224853515625 104.8855743408203 103.1934585571289 106.9027862548828 99.68399810791016 106.9027862548828 M 99.50599670410156 23.81399536132812 C 110.8559951782227 23.81399536132812 121.9970016479492 29.20400238037109 130.875 38.99199676513672 C 141.4550018310547 50.65499877929688 143.9179992675781 75.37300109863281 136.3659973144531 94.09199523925781 C 129.2959899902344 111.6190032958984 114.8679962158203 121.9789962768555 95.74099731445312 123.265998840332 C 94.97599792480469 123.3170013427734 94.20800018310547 123.3430023193359 93.45899963378906 123.3430023193359 L 93.45700073242188 123.3430023193359 C 83.98600006103516 123.3419952392578 75.81999969482422 119.3529968261719 69.18598937988281 111.4860000610352 C 58.29600524902344 98.57399749755859 54.71299743652344 78.74700164794922 56.31300354003906 69.39800262451172 C 58.70797729492188 55.40299987792969 64.26300048828125 43.70800018310547 72.37699890136719 35.57799530029297 C 79.94899749755859 27.99199676513672 89.58300018310547 23.81399536132812 99.50599670410156 23.81399536132812 Z M 99.68399810791016 106.2249984741211 C 106.6969985961914 106.2249984741211 116.2200012207031 97.55799865722656 118.2089996337891 89.36299896240234 C 119.302001953125 84.85899353027344 119.0299987792969 79.96699523925781 117.4609985351562 75.94400024414062 C 115.8860015869141 71.90499877929688 113.2289962768555 69.24700164794922 109.9789962768555 68.45800018310547 C 109.5100021362305 68.34400177001953 109.0019989013672 68.28599548339844 108.4700012207031 68.28599548339844 C 101.4679946899414 68.28599548339844 91.11899566650391 78.04000091552734 89.04199981689453 86.59600067138672 C 87.97000122070312 91.00900268554688 88.34099578857422 95.47999572753906 90.08499908447266 99.18299865722656 C 91.77799987792969 102.7770004272461 94.56900024414062 105.2070007324219 97.94400024414062 106.0260009765625 C 98.48799896240234 106.1579971313477 99.072998046875 106.2249984741211 99.68399810791016 106.2249984741211 Z" stroke="none" fill="#231f20"/>
  </g>
</svg>
