<svg xmlns="http://www.w3.org/2000/svg" width="73.871" height="101.945" viewBox="0 0 73.871 101.945">
  <g id="_2" data-name="2" transform="translate(-262.133 -19.328)" fill="#ef9f5e" stroke-miterlimit="10">
    <path d="M 304.427001953125 120.9341049194336 C 293.4498291015625 120.9341049194336 282.9228820800781 119.7744522094727 276.7315063476562 118.6892013549805 C 271.4622802734375 117.7663192749023 268.3227844238281 115.7043609619141 267.4002075195312 112.5605697631836 C 266.3653869628906 109.0341339111328 268.1446533203125 104.4358825683594 272.8396301269531 98.5030517578125 C 276.9161071777344 93.35179901123047 282.6701354980469 87.76618957519531 290.0555725097656 80.96427917480469 L 290.0785827636719 80.94309234619141 C 293.5257568359375 77.76815795898438 296.5028686523438 75.02619934082031 297.4763488769531 73.65519714355469 C 297.8941650390625 73.06781005859375 298.3251953125 72.46961212158203 298.7308349609375 71.90726470947266 C 302.55322265625 66.60645294189453 306.5057067871094 61.12521362304688 305.8466796875 55.38235855102539 C 305.267578125 50.34869384765625 299.7170715332031 49.59710693359375 296.4599914550781 49.59710693359375 C 291.9087219238281 49.59710693359375 287.3936157226562 51.06103897094727 285.6578674316406 52.47634506225586 C 282.9187927246094 54.70767974853516 279.3645324707031 55.93711853027344 275.64990234375 55.93810653686523 C 271.2701110839844 55.93810653686523 267.2102966308594 54.25698471069336 264.7900085449219 51.44109344482422 C 262.9136962890625 49.2576789855957 262.1543273925781 46.57320022583008 262.5940551757812 43.67787933349609 C 265.11572265625 27.09130668640137 281.7646789550781 19.66689300537109 297.14599609375 19.66689300537109 C 307.9685363769531 19.66689300537109 318.2557983398438 23.0413990020752 325.3700256347656 28.9251594543457 C 338.9226989746094 40.1336784362793 337.4293212890625 61.85094833374023 327.531494140625 75.10220336914062 C 326.3895874023438 76.63104248046875 315.6080017089844 88.49973297119141 309.7579040527344 94.37181091308594 C 309.0294494628906 95.10402679443359 309.2815856933594 95.95321655273438 309.376220703125 96.19605255126953 C 309.4725341796875 96.44109344482422 309.8662109375 97.24105072021484 310.9037780761719 97.28459930419922 C 311.3051147460938 97.30126953125 311.7357177734375 97.30970764160156 312.1837768554688 97.30970764160156 C 314.3030700683594 97.30970764160156 316.6295776367188 97.12494659423828 318.8794860839844 96.94628143310547 L 318.9228210449219 96.94282531738281 C 320.9510498046875 96.78090667724609 323.0642395019531 96.63106536865234 324.7796020507812 96.63106536865234 C 325.86376953125 96.63106536865234 326.7050476074219 96.68902587890625 327.3515319824219 96.80828094482422 C 331.8403625488281 97.63742828369141 334.8584594726562 102.599479675293 335.519775390625 107.0725631713867 C 336.163330078125 111.4182434082031 334.6503601074219 114.9921493530273 331.4725036621094 116.6328659057617 C 324.5826110839844 120.1878814697266 312.9621276855469 120.9341049194336 304.427001953125 120.9341049194336 Z" stroke="none"/>
    <path d="M 304.427001953125 120.5952224731445 C 312.924560546875 120.5952224731445 324.4876098632812 119.8555374145508 331.3170471191406 116.3317489624023 C 334.3600769042969 114.7606201171875 335.8058776855469 111.3178329467773 335.1845092773438 107.1221389770508 C 334.8508605957031 104.8651657104492 333.9001159667969 102.5430374145508 332.5761413574219 100.7511672973633 C 331.5482177734375 99.36004638671875 329.7967224121094 97.60456085205078 327.2900390625 97.14153289794922 C 326.6640930175781 97.02607727050781 325.8429565429688 96.96994781494141 324.7796630859375 96.96994781494141 C 323.0762939453125 96.96994781494141 320.9711303710938 97.11927795410156 318.9496459960938 97.28067779541016 L 318.9072875976562 97.28403472900391 C 316.6504211425781 97.46326446533203 314.3167114257812 97.64859008789062 312.1836853027344 97.64860534667969 C 311.7310485839844 97.64860534667969 311.2957458496094 97.64006042480469 310.8895874023438 97.62320709228516 C 309.9025573730469 97.58177947998047 309.2979125976562 96.92332458496094 309.0604553222656 96.31907653808594 C 308.8267211914062 95.71926116943359 308.8240356445312 94.82997894287109 309.517822265625 94.13263702392578 C 315.3605041503906 88.26802062988281 326.1218872070312 76.42311859130859 327.2599792480469 74.89939117431641 C 329.6715393066406 71.67076110839844 331.6403503417969 67.81858062744141 332.9534912109375 63.75929260253906 C 334.271484375 59.68515014648438 334.9451293945312 55.35092163085938 334.901611328125 51.22515106201172 C 334.8556213378906 46.86182022094727 334.0454406738281 42.78744888305664 332.4935913085938 39.11519241333008 C 330.8302001953125 35.17897796630859 328.3608093261719 31.83843421936035 325.1540222167969 29.18632125854492 C 318.0995483398438 23.35196304321289 307.8909912109375 20.00579261779785 297.14599609375 20.00579261779785 C 281.9096374511719 20.00579261779785 265.4205322265625 27.34117889404297 262.9291076660156 43.72877883911133 C 262.5046691894531 46.52347946166992 263.2370300292969 49.11399078369141 265.0469970703125 51.22020721435547 C 267.40380859375 53.96220779418945 271.3675537109375 55.59922027587891 275.6498107910156 55.59922027587891 C 279.2867431640625 55.59825134277344 282.7650146484375 54.39585113525391 285.4436950683594 52.21369171142578 C 286.3855285644531 51.44573593139648 287.9815979003906 50.7193489074707 289.9378662109375 50.16835021972656 C 291.4119873046875 49.75315093994141 293.7401123046875 49.25822067260742 296.4599914550781 49.25822067260742 C 298.0213317871094 49.25822067260742 300.2890930175781 49.43312072753906 302.2259826660156 50.26637649536133 C 304.5476989746094 51.26519393920898 305.9161376953125 53.02085113525391 306.1833801269531 55.34373474121094 C 306.8573303222656 61.21694946289062 302.8658447265625 66.7523193359375 299.0056762695312 72.10555267333984 C 298.6016235351562 72.66563415527344 298.1720581054688 73.26183319091797 297.7526550292969 73.85141754150391 C 296.7585754394531 75.25143432617188 293.7692565917969 78.00464630126953 290.3078918457031 81.19261932373047 L 290.28515625 81.21354675292969 C 282.9114990234375 88.00460815429688 277.1681213378906 93.57943725585938 273.1053771972656 98.71334838867188 C 268.4836120605469 104.5536651611328 266.7237854003906 109.0519180297852 267.7254028320312 112.4651489257812 C 268.6086120605469 115.4748458862305 271.6583862304688 117.4566040039062 276.7900390625 118.3553924560547 C 282.9673461914062 119.4381942749023 293.4715576171875 120.5952224731445 304.427001953125 120.5952224731445 M 304.427001953125 121.2730102539062 C 293.4309997558594 121.2730102539062 282.8800048828125 120.1110076904297 276.6730041503906 119.0230102539062 C 271.2659912109375 118.0759887695312 268.0369873046875 115.9340057373047 267.0750122070312 112.656005859375 C 264.7309875488281 104.6680068969727 276.4989929199219 92.98899078369141 289.8259887695312 80.71498870849609 C 293.2699890136719 77.54300689697266 296.2449951171875 74.80400848388672 297.2000122070312 73.45900726318359 C 297.614013671875 72.87699127197266 298.0339965820312 72.29399108886719 298.4559936523438 71.70900726318359 C 302.2409973144531 66.45999145507812 306.1539916992188 61.03300476074219 305.510009765625 55.42100524902344 C 304.9609985351562 50.64899063110352 299.60400390625 49.93600845336914 296.4599914550781 49.93600845336914 C 291.9849853515625 49.93600845336914 287.56201171875 51.36100769042969 285.8720092773438 52.73899078369141 C 283.0719909667969 55.0200080871582 279.4419860839844 56.27600479125977 275.6499938964844 56.27700805664062 C 271.1730041503906 56.27700805664062 267.0169982910156 54.5519905090332 264.5329895019531 51.66200637817383 C 262.5899963378906 49.40100479125977 261.8039855957031 46.62300491333008 262.2590026855469 43.62700653076172 C 264.8110046386719 26.84100723266602 281.6199951171875 19.32800674438477 297.14599609375 19.32800674438477 C 308.0459899902344 19.32800674438477 318.4110107421875 22.73000717163086 325.5859985351562 28.66400718688965 C 339.2879943847656 39.99600601196289 337.7940063476562 61.92900848388672 327.8030090332031 75.30500793457031 C 326.6579895019531 76.83798980712891 315.8569946289062 88.73000335693359 309.9979858398438 94.61100769042969 C 309.4140014648438 95.19799041748047 309.6159973144531 95.87799072265625 309.6919860839844 96.07299041748047 C 309.7690124511719 96.26898956298828 310.0840148925781 96.91100311279297 310.9179992675781 96.94600677490234 C 313.35009765625 97.04698944091797 316.176025390625 96.82100677490234 318.89599609375 96.60500335693359 C 322.3529663085938 96.32900238037109 325.5479125976562 96.13098907470703 327.4129943847656 96.47499084472656 C 332.0580139160156 97.3330078125 335.1759948730469 102.4300079345703 335.8550109863281 107.0230102539062 C 336.52099609375 111.5199890136719 334.9400024414062 115.224006652832 331.6279907226562 116.9340057373047 C 324.6780090332031 120.5199890136719 312.9989929199219 121.2730102539062 304.427001953125 121.2730102539062 Z" stroke="none" fill="#231f20"/>
  </g>
</svg>
