<svg xmlns="http://www.w3.org/2000/svg" width="83.101" height="102.532" viewBox="0 0 83.101 102.532">
  <g id="_3" data-name="3" transform="translate(-362.168 -23.062)" fill="#ef9f5e" stroke-miterlimit="10">
    <path d="M 402.5840148925781 125.2551116943359 L 402.5780029296875 125.2551116943359 C 393.3657836914062 125.2551116943359 384.2774658203125 123.4469146728516 376.9871520996094 120.1636199951172 C 369.7399597167969 116.8997421264648 364.8313293457031 112.4339141845703 363.1654663085938 107.5888061523438 C 361.7645568847656 103.5176239013672 361.9245300292969 97.23747253417969 370.6424255371094 90.43822479248047 C 372.841552734375 88.72271728515625 375.2564086914062 87.85289001464844 377.8200073242188 87.85289001464844 C 383.1492919921875 87.85289001464844 388.3125305175781 91.49285888671875 393.3057556152344 95.01298522949219 L 393.31591796875 95.0201416015625 C 397.7336120605469 98.13283538818359 401.9063415527344 101.0728988647461 405.5769958496094 101.0728988647461 C 407.3367919921875 101.0728988647461 409.9990539550781 100.5070114135742 412.7893981933594 95.61387634277344 C 413.8426208496094 93.76731872558594 414.14501953125 92.31465911865234 413.6882019042969 91.29628753662109 C 412.7385559082031 89.18389129638672 408.4119262695312 88.27363586425781 404.2277526855469 87.39335632324219 C 401.0077819824219 86.71515655517578 397.6783142089844 86.01387786865234 395.0661010742188 84.68096923828125 C 393.6736450195312 83.970458984375 392.6329345703125 83.15678405761719 391.884521484375 82.19342041015625 C 391.0443725585938 81.11196899414062 390.5942077636719 79.87152862548828 390.5083312988281 78.40123748779297 C 390.201416015625 73.16338348388672 391.4918212890625 69.50318145751953 394.4532775878906 67.21139526367188 C 397.0419311523438 65.2081298828125 400.5409851074219 64.51177215576172 403.6281433105469 63.89736938476562 C 407.5526428222656 63.11534118652344 410.9418640136719 62.43998336791992 412.0987854003906 59.60402297973633 C 413.3319702148438 56.5773811340332 412.8859558105469 52.51831436157227 411.0142822265625 49.73298263549805 C 410.0364379882812 48.27776718139648 408.2655639648438 46.5431022644043 405.3819885253906 46.5431022644043 C 403.0506896972656 46.5431022644043 400.4766540527344 47.67315673828125 397.7314147949219 49.90188980102539 C 390.462890625 55.80099487304688 384.3218688964844 58.7921028137207 379.47900390625 58.7921028137207 C 376.4709167480469 58.7921028137207 374.0126647949219 57.63802337646484 372.1725463867188 55.3619270324707 C 366.9840393066406 48.94579696655273 367.880859375 43.44001007080078 369.5468139648438 39.95103454589844 C 371.6930541992188 35.45487594604492 376.5978088378906 31.22478103637695 383.3575744628906 28.03994178771973 C 386.4092407226562 26.60216903686523 389.7844848632812 25.41959571838379 393.1184387207031 24.62008857727051 C 396.4444580078125 23.82248878479004 399.7504272460938 23.40088844299316 402.6789855957031 23.40088844299316 C 403.3385925292969 23.40088844299316 403.98291015625 23.42280769348145 404.5941162109375 23.46604919433594 C 414.4618225097656 24.15891456604004 421.2311401367188 28.55932807922363 427.8622436523438 33.39776992797852 C 433.4639282226562 37.48370361328125 436.4552612304688 43.33335494995117 436.2852172851562 49.86918258666992 C 436.0960388183594 57.16911697387695 431.9512329101562 64.51165008544922 425.7257690429688 68.57521057128906 C 425.014892578125 69.038330078125 424.6030578613281 69.80091857910156 424.5961303710938 70.66727447509766 C 424.5892333984375 71.57826232910156 425.0345458984375 72.42552947998047 425.787353515625 72.93384552001953 C 438.8927001953125 81.79505920410156 445.8353576660156 92.30634307861328 444.8349914550781 101.7723846435547 C 444.2466430664062 107.3340606689453 440.6344909667969 115.1394195556641 426.76708984375 120.7397689819336 C 419.4567565917969 123.6937408447266 411.0944213867188 125.2551116943359 402.5840148925781 125.2551116943359 Z" stroke="none"/>
    <path d="M 402.6789855957031 23.73977661132812 C 399.7766418457031 23.73977661132812 396.4979858398438 24.15814208984375 393.1974487304688 24.94964599609375 C 389.8856811523438 25.74382781982422 386.5330505371094 26.91845703125 383.5019836425781 28.34651947021484 C 376.812744140625 31.49814605712891 371.9653015136719 35.67120361328125 369.8526306152344 40.09706115722656 C 368.8588256835938 42.17830657958984 368.4449768066406 44.33882904052734 368.62255859375 46.51858520507812 C 368.8578491210938 49.40699005126953 370.140869140625 52.31061553955078 372.4360961914062 55.14887237548828 C 374.208740234375 57.34147644042969 376.5783081054688 58.45321655273438 379.47900390625 58.45321655273438 C 384.2420959472656 58.45321655273438 390.3112487792969 55.48758697509766 397.517822265625 49.63878631591797 C 400.3250122070312 47.35977172851562 402.9708862304688 46.20421600341797 405.3819885253906 46.20421600341797 C 408.414794921875 46.20421600341797 410.2717895507812 48.0203857421875 411.2955627441406 49.54396057128906 C 413.2265319824219 52.41750335693359 413.6858825683594 56.60687255859375 412.41259765625 59.73201751708984 C 411.1867980957031 62.73673248291016 407.7147827148438 63.42860412597656 403.6943054199219 64.22975921630859 C 400.643798828125 64.83684539794922 397.186279296875 65.52494812011719 394.6607055664062 67.47940063476562 C 391.7943420410156 69.69758605957031 390.5467834472656 73.26364898681641 390.8466491699219 78.38148498535156 C 391.0013122558594 81.02976226806641 392.3910522460938 82.935546875 395.2201232910156 84.37911987304688 C 397.792236328125 85.69154357910156 401.0993347167969 86.38810729980469 404.2975158691406 87.06173706054688 C 408.7610168457031 88.00077819824219 412.9769897460938 88.88774108886719 413.9974365234375 91.1575927734375 C 414.5080871582031 92.29598999023438 414.2091979980469 93.80859375 413.0837707519531 95.78176116943359 C 410.2060546875 100.8281707763672 407.4213256835938 101.4117889404297 405.5769958496094 101.4117889404297 C 401.7988891601562 101.4117889404297 397.5835266113281 98.44166564941406 393.1206359863281 95.29713439941406 L 393.1104736328125 95.28997802734375 C 388.1604309082031 91.80029296875 383.0418395996094 88.19178771972656 377.8200073242188 88.19178771972656 C 375.333740234375 88.19178771972656 372.989013671875 89.03750610351562 370.850830078125 90.70545959472656 C 366.9705505371094 93.73176574707031 364.4697265625 96.91702270507812 363.4178161621094 100.1727600097656 C 362.6318969726562 102.6052703857422 362.6548156738281 105.0632629394531 363.4859619140625 107.4786224365234 C 365.1210632324219 112.2343292236328 369.9653015136719 116.6295471191406 377.1263122558594 119.8546142578125 C 384.3738403320312 123.1186294555664 393.4127502441406 124.9162139892578 402.5780029296875 124.9162139892578 L 402.5840148925781 124.9162139892578 C 411.0513000488281 124.9162139892578 419.3697814941406 123.3633728027344 426.6401977539062 120.4255294799805 C 440.3515930175781 114.88818359375 443.9193725585938 107.2061004638672 444.4979553222656 101.7367706298828 C 445.4847412109375 92.39934539794922 438.5957336425781 82.00337219238281 425.59765625 73.21471405029297 C 424.7506103515625 72.6427001953125 424.24951171875 71.68950653076172 424.2572326660156 70.66457366943359 C 424.2651062011719 69.68257141113281 424.7330322265625 68.81747436523438 425.54052734375 68.29141998291016 C 431.6755065917969 64.28693389892578 435.7600708007812 57.05233001708984 435.9464416503906 49.86037445068359 C 436.1134948730469 43.43920135498047 433.1715393066406 37.68993377685547 427.6625061035156 33.67153167724609 C 421.0729064941406 28.86337280273438 414.3482971191406 24.49067687988281 404.5701904296875 23.80410003662109 C 403.966796875 23.76141357421875 403.3305053710938 23.73977661132812 402.6789855957031 23.73977661132812 M 402.6789855957031 23.06198883056641 C 403.343994140625 23.06198883056641 403.9960021972656 23.08399963378906 404.6180114746094 23.12800598144531 C 414.572998046875 23.82698822021484 421.3890075683594 28.25498962402344 428.06201171875 33.12400054931641 C 433.7569885253906 37.27799987792969 436.7969970703125 43.22798919677734 436.6239929199219 49.87800598144531 C 436.4320068359375 57.28700256347656 432.2260131835938 64.73699951171875 425.9110107421875 68.85900115966797 C 425.2969970703125 69.25900268554688 424.9410095214844 69.91900634765625 424.9349975585938 70.67000579833984 C 424.9289855957031 71.46700286865234 425.3179931640625 72.20800018310547 425.9769897460938 72.65299987792969 C 439.1900024414062 81.58700561523438 446.1860046386719 92.21299743652344 445.1719970703125 101.8079986572266 C 444.5740051269531 107.4609985351562 440.9190063476562 115.3899993896484 426.8940124511719 121.0540008544922 C 419.5440063476562 124.0240020751953 411.1380004882812 125.5940017700195 402.5840148925781 125.5940017700195 L 402.5780029296875 125.5940017700195 C 383.4339904785156 125.5940017700195 366.3529968261719 117.9020004272461 362.8450012207031 107.6989898681641 C 361.4079895019531 103.5230026245117 361.5599975585938 97.09200286865234 370.4339904785156 90.17100524902344 C 372.6940002441406 88.40800476074219 375.1799926757812 87.51400756835938 377.8200073242188 87.51400756835938 C 383.2550048828125 87.51400756835938 388.4639892578125 91.18499755859375 393.5010070800781 94.73600769042969 C 397.8779907226562 97.82000732421875 402.010986328125 100.734001159668 405.5769958496094 100.734001159668 C 407.2520141601562 100.734001159668 409.7919921875 100.1860046386719 412.4949951171875 95.44599914550781 C 413.4920043945312 93.697998046875 413.7890014648438 92.3489990234375 413.3789978027344 91.43499755859375 C 412.5010070800781 89.48200225830078 408.260009765625 88.58799743652344 404.1579895019531 87.72500610351562 C 397.7770080566406 86.38100433349609 390.5459899902344 84.85800170898438 390.1700134277344 78.42100524902344 C 389.4639892578125 66.37200164794922 397.281005859375 64.81500244140625 403.56201171875 63.56500244140625 C 407.3909912109375 62.802001953125 410.6969909667969 62.14300537109375 411.7850036621094 59.47600555419922 C 412.9779968261719 56.54800415039062 412.5459899902344 52.61998748779297 410.7330017089844 49.92200469970703 C 409.8009948730469 48.53500366210938 408.1159973144531 46.88200378417969 405.3819885253906 46.88200378417969 C 403.1310119628906 46.88200378417969 400.6289978027344 47.98600006103516 397.9450073242188 50.16500091552734 C 390.614990234375 56.11400604248047 384.4020080566406 59.13100433349609 379.47900390625 59.13100433349609 C 376.364990234375 59.13100433349609 373.8169860839844 57.93500518798828 371.9089965820312 55.57500457763672 C 366.6090087890625 49.02098846435547 367.5329895019531 43.38200378417969 369.2409973144531 39.80500030517578 C 373.9509887695312 29.93800354003906 390.6440124511719 23.06198883056641 402.6789855957031 23.06198883056641 Z" stroke="none" fill="#231f20"/>
  </g>
</svg>
