<svg xmlns="http://www.w3.org/2000/svg" width="78.448" height="100.189" viewBox="0 0 78.448 100.189">
  <g id="_4" data-name="4" transform="translate(-480.423 -25.406)" fill="#ef9f5e" stroke-miterlimit="10">
    <path d="M 531.5392456054688 125.256103515625 C 526.8915405273438 125.2559127807617 523.2410888671875 123.7012252807617 520.6895141601562 120.6352157592773 C 515.314697265625 114.1770248413086 516.595947265625 103.3917541503906 517.396240234375 99.05448913574219 C 517.5299072265625 98.33396911621094 517.3485107421875 97.63059234619141 516.885498046875 97.07421875 C 516.43798828125 96.53702545166016 515.7821655273438 96.22901916503906 515.0861206054688 96.22901916503906 C 514.9963989257812 96.22901916503906 514.9052734375 96.234130859375 514.8153076171875 96.24421691894531 C 509.1646728515625 96.88546752929688 504.7380676269531 97.18410491943359 500.8840026855469 97.18410491943359 L 500.8769836425781 97.18410491943359 C 490.8690185546875 97.18410491943359 484.7420654296875 95.06913757324219 482.1460266113281 90.71835327148438 C 479.6540832519531 86.54105377197266 480.5199890136719 80.66157531738281 484.7932434082031 72.74396514892578 C 491.9036560058594 59.57036590576172 495.3581848144531 54.02196502685547 506.1911315917969 43.50010299682617 C 508.0063171386719 41.73737716674805 513.7684326171875 37.26007843017578 520.371337890625 33.24825286865234 C 526.005126953125 29.82525444030762 533.880615234375 25.74490356445312 539.406005859375 25.74490356445312 C 541.8213500976562 25.74490356445312 543.6651611328125 26.49766540527344 544.8862915039062 27.98227882385254 C 552.3653564453125 37.08147811889648 548.5731201171875 50.03560256958008 545.5260009765625 60.44441604614258 C 544.6295776367188 63.50384140014648 543.7840576171875 66.38954162597656 543.3302612304688 68.86732482910156 C 542.805908203125 71.73056793212891 542.8999633789062 73.58860015869141 543.626220703125 74.71467590332031 C 543.9426879882812 75.20529174804688 544.5607299804688 75.88529205322266 546.2667846679688 76.12558746337891 C 553.2164916992188 77.10529327392578 558.4894409179688 81.90009307861328 558.5321044921875 87.27869415283203 C 558.5706787109375 92.09515380859375 554.3012084960938 95.64675140380859 547.1112670898438 96.77924346923828 C 545.4375 97.04266357421875 544.5122680664062 97.96591949462891 544.1112670898438 99.7728271484375 C 543.7481689453125 101.409049987793 543.8170776367188 103.7360763549805 544.0588989257812 107.2025909423828 C 544.419189453125 112.3577041625977 544.8275146484375 118.1994781494141 541.4364624023438 121.8576126098633 C 539.3443603515625 124.1154251098633 536.1513061523438 125.2267379760742 531.6748657226562 125.2551193237305 L 531.5392456054688 125.256103515625 Z M 523.6669921875 54.82810211181641 C 521.6069946289062 54.82810211181641 516.9678344726562 58.59419250488281 513.313232421875 62.11869049072266 C 509.8407897949219 65.46751403808594 505.52099609375 70.32156372070312 504.7747192382812 72.98041534423828 C 504.0134887695312 75.68730163574219 504.0483703613281 77.69641876220703 504.8756713867188 78.79041290283203 C 505.4728393554688 79.57720184326172 506.5538024902344 79.97590637207031 508.0889892578125 79.97590637207031 C 511.1693115234375 79.97590637207031 514.628662109375 78.49709320068359 516.4166870117188 77.61559295654297 C 519.0181884765625 76.33305358886719 521.2830810546875 74.74179077148438 522.052490234375 73.65594482421875 C 523.7891235351562 71.20675659179688 525.0008544921875 67.75502777099609 525.4642944335938 63.93671417236328 C 525.8753051757812 60.55036544799805 525.6031494140625 57.42618942260742 524.7540893554688 55.78339004516602 C 524.4273071289062 55.14961624145508 524.0614624023438 54.82810211181641 523.6669921875 54.82810211181641 Z" stroke="none"/>
    <path d="M 531.537109375 124.9172134399414 L 531.6727294921875 124.9162292480469 C 536.0504760742188 124.8884735107422 539.1629028320312 123.8126602172852 541.1879272460938 121.6272201538086 C 544.4791870117188 118.0767288208008 544.0763549804688 112.3127746582031 543.7208251953125 107.2261581420898 C 543.2821044921875 100.9362182617188 543.2086181640625 97.05039215087891 547.0585327148438 96.4444580078125 C 550.5531616210938 95.89403533935547 553.4239501953125 94.74284362792969 555.3605346679688 93.11536407470703 C 556.2953491210938 92.32977294921875 557.0104370117188 91.43698883056641 557.4859619140625 90.46180725097656 C 557.9642944335938 89.48090362548828 558.2022705078125 88.41085815429688 558.1931762695312 87.2813720703125 C 558.1734619140625 84.79000091552734 556.9636840820312 82.32124328613281 554.7866821289062 80.32987213134766 C 552.5689697265625 78.30127716064453 549.5264282226562 76.92734527587891 546.219482421875 76.46117401123047 C 544.3759155273438 76.20149993896484 543.6939697265625 75.44491577148438 543.3414306640625 74.89836120605469 C 541.6885986328125 72.33566284179688 543.3156127929688 66.78292846679688 545.2007446289062 60.34928894042969 C 546.7178344726562 55.16698837280273 548.4373168945312 49.29323196411133 548.8219604492188 43.63916015625 C 549.2587890625 37.21630477905273 547.8858032226562 32.16524505615234 544.6245727539062 28.19756126403809 C 543.470947265625 26.79497528076172 541.7151489257812 26.08378982543945 539.406005859375 26.08378982543945 C 533.9590454101562 26.08378982543945 526.1441040039062 30.13736152648926 520.5473022460938 33.53788757324219 C 513.9667358398438 37.53615951538086 508.2313537597656 41.99124526977539 506.42724609375 43.74320220947266 C 495.6286010742188 54.23176193237305 492.1835327148438 59.76528930664062 485.0914611816406 72.90491485595703 C 480.8796997070312 80.70858764648438 480.0114440917969 86.47863006591797 482.4370727539062 90.54470062255859 C 484.9667358398438 94.7843017578125 490.9985046386719 96.84521484375 500.8769836425781 96.84521484375 L 500.8840026855469 96.84521484375 C 504.7249755859375 96.84521484375 509.1394653320312 96.54726409912109 514.7775268554688 95.90743255615234 C 514.8799438476562 95.89594268798828 514.9837646484375 95.89012908935547 515.0861206054688 95.89012908935547 C 515.883056640625 95.89012908935547 516.6337890625 96.24260711669922 517.14599609375 96.85742950439453 C 517.6746215820312 97.49261474609375 517.8817749023438 98.29494476318359 517.7295532226562 99.11600494384766 C 516.9378662109375 103.4063034057617 515.6668701171875 114.0704498291016 520.9500122070312 120.4184341430664 C 523.433837890625 123.4030532836914 526.99560546875 124.9166641235352 531.537109375 124.9172134399414 M 523.6669921875 54.48921966552734 C 524.1985473632812 54.48921966552734 524.6656494140625 54.87248992919922 525.0551147460938 55.62778854370117 C 525.933837890625 57.32780456542969 526.2195434570312 60.52724456787109 525.8007202148438 63.97754669189453 C 525.5284423828125 66.22073364257812 524.71533203125 70.48643493652344 522.3290405273438 73.85187530517578 C 520.781494140625 76.03580474853516 513.3761596679688 80.31478881835938 508.0889892578125 80.31478881835938 C 506.4421997070312 80.31478881835938 505.2703552246094 79.87101745605469 504.6053771972656 78.99483489990234 C 503.6989135742188 77.79615783691406 503.6461486816406 75.74169158935547 504.4484558105469 72.88884735107422 C 505.2122192382812 70.16761779785156 509.4070129394531 65.41506195068359 513.0780029296875 61.87474822998047 C 514.87451171875 60.14218902587891 520.947509765625 54.48921966552734 523.6669921875 54.48921966552734 M 531.5399780273438 125.5950012207031 C 526.7860107421875 125.5950012207031 523.0479736328125 123.9990005493164 520.4290161132812 120.8520050048828 C 514.9619750976562 114.2830047607422 516.2540283203125 103.3770065307617 517.06298828125 98.99300384521484 C 517.177978515625 98.37300109863281 517.02197265625 97.76800537109375 516.625 97.29100036621094 C 516.1910400390625 96.77001190185547 515.5401000976562 96.50405120849609 514.85302734375 96.58100128173828 C 509.18701171875 97.22400665283203 504.7489929199219 97.52300262451172 500.8840026855469 97.52300262451172 C 500.8815307617188 97.52300262451172 500.8794555664062 97.52300262451172 500.8769836425781 97.52300262451172 C 490.7393798828125 97.52300262451172 484.5173645019531 95.35391235351562 481.8550109863281 90.89200592041016 C 479.2969970703125 86.60400390625 480.1600036621094 80.61500549316406 484.4949951171875 72.58300018310547 C 491.6239929199219 59.37500381469727 495.0889892578125 53.81100463867188 505.9549865722656 43.25700378417969 C 509.7250061035156 39.59600448608398 529.0089721679688 25.40600395202637 539.406005859375 25.40600395202637 C 541.9290161132812 25.40600395202637 543.8599853515625 26.20100402832031 545.1480102539062 27.76700401306152 C 552.7420043945312 37.00600433349609 548.9199829101562 50.05700302124023 545.8499755859375 60.54400253295898 C 544.0889892578125 66.55400085449219 542.427001953125 72.23000335693359 543.9110107421875 74.531005859375 C 544.1909790039062 74.96498870849609 544.7449951171875 75.56900024414062 546.3140258789062 75.79000091552734 C 553.4290161132812 76.79300689697266 558.8270263671875 81.73100280761719 558.8709716796875 87.2760009765625 C 558.9110107421875 92.27500152587891 554.5349731445312 95.9530029296875 547.1640014648438 97.11400604248047 C 544.0570068359375 97.60300445556641 543.9349975585938 100.5559997558594 544.39697265625 107.1790008544922 C 544.7620239257812 112.4020004272461 545.176025390625 118.3220062255859 541.6849975585938 122.088005065918 C 539.5260009765625 124.4180068969727 536.2520141601562 125.5650024414062 531.677001953125 125.5940017700195 L 531.5399780273438 125.5950012207031 Z M 523.6669921875 55.1670036315918 C 520.1240234375 55.1670036315918 506.4159851074219 68.38700103759766 505.1010131835938 73.07200622558594 C 504.3689880371094 75.67500305175781 504.385986328125 77.58100128173828 505.14599609375 78.58600616455078 C 505.6749877929688 79.28300476074219 506.6650085449219 79.63700103759766 508.0889892578125 79.63700103759766 L 508.0899963378906 79.63700103759766 C 513.0889892578125 79.63700103759766 520.333984375 75.49500274658203 521.7760009765625 73.46000671386719 C 525.52197265625 68.177001953125 526.0759887695312 59.07900238037109 524.4530029296875 55.93900299072266 C 524.27099609375 55.58600234985352 523.9860229492188 55.1670036315918 523.6669921875 55.1670036315918 Z" stroke="none" fill="#231f20"/>
  </g>
</svg>
