<svg xmlns="http://www.w3.org/2000/svg" width="79.063" height="99.15" viewBox="0 0 79.063 99.15">
  <g id="_5" data-name="5" transform="translate(-54.265 -147.831)" fill="#ef9f5e" stroke-miterlimit="10">
    <path d="M 90.86200714111328 246.6421051025391 L 90.86000061035156 246.6421051025391 C 85.18747711181641 246.6421051025391 66.06004333496094 245.9679107666016 58.09159088134766 237.2927551269531 C 55.48401641845703 234.4541625976562 54.32902908325195 231.0506439208984 54.6586799621582 227.1767272949219 C 54.85567855834961 224.8613128662109 55.24913024902344 222.8188781738281 55.82812881469727 221.1061859130859 C 56.40336608886719 219.4046478271484 57.18016815185547 217.974365234375 58.13697814941406 216.8550872802734 C 59.08681488037109 215.7439422607422 60.24794006347656 214.9006042480469 61.58807754516602 214.3484802246094 C 62.93387985229492 213.7940216064453 64.50810241699219 213.5128936767578 66.26700592041016 213.5128936767578 C 70.83697509765625 213.5128936767578 76.27252960205078 215.4141845703125 81.52910614013672 217.2528839111328 L 81.54273223876953 217.2576446533203 C 86.57968902587891 219.0173187255859 91.78815460205078 220.8368988037109 95.89700317382812 220.8368988037109 C 99.06960296630859 220.8358459472656 101.232666015625 219.7881622314453 102.706428527832 217.539794921875 C 105.0442810058594 213.972900390625 105.7086410522461 210.9417419433594 104.7374649047852 208.2731018066406 C 102.4083557128906 201.8734436035156 90.87496948242188 198.4002532958984 81.60772705078125 195.6095123291016 C 75.60643005371094 193.8023529052734 70.42353820800781 192.2416381835938 68.20581817626953 190.1106262207031 C 61.66401672363281 183.8229217529297 61.22233963012695 171.6948852539062 64.16712951660156 162.9643249511719 C 66.8466796875 155.0181427001953 72.00772857666016 150.0419616699219 78.32691955566406 149.3116607666016 C 82.01982879638672 148.8852386474609 89.413330078125 148.1698913574219 97.43800354003906 148.1698913574219 C 113.3882064819336 148.1698913574219 123.5641021728516 150.8673858642578 127.6830291748047 156.1874542236328 C 129.6905822753906 158.7822875976562 130.2292175292969 161.9512176513672 129.2839050292969 165.6061248779297 C 128.6465606689453 168.0711822509766 126.9693069458008 169.7421112060547 124.1562881469727 170.7144470214844 C 121.4057540893555 171.6651916503906 118.0047073364258 171.787109375 115.349006652832 171.787109375 C 113.224494934082 171.787109375 110.9632186889648 171.6877136230469 108.7764053344727 171.5915985107422 L 108.7268753051758 171.5894165039062 L 108.6703948974609 171.5869445800781 C 106.51806640625 171.4926300048828 104.2924652099609 171.3950958251953 102.2330017089844 171.3950958251953 C 98.24198913574219 171.3950958251953 93.41632843017578 171.7077941894531 91.50906372070312 174.1462097167969 C 90.46905517578125 175.4751129150391 90.28617858886719 177.4221954345703 90.95008087158203 180.0985870361328 C 91.15023803710938 180.9062042236328 92.30810546875 181.7043609619141 94.70435333251953 182.6864624023438 C 96.67265319824219 183.4931640625 99.12750244140625 184.2803955078125 101.5015182495117 185.0417022705078 C 107.9578399658203 187.1133270263672 115.989501953125 189.6904449462891 122.3432006835938 194.2982482910156 C 125.773063659668 196.7856292724609 128.400634765625 199.6688537597656 130.1529235839844 202.8678131103516 C 132.1772613525391 206.5634613037109 133.1258392333984 210.8391265869141 132.9722900390625 215.5760345458984 C 132.7467346191406 222.5516204833984 128.8676452636719 229.6627197265625 122.0495758056641 235.5994110107422 C 118.9733200073242 238.2780151367188 115.3439025878906 240.6472015380859 111.5537033081055 242.4508666992188 C 107.7709045410156 244.2510070800781 103.8034896850586 245.4996795654297 100.0803909301758 246.0619049072266 C 97.60623168945312 246.4360504150391 94.33244323730469 246.6421051025391 90.86200714111328 246.6421051025391 Z" stroke="none"/>
    <path d="M 97.43800354003906 148.5087738037109 C 89.43030548095703 148.5087738037109 82.05147552490234 149.2227325439453 78.36582183837891 149.6483154296875 C 72.18233489990234 150.3629150390625 67.12416076660156 155.2558746337891 64.48824310302734 163.0726318359375 C 62.98607635498047 167.5261993408203 62.43400573730469 172.7649078369141 62.97358703613281 177.4455108642578 C 63.58137512207031 182.7177581787109 65.47187805175781 187.0128173828125 68.44063568115234 189.8662567138672 C 70.59944915771484 191.940673828125 75.74610137939453 193.490478515625 81.7054443359375 195.2850036621094 C 91.04514312744141 198.0975799560547 102.6687316894531 201.5979156494141 105.0559310913086 208.1572265625 C 106.0661926269531 210.9332427978516 105.3903732299805 214.0630798339844 102.989860534668 217.7255706787109 C 101.4476623535156 220.078369140625 99.19456481933594 221.1747131347656 95.89700317382812 221.1757965087891 C 91.73065948486328 221.1757965087891 86.49462127685547 219.3465728759766 81.43097686767578 217.5775756835938 L 81.41722106933594 217.5727844238281 C 76.18734741210938 215.7434234619141 70.77940368652344 213.8517761230469 66.26700592041016 213.8517761230469 C 62.82389068603516 213.8517761230469 60.24880218505859 214.9062042236328 58.39459228515625 217.0752716064453 C 56.52555847167969 219.2616882324219 55.38223266601562 222.6699676513672 54.99636840820312 227.2054595947266 C 54.67507934570312 230.9809417724609 55.80043029785156 234.2976684570312 58.34115600585938 237.0634918212891 C 60.14041900634766 239.0223236083984 62.67240142822266 240.7100677490234 65.86679077148438 242.079833984375 C 68.56623077392578 243.2373657226562 71.76129150390625 244.1786346435547 75.36323547363281 244.8774871826172 C 81.75679016113281 246.1179962158203 87.81676483154297 246.30322265625 90.86200714111328 246.30322265625 C 94.31600189208984 246.30322265625 97.57180023193359 246.0985260009766 100.0297927856445 245.726806640625 C 103.7203903198242 245.1694946289062 107.6549453735352 243.9308776855469 111.408073425293 242.1448516845703 C 115.1708602905273 240.354248046875 118.7736740112305 238.0024871826172 121.827033996582 235.3438415527344 C 128.5732574462891 229.4696960449219 132.4110870361328 222.4454650878906 132.6335601806641 215.5650482177734 C 132.7119140625 213.1480865478516 132.5013427734375 210.8391876220703 132.0076751708984 208.7024688720703 C 131.5455169677734 206.7020416259766 130.8214721679688 204.7937622070312 129.8556823730469 203.0306396484375 C 128.1033477783203 199.8315582275391 125.5809173583984 197.0649108886719 122.1442337036133 194.5725708007812 C 115.8343887329102 189.9965972900391 107.8313217163086 187.4286499023438 101.3980331420898 185.3644104003906 C 94.98211669921875 183.3069305419922 91.05516052246094 181.9312896728516 90.62114715576172 180.18017578125 C 89.93048858642578 177.3958740234375 90.13364410400391 175.3538055419922 91.24213409423828 173.9374084472656 C 92.16984558105469 172.7513275146484 93.75566101074219 171.9565734863281 96.09016418457031 171.5077667236328 C 98.19545745849609 171.1030120849609 100.6042785644531 171.0562133789062 102.2330017089844 171.0562133789062 C 104.2998886108398 171.0562133789062 106.5292587280273 171.1538848876953 108.6852188110352 171.2483825683594 L 108.7914047241211 171.2530364990234 C 110.9745330810547 171.3489990234375 113.2319717407227 171.4482269287109 115.349006652832 171.4482269287109 C 117.9782028198242 171.4482269287109 121.3427200317383 171.3283996582031 124.0455780029297 170.3941497802734 C 126.7429351806641 169.4617919921875 128.3490753173828 167.8678741455078 128.955810546875 165.5212707519531 C 129.8735046386719 161.9730834960938 129.3550720214844 158.9024658203125 127.4150466918945 156.3949279785156 C 125.4243469238281 153.8236999511719 121.9108047485352 151.8512420654297 116.9720001220703 150.5323333740234 C 111.943977355957 149.1896057128906 105.3717880249023 148.5087738037109 97.43800354003906 148.5087738037109 M 97.43800354003906 147.8309936523438 C 113.4980010986328 147.8309936523438 123.7640075683594 150.5720062255859 127.9509887695312 155.9799957275391 C 130.0260009765625 158.6620025634766 130.5850067138672 161.9290008544922 129.6119995117188 165.6909942626953 C 128.14599609375 171.3609924316406 121.5790023803711 172.1260070800781 115.349006652832 172.1260070800781 C 113.2009887695312 172.1260070800781 110.9190063476562 172.0249938964844 108.7120056152344 171.9279937744141 C 106.5440063476562 171.8329925537109 104.3030014038086 171.7339935302734 102.2330017089844 171.7339935302734 C 98.31900024414062 171.7339935302734 93.59300231933594 172.0319976806641 91.7760009765625 174.3549957275391 C 90.80400085449219 175.5970001220703 90.64200592041016 177.4490051269531 91.27900695800781 180.0169982910156 C 91.65300750732422 181.5260009765625 96.94000244140625 183.2230072021484 101.6050033569336 184.718994140625 C 114.495002746582 188.8549957275391 133.9750061035156 195.10400390625 133.3110046386719 215.5870056152344 C 132.8170013427734 230.8650054931641 115.4280014038086 244.0870056152344 100.130989074707 246.3970031738281 C 97.63800048828125 246.7740020751953 94.34600067138672 246.9810028076172 90.86200714111328 246.9810028076172 L 90.86000061035156 246.9810028076172 C 85.15300750732422 246.9810028076172 65.90400695800781 246.2989959716797 57.84199523925781 237.5220031738281 C 55.1669921875 234.6100006103516 53.98300170898438 231.1199951171875 54.32099914550781 227.1479949951172 C 55.12100219726562 217.7449951171875 59.02799987792969 213.1739959716797 66.26700592041016 213.1739959716797 C 70.89000701904297 213.1739959716797 76.35500335693359 215.0839996337891 81.64100646972656 216.9329986572266 C 86.656005859375 218.6849975585938 91.84200286865234 220.4980010986328 95.89700317382812 220.4980010986328 L 95.89900207519531 220.4980010986328 C 98.94400024414062 220.4969940185547 101.0170059204102 219.4989929199219 102.4229888916016 217.35400390625 C 104.6980056762695 213.8829956054688 105.3510055541992 210.9499969482422 104.4190063476562 208.3890075683594 C 102.1480026245117 202.1490020751953 90.70500183105469 198.7030029296875 81.51000213623047 195.9340057373047 C 75.46600341796875 194.1139984130859 70.24700164794922 192.5420074462891 67.97100067138672 190.3549957275391 C 61.3280029296875 183.9700012207031 60.86700439453125 171.6880035400391 63.84600067138672 162.8560028076172 C 66.56900024414062 154.781005859375 71.83300018310547 149.7209930419922 78.28800201416016 148.9750061035156 C 81.98600769042969 148.5480041503906 89.39300537109375 147.8309936523438 97.43800354003906 147.8309936523438 Z" stroke="none" fill="#231f20"/>
  </g>
</svg>
