<svg xmlns="http://www.w3.org/2000/svg" width="74.346" height="95.494" viewBox="0 0 74.346 95.494">
  <g id="_6" data-name="6" transform="translate(-160.959 -149.988)" fill="#ef9f5e" stroke-miterlimit="10">
    <path d="M 193.6739959716797 245.1430969238281 L 193.6719970703125 245.1430969238281 C 182.5262756347656 245.1430969238281 173.5632476806641 241.5657348632812 168.4339752197266 235.0699768066406 C 158.5849456787109 222.5984191894531 158.9330902099609 201.0128326416016 169.4407958984375 172.6467437744141 C 174.1467590332031 159.9454040527344 187.9092864990234 151.6644439697266 206.2555389404297 150.4952087402344 C 207.4610595703125 150.4184417724609 209.3826446533203 150.3269195556641 211.6909942626953 150.3269195556641 C 217.5079803466797 150.3269195556641 222.3013153076172 150.8825378417969 225.9378356933594 151.9783630371094 C 230.6305236816406 153.3924560546875 233.2872314453125 155.6911163330078 233.8341979980469 158.8105316162109 C 234.4024353027344 162.0520782470703 231.8164367675781 164.9451751708984 225.9284515380859 167.6551361083984 C 220.7675476074219 170.0304565429688 214.1316680908203 171.7948150634766 208.2769622802734 173.3514709472656 C 204.8437194824219 174.2643280029297 201.8820495605469 175.0517883300781 200.6401062011719 175.6441192626953 C 196.8698883056641 177.4413452148438 195.7213745117188 178.9155120849609 195.8834686279297 179.6318206787109 C 196.0948791503906 180.5639953613281 197.9366607666016 181.2709503173828 198.7187194824219 181.5316314697266 C 200.4661560058594 182.1141052246094 202.5939025878906 182.4348907470703 204.7100067138672 182.4348907470703 L 205.0628814697266 182.431884765625 C 205.8708648681641 182.4164123535156 206.5968627929688 182.4089202880859 207.2859954833984 182.4089202880859 C 216.1309051513672 182.4089202880859 226.9578704833984 183.533203125 232.2163848876953 192.3003234863281 C 234.0531768798828 195.362060546875 234.9784088134766 199.2518463134766 234.9663391113281 203.8616943359375 C 234.955322265625 208.0783386230469 234.1300201416016 212.7814483642578 232.5796661376953 217.4625701904297 C 229.4471740722656 226.9208679199219 223.8101959228516 235.118408203125 217.8685455322266 238.8561553955078 C 211.6079406738281 242.7928314208984 202.563232421875 245.1430969238281 193.6739959716797 245.1430969238281 Z M 205.0189971923828 206.1551055908203 C 202.4876556396484 206.1551055908203 199.2366180419922 207.2990264892578 196.3224334716797 209.2150726318359 C 193.1516418457031 211.2998657226562 190.8489074707031 213.9419708251953 189.8384246826172 216.6546936035156 C 188.0996856689453 221.3199615478516 188.0183563232422 224.8374328613281 189.5966796875 227.1093444824219 C 191.448486328125 229.7757720947266 195.2943420410156 230.1739196777344 197.4219970703125 230.1739196777344 C 197.8550262451172 230.1739196777344 198.3099517822266 230.1578216552734 198.7741088867188 230.1261138916016 C 204.5442504882812 229.7222595214844 210.0232849121094 226.2671966552734 212.7331848144531 221.3239135742188 C 214.1557922363281 218.7281951904297 214.3057708740234 215.5341644287109 213.1446838378906 212.5607299804688 C 211.9967498779297 209.6196899414062 209.7793731689453 207.3475646972656 207.2132110595703 206.4828491210938 C 206.5671234130859 206.2653656005859 205.8289337158203 206.1551055908203 205.0189971923828 206.1551055908203 Z" stroke="none"/>
    <path d="M 211.6909942626953 150.6657867431641 C 209.3917083740234 150.6657867431641 207.477783203125 150.7569427490234 206.277099609375 150.8334197998047 C 188.0684204101562 151.9938812255859 174.4166259765625 160.1923980712891 169.7585906982422 172.7644348144531 C 164.5345458984375 186.8670043945312 161.8045196533203 199.3553466796875 161.6443328857422 209.8825531005859 C 161.4854125976562 220.3267364501953 163.8592529296875 228.7303466796875 168.6999359130859 234.8599548339844 C 173.7635955810547 241.2725982666016 182.6321716308594 244.80419921875 193.6739959716797 244.80419921875 C 202.5020751953125 244.80419921875 211.4793548583984 242.4733581542969 217.6880798339844 238.5692901611328 C 223.5662078857422 234.8715057373047 229.1490631103516 226.7430725097656 232.2579498291016 217.3560333251953 C 233.7971496582031 212.7085571289062 234.6165161132812 208.0419921875 234.62744140625 203.8607940673828 C 234.6393432617188 199.3135681152344 233.7303619384766 195.4827270507812 231.9257507324219 192.4746398925781 C 226.7547302246094 183.8533782958984 216.0415496826172 182.7477874755859 207.2859954833984 182.7477874755859 C 206.5987243652344 182.7477874755859 205.8748626708984 182.7552795410156 205.072998046875 182.7706604003906 L 205.0657806396484 182.7707672119141 L 204.7100067138672 182.7737731933594 C 202.5584259033203 182.7737731933594 200.3926239013672 182.4468078613281 198.6115417480469 181.8531341552734 C 197.3423461914062 181.4300689697266 195.7814636230469 180.7142944335938 195.5529174804688 179.7066040039062 C 195.2954711914062 178.5689086914062 197.1427307128906 176.9358520507812 200.4942169189453 175.3382263183594 C 201.7645568847656 174.7323608398438 204.7402496337891 173.941162109375 208.1898345947266 173.0239562988281 C 214.0313568115234 171.4708099365234 220.6522827148438 169.7104339599609 225.7867431640625 167.3472900390625 C 228.5097808837891 166.0940093994141 230.5425109863281 164.7787628173828 231.8284912109375 163.4380645751953 C 233.2353363037109 161.9713592529297 233.7822113037109 160.476806640625 233.5003814697266 158.8690490722656 C 233.2285308837891 157.3186492919922 232.39892578125 155.967041015625 231.0345916748047 154.8517456054688 C 229.7700500488281 153.8180236816406 228.0223541259766 152.96044921875 225.8400573730469 152.3028411865234 C 222.2352600097656 151.2165679931641 217.4748382568359 150.6657867431641 211.6909942626953 150.6657867431641 M 197.4219970703125 230.5127868652344 C 195.2281341552734 230.5127868652344 191.2581024169922 230.0957489013672 189.318359375 227.3027038574219 C 187.6728973388672 224.9341888427734 187.7410430908203 221.3118438720703 189.5208435058594 216.5364074707031 C 190.5563049316406 213.7566528320312 192.9056854248047 211.0559844970703 196.1362457275391 208.9319000244141 C 199.1035003662109 206.98095703125 202.4241485595703 205.8162078857422 205.0189971923828 205.8162078857422 C 205.8657684326172 205.8162078857422 206.6403350830078 205.9324340820312 207.3214263916016 206.1616973876953 C 209.9814910888672 207.0580596923828 212.2764129638672 209.4041595458984 213.4603576660156 212.4374542236328 C 214.6580200195312 215.5045471191406 214.5012969970703 218.8028869628906 213.0303497314453 221.48681640625 C 210.2664337158203 226.5286865234375 204.6800384521484 230.0524749755859 198.7972106933594 230.4642028808594 C 198.3253936767578 230.4964447021484 197.8627014160156 230.5127868652344 197.4219970703125 230.5127868652344 M 211.6909942626953 149.9880065917969 C 221.2440032958984 149.9880065917969 232.8979949951172 151.5090026855469 234.1679840087891 158.7519989013672 C 235.5189971923828 166.4589996337891 219.8240051269531 170.6320037841797 208.3639984130859 173.6790008544922 C 204.9490051269531 174.5870056152344 202 175.3710021972656 200.7859954833984 175.9499969482422 C 196.7960052490234 177.8520050048828 196.1329956054688 179.1990051269531 196.2140045166016 179.5570068359375 C 196.4459991455078 180.5800018310547 200.1150054931641 182.0959930419922 204.7100067138672 182.0959930419922 L 205.0599975585938 182.0930023193359 C 205.7899932861328 182.0789947509766 206.5319976806641 182.0700073242188 207.2859954833984 182.0700073242188 C 216.2200012207031 182.0700073242188 227.1609954833984 183.2129974365234 232.5070037841797 192.1260070800781 C 240.3240051269531 205.156005859375 230.5610046386719 231.2720031738281 218.0489959716797 239.1430053710938 C 211.7369995117188 243.1119995117188 202.6239929199219 245.4819946289062 193.6739959716797 245.4819946289062 L 193.6719970703125 245.4819946289062 C 182.4210052490234 245.4819946289062 173.3630065917969 241.8589935302734 168.1679840087891 235.2799987792969 C 158.2420043945312 222.7109985351562 158.5720062255859 201.0119934082031 169.1230010986328 172.5290069580078 C 173.8769989013672 159.697998046875 187.75 151.3350067138672 206.2339935302734 150.1569976806641 C 207.4429931640625 150.0800018310547 209.3710021972656 149.9880065917969 211.6909942626953 149.9880065917969 Z M 197.4219970703125 229.8350067138672 C 197.8670043945312 229.8350067138672 198.3119964599609 229.8179931640625 198.7510070800781 229.7879943847656 C 204.4089965820312 229.3919982910156 209.7799987792969 226.0059967041016 212.4360046386719 221.1609954833984 C 213.8099975585938 218.6540069580078 213.9539947509766 215.5650024414062 212.8289947509766 212.6840057373047 C 211.7169952392578 209.8350067138672 209.5769958496094 207.6369934082031 207.1049957275391 206.8040008544922 C 206.4960021972656 206.5989990234375 205.7940063476562 206.4940032958984 205.0189971923828 206.4940032958984 C 200.02099609375 206.4940032958984 192.2769927978516 211.0789947509766 190.156005859375 216.7729949951172 C 188.4579925537109 221.3289947509766 188.3639984130859 224.7409973144531 189.875 226.9160003662109 C 191.6390075683594 229.4559936523438 195.3600006103516 229.8350067138672 197.4219970703125 229.8350067138672 Z" stroke="none" fill="#231f20"/>
  </g>
</svg>
