<svg xmlns="http://www.w3.org/2000/svg" width="68.348" height="100.085" viewBox="0 0 68.348 100.085">
  <g id="_7" data-name="7" transform="translate(-264.254 -147.216)" fill="#ef9f5e" stroke-miterlimit="10">
    <path d="M 284.9179992675781 246.9620971679688 C 280.5628356933594 246.9620971679688 276.4056396484375 245.4817504882812 273.2122192382812 242.7937316894531 C 272.0078125 241.7796325683594 271.3069763183594 240.5315551757812 271.1292114257812 239.0842132568359 C 270.9749145507812 237.8278961181641 271.2067565917969 236.3770446777344 271.8182678222656 234.77197265625 C 272.9539489746094 231.7911224365234 275.1205139160156 228.8960571289062 276.7024841308594 226.7821807861328 L 276.7446594238281 226.7258911132812 C 277.22802734375 226.0807952880859 277.6454467773438 225.523681640625 277.9340515136719 225.0853576660156 C 279.7921752929688 222.26171875 281.7453918457031 219.4422607421875 283.8132934570312 216.4572906494141 C 291.6001586914062 205.216064453125 299.6493835449219 193.5960540771484 302.9315490722656 181.2319488525391 C 303.4155578613281 179.4169311523438 303.2388000488281 177.9737396240234 302.3910827636719 176.8202972412109 C 301.126220703125 175.0975494384766 298.3504943847656 173.9068756103516 293.9054260253906 173.1803436279297 C 290.1099853515625 172.5599822998047 285.6581115722656 172.3605194091797 281.7302856445312 172.1845397949219 C 277.5425720214844 171.9971466064453 273.5891418457031 171.8202362060547 270.7717590332031 171.2097930908203 C 269.0290222167969 170.8315582275391 267.5050354003906 169.63818359375 266.6951599121094 168.0175170898438 C 264.4309692382812 163.4783935546875 264.0008544921875 159.9875793457031 265.38037109375 157.3458709716797 C 267.3179321289062 153.6332702636719 272.4266357421875 152.1812744140625 279.5011901855469 151.1432952880859 C 281.25439453125 150.8848419189453 283.0419921875 150.6096649169922 284.8717651367188 150.3269348144531 C 293.2916870117188 149.0273284912109 302.8312072753906 147.5549011230469 311.8519897460938 147.5549011230469 C 317.2432250976562 147.5549011230469 321.9363098144531 148.0619964599609 326.1994323730469 149.1051940917969 C 328.3862915039062 149.6401824951172 330.0083312988281 150.9801177978516 331.0205078125 153.0877075195312 C 331.9976501464844 155.1217041015625 332.4013366699219 157.9206390380859 332.2203369140625 161.4067687988281 C 332.0372009277344 164.9344329833984 331.2490234375 169.2719116210938 329.877685546875 174.2986755371094 C 328.5031127929688 179.3372192382812 326.4981994628906 185.2306823730469 323.9186096191406 191.8153686523438 C 321.3432312011719 198.3892669677734 318.1106567382812 205.867431640625 314.3106994628906 214.0421447753906 L 313.5394897460938 215.7065277099609 C 313.07763671875 216.7126922607422 312.5485229492188 217.943603515625 311.9358520507812 219.3688812255859 L 311.9146728515625 219.4181671142578 L 311.9123840332031 219.4234771728516 C 308.6425170898438 227.0229187011719 303.7011108398438 238.5072479248047 297.9585266113281 242.5621795654297 C 293.8799743652344 245.4406127929688 289.3706359863281 246.9620971679688 284.9179992675781 246.9620971679688 Z" stroke="none"/>
    <path d="M 311.8519897460938 147.8937835693359 C 302.8572998046875 147.8937835693359 293.3315124511719 149.3640899658203 284.9235229492188 150.6618347167969 C 283.0939331054688 150.9445495605469 281.3063354492188 151.2197418212891 279.5503845214844 151.4786071777344 C 272.5785827636719 152.5014801025391 267.5519409179688 153.9173583984375 265.6807861328125 157.5027465820312 C 264.3551330566406 160.0412902832031 264.7861633300781 163.4312896728516 266.998291015625 167.8660125732422 C 267.7627258300781 169.3957214355469 269.2002868652344 170.5219268798828 270.8435363769531 170.8785858154297 C 273.6327514648438 171.4829254150391 277.5723876953125 171.6592254638672 281.7452392578125 171.8459777832031 C 285.6824340820312 172.0223693847656 290.1448974609375 172.2223052978516 293.9600219726562 172.8458557128906 C 298.4970397949219 173.5874176025391 301.3442687988281 174.8218994140625 302.6641540527344 176.6195983886719 C 303.5766296386719 177.8611602783203 303.7712097167969 179.3985595703125 303.2590942382812 181.3188934326172 C 299.9617309570312 193.7403106689453 291.8953247070312 205.3850860595703 284.094482421875 216.6464538574219 L 284.0915222167969 216.6507415771484 C 282.0249328613281 219.6338500976562 280.0729675292969 222.4515228271484 278.2171020507812 225.271728515625 C 277.9228515625 225.7186431884766 277.5025634765625 226.2795867919922 277.015869140625 226.9290924072266 L 276.9737854003906 226.9852752685547 C 275.4038391113281 229.0830993652344 273.2536926269531 231.9561920166016 272.1349487304688 234.8926544189453 C 270.8633728027344 238.2301635742188 271.2871704101562 240.7298431396484 273.4304504394531 242.5344390869141 C 276.5628662109375 245.1711273193359 280.642578125 246.6232147216797 284.9179992675781 246.6232147216797 C 289.3002624511719 246.6232147216797 293.7420654296875 245.1231536865234 297.7630310058594 242.2853240966797 C 303.4275512695312 238.2855377197266 308.3462524414062 226.8540344238281 311.60107421875 219.28955078125 L 311.6244812011719 219.235107421875 C 312.238037109375 217.8077697753906 312.7679138183594 216.5750732421875 313.2319946289062 215.5640411376953 L 314.0033874511719 213.8992919921875 C 317.8004150390625 205.7308807373047 321.0302124023438 198.2591857910156 323.6030578613281 191.6917419433594 C 326.1782531738281 185.1182861328125 328.1793518066406 179.2364044189453 329.5507202148438 174.2094879150391 C 330.9156799316406 169.2060699462891 331.7000122070312 164.8927001953125 331.8818969726562 161.3891906738281 C 332.0599365234375 157.9603729248047 331.6673278808594 155.2167358398438 330.7149963378906 153.2344207763672 C 329.7488403320312 151.2226409912109 328.2025146484375 149.9441223144531 326.118896484375 149.4343719482422 C 321.8824768066406 148.3977203369141 317.2157287597656 147.8937835693359 311.8519897460938 147.8937835693359 M 311.8519897460938 147.2160034179688 C 317.2690124511719 147.2160034179688 321.989013671875 147.7259979248047 326.2799987792969 148.7760009765625 C 328.5690002441406 149.3359985351562 330.2680053710938 150.7380065917969 331.3259887695312 152.9409942626953 C 335.3479919433594 161.3130035400391 329.8829956054688 181.3459930419922 314.6180114746094 214.1849975585938 L 313.8469848632812 215.8489990234375 C 313.3819885253906 216.8619995117188 312.8389892578125 218.1259918212891 312.2260131835938 219.552001953125 C 308.9400024414062 227.1889953613281 303.9760131835938 238.7279968261719 298.1539916992188 242.8390045166016 C 294.0180053710938 245.7579956054688 289.4419860839844 247.3009948730469 284.9179992675781 247.3009948730469 C 280.4830017089844 247.3009948730469 276.2479858398438 245.7919921875 272.9939880371094 243.052978515625 C 267.5390014648438 238.4600067138672 273.3240051269531 230.7310028076172 276.4320068359375 226.5780029296875 C 276.9309997558594 225.9120025634766 277.3599853515625 225.3410034179688 277.6510009765625 224.8990020751953 C 279.5119934082031 222.0709991455078 281.4670104980469 219.2489929199219 283.5369873046875 216.2610015869141 C 291.3049926757812 205.0469970703125 299.3370056152344 193.4519958496094 302.60400390625 181.1450042724609 C 303.0599975585938 179.4349975585938 302.8999938964844 178.0850067138672 302.1180114746094 177.02099609375 C 299.3970031738281 173.3150024414062 289.5920104980469 172.8759918212891 281.7130126953125 172.5229949951172 C 277.5119934082031 172.3350067138672 273.5429992675781 172.1569976806641 270.7000122070312 171.5410003662109 C 268.8569946289062 171.1410064697266 267.2470092773438 169.8800048828125 266.3919982910156 168.1690063476562 C 264.0759887695312 163.5260009765625 263.64599609375 159.9349975585938 265.0799865722656 157.1889953613281 C 267.0840148925781 153.3489990234375 272.2749938964844 151.8609924316406 279.4519958496094 150.8079986572266 C 281.2019958496094 150.5500030517578 282.9949951171875 150.2740020751953 284.8200073242188 149.9920043945312 C 293.2489929199219 148.6909942626953 302.8039855957031 147.2160034179688 311.8519897460938 147.2160034179688 Z" stroke="none" fill="#231f20"/>
  </g>
</svg>
