<svg xmlns="http://www.w3.org/2000/svg" width="80.915" height="108.47" viewBox="0 0 80.915 108.47">
  <g id="_8" data-name="8" transform="translate(-363.837 -145.364)" fill="#ef9f5e" stroke-miterlimit="10">
    <path d="M 404.4509887695312 253.4951019287109 C 387.5970764160156 253.4951019287109 373.3009643554688 245.3582153320312 367.1416625976562 232.2597961425781 C 363.2238159179688 223.9283294677734 363.1818542480469 216.4477996826172 367.0169677734375 210.0260162353516 C 368.4274291992188 207.6641998291016 370.3598022460938 205.4643707275391 372.7603759765625 203.4876098632812 C 374.5070495605469 202.0493011474609 376.4569091796875 200.7601470947266 378.5557861328125 199.6559295654297 C 380.9664611816406 198.3878173828125 381.9298706054688 195.4832458496094 380.7490539550781 193.0433654785156 C 376.6231384277344 184.5115966796875 370.7256469726562 168.5420837402344 377.5852355957031 157.4482269287109 C 382.2843017578125 149.8453063964844 392.1099853515625 145.8943023681641 406.7893676757812 145.7048645019531 L 407.1428833007812 145.702880859375 C 416.3405456542969 145.7028961181641 427.0126953125 150.5018768310547 434.3296203613281 157.9288482666016 C 439.6257019042969 163.3049774169922 442.4957885742188 169.3739776611328 442.4111633300781 175.0179138183594 C 442.2789916992188 183.7676849365234 438.4121398925781 190.3433074951172 430.2419128417969 195.7117767333984 C 429.6961669921875 196.0702667236328 429.3923034667969 196.6492767333984 429.408203125 197.30029296875 C 429.4241333007812 197.9532928466797 429.7570495605469 198.5191497802734 430.3215637207031 198.8527526855469 C 440.7676696777344 205.0291290283203 445.6734313964844 213.9149322509766 444.1350708007812 223.8732604980469 C 442.1728515625 236.5593872070312 429.9342346191406 248.9720611572266 416.2726440429688 252.1318206787109 C 412.3559875488281 253.0364227294922 408.3785705566406 253.4951019287109 404.4509887695312 253.4951019287109 Z M 406.3009948730469 210.3690948486328 C 404.6200256347656 210.3690948486328 403.0048522949219 210.6207275390625 401.6300964355469 211.0967712402344 C 393.9071655273438 213.7720031738281 390.1407775878906 220.2075347900391 389.9094848632812 225.0548400878906 C 389.8150634765625 227.0376434326172 390.708251953125 229.1314392089844 392.4244995117188 230.9505615234375 C 395.1011962890625 233.7889862060547 399.3295288085938 235.5128631591797 403.7352600097656 235.5618896484375 L 404.0105285644531 235.5639038085938 C 409.1286315917969 235.5639190673828 413.3622436523438 234.0023803710938 416.256103515625 231.0481567382812 C 418.8494873046875 228.3993530273438 420.1748046875 224.8465881347656 420.0888061523438 220.7738494873047 C 419.9462890625 214.0157318115234 412.8786315917969 210.3690948486328 406.3009948730469 210.3690948486328 Z M 407.3680114746094 168.9510955810547 C 405.7363891601562 168.9510955810547 404.1280822753906 169.2096557617188 402.7170104980469 169.6987915039062 C 397.0956726074219 171.6455535888672 395.3564453125 176.4802093505859 396.5437622070312 180.2498168945312 C 397.0301208496094 181.7937316894531 398.5235595703125 183.2173919677734 400.7489929199219 184.2586059570312 C 402.9313354492188 185.2796173095703 405.6172485351562 185.8419189453125 408.31201171875 185.8419189453125 C 408.9352416992188 185.8419189453125 409.5585632324219 185.8121032714844 410.1647033691406 185.7533111572266 C 413.2822265625 185.4476623535156 415.9761657714844 183.9985198974609 417.55615234375 181.7774353027344 C 418.6480407714844 180.2420196533203 419.0661926269531 178.4980316162109 418.7034606933594 176.9926300048828 C 416.9065246582031 169.531005859375 409.5728759765625 168.9510955810547 407.3680114746094 168.9510955810547 Z" stroke="none"/>
    <path d="M 407.1446533203125 146.0417785644531 L 406.7937316894531 146.0437316894531 C 392.2378234863281 146.2315521240234 382.5076599121094 150.1285095214844 377.8734741210938 157.62646484375 C 371.0990295410156 168.5825805664062 376.95849609375 184.4266204833984 381.0540771484375 192.8957366943359 C 382.31494140625 195.5010070800781 381.286865234375 198.6021881103516 378.7135925292969 199.9558410644531 C 376.6351318359375 201.0493011474609 374.7046508789062 202.3255767822266 372.9757995605469 203.7492370605469 C 370.6053466796875 205.7011871337891 368.6983947753906 207.8714599609375 367.3079223632812 210.1997680664062 C 363.5341796875 216.5188293457031 363.5814208984375 223.8923645019531 367.4483642578125 232.1155853271484 C 373.5512084960938 245.0939025878906 387.7297668457031 253.1562194824219 404.4509887695312 253.1562194824219 C 408.3529663085938 253.1562194824219 412.3047180175781 252.700439453125 416.1962585449219 251.8016510009766 C 422.7409973144531 250.2879180908203 429.1895446777344 246.5679931640625 434.3539733886719 241.3271331787109 C 439.5084228515625 236.0963897705078 442.8631591796875 229.87939453125 443.8001403808594 223.8215179443359 C 444.5535888671875 218.9441070556641 443.7591857910156 214.3360137939453 441.4389953613281 210.1252288818359 C 439.1040649414062 205.8877868652344 435.3055725097656 202.1933135986328 430.1491394042969 199.1445159912109 C 429.4818115234375 198.7501525878906 429.0882568359375 198.0809631347656 429.0694274902344 197.3085632324219 C 429.0505981445312 196.5379638671875 429.4101257324219 195.8527069091797 430.0558166503906 195.4285583496094 C 434.1419677734375 192.7436218261719 437.0862121582031 189.8080596923828 439.0567321777344 186.4541473388672 C 441.0200805664062 183.1124572753906 442.0064697265625 179.3699340820312 442.072265625 175.0128326416016 C 442.1555480957031 169.4603729248047 439.320068359375 163.4776153564453 434.0881958007812 158.1666717529297 C 426.8326416015625 150.8019866943359 416.2572631835938 146.0429534912109 407.1446533203125 146.0417785644531 M 408.31201171875 186.1807861328125 C 405.5686645507812 186.1807861328125 402.8317260742188 185.6071472167969 400.6054077148438 184.5655517578125 C 398.29296875 183.4836578369141 396.7357177734375 181.9871368408203 396.2205200195312 180.3516235351562 C 394.9840087890625 176.4258728027344 396.7803955078125 171.3961029052734 402.6059875488281 169.3786010742188 C 404.0523376464844 168.8772125244141 405.6990051269531 168.6122131347656 407.3680114746094 168.6122131347656 C 409.6355285644531 168.6122131347656 417.1780090332031 169.2108306884766 419.0329284667969 176.9132232666016 C 419.4186401367188 178.5140075683594 418.9810485839844 180.3585205078125 417.8323059082031 181.9738922119141 C 416.1954650878906 184.2748870849609 413.4129333496094 185.7753753662109 410.1974182128906 186.0906372070312 C 409.58056640625 186.1504669189453 408.9462280273438 186.1807861328125 408.31201171875 186.1807861328125 M 404.0130004882812 235.9027862548828 L 403.7314758300781 235.9007568359375 C 399.2356262207031 235.8507385253906 394.9165344238281 234.0871124267578 392.177978515625 231.1831207275391 C 390.3979797363281 229.2964324951172 389.4721069335938 227.1143188476562 389.5709533691406 225.0386962890625 C 389.8074951171875 220.0810699462891 393.6473693847656 213.5033416748047 401.5192260742188 210.7765350341797 C 402.92919921875 210.2882690429688 404.5827331542969 210.0302124023438 406.3009948730469 210.0302124023438 C 413.0394592285156 210.0302124023438 420.2805480957031 213.7930908203125 420.4276428222656 220.7666931152344 C 420.5155944824219 224.9326171875 419.1568298339844 228.5698547363281 416.4981994628906 231.2852935791016 C 413.5391235351562 234.3060913085938 409.2218017578125 235.9027862548828 404.0130004882812 235.9027862548828 M 407.1409912109375 145.3639984130859 C 416.427001953125 145.3639984130859 427.1940002441406 150.2030029296875 434.5710144042969 157.6909942626953 C 439.9320068359375 163.1329956054688 442.8359985351562 169.2879943847656 442.75 175.0229949951172 C 442.6159973144531 183.8950042724609 438.7009887695312 190.5590057373047 430.4280090332031 195.9949951171875 C 429.9819946289062 196.2879943847656 429.7340087890625 196.7599945068359 429.7470092773438 197.2920074462891 C 429.760009765625 197.8249969482422 430.0320129394531 198.2879943847656 430.4939880371094 198.5610046386719 C 441.0679931640625 204.8130035400391 446.031005859375 213.8200073242188 444.4700012207031 223.9250030517578 C 442.4880065917969 236.7389984130859 430.1369934082031 249.2729949951172 416.3489990234375 252.4620056152344 C 412.4089965820312 253.3719940185547 408.406005859375 253.8339996337891 404.4509887695312 253.8339996337891 C 387.4649963378906 253.8339996337891 373.0509948730469 245.6230010986328 366.8349914550781 232.4039916992188 C 357.6600036621094 212.8930053710938 371.864990234375 202.7929992675781 378.3980102539062 199.3560028076172 C 380.6449890136719 198.1739959716797 381.5450134277344 195.4660034179688 380.4440002441406 193.1909942626953 C 376.2879943847656 184.5970001220703 370.3519897460938 168.5019989013672 377.2969970703125 157.2700042724609 C 382.0610046386719 149.5619964599609 391.9830017089844 145.5569915771484 406.7850036621094 145.3659973144531 L 407.1409912109375 145.3639984130859 Z M 408.31201171875 185.5030059814453 C 408.9219970703125 185.5030059814453 409.5339965820312 185.4739990234375 410.1319885253906 185.4160003662109 C 413.1510009765625 185.1199951171875 415.7569885253906 183.7220001220703 417.2799987792969 181.5809936523438 C 418.3139953613281 180.1269989013672 418.7139892578125 178.4830017089844 418.3739929199219 177.0720062255859 C 416.635009765625 169.8509979248047 409.510009765625 169.2899932861328 407.3680114746094 169.2899932861328 C 405.7739868164062 169.2899932861328 404.2040100097656 169.5419921875 402.8280029296875 170.0189971923828 C 397.4110107421875 171.8950042724609 395.72900390625 176.5350036621094 396.8670043945312 180.1479949951172 C 397.81298828125 183.1510009765625 402.8410034179688 185.5030059814453 408.31201171875 185.5030059814453 Z M 404.0130004882812 235.2250061035156 C 409.0369873046875 235.2250061035156 413.1860046386719 233.697998046875 416.0140075683594 230.8110046386719 C 418.5419921875 228.22900390625 419.8340148925781 224.7610015869141 419.75 220.781005859375 C 419.6119995117188 214.2380065917969 412.7179870605469 210.7079925537109 406.3009948730469 210.7079925537109 C 404.6579895019531 210.7079925537109 403.0809936523438 210.9530029296875 401.7409973144531 211.4170074462891 C 394.1659851074219 214.0410003662109 390.4739990234375 220.3339996337891 390.2479858398438 225.0709991455078 C 390.1579895019531 226.9609985351562 391.0190124511719 228.9669952392578 392.6709899902344 230.7180023193359 C 395.2860107421875 233.4909973144531 399.4240112304688 235.1750030517578 403.739013671875 235.2229919433594 L 404.0130004882812 235.2250061035156 Z" stroke="none" fill="#231f20"/>
  </g>
</svg>
