<svg xmlns="http://www.w3.org/2000/svg" width="74.347" height="95.495" viewBox="0 0 74.347 95.495">
  <g id="_9" data-name="9" transform="translate(-482.056 -149.511)" fill="#ef9f5e" stroke-miterlimit="10">
    <path d="M 505.6730041503906 244.6670989990234 C 499.8548278808594 244.6670989990234 495.0607299804688 244.1113891601562 491.4239196777344 243.0153961181641 C 486.7307434082031 241.6010437011719 484.0737915039062 239.3018035888672 483.5267944335938 236.1815032958984 C 482.958984375 232.9403381347656 485.5452575683594 230.0475463867188 491.4334106445312 227.3378601074219 C 496.59619140625 224.9619903564453 503.2311401367188 223.1984558105469 509.0850524902344 221.6425170898438 C 512.5152587890625 220.7304840087891 515.4776611328125 219.9428405761719 516.7208862304688 219.3498992919922 C 520.489990234375 217.5536956787109 521.638427734375 216.0787048339844 521.4765625 215.3614196777344 C 521.1848754882812 214.0651550292969 517.2665405273438 212.55810546875 512.6519775390625 212.55810546875 L 512.2971801757812 212.5621185302734 C 511.5354919433594 212.5767211914062 510.7877197265625 212.5841064453125 510.0719909667969 212.5841064453125 C 501.22900390625 212.5841064453125 490.4041137695312 211.4598083496094 485.1446228027344 202.6926574707031 C 483.3078308105469 199.6309814453125 482.3826599121094 195.7411804199219 482.3948059082031 191.13134765625 C 482.4059143066406 186.9147644042969 483.2312927246094 182.2117309570312 484.7817077636719 177.5306854248047 C 487.9143676757812 168.0725860595703 493.5511779785156 159.8757171630859 499.4924621582031 156.1388854980469 C 505.7528991699219 152.2009124755859 514.79833984375 149.8498992919922 523.6890258789062 149.8498992919922 C 534.834716796875 149.8498992919922 543.7977294921875 153.4272613525391 548.927001953125 159.9230194091797 C 558.777099609375 172.3956298828125 558.4285888671875 193.9819183349609 547.919189453125 222.3482666015625 C 543.214111328125 235.0490264892578 529.4523315429688 243.32958984375 511.1064453125 244.4987945556641 C 509.9017333984375 244.5755767822266 507.981201171875 244.6670989990234 505.6730041503906 244.6670989990234 Z M 516.1920166015625 164.5101013183594 C 513.7018432617188 164.5101013183594 510.7256774902344 165.7557373046875 508.0266723632812 167.9275970458984 C 505.3376159667969 170.0914459228516 503.2688598632812 172.8955078125 502.350830078125 175.6208190917969 C 501.36181640625 178.5554351806641 501.7367553710938 181.3816070556641 503.4351806640625 183.7937316894531 C 504.8973083496094 185.8703155517578 507.28125 187.545654296875 510.1478271484375 188.5111541748047 C 510.9739379882812 188.7896728515625 511.8400268554688 188.9308929443359 512.7219848632812 188.9308929443359 C 517.3067016601562 188.9308929443359 521.7684326171875 185.1918487548828 523.5721435546875 179.8381958007812 C 524.6328125 176.6917572021484 524.6587524414062 173.3990936279297 523.6452026367188 170.5668182373047 C 522.6215209960938 167.7063293457031 520.6643676757812 165.6614685058594 518.1342163085938 164.8088684082031 C 517.5436401367188 164.6105804443359 516.8903198242188 164.5101013183594 516.1920166015625 164.5101013183594 Z" stroke="none"/>
    <path d="M 523.6890258789062 150.1887969970703 C 514.8594970703125 150.1887969970703 505.8815307617188 152.5203704833984 499.6728515625 156.4257507324219 C 493.795166015625 160.1226196289062 488.2124633789062 168.2503967285156 485.1034545898438 177.6372375488281 C 483.5641479492188 182.2846221923828 482.7446899414062 186.9511108398438 482.7337036132812 191.1322479248047 C 482.7217407226562 195.6794891357422 483.630615234375 199.5103149414062 485.4352416992188 202.5183258056641 C 490.6072387695312 211.1396331787109 501.318359375 212.2452239990234 510.072021484375 212.2452239990234 C 510.784912109375 212.2452239990234 511.5304565429688 212.2378540039062 512.2880249023438 212.2233428955078 L 512.2933349609375 212.2232666015625 L 512.6519775390625 212.2192230224609 C 514.8034057617188 212.2192230224609 516.9691772460938 212.5463104248047 518.7503051757812 213.1402740478516 C 520.0197143554688 213.5635986328125 521.5805053710938 214.2796783447266 521.8071899414062 215.2868499755859 C 522.0641479492188 216.4258270263672 520.2171630859375 218.0591125488281 516.8667602539062 219.6557769775391 C 515.5952758789062 220.2622222900391 512.6187133789062 221.0536499023438 509.172119140625 221.9700622558594 C 503.3314208984375 223.5224609375 496.71142578125 225.2819976806641 491.5750732421875 227.6457061767578 C 488.8519897460938 228.8988800048828 486.8191528320312 230.2139892578125 485.5330200195312 231.5545806884766 C 484.1260375976562 233.0211334228516 483.5789794921875 234.5155029296875 483.860595703125 236.1229858398438 C 484.1325073242188 237.6738586425781 484.962158203125 239.0258636474609 486.32666015625 240.1414337158203 C 487.59130859375 241.1753997802734 489.3391723632812 242.0331726074219 491.521728515625 242.69091796875 C 495.1267700195312 243.77734375 499.887939453125 244.3282012939453 505.6729736328125 244.3282012939453 C 507.97265625 244.3282012939453 509.8853149414062 244.2370452880859 511.0848999023438 244.1605987548828 C 529.293212890625 243.0001373291016 542.9442138671875 234.802001953125 547.6014404296875 222.2305450439453 C 552.826416015625 208.1275634765625 555.5569458007812 195.6389007568359 555.71728515625 185.1114349365234 C 555.8763427734375 174.6671447753906 553.5023193359375 166.2631988525391 548.6610107421875 160.1330261230469 C 543.597412109375 153.7203979492188 534.7288208007812 150.1887969970703 523.6890258789062 150.1887969970703 M 512.7219848632812 189.269775390625 C 511.8031005859375 189.269775390625 510.9005737304688 189.1225891113281 510.0396118164062 188.8323364257812 C 507.1052856445312 187.8440093994141 504.661376953125 186.1238861083984 503.1580810546875 183.9888458251953 C 501.3949584960938 181.4847869873047 501.0047607421875 178.5537414550781 502.0296630859375 175.5126342773438 C 502.9677734375 172.7277221679688 505.076171875 169.8668518066406 507.814208984375 167.6635589599609 C 510.5723876953125 165.4441223144531 513.6259155273438 164.1712036132812 516.1920166015625 164.1712036132812 C 516.9270629882812 164.1712036132812 517.61669921875 164.2776031494141 518.242431640625 164.4877014160156 C 520.8728637695312 165.3741149902344 522.9049072265625 167.4924926757812 523.9642944335938 170.4526214599609 C 525.00341796875 173.3563995361328 524.9782104492188 176.7280578613281 523.893310546875 179.9463958740234 C 522.0438232421875 185.4358673095703 517.4500122070312 189.269775390625 512.7219848632812 189.269775390625 M 523.6890258789062 149.5110015869141 C 534.9400024414062 149.5110015869141 543.9979858398438 153.1340026855469 549.1929931640625 159.7129974365234 C 559.1199951171875 172.2830047607422 558.7899780273438 193.9819946289062 548.2369995117188 222.4660034179688 C 543.4840087890625 235.2960052490234 529.6119995117188 243.6589965820312 511.1279907226562 244.8370056152344 C 509.9200439453125 244.9140014648438 507.9920043945312 245.0059967041016 505.6729736328125 245.0059967041016 C 496.1180419921875 245.0059967041016 484.4630126953125 243.4849853515625 483.1929931640625 236.2400054931641 C 481.843017578125 228.5339965820312 497.5379638671875 224.3609924316406 508.9979858398438 221.3150024414062 C 512.4130249023438 220.4069976806641 515.3610229492188 219.6230010986328 516.5750122070312 219.0440063476562 C 520.5640258789062 217.1430053710938 521.2269897460938 215.7949981689453 521.14599609375 215.4360046386719 C 520.916015625 214.4140014648438 517.2470092773438 212.8970031738281 512.6519775390625 212.8970031738281 L 512.301025390625 212.9010009765625 C 511.571044921875 212.9149932861328 510.8280029296875 212.9230041503906 510.072021484375 212.9230041503906 C 501.1400146484375 212.9230041503906 490.2009887695312 211.7799987792969 484.85400390625 202.8670043945312 C 477.0369873046875 189.8370056152344 486.801025390625 163.7209930419922 499.31201171875 155.8520050048828 C 505.625 151.8809967041016 514.7379760742188 149.5110015869141 523.6890258789062 149.5110015869141 Z M 512.7219848632812 188.5919952392578 C 517.1630249023438 188.5919952392578 521.4929809570312 184.947998046875 523.2509765625 179.7299957275391 C 525.3939819335938 173.3730010986328 523.0499877929688 166.822998046875 518.0260009765625 165.1300048828125 C 517.4719848632812 164.9439849853516 516.85400390625 164.8489990234375 516.1920166015625 164.8489990234375 C 511.1270141601562 164.8489990234375 504.5560302734375 170.1360015869141 502.6719970703125 175.72900390625 C 500.6010131835938 181.8739929199219 504.989013671875 186.4160003662109 510.2559814453125 188.1900024414062 C 511.0479736328125 188.4570007324219 511.8779907226562 188.5919952392578 512.7219848632812 188.5919952392578 Z" stroke="none" fill="#231f20"/>
  </g>
</svg>
