<?xml version="1.0" encoding="UTF-8"?><svg id="Layer_2" xmlns="http://www.w3.org/2000/svg" width="85.47" height="100.21" viewBox="0 0 85.47 100.21"><defs><style>.cls-1{fill:#ef9f5e;}.cls-2{fill:#231f20;}</style></defs><g id="number"><g><path class="cls-1" d="M37.85,99.53c-9.37,0-17.45-3.95-24.01-11.74C3.01,74.96-.55,55.26,1.04,45.98c2.38-13.93,7.91-25.56,15.97-33.64C24.51,4.82,34.06,.68,43.9,.68c11.25,0,22.31,5.35,31.12,15.07,10.5,11.58,12.94,36.13,5.43,54.75-7.02,17.4-21.34,27.68-40.33,28.96-.76,.05-1.52,.08-2.26,.08h0Zm15.01-55.06c-7.13,0-17.65,9.89-19.76,18.57-1.09,4.49-.71,9.04,1.07,12.81,1.74,3.69,4.61,6.18,8.09,7.03,.57,.14,1.18,.21,1.82,.21,7.14,0,16.83-8.8,18.85-17.12,1.11-4.57,.83-9.54-.76-13.62-1.62-4.15-4.36-6.88-7.72-7.69-.5-.12-1.03-.18-1.59-.18Z"/><path class="cls-2" d="M43.9,1.02c11.16,0,22.12,5.31,30.87,14.96,10.42,11.49,12.83,35.89,5.36,54.39-6.97,17.27-21.19,27.48-40.04,28.75-.75,.05-1.51,.08-2.24,.08-9.26,0-17.25-3.91-23.75-11.62C3.34,74.82-.21,55.26,1.37,46.04c2.37-13.86,7.86-25.43,15.88-33.46C24.69,5.12,34.15,1.02,43.9,1.02m.18,82.41c7.27,0,17.13-8.93,19.18-17.38,1.13-4.64,.84-9.68-.78-13.83-1.66-4.25-4.48-7.06-7.95-7.9-.52-.13-1.08-.19-1.67-.19-7.25,0-17.95,10.03-20.09,18.83-1.11,4.56-.72,9.19,1.09,13.04,1.78,3.78,4.73,6.34,8.31,7.21,.6,.14,1.23,.22,1.9,.22M43.9,.34c-9.92,0-19.56,4.18-27.13,11.76C8.65,20.23,3.1,31.93,.7,45.92c-1.6,9.35,1.98,29.18,12.87,42.09,6.63,7.87,14.8,11.86,24.27,11.86h0c.75,0,1.52-.03,2.28-.08,19.13-1.29,33.55-11.65,40.62-29.17,7.55-18.72,5.09-43.44-5.49-55.1C66.39,5.73,55.25,.34,43.9,.34h0Zm.18,82.41c-.61,0-1.2-.07-1.74-.2-3.38-.82-6.17-3.25-7.86-6.84-1.74-3.7-2.12-8.17-1.04-12.59,2.08-8.56,12.43-18.31,19.43-18.31,.53,0,1.04,.06,1.51,.17,3.25,.79,5.91,3.45,7.48,7.49,1.57,4.02,1.84,8.92,.75,13.42-1.99,8.19-11.51,16.86-18.53,16.86h0Z"/></g></g></svg>