<?xml version="1.0" encoding="UTF-8"?><svg id="Layer_2" xmlns="http://www.w3.org/2000/svg" width="65.12" height="97.87" viewBox="0 0 65.12 97.87"><defs><style>.cls-1{fill:#ef9f5e;}.cls-2{fill:#231f20;}</style></defs><g id="number"><g><path class="cls-1" d="M19.62,97.53c-10.64,0-16.33-3.05-16.92-9.06-.97-9.96,6.22-11.35,11.47-12.36,2.86-.55,5.57-1.08,6.47-2.68,2.54-4.55,5-22.47,1.65-30.91-.89-2.25-2.12-3.63-3.63-4.11-1.92-.6-4.08-.98-6.17-1.34-4.82-.83-9.36-1.62-11.28-5.04C-.11,29.68,.07,26.47,1.75,22.22l.08-.2,.14-.16C9.19,13.87,24.31,.34,35.18,.34c2.84,0,5.19,.94,6.98,2.8,3.02,3.14,4.34,8.67,4.02,16.89-.27,7.09,.48,16.69,1.21,25.99,.67,8.49,1.29,16.51,1.22,22.89-.08,7.23,2.57,7.36,6.6,7.57,4.26,.22,9.57,.5,9.57,11.33,0,8.95-12.55,8.95-17.91,8.95-2.19,0-4.4-.07-6.54-.14-1.99-.06-4.02-.12-5.74-.12-1.01,0-1.85,.02-2.55,.06-.32,.02-.86,.08-1.58,.17l-.19,.02c-2.4,.29-6.41,.77-10.64,.77Z"/><path class="cls-2" d="M35.18,.68c2.74,0,5.01,.91,6.73,2.7,2.96,3.07,4.24,8.52,3.93,16.64-.27,7.11,.48,16.72,1.21,26.03,.66,8.48,1.29,16.49,1.22,22.86-.08,7.2,2.44,7.68,6.92,7.91,4.12,.21,9.25,.48,9.25,11,0,8.61-12.31,8.61-17.57,8.61-2.19,0-4.4-.07-6.53-.14h-.05c-1.94-.06-3.97-.12-5.69-.12-1.02,0-1.86,.02-2.57,.06-.34,.02-.87,.08-1.61,.17l-.2,.02c-2.39,.29-6.39,.77-10.59,.77-10.44,0-16.02-2.95-16.58-8.76-.94-9.65,5.79-10.95,11.2-12,2.94-.57,5.72-1.11,6.7-2.85,2.57-4.6,5.05-22.69,1.67-31.2-.93-2.35-2.23-3.8-3.85-4.31-1.94-.61-4.11-.99-6.23-1.35-4.72-.82-9.18-1.59-11.03-4.87-1.26-2.24-1.07-5.35,.56-9.51l.06-.14,.1-.11c4.44-4.91,10.13-10.05,15.23-13.74C24.38,3.33,30.52,.68,35.18,.68m0-.68C24.19,0,8.97,13.6,1.72,21.64l-.18,.2-.1,.25c-1.72,4.36-1.89,7.66-.53,10.09,2,3.57,6.62,4.36,11.5,5.21,2.08,.36,4.24,.73,6.14,1.33,1.41,.45,2.56,1.76,3.42,3.91,3.32,8.36,.89,26.11-1.63,30.62-.82,1.47-3.45,1.98-6.23,2.52-5.38,1.04-12.74,2.46-11.75,12.73,.6,6.22,6.41,9.37,17.26,9.37,4.25,0,8.27-.48,10.68-.77,.81-.1,1.41-.17,1.75-.19,.74-.04,1.59-.06,2.54-.06,1.69,0,3.65,.05,5.67,.12,2.16,.07,4.39,.14,6.61,.14,5.46,0,18.25,0,18.25-9.29,0-11.16-5.72-11.46-9.89-11.67-3.96-.21-6.35-.33-6.27-7.23,.07-6.4-.56-14.42-1.22-22.92-.73-9.28-1.48-18.88-1.21-25.95,.32-8.32-1.03-13.93-4.12-17.14-1.86-1.93-4.28-2.91-7.22-2.91h0Z"/></g></g></svg>