<?xml version="1.0" encoding="UTF-8"?><svg id="Layer_2" xmlns="http://www.w3.org/2000/svg" width="75.02" height="96.17" viewBox="0 0 75.02 96.17"><defs><style>.cls-1{fill:#ef9f5e;}.cls-2{fill:#231f20;}</style></defs><g id="number"><g><path class="cls-1" d="M33.05,95.49c-11.15,0-20.11-3.58-25.24-10.07C-2.04,72.95-1.69,51.36,8.82,23,13.53,10.3,27.29,2.02,45.64,.85c1.2-.08,3.12-.17,5.44-.17,9.42,0,20.91,1.47,22.14,8.48,1.3,7.4-14.22,11.53-25.56,14.54-3.43,.91-6.4,1.7-7.64,2.29-3.77,1.8-4.92,3.27-4.76,3.99,.29,1.3,4.21,2.8,8.82,2.8h.36c.73-.02,1.47-.03,2.22-.03,8.84,0,19.67,1.12,24.93,9.89,7.74,12.9-1.95,38.76-14.35,46.56-6.26,3.94-15.3,6.29-24.19,6.29Zm11.34-38.99c-5.1,0-13.01,4.68-15.18,10.5-1.74,4.67-1.82,8.18-.24,10.45,1.85,2.67,5.7,3.06,7.83,3.06,.45,0,.91-.02,1.35-.05,5.77-.4,11.25-3.86,13.96-8.8,1.42-2.59,1.57-5.79,.41-8.76-1.15-2.94-3.37-5.21-5.93-6.08-.65-.22-1.38-.33-2.19-.33Z"/><path class="cls-2" d="M51.07,1.02c16.84,0,21.15,4.46,21.81,8.2,1.24,7.09-14.1,11.17-25.31,14.16-3.45,.92-6.42,1.71-7.69,2.31-3.35,1.6-5.2,3.23-4.94,4.37,.36,1.61,4.73,3.07,9.16,3.07h.36c.72-.02,1.46-.03,2.21-.03,8.76,0,19.47,1.11,24.64,9.73,3.46,5.77,3.58,15.07,.33,24.88-3.11,9.39-8.69,17.52-14.57,21.21-6.21,3.9-15.19,6.24-24.02,6.24-11.04,0-19.91-3.53-24.97-9.94C-1.69,72.84-1.33,51.36,9.14,23.11,13.8,10.54,27.45,2.34,45.66,1.18c1.2-.08,3.11-.17,5.41-.17m-14.27,79.85c.45,0,.91-.02,1.38-.05,5.88-.41,11.47-3.94,14.23-8.98,1.47-2.68,1.63-5.98,.43-9.05-1.18-3.03-3.48-5.38-6.14-6.28-.68-.23-1.45-.35-2.3-.35-5.21,0-13.29,4.78-15.5,10.72-1.78,4.78-1.85,8.4-.2,10.77,1.94,2.79,5.91,3.21,8.1,3.21M51.07,.34c-2.32,0-4.25,.09-5.46,.17C27.13,1.69,13.26,10.05,8.5,22.88c-10.55,28.48-10.88,50.18-.96,62.75,5.2,6.58,14.25,10.2,25.5,10.2h0c8.95,0,18.06-2.37,24.38-6.34,12.51-7.87,22.27-33.99,14.46-47.02-5.35-8.91-16.29-10.06-25.22-10.06-.75,0-1.5,0-2.23,.02h-.35c-4.59,0-8.26-1.51-8.49-2.54-.08-.36,.58-1.71,4.57-3.61,1.21-.58,4.16-1.36,7.58-2.27,11.46-3.05,27.16-7.22,25.8-14.93C72.28,1.86,60.62,.34,51.07,.34h0Zm-14.27,79.85c-2.06,0-5.78-.38-7.55-2.92-1.51-2.17-1.42-5.59,.28-10.14,2.12-5.69,9.87-10.28,14.86-10.28,.78,0,1.48,.1,2.09,.31,2.47,.83,4.61,3.03,5.72,5.88,1.12,2.88,.98,5.97-.39,8.48-2.66,4.84-8.03,8.23-13.68,8.63-.44,.03-.88,.05-1.33,.05h0Z"/></g></g></svg>