<?xml version="1.0" encoding="UTF-8"?><svg id="Layer_2" xmlns="http://www.w3.org/2000/svg" width="81.59" height="109.15" viewBox="0 0 81.59 109.15"><defs><style>.cls-1{fill:#ef9f5e;}.cls-2{fill:#231f20;}</style></defs><g id="number"><g><path class="cls-1" d="M40.95,108.47c-16.85,0-31.15-8.14-37.31-21.24-9.05-19.25,4.97-29.21,11.42-32.6,2.41-1.27,3.37-4.17,2.19-6.61-4.13-8.53-10.02-24.5-3.16-35.6C18.79,4.82,28.61,.87,43.29,.68h.35c9.2,0,19.87,4.8,27.19,12.22,5.3,5.38,8.17,11.44,8.08,17.09-.13,8.75-4,15.33-12.17,20.69-.54,.36-.85,.94-.83,1.59,.02,.65,.35,1.22,.91,1.55,10.45,6.18,15.35,15.06,13.81,25.02-1.96,12.69-14.2,25.1-27.86,28.26-3.92,.9-7.89,1.36-11.82,1.36Zm1.85-43.13c-1.68,0-3.3,.25-4.67,.73-7.72,2.68-11.49,9.11-11.72,13.96-.09,1.98,.8,4.08,2.52,5.89,2.68,2.84,6.9,4.56,11.31,4.61h.28c5.12,0,9.35-1.56,12.25-4.51,2.59-2.65,3.92-6.2,3.83-10.27-.14-6.76-7.21-10.41-13.79-10.41Zm1.07-41.42c-1.63,0-3.24,.26-4.65,.75-5.62,1.95-7.36,6.78-6.17,10.55,.99,3.14,6.16,5.59,11.77,5.59,.62,0,1.24-.03,1.85-.09,3.12-.31,5.81-1.75,7.39-3.98,1.09-1.53,1.51-3.28,1.15-4.78-1.8-7.46-9.13-8.04-11.33-8.04Z"/><path class="cls-2" d="M43.65,1.02c9.11,0,19.69,4.76,26.94,12.12,5.23,5.31,8.07,11.29,7.98,16.85-.13,8.63-3.95,15.12-12.02,20.42-.64,.42-1,1.11-.99,1.88,.02,.77,.41,1.44,1.08,1.84,10.32,6.1,15.17,14.86,13.65,24.68-1.94,12.56-14.07,24.85-27.6,27.98-3.89,.9-7.84,1.35-11.74,1.35-16.72,0-30.9-8.06-37-21.04-8.93-18.98,4.9-28.81,11.27-32.16,2.57-1.35,3.6-4.45,2.34-7.06-4.1-8.47-9.96-24.31-3.18-35.27C19.01,5.1,28.74,1.21,43.29,1.02h.36m1.17,40.14c.63,0,1.26-.03,1.89-.09,3.21-.32,6-1.82,7.63-4.12,1.15-1.61,1.59-3.46,1.2-5.06-1.86-7.7-9.4-8.3-11.66-8.3-1.67,0-3.32,.26-4.76,.77-5.83,2.02-7.62,7.05-6.39,10.97,1.05,3.32,6.25,5.83,12.09,5.83m-4.3,49.72h0c5.21,0,9.53-1.6,12.49-4.62,2.66-2.72,4.02-6.35,3.93-10.52-.15-6.97-7.39-10.74-14.13-10.74-1.72,0-3.37,.26-4.78,.75-7.87,2.73-11.71,9.3-11.95,14.26-.1,2.08,.83,4.26,2.61,6.14,2.74,2.9,7.06,4.67,11.56,4.72h.28M43.64,.34h-.36c-14.8,.19-24.72,4.2-29.49,11.91-6.94,11.23-1.01,27.33,3.15,35.92,1.1,2.27,.2,4.98-2.05,6.16-6.53,3.44-20.74,13.54-11.56,33.05,6.22,13.22,20.63,21.43,37.62,21.43,3.96,0,7.96-.46,11.9-1.37,13.79-3.19,26.14-15.72,28.12-28.54,1.56-10.1-3.4-19.11-13.98-25.36-.46-.27-.73-.74-.75-1.27-.01-.53,.24-1,.68-1.3,8.27-5.44,12.19-12.1,12.32-20.97,.09-5.73-2.82-11.89-8.18-17.33C63.7,5.18,52.93,.34,43.64,.34h0Zm1.17,40.14c-5.47,0-10.5-2.35-11.45-5.35-1.14-3.61,.54-8.25,5.96-10.13,1.38-.48,2.95-.73,4.54-.73,2.14,0,9.27,.56,11.01,7.78,.34,1.41-.06,3.06-1.09,4.51-1.52,2.14-4.13,3.54-7.15,3.83-.6,.06-1.21,.09-1.82,.09h0Zm-4.3,49.72h-.27c-4.32-.05-8.45-1.73-11.07-4.51-1.65-1.75-2.51-3.76-2.42-5.65,.23-4.74,3.92-11.03,11.49-13.65,1.34-.46,2.92-.71,4.56-.71,6.42,0,13.31,3.53,13.45,10.07,.08,3.98-1.21,7.45-3.74,10.03-2.83,2.89-6.98,4.41-12,4.41h0Z"/></g></g></svg>