<?xml version="1.0" encoding="UTF-8"?><svg id="Layer_2" xmlns="http://www.w3.org/2000/svg" width="75.02" height="96.17" viewBox="0 0 75.02 96.17"><defs><style>.cls-1{fill:#ef9f5e;}.cls-2{fill:#231f20;}</style></defs><g id="number"><g><path class="cls-1" d="M23.96,95.5c-9.42,0-20.92-1.47-22.15-8.49-1.3-7.4,14.22-11.53,25.56-14.54,3.43-.91,6.39-1.7,7.64-2.29,3.77-1.8,4.92-3.27,4.76-3.99-.29-1.3-4.21-2.8-8.82-2.8h-.36c-.73,.02-1.47,.03-2.22,.03-8.84,0-19.67-1.12-24.93-9.89C-4.31,40.63,5.38,14.76,17.78,6.97,24.04,3.03,33.08,.68,41.97,.68c11.15,0,20.11,3.58,25.24,10.07,9.85,12.47,9.5,34.06-1.01,62.42-4.71,12.7-18.47,20.98-36.81,22.15-1.2,.08-3.12,.17-5.43,.17ZM34.48,15.34c-5.19,0-11.92,5.4-13.84,11.11-.99,2.93-.61,5.76,1.08,8.17,1.46,2.08,3.85,3.75,6.71,4.72,.83,.28,1.69,.42,2.57,.42,4.58,0,9.05-3.74,10.85-9.09,1.06-3.15,1.09-6.44,.07-9.27-1.02-2.86-2.98-4.91-5.51-5.76-.59-.2-1.24-.3-1.94-.3Z"/><path class="cls-2" d="M41.97,1.02c11.04,0,19.91,3.53,24.97,9.94,9.77,12.37,9.41,33.85-1.06,62.1-4.66,12.57-18.31,20.77-36.52,21.93-1.2,.08-3.11,.17-5.41,.17-16.84,0-21.16-4.46-21.81-8.2-1.24-7.09,14.1-11.17,25.31-14.15,3.44-.92,6.42-1.71,7.69-2.31,3.35-1.6,5.2-3.23,4.94-4.37-.36-1.61-4.73-3.07-9.16-3.07h-.36c-.73,.02-1.46,.03-2.22,.03-8.75,0-19.47-1.11-24.64-9.73-3.46-5.77-3.58-15.07-.33-24.88C6.5,19.08,12.08,10.95,17.96,7.25c6.21-3.91,15.19-6.24,24.02-6.24m-10.97,39.08c4.73,0,9.32-3.83,11.17-9.32,1.08-3.22,1.11-6.59,.07-9.49-1.06-2.96-3.09-5.08-5.72-5.96-.62-.21-1.31-.32-2.05-.32-5.32,0-12.2,5.51-14.16,11.34-1.03,3.04-.63,5.97,1.13,8.48,1.5,2.13,3.95,3.86,6.88,4.84,.86,.29,1.76,.44,2.68,.44M41.97,.34c-8.95,0-18.06,2.37-24.38,6.34C5.08,14.55-4.68,40.67,3.14,53.7c5.35,8.91,16.29,10.06,25.22,10.06,.76,0,1.5,0,2.23-.02h.35c4.59,0,8.26,1.51,8.49,2.54,.08,.36-.58,1.71-4.57,3.61-1.21,.58-4.16,1.36-7.58,2.27-11.46,3.05-27.16,7.22-25.8,14.93,1.27,7.25,12.92,8.77,22.48,8.77,2.32,0,4.25-.09,5.46-.17,18.48-1.18,32.36-9.54,37.11-22.37,10.55-28.48,10.88-50.18,.96-62.75C62.28,3.96,53.22,.34,41.97,.34h0Zm-10.97,39.08c-.84,0-1.67-.14-2.47-.4-5.27-1.77-9.66-6.32-7.58-12.46,1.88-5.59,8.46-10.88,13.52-10.88,.66,0,1.28,.09,1.83,.28,5.02,1.69,7.37,8.24,5.22,14.6-1.76,5.22-6.09,8.86-10.53,8.86h0Z"/></g></g></svg>