<?xml version="1.0" encoding="UTF-8"?><svg id="Layer_2" xmlns="http://www.w3.org/2000/svg" width="83.73" height="82.73" viewBox="0 0 83.73 82.73"><defs><style>.cls-1{fill:#9bb58c;}.cls-2{fill:#231f20;}</style></defs><g id="number"><g><path class="cls-1" d="M41.31,82.05c-3.39,0-6.06-1.06-7.93-3.14-4.36-4.84-3.41-14.21-2.71-21.04,.27-2.65,.6-5.93,.28-7.03l-.06-.22-.23-.02c-.19-.02-.47-.03-.87-.03-1.09,0-2.65,.11-4.3,.23-2.34,.17-5.24,.37-8.12,.37-7.12,0-11.67-1.24-14.3-3.9-1.61-1.63-2.41-3.77-2.38-6.34,.14-11.05,10.56-11.05,14.48-11.05,1.58,0,3.16,.07,4.7,.14,1.48,.07,2.84,.12,4.12,.12,5.07,0,5.92-1.1,6.09-2.3-.2-1.88-1.77-17.76,4.02-24.29,1.69-1.9,3.83-2.87,6.37-2.87,3.97,0,7.06,1.09,9.17,3.23,3.94,4.01,3.83,10.85,3.73,16.88-.05,3.23-.1,6.28,.49,8.33,.27,.93,1.02,1.99,4.45,1.99,2.07,0,4.55-.37,7.18-.77,2.83-.43,5.74-.86,8.35-.86,2.82,0,4.92,.52,6.43,1.6,1.86,1.33,2.8,3.49,2.8,6.42,0,11.29-10.05,11.29-13.35,11.29-2.51,0-5.1-.26-7.38-.5-1.85-.19-3.6-.37-4.96-.37-1.68,0-2.16,.28-2.29,.4-1.96,3.14-1.84,8.45-1.73,13.58,.14,6.53,.29,13.29-3.48,17.13-1.96,2-4.83,3.01-8.53,3.01h-.03Z"/><path class="cls-2" d="M40.45,1.02c3.88,0,6.88,1.05,8.93,3.13,3.84,3.9,3.73,10.67,3.63,16.64-.05,3.25-.11,6.33,.51,8.43,.3,1.04,1.12,2.24,4.77,2.24,2.09,0,4.59-.38,7.25-.78,2.8-.42,5.7-.86,8.28-.86,2.74,0,4.78,.5,6.23,1.54,1.77,1.26,2.66,3.33,2.66,6.14,0,9.81-7.43,10.95-13.02,10.95-2.48,0-5.06-.26-7.33-.5-1.86-.19-3.62-.37-5-.37-1.3,0-2.18,.17-2.52,.49l-.07,.06-.05,.08c-1.95,3.16-1.84,8.52-1.73,13.7,.14,6.46,.28,13.14-3.38,16.89-1.89,1.93-4.68,2.91-8.32,2.91-3.29,0-5.88-1.02-7.68-3.03-4.26-4.73-3.32-14.01-2.63-20.79,.34-3.39,.58-6.06,.27-7.15l-.13-.44-.46-.04c-.24-.02-.55-.04-.91-.04-1.1,0-2.6,.11-4.34,.23-2.33,.17-5.22,.37-8.08,.37-7.03,0-11.49-1.21-14.06-3.8-1.55-1.57-2.32-3.62-2.28-6.1,.12-9.5,7.62-10.72,14.14-10.72,1.57,0,3.15,.07,4.72,.14,1.45,.06,2.81,.12,4.09,.12,4.3,0,6.17-.75,6.43-2.59v-.17c-.19-1.78-1.75-17.53,3.94-23.94,1.62-1.83,3.68-2.75,6.12-2.75m0-.68c-2.64,0-4.87,1-6.62,2.98-5.87,6.62-4.32,22.49-4.1,24.47-.14,1-.85,2-5.75,2-1.26,0-2.62-.06-4.06-.12-1.55-.07-3.16-.14-4.75-.14-4.01,0-14.68,0-14.82,11.38-.03,2.67,.8,4.89,2.48,6.59,2.7,2.73,7.32,4,14.54,4,2.89,0,5.8-.21,8.14-.37,1.72-.12,3.21-.23,4.28-.23,.39,0,.66,.01,.84,.03,.3,1.05-.04,4.41-.29,6.9-.7,6.9-1.67,16.35,2.8,21.3,1.94,2.15,4.7,3.24,8.19,3.25h.03c3.8,0,6.75-1.05,8.77-3.12,3.86-3.95,3.72-10.77,3.57-17.38-.11-5.08-.22-10.34,1.62-13.33,.01-.01,.36-.31,2.06-.31,1.34,0,3.08,.18,4.93,.37,2.29,.23,4.88,.5,7.4,.5h.01c3.39,0,13.69,0,13.69-11.63,0-3.04-.99-5.3-2.95-6.7-1.57-1.12-3.74-1.67-6.63-1.67-2.64,0-5.56,.44-8.39,.87-2.62,.39-5.1,.77-7.14,.77-3.62,0-3.97-1.23-4.12-1.75-.58-2.01-.53-5.03-.48-8.23,.1-6.1,.21-13.02-3.82-17.12-2.17-2.21-5.34-3.33-9.41-3.33h0Z"/></g></g></svg>