<?xml version="1.0" encoding="UTF-8"?><svg id="Layer_2" xmlns="http://www.w3.org/2000/svg" width="48" height="116.02" viewBox="0 0 48 116.02"><defs><style>.cls-1{fill:#9bb58c;}.cls-2{fill:#231f20;}</style></defs><g id="number"><g><path class="cls-1" d="M5.34,115.68c-3.4-.08-5.08-3.8-4.99-11.04,.16-13.31,6.14-38.34,14.88-62.29C28.58,5.8,37.21,.34,41.17,.34c.32,0,.65,.03,.96,.1,4.67,.96,6.4,7.69,5.13,19.99-3.07,29.94-25.83,95.25-41.78,95.25h-.15Z"/><path class="cls-2" d="M41.17,.68c.3,0,.6,.03,.89,.09,4.47,.92,6.11,7.53,4.87,19.63-1.55,15.17-8.03,38.82-16.13,58.86-9.26,22.94-18.49,36.09-25.31,36.09h-.14c-3.18-.08-4.75-3.68-4.67-10.7,.16-13.28,6.13-38.26,14.86-62.17C25.24,15.91,34.59,.68,41.17,.68m0-.68C31.74,0,20.67,26.46,14.91,42.24,6.15,66.21,.16,91.29,0,104.64c-.09,7.47,1.7,11.3,5.33,11.39h.15c16.1,0,39.04-65.52,42.12-95.56,1.28-12.5-.54-19.36-5.4-20.36-.33-.07-.68-.1-1.03-.1h0Z"/></g></g></svg>