<?xml version="1.0" encoding="UTF-8"?><svg id="Layer_2" xmlns="http://www.w3.org/2000/svg" width="66.64" height="71.64" viewBox="0 0 66.64 71.64"><defs><style>.cls-1{fill:#9bb58c;}.cls-2{fill:#231f20;}</style></defs><g id="number"><g><path class="cls-1" d="M12.84,71.31c-2.43,0-4.74-.82-6.86-2.42-3.67-2.78-5.57-5.82-5.64-9.03-.14-6.19,6.24-11.52,11.88-16.22,4.02-3.35,7.06-6.02,6.78-7.47l-.02-.1-.07-.07c-1.56-1.63-15.25-16.21-14.38-26.41,.24-2.82,1.53-5.09,3.83-6.76C10.64,1.17,12.98,.34,15.32,.34c6.29,0,11.19,5.92,14.77,10.24,1.61,1.95,3.01,3.59,3.77,3.96l.18,.09,.16-.12c.64-.46,1.83-1.74,2.98-2.98C41.26,7.13,47.39,.52,54.22,.52c3.67,0,7.04,1.93,10,5.75,6.08,7.83-2.59,15.33-8.92,20.81-4.89,4.23-6.33,5.91-5.7,6.66,.83,.99,2.12,2.24,3.63,3.69,5.19,5.01,13.03,12.59,12.56,20.43-.23,3.8-2.36,7.25-6.33,10.27-1.38,1.05-2.92,1.58-4.59,1.58-5.28,0-10.66-5.29-14.98-9.53-2.22-2.18-4.13-4.01-5.05-4.34l-.17-.06-.15,.11c-.61,.46-1.87,1.84-2.97,3.06-4.2,4.63-11.23,12.37-18.71,12.37Z"/><path class="cls-2" d="M15.32,.68c6.14,0,10.98,5.85,14.51,10.11,1.69,2.05,3.06,3.65,3.88,4.05l.36,.18,.33-.23c.67-.48,1.82-1.71,3.05-3.04C41.47,7.41,47.53,.86,54.22,.86c3.56,0,6.84,1.89,9.73,5.61,5.89,7.57-2.64,14.95-8.87,20.34-5.33,4.61-6.56,6.14-5.74,7.13,.84,1,2.14,2.26,3.66,3.72,5.14,4.97,12.91,12.47,12.45,20.17-.22,3.69-2.31,7.07-6.2,10.02-1.32,1-2.79,1.51-4.38,1.51-5.14,0-10.47-5.23-14.75-9.44-2.32-2.28-4.18-4.06-5.17-4.41l-.34-.12-.29,.22c-.64,.48-1.85,1.81-3.02,3.1-4.16,4.58-11.13,12.26-18.46,12.26-2.36,0-4.6-.79-6.66-2.35-3.58-2.72-5.43-5.67-5.51-8.77-.14-6.02,6.18-11.3,11.77-15.96,4.23-3.53,7.2-6.16,6.89-7.79l-.04-.2-.14-.14c-1.55-1.62-15.14-16.1-14.29-26.15,.23-2.72,1.47-4.91,3.69-6.51C10.78,1.49,13.05,.68,15.32,.68m0-.68c-2.41,0-4.82,.86-7.16,2.55-2.38,1.72-3.72,4.08-3.97,7-.87,10.27,12.51,24.62,14.48,26.68,.26,1.37-3.72,4.7-6.66,7.15C6.31,48.12-.14,53.51,0,59.86c.08,3.32,2.02,6.45,5.77,9.29,2.18,1.65,4.56,2.49,7.07,2.49,7.63,0,14.72-7.81,18.96-12.48,1.1-1.21,2.34-2.57,2.92-3.01,.92,.33,3.22,2.59,4.93,4.26,4.37,4.29,9.8,9.63,15.22,9.63,1.74,0,3.35-.55,4.79-1.65,4.06-3.08,6.24-6.62,6.47-10.52,.48-8-7.43-15.64-12.66-20.7-1.5-1.45-2.79-2.7-3.61-3.67-.62-.74,3.62-4.42,5.66-6.18,6.43-5.57,15.24-13.19,8.96-21.27C61.46,2.16,58,.18,54.22,.18c-6.98,0-13.17,6.68-17.27,11.1-1.15,1.24-2.33,2.51-2.94,2.95-.76-.37-2.42-2.38-3.66-3.87C26.73,5.99,21.77,0,15.32,0h0Z"/></g></g></svg>