<?xml version="1.0" encoding="UTF-8"?><svg id="Layer_2" xmlns="http://www.w3.org/2000/svg" width="43.71" height="26.83" viewBox="0 0 43.71 26.83"><defs><style>.cls-1{fill:#9bb58c;}.cls-2{fill:#231f20;}</style></defs><g id="number"><g><path class="cls-1" d="M21.72,26.49c-7.79,0-14.64-2.21-18.33-5.91C1.36,18.55,.33,16.15,.34,13.47,.36,3.78,11.56,.34,21.14,.34c10.28,0,21.17,3.72,22.12,10.84,.44,3.27-.46,6.29-2.6,8.73-3.61,4.12-10.69,6.58-18.94,6.58Z"/><path class="cls-2" d="M21.14,.68c5.27,0,10.56,1.01,14.49,2.77,3.03,1.35,6.76,3.8,7.29,7.78,.42,3.17-.45,6.1-2.52,8.47-3.55,4.05-10.53,6.47-18.68,6.47-7.7,0-14.47-2.17-18.09-5.81-1.96-1.97-2.96-4.28-2.95-6.87C.7,4.03,11.72,.68,21.14,.68m0-.68C11.41,0,.03,3.53,0,13.47c0,2.78,1.05,5.25,3.15,7.35,3.75,3.76,10.7,6.01,18.57,6.01,8.34,0,15.52-2.5,19.19-6.7,2.2-2.51,3.13-5.63,2.68-9C42.62,3.82,31.56,0,21.14,0h0Z"/></g></g></svg>