<?xml version="1.0" encoding="UTF-8"?><svg id="Layer_2" xmlns="http://www.w3.org/2000/svg" width="73.87" height="101.95" viewBox="0 0 73.87 101.95"><defs><style>.cls-1{fill:#ef9f5e;}.cls-2{fill:#231f20;}</style></defs><g id="number"><g><path class="cls-1" d="M42.29,101.61c-10.97,0-21.5-1.16-27.69-2.24-5.27-.92-8.41-2.99-9.33-6.13-2.29-7.8,9.41-19.4,22.66-31.6,3.46-3.19,6.45-5.94,7.42-7.31,.41-.57,.82-1.15,1.24-1.73,3.84-5.32,7.79-10.8,7.13-16.55-.58-5.03-6.13-5.79-9.39-5.79-4.55,0-9.07,1.46-10.8,2.88-2.74,2.23-6.29,3.46-10.01,3.46-4.38,0-8.44-1.68-10.86-4.5C.78,29.93,.02,27.25,.46,24.35,2.98,7.76,19.63,.34,35.01,.34c10.82,0,21.11,3.37,28.22,9.26,13.55,11.21,12.06,32.93,2.16,46.18-1.14,1.53-11.92,13.39-17.77,19.27-.73,.73-.48,1.58-.38,1.82,.2,.5,.7,1.05,1.53,1.09,.42,.02,.84,.03,1.28,.03,2.13,0,4.46-.19,6.72-.37,2.05-.16,4.16-.31,5.88-.31,1.08,0,1.93,.06,2.57,.18,4.49,.83,7.51,5.79,8.17,10.26,.64,4.35-.87,7.92-4.05,9.56-6.89,3.56-18.51,4.3-27.05,4.3Z"/><path class="cls-2" d="M35.01,.68c10.74,0,20.95,3.35,28.01,9.18,13.4,11.09,11.91,32.59,2.11,45.71-1.14,1.52-11.9,13.37-17.74,19.23-.69,.7-.69,1.59-.46,2.18,.23,.6,.84,1.26,1.83,1.31,.42,.02,.85,.03,1.29,.03,2.14,0,4.48-.19,6.77-.37,2.02-.16,4.13-.31,5.83-.31,1.06,0,1.88,.06,2.51,.17,4.33,.8,7.25,5.63,7.89,9.98,.62,4.2-.82,7.64-3.87,9.21-6.83,3.52-18.39,4.26-26.89,4.26-10.95,0-21.46-1.16-27.64-2.24-5.13-.9-8.18-2.88-9.07-5.89-2.23-7.62,9.4-19.13,22.57-31.26,3.47-3.19,6.46-5.95,7.46-7.35,.41-.58,.83-1.16,1.25-1.75,3.86-5.35,7.85-10.89,7.18-16.76-.45-3.92-3.9-6.09-9.72-6.09-4.8,0-9.26,1.52-11.02,2.96-2.68,2.18-6.16,3.39-9.8,3.39-4.28,0-8.24-1.64-10.6-4.38-1.81-2.11-2.54-4.7-2.12-7.49C3.29,8.01,19.78,.68,35.01,.68m0-.68C19.49,0,2.68,7.51,.13,24.3c-.46,3,.33,5.77,2.27,8.03,2.48,2.89,6.64,4.62,11.12,4.62h0c3.79,0,7.42-1.26,10.22-3.54,1.69-1.38,6.11-2.8,10.59-2.8,3.14,0,8.5,.71,9.05,5.49,.64,5.61-3.27,11.04-7.05,16.29-.42,.58-.84,1.17-1.26,1.75-.96,1.34-3.93,4.08-7.37,7.26-13.33,12.27-25.1,23.95-22.75,31.94,.96,3.28,4.19,5.42,9.6,6.37,6.21,1.09,16.76,2.25,27.75,2.25,8.57,0,20.25-.75,27.2-4.34,3.31-1.71,4.89-5.41,4.23-9.91-.68-4.59-3.8-9.69-8.44-10.55-.71-.13-1.6-.18-2.63-.18-1.69,0-3.74,.14-5.88,.31-2.26,.18-4.6,.37-6.72,.37-.43,0-.85,0-1.26-.02-.83-.04-1.15-.68-1.23-.87-.08-.19-.28-.87,.31-1.46,5.86-5.88,16.66-17.77,17.8-19.31,9.99-13.38,11.49-35.31-2.22-46.64C56.28,3.4,45.91,0,35.01,0h0Z"/></g></g></svg>