<?xml version="1.0" encoding="UTF-8"?><svg id="Layer_2" xmlns="http://www.w3.org/2000/svg" width="83.1" height="102.53" viewBox="0 0 83.1 102.53"><defs><style>.cls-1{fill:#ef9f5e;}.cls-2{fill:#231f20;}</style></defs><g id="number"><g><path class="cls-1" d="M40.41,102.19c-19,0-35.95-7.59-39.41-17.67-1.4-4.07-1.24-10.35,7.48-17.15,2.2-1.72,4.62-2.59,7.18-2.59,5.33,0,10.49,3.64,15.49,7.16,4.42,3.12,8.6,6.06,12.27,6.06,1.76,0,4.42-.57,7.21-5.46,1.05-1.85,1.36-3.3,.9-4.32-.95-2.11-5.28-3.02-9.46-3.9-6.26-1.32-13.36-2.81-13.72-8.99-.69-11.75,6.97-13.28,13.12-14.5,3.93-.78,7.31-1.46,8.47-4.29,1.23-3.03,.79-7.08-1.08-9.87-.98-1.46-2.75-3.19-5.63-3.19-2.33,0-4.91,1.13-7.65,3.36-7.27,5.9-13.41,8.89-18.25,8.89-3.01,0-5.47-1.15-7.31-3.43-5.19-6.42-4.29-11.92-2.63-15.41C12.04,7.14,28.58,.34,40.51,.34c.66,0,1.3,.02,1.92,.06,9.87,.69,16.64,5.09,23.27,9.93,5.6,4.09,8.59,9.94,8.42,16.47-.19,7.3-4.33,14.64-10.56,18.71-.71,.46-1.12,1.23-1.13,2.09,0,.91,.44,1.76,1.19,2.27,13.11,8.86,20.05,19.37,19.05,28.84-.59,5.56-4.2,13.37-18.07,18.97-7.31,2.95-15.67,4.52-24.18,4.52h0Z"/><path class="cls-2" d="M40.51,.68c.65,0,1.29,.02,1.89,.06,9.78,.69,16.5,5.06,23.09,9.87,5.51,4.02,8.45,9.77,8.28,16.19-.19,7.19-4.27,14.43-10.41,18.43-.81,.53-1.28,1.39-1.28,2.37,0,1.02,.49,1.98,1.34,2.55,13,8.79,19.89,19.18,18.9,28.52-.58,5.47-4.15,13.15-17.86,18.69-7.27,2.94-15.59,4.49-24.06,4.49-18.87,0-35.67-7.5-39.09-17.44-1.36-3.97-1.19-10.1,7.36-16.77,2.14-1.67,4.48-2.51,6.97-2.51,5.22,0,10.34,3.61,15.3,7.1,4.46,3.15,8.68,6.12,12.46,6.12,1.84,0,4.63-.58,7.51-5.63,1.13-1.97,1.42-3.49,.91-4.62-1.02-2.27-5.24-3.16-9.7-4.1-6.14-1.29-13.11-2.76-13.45-8.68-.67-11.46,6.51-12.89,12.85-14.15,4.02-.8,7.49-1.49,8.72-4.5,1.27-3.12,.81-7.31-1.12-10.19-1.02-1.52-2.88-3.34-5.91-3.34-2.41,0-5.06,1.16-7.86,3.43-7.21,5.85-13.27,8.81-18.04,8.82-2.9,0-5.27-1.11-7.04-3.31-5.08-6.28-4.21-11.65-2.58-15.05,2.11-4.43,6.96-8.6,13.65-11.75C27.46,2.4,34.63,.68,40.51,.68m0-.68C28.48,0,11.78,6.88,7.07,16.74c-1.71,3.58-2.63,9.22,2.67,15.77,1.91,2.36,4.46,3.56,7.57,3.56,4.92,0,11.14-3.02,18.47-8.97,2.68-2.18,5.19-3.28,7.44-3.28,2.73,0,4.42,1.65,5.35,3.04,1.81,2.7,2.25,6.63,1.05,9.55-1.09,2.67-4.39,3.33-8.22,4.09-6.28,1.25-14.1,2.81-13.39,14.86,.38,6.44,7.61,7.96,13.99,9.3,4.1,.86,8.34,1.76,9.22,3.71,.41,.91,.11,2.26-.88,4.01-2.7,4.74-5.24,5.29-6.92,5.29-3.57,0-7.7-2.91-12.08-6-5.04-3.55-10.25-7.22-15.68-7.22-2.64,0-5.13,.89-7.39,2.66C-.61,74.03-.76,80.46,.68,84.64c3.51,10.2,20.59,17.89,39.73,17.89h0c8.55,0,16.96-1.57,24.31-4.54,14.02-5.66,17.68-13.59,18.28-19.25,1.01-9.59-5.98-20.22-19.2-29.15-.66-.45-1.05-1.19-1.04-1.98,0-.75,.36-1.41,.98-1.81,6.31-4.12,10.52-11.57,10.71-18.98,.17-6.65-2.87-12.6-8.56-16.75C59.22,5.19,52.41,.77,42.45,.07c-.62-.04-1.27-.07-1.94-.07h0Z"/></g></g></svg>