<?xml version="1.0" encoding="UTF-8"?><svg id="Layer_2" xmlns="http://www.w3.org/2000/svg" width="79.13" height="100.87" viewBox="0 0 79.13 100.87"><defs><style>.cls-1{fill:#ef9f5e;}.cls-2{fill:#231f20;}</style></defs><g id="number"><g><path class="cls-1" d="M51.45,100.19c-4.65,0-8.3-1.55-10.85-4.62-5.38-6.46-4.09-17.24-3.29-21.58,.13-.72-.05-1.42-.51-1.98-.45-.54-1.1-.85-1.8-.85-.09,0-.18,0-.27,.02-5.66,.64-10.08,.94-13.93,.94-10.01,0-16.14-2.12-18.74-6.47-2.49-4.18-1.63-10.06,2.65-17.97,7.11-13.17,10.56-18.72,21.4-29.24C29.86,14.79,49.02,.68,59.32,.68c2.42,0,4.26,.75,5.48,2.24,7.48,9.1,3.69,22.05,.64,32.46-1.78,6.09-3.47,11.84-1.9,14.27,.32,.49,.93,1.17,2.64,1.41,6.95,.98,12.22,5.78,12.26,11.15,.04,4.82-4.23,8.37-11.42,9.5-3.57,.56-3.49,4.14-3.05,10.42,.36,5.16,.77,11-2.62,14.66-2.09,2.26-5.28,3.37-9.76,3.4h-.14Zm-7.87-70.43c-3.74,0-17.51,13.23-18.89,18.15-.76,2.71-.73,4.72,.1,5.81,.6,.79,1.68,1.19,3.21,1.19,5.09,0,12.49-4.24,13.96-6.32,3.81-5.38,4.36-14.66,2.7-17.87-.33-.63-.69-.96-1.09-.96Z"/><path class="cls-2" d="M59.32,1.02c2.31,0,4.07,.71,5.22,2.11,7.37,8.96,3.6,21.82,.57,32.16-1.88,6.43-3.51,11.98-1.86,14.54,.35,.55,1.03,1.3,2.88,1.56,6.78,.96,11.93,5.61,11.97,10.82,.04,4.63-4.13,8.06-11.13,9.16-3.85,.61-3.78,4.49-3.34,10.79,.35,5.08,.76,10.85-2.53,14.4-2.02,2.18-5.14,3.26-9.51,3.29h-.13c-4.54,0-8.11-1.51-10.59-4.5-5.28-6.35-4.01-17.01-3.22-21.3,.15-.82-.06-1.62-.58-2.26-.51-.61-1.26-.97-2.06-.97-.1,0-.21,0-.31,.02-5.64,.64-10.06,.94-13.9,.94-9.88,0-15.91-2.06-18.44-6.3-2.43-4.07-1.56-9.84,2.65-17.64,7.09-13.14,10.54-18.67,21.34-29.16C30.07,15.05,49.11,1.02,59.32,1.02M28,55.25h0c5.28,0,12.69-4.28,14.24-6.46,4.01-5.65,4.42-14.95,2.73-18.22-.39-.76-.86-1.14-1.39-1.14-3.81,0-17.82,13.41-19.22,18.4-.8,2.85-.75,4.91,.16,6.11,.66,.88,1.83,1.32,3.48,1.32M59.32,.34C48.92,.34,29.64,14.53,25.87,18.19c-10.87,10.55-14.33,16.12-21.46,29.33C.08,55.55-.79,61.54,1.77,65.82c2.66,4.46,8.89,6.63,19.02,6.63h0c3.87,0,8.3-.3,13.97-.94,.08,0,.16-.01,.23-.01,.6,0,1.15,.26,1.54,.72,.4,.48,.55,1.08,.44,1.7-.81,4.38-2.1,15.29,3.37,21.86,2.62,3.15,6.36,4.74,11.11,4.74h.14c4.58-.03,7.85-1.18,10.01-3.51,3.49-3.77,3.08-9.69,2.71-14.91-.46-6.62-.34-9.58,2.77-10.06,7.37-1.16,11.75-4.84,11.71-9.84-.04-5.54-5.44-10.48-12.56-11.49-1.57-.22-2.12-.82-2.4-1.26-1.48-2.3,.18-7.98,1.94-13.99,3.07-10.49,6.89-23.54-.7-32.78-1.29-1.57-3.22-2.36-5.74-2.36h0ZM28,54.57c-1.42,0-2.41-.35-2.94-1.05-.76-1-.78-2.91-.05-5.51,1.32-4.69,15.02-17.91,18.57-17.91,.32,0,.6,.42,.79,.77,1.62,3.14,1.07,12.24-2.68,17.52-1.44,2.03-8.69,6.18-13.69,6.18h0Z"/></g></g></svg>