<?xml version="1.0" encoding="UTF-8"?><svg id="Layer_2" xmlns="http://www.w3.org/2000/svg" width="79.06" height="99.15" viewBox="0 0 79.06 99.15"><defs><style>.cls-1{fill:#ef9f5e;}.cls-2{fill:#231f20;}</style></defs><g id="number"><g><path class="cls-1" d="M36.6,98.81c-5.67,0-24.8-.67-32.77-9.35-2.61-2.84-3.76-6.24-3.43-10.12,.78-9.19,4.58-13.66,11.61-13.66,4.57,0,10,1.9,15.26,3.74,5.04,1.76,10.25,3.58,14.37,3.58,3.17,0,5.34-1.05,6.81-3.3,2.34-3.57,3-6.6,2.03-9.27-2.33-6.4-13.86-9.87-23.13-12.66-6-1.81-11.19-3.37-13.4-5.5-6.54-6.29-6.98-18.42-4.04-27.15C12.58,7.19,17.74,2.21,24.06,1.48c3.69-.43,11.09-1.14,19.11-1.14,15.95,0,26.13,2.7,30.25,8.02,2.01,2.59,2.55,5.76,1.6,9.42-1.41,5.45-7.83,6.18-13.94,6.18-2.14,0-4.41-.1-6.61-.2-2.18-.1-4.42-.19-6.5-.19-3.99,0-8.82,.31-10.72,2.75-1.04,1.33-1.22,3.28-.56,5.95,.39,1.58,4.43,2.98,10.55,4.94,12.79,4.1,32.13,10.31,31.47,30.53-.49,15.11-17.73,28.2-32.89,30.49-2.47,.37-5.75,.58-9.22,.58Z"/><path class="cls-2" d="M43.17,.68c15.84,0,25.93,2.65,29.98,7.89,1.94,2.51,2.46,5.58,1.54,9.13-1.35,5.22-7.64,5.93-13.61,5.93-2.13,0-4.4-.1-6.61-.2-2.17-.1-4.42-.19-6.51-.19-4.07,0-8.99,.33-10.99,2.88-1.11,1.42-1.31,3.46-.62,6.24,.43,1.75,4.36,3.13,10.78,5.18,12.7,4.07,31.88,10.23,31.24,30.2-.48,14.95-17.57,27.89-32.6,30.16-2.46,.37-5.71,.58-9.17,.58-5.64,0-24.64-.67-32.52-9.24-2.54-2.77-3.67-6.08-3.34-9.86,.77-9.11,4.36-13.35,11.27-13.35,4.51,0,9.92,1.89,15.15,3.72,5.07,1.77,10.31,3.6,14.48,3.6,3.29,0,5.55-1.1,7.09-3.45,2.4-3.66,3.08-6.79,2.07-9.57-2.39-6.56-14.01-10.06-23.35-12.87-5.96-1.79-11.11-3.34-13.26-5.42-6.44-6.19-6.86-18.16-3.95-26.79C12.86,7.43,17.92,2.53,24.1,1.82c3.69-.43,11.07-1.14,19.07-1.14m0-.68c-8.04,0-15.45,.72-19.15,1.14-6.46,.75-11.72,5.81-14.44,13.88-2.98,8.83-2.52,21.11,4.13,27.5,2.28,2.19,7.5,3.76,13.54,5.58,9.19,2.77,20.64,6.22,22.91,12.46,.93,2.56,.28,5.49-2,8.97-1.41,2.14-3.48,3.14-6.52,3.14h0c-4.06,0-9.24-1.81-14.26-3.57-5.29-1.85-10.75-3.76-15.37-3.76-7.24,0-11.15,4.57-11.95,13.97-.34,3.97,.85,7.46,3.52,10.37,8.06,8.78,27.31,9.46,33.02,9.46h0c3.48,0,6.78-.21,9.27-.58,15.3-2.31,32.69-15.53,33.18-30.81,.66-20.48-18.82-26.73-31.71-30.87-4.67-1.5-9.95-3.19-10.33-4.7-.64-2.57-.47-4.42,.5-5.66,1.82-2.32,6.54-2.62,10.46-2.62,2.07,0,4.31,.1,6.48,.19,2.21,.1,4.49,.2,6.64,.2,6.23,0,12.8-.76,14.26-6.44,.97-3.76,.41-7.03-1.66-9.71C69.5,2.74,59.23,0,43.17,0h0Z"/></g></g></svg>