<svg xmlns="http://www.w3.org/2000/svg" xmlns:xlink="http://www.w3.org/1999/xlink" width="178.58" height="249.45" viewBox="0 0 178.58 249.45">
  <defs>
    <clipPath id="clip-path">
      <rect id="Rectangle_1" data-name="Rectangle 1" width="178.58" height="249.45" fill="none"/>
    </clipPath>
  </defs>
  <g id="fr-addition" transform="translate(-220 -297)">
    <g id="Groupe_1" data-name="Groupe 1" transform="translate(220 297)" clip-path="url(#clip-path)">
      <path id="Tracé_1" data-name="Tracé 1" d="M8.5,0H170.08a8.5,8.5,0,0,1,8.5,8.5V240.95a8.5,8.5,0,0,1-8.5,8.5H8.5a8.5,8.5,0,0,1-8.5-8.5V8.5A8.5,8.5,0,0,1,8.5,0" fill="#fff"/>
      <path id="Tracé_2" data-name="Tracé 2" d="M171.5,58.26V10.09a3.013,3.013,0,0,0-3.01-3.01H10.09a3,3,0,0,0-3,3.01V239.35a3,3,0,0,0,3,3.01h158.4a3.013,3.013,0,0,0,3.01-3.01V91.4m0-.01V58.29M29.01,44.95a.076.076,0,0,1,.02-.04.142.142,0,0,0-.02.06" fill="#fceef4"/>
    </g>
    <path id="Tracé_13" data-name="Tracé 13" d="M134.323,306.351c-1.568-1.123-3.736-1.667-6.626-1.667a58.672,58.672,0,0,0-8.389.866,51.986,51.986,0,0,1-7.143.767c-3.616,0-3.972-1.226-4.124-1.75-.581-2.006-.531-5.031-.478-8.233.1-6.1.215-13.016-3.825-17.123-2.174-2.21-5.34-3.331-9.409-3.331a8.524,8.524,0,0,0-6.623,2.979c-5.868,6.616-4.318,22.494-4.1,24.467-.14,1-.85,2-5.754,2-1.259,0-2.622-.059-4.064-.123-1.551-.068-3.155-.14-4.753-.14-4.015,0-14.68,0-14.82,11.385a8.851,8.851,0,0,0,2.481,6.587c2.7,2.733,7.318,4.005,14.538,4.005,2.893,0,5.8-.207,8.143-.373,1.723-.123,3.211-.229,4.279-.229.388,0,.657.015.84.033.3,1.046-.04,4.4-.3,6.9-.7,6.9-1.666,16.352,2.8,21.3a10.528,10.528,0,0,0,8.186,3.249h.028c3.8,0,6.752-1.049,8.774-3.117,3.864-3.948,3.717-10.774,3.574-17.375-.109-5.082-.223-10.337,1.625-13.326.014-.012.357-.306,2.057-.306,1.34,0,3.082.177,4.926.366a73.563,73.563,0,0,0,7.41.5c3.385,0,13.687,0,13.688-11.627C137.269,310,136.278,307.75,134.323,306.351Zm-39.108,50.08Z" transform="translate(213.786 105.12)" fill="#9bb58c"/>
    <path id="Tracé_13_-_Contour" data-name="Tracé 13 - Contour" d="M94.329,276.558a7.87,7.87,0,0,0-6.116,2.751,15.161,15.161,0,0,0-3,6.067,37.343,37.343,0,0,0-1.162,7.5,64.924,64.924,0,0,0,.23,10.375l.009.085-.012.084a2.331,2.331,0,0,1-1.475,1.9,12.566,12.566,0,0,1-4.95.692c-1.308,0-2.724-.063-4.094-.124l-.108,0c-1.509-.066-3.069-.135-4.616-.135-1.934,0-5.533,0-8.587,1.364a8.955,8.955,0,0,0-3.862,3.141,11.167,11.167,0,0,0-1.694,6.211,8.2,8.2,0,0,0,2.286,6.1c2.563,2.595,7.029,3.8,14.056,3.8,2.864,0,5.757-.205,8.082-.37h.013c1.734-.124,3.232-.231,4.327-.231.357,0,.662.012.906.036l.457.045.127.442c.314,1.088.074,3.769-.272,7.162-.69,6.774-1.635,16.052,2.629,20.78a9.88,9.88,0,0,0,7.683,3.025h.028c3.611,0,6.4-.981,8.29-2.913,3.665-3.745,3.521-10.426,3.381-16.886v-.01c-.111-5.176-.226-10.529,1.726-13.687l.055-.089.08-.068a4.382,4.382,0,0,1,2.5-.47c1.39,0,3.223.188,4.995.37l.02,0a72.984,72.984,0,0,0,7.306.493h.014a18.2,18.2,0,0,0,7.817-1.385,8.6,8.6,0,0,0,3.632-3.2,11.9,11.9,0,0,0,1.561-6.363c0-2.812-.9-4.879-2.663-6.144a10.53,10.53,0,0,0-6.231-1.54,58.167,58.167,0,0,0-8.288.858l-.027,0a52.193,52.193,0,0,1-7.217.77c-3.657,0-4.473-1.2-4.775-2.239-.609-2.1-.559-5.178-.5-8.433.1-5.968.211-12.732-3.631-16.636-2.042-2.076-5.045-3.129-8.926-3.129m1.564,79.874h0M94.329,275.88c4.069,0,7.235,1.121,9.409,3.331,4.04,4.107,3.926,11.022,3.825,17.123-.053,3.2-.1,6.227.478,8.233.152.524.508,1.75,4.124,1.75a51.986,51.986,0,0,0,7.143-.767,58.672,58.672,0,0,1,8.389-.866c2.89,0,5.058.544,6.626,1.667,1.955,1.4,2.946,3.651,2.946,6.695,0,11.627-10.3,11.627-13.688,11.627a73.278,73.278,0,0,1-7.41-.5c-1.844-.189-3.586-.366-4.926-.366-1.7,0-2.043.294-2.057.306-1.848,2.989-1.734,8.244-1.625,13.326.143,6.6.29,13.427-3.574,17.375-2.022,2.068-4.974,3.116-8.774,3.117h-.028A10.528,10.528,0,0,1,87,354.683c-4.466-4.952-3.5-14.4-2.8-21.3.255-2.5.6-5.858.295-6.9-.183-.018-.452-.033-.84-.033-1.068,0-2.556.106-4.279.229-2.339.166-5.25.373-8.143.373-7.22,0-11.839-1.272-14.538-4.005a8.851,8.851,0,0,1-2.481-6.587c.14-11.385,10.805-11.385,14.82-11.385,1.6,0,3.2.072,4.753.14,1.442.064,2.805.123,4.064.123,4.9,0,5.614-1.009,5.754-2-.218-1.973-1.768-17.851,4.1-24.467A8.524,8.524,0,0,1,94.329,275.88Zm.886,80.552h0Z" transform="translate(213.786 105.12)" fill="#231f20"/>
  </g>
</svg>
