<svg xmlns="http://www.w3.org/2000/svg" xmlns:xlink="http://www.w3.org/1999/xlink" width="178.58" height="249.45" viewBox="0 0 178.58 249.45">
  <defs>
    <clipPath id="clip-path">
      <rect id="Rectangle_1" data-name="Rectangle 1" width="178.58" height="249.45" fill="none"/>
    </clipPath>
  </defs>
  <g id="fr-division" transform="translate(-817 -297)">
    <g id="Groupe_138" data-name="Groupe 138">
      <g id="Groupe_1" data-name="Groupe 1" transform="translate(817 297)" clip-path="url(#clip-path)">
        <path id="Tracé_1" data-name="Tracé 1" d="M8.5,0H170.08a8.5,8.5,0,0,1,8.5,8.5V240.95a8.5,8.5,0,0,1-8.5,8.5H8.5a8.5,8.5,0,0,1-8.5-8.5V8.5A8.5,8.5,0,0,1,8.5,0" fill="#fff"/>
        <path id="Tracé_2" data-name="Tracé 2" d="M171.5,58.26V10.09a3.013,3.013,0,0,0-3.01-3.01H10.09a3,3,0,0,0-3,3.01V239.35a3,3,0,0,0,3,3.01h158.4a3.013,3.013,0,0,0,3.01-3.01V91.4m0-.01V58.29M29.01,44.95a.076.076,0,0,1,.02-.04.142.142,0,0,0-.02.06" fill="#fceef4"/>
      </g>
    </g>
    <path id="Tracé_17" data-name="Tracé 17" d="M427.519,260.431a5.046,5.046,0,0,0-1.029-.105c-9.432,0-20.505,26.465-26.265,42.239-8.754,23.973-14.745,49.048-14.9,62.4-.09,7.468,1.7,11.3,5.331,11.386h.153c16.1,0,39.042-65.519,42.118-95.559C434.2,268.286,432.385,261.435,427.519,260.431Z" transform="translate(496.972 103.688)" fill="#9bb58c"/>
    <path id="Tracé_17_-_Contour" data-name="Tracé 17 - Contour" d="M426.49,261c-2.009,0-4.287,1.4-6.769,4.157a57.087,57.087,0,0,0-7.145,10.693A213.685,213.685,0,0,0,400.862,302.8c-8.731,23.911-14.7,48.9-14.864,62.174-.044,3.613.363,6.36,1.208,8.165a3.791,3.791,0,0,0,3.456,2.535h.142c1.778,0,3.752-.913,5.867-2.712a38.362,38.362,0,0,0,6.512-7.7c4.174-6.184,8.647-15.065,12.936-25.682a288.372,288.372,0,0,0,10.535-31.365,178.589,178.589,0,0,0,5.594-27.495c.629-6.142.5-10.936-.377-14.25a9.521,9.521,0,0,0-1.79-3.755,4.684,4.684,0,0,0-2.7-1.623,4.362,4.362,0,0,0-.89-.091m0-.678a5.046,5.046,0,0,1,1.029.105c4.866,1,6.684,7.855,5.4,20.36-3.076,30.04-26.016,95.559-42.118,95.559h-.153c-3.627-.088-5.421-3.918-5.331-11.386.16-13.35,6.151-38.425,14.9-62.4C405.985,286.791,417.058,260.326,426.49,260.326Z" transform="translate(496.972 103.688)" fill="#231f20"/>
  </g>
</svg>
