<svg xmlns="http://www.w3.org/2000/svg" xmlns:xlink="http://www.w3.org/1999/xlink" width="178.58" height="249.45" viewBox="0 0 178.58 249.45">
  <defs>
    <clipPath id="clip-path">
      <rect id="Rectangle_1" data-name="Rectangle 1" width="178.58" height="249.45" fill="none"/>
    </clipPath>
  </defs>
  <g id="fr-egale" transform="translate(-618 -297)">
    <g id="Groupe_1" data-name="Groupe 1" transform="translate(618 297)" clip-path="url(#clip-path)">
      <path id="Tracé_1" data-name="Tracé 1" d="M8.5,0H170.08a8.5,8.5,0,0,1,8.5,8.5V240.95a8.5,8.5,0,0,1-8.5,8.5H8.5a8.5,8.5,0,0,1-8.5-8.5V8.5A8.5,8.5,0,0,1,8.5,0" fill="#fff"/>
      <path id="Tracé_2" data-name="Tracé 2" d="M171.5,58.26V10.09a3.013,3.013,0,0,0-3.01-3.01H10.09a3,3,0,0,0-3,3.01V239.35a3,3,0,0,0,3,3.01h158.4a3.013,3.013,0,0,0,3.01-3.01V91.4m0-.01V58.29M29.01,44.95a.076.076,0,0,1,.02-.04.142.142,0,0,0-.02.06" fill="#fceef4"/>
    </g>
    <g id="Groupe_15" data-name="Groupe 15" transform="translate(409.792 105.845)">
      <path id="Tracé_15" data-name="Tracé 15" d="M299.613,314.546c9.6,0,18.412-.812,24.809-2.286,8.055-1.856,12.139-4.72,12.138-8.511,0-8.69-30.337-10.594-42.027-10.594-8.2,0-27.906.664-33.673,6.816a5.54,5.54,0,0,0-1.641,4.248C259.745,312.371,284.857,314.546,299.613,314.546Z" fill="#9bb58c"/>
      <path id="Tracé_15_-_Contour" data-name="Tracé 15 - Contour" d="M299.613,313.868c9.551,0,18.308-.806,24.657-2.269a26.009,26.009,0,0,0,8.853-3.424c1.857-1.3,2.76-2.75,2.759-4.426,0-1.732-1.524-3.315-4.53-4.706a48.1,48.1,0,0,0-11.538-3.182,164.451,164.451,0,0,0-25.282-2.028,135.359,135.359,0,0,0-17.656,1.094,53.358,53.358,0,0,0-9.262,2.027,15.13,15.13,0,0,0-6.261,3.481,4.889,4.889,0,0,0-1.459,3.741c.107,1.657,1.483,3.168,4.089,4.492a39.883,39.883,0,0,0,10.223,3.106,145.631,145.631,0,0,0,25.406,2.094m0,.678c-14.756,0-39.868-2.175-40.394-10.327a5.54,5.54,0,0,1,1.641-4.248c5.767-6.152,25.47-6.816,33.673-6.816,11.69,0,42.027,1.9,42.027,10.594,0,3.791-4.083,6.655-12.138,8.511C318.025,313.734,309.215,314.546,299.613,314.546Z" fill="#231f20"/>
      <path id="Tracé_16" data-name="Tracé 16" d="M294.534,317.618c-8.2,0-27.906.664-33.674,6.817a5.541,5.541,0,0,0-1.641,4.248c.526,8.151,25.639,10.327,40.4,10.327,9.6,0,18.411-.813,24.808-2.286,8.055-1.857,12.139-4.72,12.138-8.511C336.56,319.522,306.224,317.618,294.534,317.618Z" fill="#9bb58c"/>
      <path id="Tracé_16_-_Contour" data-name="Tracé 16 - Contour" d="M294.534,318.3a135.342,135.342,0,0,0-17.656,1.095,53.353,53.353,0,0,0-9.262,2.027,15.133,15.133,0,0,0-6.261,3.482,4.889,4.889,0,0,0-1.459,3.741c.107,1.657,1.483,3.168,4.089,4.492a39.89,39.89,0,0,0,10.223,3.106,145.62,145.62,0,0,0,25.407,2.095c9.546,0,18.3-.806,24.656-2.269a26.022,26.022,0,0,0,8.853-3.425c1.857-1.3,2.76-2.75,2.759-4.426,0-1.732-1.524-3.316-4.53-4.707a48.089,48.089,0,0,0-11.537-3.182,164.431,164.431,0,0,0-25.281-2.028m0-.678c11.69,0,42.026,1.9,42.026,10.6,0,3.791-4.083,6.654-12.138,8.511-6.4,1.473-15.207,2.286-24.808,2.286-14.756,0-39.869-2.176-40.4-10.327a5.541,5.541,0,0,1,1.641-4.248C266.628,318.282,286.331,317.618,294.534,317.618Z" fill="#231f20"/>
    </g>
  </g>
</svg>
