<svg xmlns="http://www.w3.org/2000/svg" xmlns:xlink="http://www.w3.org/1999/xlink" width="178.58" height="249.45" viewBox="0 0 178.58 249.45">
  <defs>
    <clipPath id="clip-path">
      <rect id="Rectangle_1" data-name="Rectangle 1" width="178.58" height="249.45" fill="none"/>
    </clipPath>
  </defs>
  <g id="fr-multiplication" transform="translate(-1016 -297)">
    <g id="Groupe_1" data-name="Groupe 1" transform="translate(1016 297)" clip-path="url(#clip-path)">
      <path id="Tracé_1" data-name="Tracé 1" d="M8.5,0H170.08a8.5,8.5,0,0,1,8.5,8.5V240.95a8.5,8.5,0,0,1-8.5,8.5H8.5a8.5,8.5,0,0,1-8.5-8.5V8.5A8.5,8.5,0,0,1,8.5,0" fill="#fff"/>
      <path id="Tracé_2" data-name="Tracé 2" d="M171.5,58.26V10.09a3.013,3.013,0,0,0-3.01-3.01H10.09a3,3,0,0,0-3,3.01V239.35a3,3,0,0,0,3,3.01h158.4a3.013,3.013,0,0,0,3.01-3.01V91.4m0-.01V58.29M29.01,44.95a.076.076,0,0,1,.02-.04.142.142,0,0,0-.02.06" fill="#fceef4"/>
    </g>
    <path id="Tracé_18" data-name="Tracé 18" d="M539.23,320.2c-1.5-1.447-2.792-2.7-3.606-3.67-.621-.742,3.623-4.415,5.663-6.179,6.433-5.567,15.243-13.19,8.963-21.273-3.029-3.9-6.482-5.876-10.266-5.876-6.984,0-13.174,6.681-17.271,11.1a29.979,29.979,0,0,1-2.944,2.95c-.758-.369-2.422-2.379-3.657-3.87-3.62-4.372-8.579-10.361-15.032-10.361a12.19,12.19,0,0,0-7.16,2.547,9.271,9.271,0,0,0-3.968,7c-.871,10.274,12.509,24.625,14.477,26.676.264,1.369-3.723,4.7-6.663,7.149-5.694,4.75-12.147,10.135-12,16.485.077,3.318,2.019,6.445,5.773,9.3a11.526,11.526,0,0,0,7.066,2.491c7.632,0,14.723-7.814,18.959-12.481a34,34,0,0,1,2.921-3.013c.925.329,3.225,2.589,4.928,4.261,4.366,4.292,9.8,9.631,15.221,9.631a7.771,7.771,0,0,0,4.791-1.646c4.059-3.081,6.235-6.622,6.467-10.523C552.368,332.895,544.462,325.257,539.23,320.2Z" transform="translate(586.237 102.976)" fill="#9bb58c"/>
    <path id="Tracé_18_-_Contour" data-name="Tracé 18 - Contour" d="M498.605,353.991c7.33,0,14.294-7.672,18.457-12.259l.009-.01a32.988,32.988,0,0,1,3.007-3.09l.291-.218.343.122c.985.35,2.839,2.121,5.16,4.4l.016.016c4.277,4.2,9.6,9.437,14.746,9.437a7.109,7.109,0,0,0,4.381-1.508c3.894-2.956,5.98-6.328,6.2-10.023.457-7.691-7.313-15.2-12.456-20.168-1.512-1.46-2.818-2.722-3.655-3.722-.668-.8.222-1.978,1.875-3.622,1.261-1.254,2.827-2.609,3.865-3.506,3.257-2.818,6.948-6.012,9.114-9.535a10.526,10.526,0,0,0,1.767-5.289,8.5,8.5,0,0,0-2.011-5.52c-2.894-3.725-6.168-5.614-9.731-5.614-6.685,0-12.754,6.547-16.769,10.879l-.055.059a28.578,28.578,0,0,1-3,2.988l-.328.233-.362-.176c-.823-.4-2.183-2-3.875-4.039l-.007-.009c-3.535-4.269-8.376-10.115-14.51-10.115a11.529,11.529,0,0,0-6.763,2.419,8.621,8.621,0,0,0-3.69,6.51,17.363,17.363,0,0,0,1.569,7.9,45.7,45.7,0,0,0,4.49,8.085,83.085,83.085,0,0,0,8.231,10.166l.139.144.038.2c.17.881-.522,2.01-2.315,3.774-1.348,1.327-3.059,2.755-4.568,4.014l-.011.009c-5.576,4.652-11.9,9.924-11.757,15.949.072,3.1,1.924,6.052,5.5,8.771a10.862,10.862,0,0,0,6.657,2.353m0,.678a11.526,11.526,0,0,1-7.066-2.491c-3.754-2.85-5.7-5.977-5.773-9.3-.147-6.35,6.306-11.735,12-16.485,2.94-2.454,6.927-5.78,6.663-7.149-1.968-2.051-15.348-16.4-14.477-26.676a9.271,9.271,0,0,1,3.968-7,12.19,12.19,0,0,1,7.16-2.547c6.453,0,11.412,5.989,15.032,10.361,1.235,1.491,2.9,3.5,3.657,3.87a29.979,29.979,0,0,0,2.944-2.95c4.1-4.42,10.287-11.1,17.271-11.1,3.784,0,7.237,1.977,10.266,5.876,6.28,8.083-2.53,15.706-8.963,21.273-2.04,1.764-6.284,5.437-5.663,6.179.814.973,2.108,2.223,3.606,3.67,5.232,5.055,13.138,12.693,12.662,20.7-.232,3.9-2.408,7.442-6.467,10.523a7.771,7.771,0,0,1-4.791,1.646c-5.421,0-10.855-5.339-15.221-9.631-1.7-1.672-4-3.932-4.928-4.261a34,34,0,0,0-2.921,3.013C513.328,346.855,506.237,354.669,498.605,354.669Z" transform="translate(586.237 102.976)" fill="#231f20"/>
  </g>
</svg>
