<svg xmlns="http://www.w3.org/2000/svg" xmlns:xlink="http://www.w3.org/1999/xlink" width="178.58" height="249.45" viewBox="0 0 178.58 249.45">
  <defs>
    <clipPath id="clip-path">
      <rect id="Rectangle_1" data-name="Rectangle 1" width="178.58" height="249.45" fill="none"/>
    </clipPath>
  </defs>
  <g id="fr-soustraction" transform="translate(-419 -297)">
    <g id="Groupe_1" data-name="Groupe 1" transform="translate(419 297)" clip-path="url(#clip-path)">
      <path id="Tracé_1" data-name="Tracé 1" d="M8.5,0H170.08a8.5,8.5,0,0,1,8.5,8.5V240.95a8.5,8.5,0,0,1-8.5,8.5H8.5a8.5,8.5,0,0,1-8.5-8.5V8.5A8.5,8.5,0,0,1,8.5,0" fill="#fff"/>
      <path id="Tracé_2" data-name="Tracé 2" d="M171.5,58.26V10.09a3.013,3.013,0,0,0-3.01-3.01H10.09a3,3,0,0,0-3,3.01V239.35a3,3,0,0,0,3,3.01h158.4a3.013,3.013,0,0,0,3.01-3.01V91.4m0-.01V58.29M29.01,44.95a.076.076,0,0,1,.02-.04.142.142,0,0,0-.02.06" fill="#fceef4"/>
    </g>
    <path id="Tracé_14" data-name="Tracé 14" d="M218.638,313.726c-.972-7.307-12.031-11.13-22.454-11.13-9.736,0-21.116,3.527-21.142,13.467a10.108,10.108,0,0,0,3.148,7.354c3.753,3.764,10.7,6.01,18.575,6.01,8.343,0,15.518-2.505,19.193-6.7A11.079,11.079,0,0,0,218.638,313.726Z" transform="translate(311.395 105.714)" fill="#9bb58c"/>
    <path id="Tracé_14_-_Contour" data-name="Tracé 14 - Contour" d="M196.184,303.274a30.762,30.762,0,0,0-13.9,2.929,13.138,13.138,0,0,0-4.745,3.954,10.064,10.064,0,0,0-1.821,5.908,9.453,9.453,0,0,0,2.95,6.874c3.628,3.639,10.392,5.811,18.1,5.811,8.15,0,15.135-2.418,18.683-6.469a10.419,10.419,0,0,0,2.518-8.465c-.529-3.975-4.255-6.422-7.287-7.776a37.007,37.007,0,0,0-14.495-2.766m0-.678c10.423,0,21.482,3.823,22.454,11.13a11.079,11.079,0,0,1-2.68,9c-3.675,4.2-10.85,6.7-19.193,6.7-7.878,0-14.822-2.246-18.575-6.01a10.108,10.108,0,0,1-3.148-7.354C175.068,306.123,186.448,302.6,196.184,302.6Z" transform="translate(311.395 105.714)" fill="#231f20"/>
  </g>
</svg>
