<svg xmlns="http://www.w3.org/2000/svg" width="178.58" height="249.45" viewBox="0 0 178.58 249.45">
  <g id="fr100" transform="translate(-1812 -2872)">
    <path id="Tracé_1" data-name="Tracé 1" d="M8.5,0H170.08a8.5,8.5,0,0,1,8.5,8.5V240.95a8.5,8.5,0,0,1-8.5,8.5H8.5a8.5,8.5,0,0,1-8.5-8.5V8.5A8.5,8.5,0,0,1,8.5,0" transform="translate(1812 2872)" fill="#fff"/>
    <path id="Tracé_2" data-name="Tracé 2" d="M171.5,58.26V10.09a3.013,3.013,0,0,0-3.01-3.01H10.09a3,3,0,0,0-3,3.01V239.35a3,3,0,0,0,3,3.01h158.4a3.013,3.013,0,0,0,3.01-3.01V91.4m0-.01V58.29M29.01,44.95a.076.076,0,0,1,.02-.04.142.142,0,0,0-.02.06" transform="translate(1812 2872)" fill="#fceef4"/>
    <rect id="Rectangle_1" data-name="Rectangle 1" width="178.58" height="249.45" transform="translate(1812 2872)" fill="none"/>
    <path id="nb2" d="M101.27,34.559C95.9,27.63,89.161,23.814,82.3,23.814c-6,0-11.83,2.958-16.41,8.328C60.978,37.9,57.618,46.177,56.17,56.084c-.968,6.618,1.2,20.654,7.787,29.795,4.013,5.569,8.952,8.393,14.681,8.394h0c.453,0,.918-.018,1.38-.055,11.569-.911,20.3-8.245,24.573-20.653C109.16,60.314,107.67,42.815,101.27,34.559ZM93.609,70.218c-1.2,5.8-6.963,11.937-11.205,11.937a3.852,3.852,0,0,1-1.052-.141A7.661,7.661,0,0,1,76.6,77.169a15.645,15.645,0,0,1-.631-8.911C77.223,62.2,83.483,55.3,87.718,55.3a3.338,3.338,0,0,1,.913.122c1.966.559,3.573,2.44,4.526,5.3A18.855,18.855,0,0,1,93.609,70.218Z" transform="translate(1871.094 2939.904)" fill="#ef9f5e"/>
    <path id="nb2_-_Contour" data-name="nb2 - Contour" d="M82.3,24.492c-5.8,0-11.445,2.873-15.894,8.09C61.577,38.24,58.27,46.4,56.84,56.182c-.506,3.458-.113,8.58,1.051,13.7a44,44,0,0,0,6.615,15.6c3.878,5.382,8.632,8.112,14.132,8.112.435,0,.882-.018,1.327-.052A25.354,25.354,0,0,0,94.6,87.684a31.848,31.848,0,0,0,9.347-14.34,52.52,52.52,0,0,0,2.418-21.1,44.238,44.238,0,0,0-1.882-9.765,24.455,24.455,0,0,0-3.752-7.507C95.5,28.214,88.947,24.492,82.3,24.492M82.4,82.832a4.531,4.531,0,0,1-1.238-.167,8.316,8.316,0,0,1-5.2-5.243,16.326,16.326,0,0,1-.666-9.3,20.651,20.651,0,0,1,4.92-9.07c2.554-2.817,5.285-4.432,7.5-4.432a4.013,4.013,0,0,1,1.1.148C91,55.388,92.774,57.426,93.8,60.5a19.55,19.55,0,0,1,.473,9.851,18.378,18.378,0,0,1-4.633,8.47c-2.39,2.546-5.028,4.007-7.236,4.007M82.3,23.814c6.865,0,13.6,3.816,18.974,10.745,6.4,8.256,7.889,25.755,3.321,39.006-4.276,12.408-13,19.742-24.573,20.653-.463.036-.927.054-1.38.054h0c-5.729,0-10.668-2.825-14.681-8.394C57.369,76.738,55.2,62.7,56.17,56.084c1.449-9.907,4.809-18.187,9.717-23.942C70.466,26.772,76.294,23.814,82.3,23.814ZM82.4,82.155c4.242,0,10-6.136,11.205-11.937a18.855,18.855,0,0,0-.452-9.5c-.953-2.859-2.56-4.741-4.526-5.3a3.338,3.338,0,0,0-.913-.122c-4.235,0-10.5,6.905-11.751,12.962a15.645,15.645,0,0,0,.631,8.911,7.661,7.661,0,0,0,4.754,4.844A3.852,3.852,0,0,0,82.4,82.155Z" transform="translate(1871.094 2939.904)" fill="#231f20"/>
    <path id="nb2-2" data-name="nb2" d="M101.27,34.559C95.9,27.63,89.161,23.814,82.3,23.814c-6,0-11.83,2.958-16.41,8.328C60.978,37.9,57.618,46.177,56.17,56.084c-.968,6.618,1.2,20.654,7.787,29.795,4.013,5.569,8.952,8.393,14.681,8.394h0c.453,0,.918-.018,1.38-.055,11.569-.911,20.3-8.245,24.573-20.653C109.16,60.314,107.67,42.815,101.27,34.559ZM93.609,70.218c-1.2,5.8-6.963,11.937-11.205,11.937a3.852,3.852,0,0,1-1.052-.141A7.661,7.661,0,0,1,76.6,77.169a15.645,15.645,0,0,1-.631-8.911C77.223,62.2,83.483,55.3,87.718,55.3a3.338,3.338,0,0,1,.913.122c1.966.559,3.573,2.44,4.526,5.3A18.855,18.855,0,0,1,93.609,70.218Z" transform="translate(1812.494 2941.34)" fill="#ef9f5e"/>
    <path id="nb2_-_Contour-2" data-name="nb2 - Contour" d="M82.3,24.492c-5.8,0-11.445,2.873-15.894,8.09C61.577,38.24,58.27,46.4,56.84,56.182c-.506,3.458-.113,8.58,1.051,13.7a44,44,0,0,0,6.615,15.6c3.878,5.382,8.632,8.112,14.132,8.112.435,0,.882-.018,1.327-.052A25.354,25.354,0,0,0,94.6,87.684a31.848,31.848,0,0,0,9.347-14.34,52.52,52.52,0,0,0,2.418-21.1,44.238,44.238,0,0,0-1.882-9.765,24.455,24.455,0,0,0-3.752-7.507C95.5,28.214,88.947,24.492,82.3,24.492M82.4,82.832a4.531,4.531,0,0,1-1.238-.167,8.316,8.316,0,0,1-5.2-5.243,16.326,16.326,0,0,1-.666-9.3,20.651,20.651,0,0,1,4.92-9.07c2.554-2.817,5.285-4.432,7.5-4.432a4.013,4.013,0,0,1,1.1.148C91,55.388,92.774,57.426,93.8,60.5a19.55,19.55,0,0,1,.473,9.851,18.378,18.378,0,0,1-4.633,8.47c-2.39,2.546-5.028,4.007-7.236,4.007M82.3,23.814c6.865,0,13.6,3.816,18.974,10.745,6.4,8.256,7.889,25.755,3.321,39.006-4.276,12.408-13,19.742-24.573,20.653-.463.036-.927.054-1.38.054h0c-5.729,0-10.668-2.825-14.681-8.394C57.369,76.738,55.2,62.7,56.17,56.084c1.449-9.907,4.809-18.187,9.717-23.942C70.466,26.772,76.294,23.814,82.3,23.814ZM82.4,82.155c4.242,0,10-6.136,11.205-11.937a18.855,18.855,0,0,0-.452-9.5c-.953-2.859-2.56-4.741-4.526-5.3a3.338,3.338,0,0,0-.913-.122c-4.235,0-10.5,6.905-11.751,12.962a15.645,15.645,0,0,0,.631,8.911,7.661,7.661,0,0,0,4.754,4.844A3.852,3.852,0,0,0,82.4,82.155Z" transform="translate(1812.494 2941.34)" fill="#231f20"/>
    <path id="Tracé_149" data-name="Tracé 149" d="M200.178,79.376c-2.5-.145-4.008-.232-3.958-5.1.047-4.511-.35-10.172-.77-16.165-.459-6.547-.933-13.317-.762-18.3.2-5.867-.648-9.821-2.6-12.087a5.751,5.751,0,0,0-4.553-2.049c-6.931,0-16.528,9.593-21.106,15.261l-.115.142-.063.178c-1.084,3.072-1.193,5.4-.332,7.114,1.263,2.515,4.173,3.078,7.254,3.675a27.9,27.9,0,0,1,3.875.94c.892.315,1.618,1.243,2.156,2.76,2.1,5.9.559,18.415-1.029,21.595-.517,1.036-2.175,1.395-3.931,1.774-3.391.733-8.036,1.738-7.408,8.975.381,4.385,4.042,6.607,10.884,6.607a50.486,50.486,0,0,0,6.735-.544c.508-.068.891-.121,1.106-.134,1.3-.08,3.188-.028,5.178.042,1.363.048,2.772.1,4.169.1,3.444,0,11.507,0,11.507-6.552C206.418,79.739,202.811,79.529,200.178,79.376Z" transform="translate(1662.206 2939.477)" fill="#ef9f5e"/>
    <path id="Tracé_149_-_Contour" data-name="Tracé 149 - Contour" d="M177.722,94.022a49.838,49.838,0,0,0,6.646-.539l.158-.021c.452-.06.779-.1,1-.118.455-.028.993-.042,1.644-.042,1.1,0,2.378.04,3.6.083h.042c1.343.047,2.732.1,4.1.1a22.382,22.382,0,0,0,6.83-.784c2.691-.9,4-2.566,4-5.09a14.053,14.053,0,0,0-.569-4.369,4.65,4.65,0,0,0-1.326-2.127,5.965,5.965,0,0,0-3.705-1.06c-1.341-.078-2.5-.145-3.362-.964-.891-.845-1.26-2.287-1.234-4.819.046-4.484-.349-10.132-.768-16.111-.46-6.562-.936-13.347-.763-18.37.2-5.69-.6-9.491-2.434-11.621a5.1,5.1,0,0,0-4.039-1.814c-2.875,0-6.682,1.851-11.009,5.354a68.626,68.626,0,0,0-9.57,9.654l-.042.052-.024.069c-1.02,2.889-1.139,5.043-.365,6.584,1.114,2.217,3.738,2.725,6.782,3.315a28.363,28.363,0,0,1,3.968.966c1.095.386,1.959,1.453,2.57,3.172,1.3,3.665,1.125,9.15.9,12.094-.323,4.293-1.113,8.324-1.966,10.031-.663,1.328-2.475,1.72-4.4,2.134a11.325,11.325,0,0,0-4.922,1.908c-1.572,1.3-2.211,3.378-1.954,6.345a5.4,5.4,0,0,0,2.7,4.427c1.706,1.036,4.234,1.561,7.513,1.561m0,.678c-6.841,0-10.5-2.223-10.884-6.607-.628-7.237,4.018-8.242,7.408-8.975,1.756-.379,3.414-.738,3.931-1.774,1.589-3.18,3.125-15.7,1.029-21.595-.539-1.517-1.265-2.445-2.156-2.76a27.9,27.9,0,0,0-3.875-.94c-3.081-.6-5.991-1.16-7.254-3.675-.861-1.714-.752-4.042.332-7.114l.063-.178.115-.142c4.578-5.668,14.175-15.261,21.106-15.261a5.751,5.751,0,0,1,4.553,2.049c1.95,2.265,2.8,6.22,2.6,12.087-.172,4.982.3,11.752.762,18.3.42,5.993.817,11.654.77,16.165-.05,4.867,1.458,4.954,3.958,5.1,2.633.153,6.24.363,6.24,8.233,0,6.551-8.064,6.552-11.507,6.552-1.4,0-2.806-.05-4.169-.1-1.99-.071-3.88-.123-5.178-.042-.215.013-.6.066-1.106.134A50.486,50.486,0,0,1,177.722,94.7Z" transform="translate(1662.206 2939.477)" fill="#231f20"/>
  </g>
</svg>
