<svg xmlns="http://www.w3.org/2000/svg" xmlns:xlink="http://www.w3.org/1999/xlink" width="178.58" height="249.45" viewBox="0 0 178.58 249.45">
  <defs>
    <clipPath id="clip-path">
      <rect id="Rectangle_1" data-name="Rectangle 1" width="178.58" height="249.45" fill="none"/>
    </clipPath>
  </defs>
  <g id="fr14" transform="translate(-21 -1522)">
    <g id="Groupe_1" data-name="Groupe 1" transform="translate(21 1522)" clip-path="url(#clip-path)">
      <path id="Tracé_1" data-name="Tracé 1" d="M8.5,0H170.08a8.5,8.5,0,0,1,8.5,8.5V240.95a8.5,8.5,0,0,1-8.5,8.5H8.5a8.5,8.5,0,0,1-8.5-8.5V8.5A8.5,8.5,0,0,1,8.5,0" fill="#fff"/>
      <path id="Tracé_2" data-name="Tracé 2" d="M171.5,58.26V10.09a3.013,3.013,0,0,0-3.01-3.01H10.09a3,3,0,0,0-3,3.01V239.35a3,3,0,0,0,3,3.01h158.4a3.013,3.013,0,0,0,3.01-3.01V91.4m0-.01V58.29M29.01,44.95a.076.076,0,0,1,.02-.04.142.142,0,0,0-.02.06" fill="#fceef4"/>
    </g>
    <path id="Tracé_28" data-name="Tracé 28" d="M211.673,84.676c-3.324-.159-5.331-.255-5.264-5.6.062-4.957-.466-11.176-1.024-17.76-.611-7.193-1.242-14.632-1.013-20.105.268-6.446-.862-10.791-3.455-13.279a8.416,8.416,0,0,0-6.056-2.252c-9.218,0-21.983,10.54-28.072,16.767l-.153.157-.084.2c-1.442,3.375-1.586,5.932-.441,7.816,1.68,2.763,5.551,3.382,9.649,4.038a43.715,43.715,0,0,1,5.154,1.033,4.828,4.828,0,0,1,2.868,3.032c2.787,6.478.744,20.232-1.369,23.726-.688,1.138-2.893,1.533-5.229,1.95-4.51.806-10.688,1.909-9.853,9.861.507,4.817,5.376,7.26,14.476,7.26a80.988,80.988,0,0,0,8.958-.6c.676-.074,1.184-.132,1.471-.147,1.727-.088,4.24-.031,6.887.046,1.813.053,3.687.108,5.545.108,4.58,0,15.305,0,15.305-7.2C219.972,85.074,215.175,84.844,211.673,84.676Z" transform="translate(-119.349 1582.665)" fill="#ef9f5e"/>
    <path id="Tracé_28_-_Contour" data-name="Tracé 28 - Contour" d="M181.806,100.834a80.3,80.3,0,0,0,8.884-.594l.21-.023c.595-.066,1.025-.113,1.3-.127.6-.031,1.307-.045,2.166-.045,1.453,0,3.154.044,4.776.091l.055,0c1.79.052,3.641.106,5.471.106a36.1,36.1,0,0,0,9.189-.876c3.659-1.012,5.438-2.859,5.438-5.645,0-3.6-.834-5.934-2.55-7.149-1.475-1.045-3.4-1.138-5.1-1.219-3.344-.16-5.985-.286-5.909-6.288.062-4.924-.465-11.127-1.022-17.695-.612-7.212-1.245-14.669-1.015-20.191.26-6.242-.8-10.416-3.248-12.762a7.762,7.762,0,0,0-5.586-2.063,18.948,18.948,0,0,0-7.157,1.691,46.3,46.3,0,0,0-7.676,4.242,85.222,85.222,0,0,0-12.754,10.629l-.064.066-.034.08c-1.35,3.16-1.509,5.514-.485,7.2,1.517,2.5,5.238,3.091,9.177,3.721h.006a44.152,44.152,0,0,1,5.231,1.051,5.457,5.457,0,0,1,3.3,3.415c1.736,4.035,1.5,10.072,1.205,13.311-.43,4.722-1.482,9.156-2.617,11.033-.847,1.4-3.2,1.822-5.691,2.266-2.242.4-4.783.855-6.667,2.143a5.791,5.791,0,0,0-2.129,2.537,8.882,8.882,0,0,0-.5,4.442,5.971,5.971,0,0,0,3.645,4.9c2.317,1.162,5.734,1.751,10.156,1.751m0,.678c-9.1,0-13.969-2.442-14.476-7.26-.835-7.952,5.344-9.055,9.853-9.861,2.335-.417,4.541-.811,5.229-1.95,2.113-3.494,4.156-17.248,1.369-23.726a4.828,4.828,0,0,0-2.868-3.032,43.717,43.717,0,0,0-5.154-1.033c-4.1-.656-7.968-1.275-9.649-4.038-1.145-1.884-1-4.441.441-7.816l.084-.2.153-.157c6.089-6.228,18.854-16.767,28.072-16.767a8.416,8.416,0,0,1,6.056,2.252c2.594,2.489,3.724,6.833,3.455,13.279-.228,5.474.4,12.912,1.013,20.105.559,6.585,1.086,12.8,1.024,17.76-.067,5.347,1.939,5.443,5.264,5.6,3.5.168,8.3.4,8.3,9.046,0,7.2-10.725,7.2-15.305,7.2-1.858,0-3.732-.055-5.545-.108-2.647-.077-5.16-.135-6.887-.047-.286.015-.794.073-1.471.147A80.987,80.987,0,0,1,181.806,101.511Z" transform="translate(-119.349 1582.665)" fill="#231f20"/>
    <path id="Tracé_137" data-name="Tracé 137" d="M533.045,65.644a2.421,2.421,0,0,1-1.919-1.005c-1.185-1.838.142-6.371,1.549-11.17,2.452-8.375,5.5-18.8-.561-26.176a5.616,5.616,0,0,0-4.586-1.886c-8.3,0-23.7,11.332-26.715,14.256-8.678,8.429-11.445,12.872-17.138,23.42-3.462,6.415-4.151,11.2-2.108,14.622,2.127,3.564,7.1,5.3,15.2,5.3a99.384,99.384,0,0,0,11.156-.752,1.591,1.591,0,0,1,1.415.567,1.626,1.626,0,0,1,.35,1.359c-.646,3.5-1.678,12.211,2.688,17.457a10.949,10.949,0,0,0,8.873,3.788h.109c3.654-.023,6.268-.939,7.993-2.8,2.788-3.008,2.457-7.735,2.166-11.907-.369-5.289-.272-7.648,2.21-8.038,5.887-.927,9.381-3.865,9.349-7.857C543.038,70.388,538.727,66.445,533.045,65.644Zm-32.914-2.171c1.05-3.742,12-14.3,14.827-14.3.255,0,.482.335.628.617,1.3,2.508.854,9.774-2.138,13.993-1.152,1.625-6.938,4.933-10.93,4.933h0a2.807,2.807,0,0,1-2.35-.839C499.56,67.074,499.547,65.552,500.131,63.473Z" transform="translate(-373.938 1576.886)" fill="#ef9f5e"/>
    <path id="Tracé_137_-_Contour" data-name="Tracé 137 - Contour" d="M521.243,104.741h.108c3.456-.022,5.91-.867,7.5-2.583,2.588-2.792,2.269-7.364,1.987-11.4-.356-5.1-.412-8.252,2.781-8.755a13.487,13.487,0,0,0,6.564-2.628,5.708,5.708,0,0,0,2.214-4.554,7.568,7.568,0,0,0-2.676-5.452,12.7,12.7,0,0,0-6.769-3.055,3.168,3.168,0,0,1-2.394-1.309c-1.354-2.1-.046-6.561,1.469-11.732,1.21-4.132,2.581-8.815,2.887-13.316.346-5.093-.74-9.1-3.321-12.236a4.975,4.975,0,0,0-4.062-1.638c-4.318,0-10.535,3.226-14.99,5.933a78.561,78.561,0,0,0-11.252,8.131c-8.61,8.363-11.358,12.776-17.014,23.256-3.339,6.186-4.033,10.75-2.123,13.953,1.994,3.341,6.772,4.965,14.609,4.965h.006a98.754,98.754,0,0,0,11.081-.748,2.357,2.357,0,0,1,.262-.015,2.3,2.3,0,0,1,2.245,2.738c-.629,3.407-1.639,11.875,2.543,16.9a10.3,10.3,0,0,0,8.349,3.544M514.959,48.5c.48,0,.894.331,1.23.983.714,1.381.947,3.966.61,6.747a18.081,18.081,0,0,1-2.8,7.948,14,14,0,0,1-4.653,3.292,17.07,17.07,0,0,1-6.831,1.927,3.423,3.423,0,0,1-2.891-1.108c-.751-.993-.8-2.674-.148-5,.617-2.2,3.984-6.018,6.928-8.857,1.444-1.393,6.328-5.936,8.551-5.936m6.288,56.923a10.949,10.949,0,0,1-8.873-3.788c-4.366-5.246-3.334-13.956-2.688-17.457a1.626,1.626,0,0,0-.35-1.359,1.591,1.591,0,0,0-1.415-.567A99.384,99.384,0,0,1,496.764,83h-.006c-8.1,0-13.065-1.732-15.191-5.3-2.043-3.424-1.354-8.207,2.108-14.622,5.693-10.548,8.461-14.992,17.138-23.42,3.011-2.924,18.411-14.256,26.715-14.256a5.616,5.616,0,0,1,4.586,1.886c6.065,7.378,3.012,17.8.561,26.176-1.406,4.8-2.734,9.333-1.549,11.17a2.421,2.421,0,0,0,1.919,1.005c5.682.8,9.993,4.745,10.028,9.173.032,3.992-3.463,6.93-9.349,7.857-2.481.391-2.579,2.749-2.21,8.038.292,4.171.622,8.9-2.166,11.907-1.724,1.861-4.339,2.777-7.993,2.8Zm-6.288-56.245c-2.829,0-13.777,10.558-14.827,14.3-.585,2.079-.571,3.6.036,4.4a2.807,2.807,0,0,0,2.35.839h0c3.992,0,9.778-3.308,10.93-4.933,2.992-4.219,3.434-11.485,2.138-13.993C515.441,49.508,515.214,49.174,514.959,49.174Z" transform="translate(-373.938 1576.886)" fill="#231f20"/>
  </g>
</svg>
