<svg xmlns="http://www.w3.org/2000/svg" xmlns:xlink="http://www.w3.org/1999/xlink" width="178.58" height="249.45" viewBox="0 0 178.58 249.45">
  <defs>
    <clipPath id="clip-path">
      <rect id="Rectangle_1" data-name="Rectangle 1" width="178.58" height="249.45" fill="none"/>
    </clipPath>
  </defs>
  <g id="fr15" transform="translate(-21 -1792)">
    <g id="Groupe_1" data-name="Groupe 1" transform="translate(21 1792)" clip-path="url(#clip-path)">
      <path id="Tracé_1" data-name="Tracé 1" d="M8.5,0H170.08a8.5,8.5,0,0,1,8.5,8.5V240.95a8.5,8.5,0,0,1-8.5,8.5H8.5a8.5,8.5,0,0,1-8.5-8.5V8.5A8.5,8.5,0,0,1,8.5,0" fill="#fff"/>
      <path id="Tracé_2" data-name="Tracé 2" d="M171.5,58.26V10.09a3.013,3.013,0,0,0-3.01-3.01H10.09a3,3,0,0,0-3,3.01V239.35a3,3,0,0,0,3,3.01h158.4a3.013,3.013,0,0,0,3.01-3.01V91.4m0-.01V58.29M29.01,44.95a.076.076,0,0,1,.02-.04.142.142,0,0,0-.02.06" fill="#fceef4"/>
    </g>
    <path id="Tracé_28" data-name="Tracé 28" d="M211.673,84.676c-3.324-.159-5.331-.255-5.264-5.6.062-4.957-.466-11.176-1.024-17.76-.611-7.193-1.242-14.632-1.013-20.105.268-6.446-.862-10.791-3.455-13.279a8.416,8.416,0,0,0-6.056-2.252c-9.218,0-21.983,10.54-28.072,16.767l-.153.157-.084.2c-1.442,3.375-1.586,5.932-.441,7.816,1.68,2.763,5.551,3.382,9.649,4.038a43.715,43.715,0,0,1,5.154,1.033,4.828,4.828,0,0,1,2.868,3.032c2.787,6.478.744,20.232-1.369,23.726-.688,1.138-2.893,1.533-5.229,1.95-4.51.806-10.688,1.909-9.853,9.861.507,4.817,5.376,7.26,14.476,7.26a80.988,80.988,0,0,0,8.958-.6c.676-.074,1.184-.132,1.471-.147,1.727-.088,4.24-.031,6.887.046,1.813.053,3.687.108,5.545.108,4.58,0,15.305,0,15.305-7.2C219.972,85.074,215.175,84.844,211.673,84.676Z" transform="translate(-119.349 1852.665)" fill="#ef9f5e"/>
    <path id="Tracé_28_-_Contour" data-name="Tracé 28 - Contour" d="M181.806,100.834a80.3,80.3,0,0,0,8.884-.594l.21-.023c.595-.066,1.025-.113,1.3-.127.6-.031,1.307-.045,2.166-.045,1.453,0,3.154.044,4.776.091l.055,0c1.79.052,3.641.106,5.471.106a36.1,36.1,0,0,0,9.189-.876c3.659-1.012,5.438-2.859,5.438-5.645,0-3.6-.834-5.934-2.55-7.149-1.475-1.045-3.4-1.138-5.1-1.219-3.344-.16-5.985-.286-5.909-6.288.062-4.924-.465-11.127-1.022-17.695-.612-7.212-1.245-14.669-1.015-20.191.26-6.242-.8-10.416-3.248-12.762a7.762,7.762,0,0,0-5.586-2.063,18.948,18.948,0,0,0-7.157,1.691,46.3,46.3,0,0,0-7.676,4.242,85.222,85.222,0,0,0-12.754,10.629l-.064.066-.034.08c-1.35,3.16-1.509,5.514-.485,7.2,1.517,2.5,5.238,3.091,9.177,3.721h.006a44.152,44.152,0,0,1,5.231,1.051,5.457,5.457,0,0,1,3.3,3.415c1.736,4.035,1.5,10.072,1.205,13.311-.43,4.722-1.482,9.156-2.617,11.033-.847,1.4-3.2,1.822-5.691,2.266-2.242.4-4.783.855-6.667,2.143a5.791,5.791,0,0,0-2.129,2.537,8.882,8.882,0,0,0-.5,4.442,5.971,5.971,0,0,0,3.645,4.9c2.317,1.162,5.734,1.751,10.156,1.751m0,.678c-9.1,0-13.969-2.442-14.476-7.26-.835-7.952,5.344-9.055,9.853-9.861,2.335-.417,4.541-.811,5.229-1.95,2.113-3.494,4.156-17.248,1.369-23.726a4.828,4.828,0,0,0-2.868-3.032,43.717,43.717,0,0,0-5.154-1.033c-4.1-.656-7.968-1.275-9.649-4.038-1.145-1.884-1-4.441.441-7.816l.084-.2.153-.157c6.089-6.228,18.854-16.767,28.072-16.767a8.416,8.416,0,0,1,6.056,2.252c2.594,2.489,3.724,6.833,3.455,13.279-.228,5.474.4,12.912,1.013,20.105.559,6.585,1.086,12.8,1.024,17.76-.067,5.347,1.939,5.443,5.264,5.6,3.5.168,8.3.4,8.3,9.046,0,7.2-10.725,7.2-15.305,7.2-1.858,0-3.732-.055-5.545-.108-2.647-.077-5.16-.135-6.887-.047-.286.015-.794.073-1.471.147A80.987,80.987,0,0,1,181.806,101.511Z" transform="translate(-119.349 1852.665)" fill="#231f20"/>
    <path id="Tracé_138" data-name="Tracé 138" d="M92.072,177.291c-3.726-1.195-7.948-2.55-8.247-3.755-.509-2.051-.379-3.53.4-4.522,1.451-1.855,5.225-2.093,8.351-2.093,1.653,0,3.443.079,5.174.155,1.763.077,3.585.158,5.3.158,4.975,0,10.22-.611,11.391-5.139a8.573,8.573,0,0,0-1.327-7.755c-3.344-4.319-11.543-6.508-24.368-6.508a138.974,138.974,0,0,0-15.294.914c-5.155.6-9.359,4.637-11.534,11.086-2.379,7.053-2.011,16.862,3.294,21.961,1.818,1.747,5.986,3,10.813,4.456,7.343,2.211,16.482,4.963,18.3,9.947.744,2.045.223,4.388-1.594,7.16a5.664,5.664,0,0,1-5.21,2.511h0c-3.238,0-7.38-1.448-11.385-2.847-4.222-1.477-8.586-3-12.278-3-5.781,0-8.9,3.651-9.54,11.16a10.482,10.482,0,0,0,2.812,8.285c6.438,7.01,21.811,7.554,26.369,7.554h0a52.1,52.1,0,0,0,7.4-.466c12.217-1.845,26.1-12.4,26.5-24.606C117.923,185.584,102.366,180.594,92.072,177.291Z" transform="translate(57.217 1727.162)" fill="#ef9f5e"/>
    <path id="Tracé_138_-_Contour" data-name="Tracé 138 - Contour" d="M88.744,148.509a138.3,138.3,0,0,0-15.216.909c-4.884.564-8.882,4.438-10.969,10.629a27.233,27.233,0,0,0-1.2,11.419c.336,2.914,1.359,6.986,4.325,9.837,1.7,1.634,5.8,2.867,10.538,4.3,7.488,2.255,16.807,5.061,18.737,10.364.823,2.26.278,4.8-1.664,7.763a6.365,6.365,0,0,1-5.779,2.817c-3.351,0-7.543-1.465-11.6-2.881l-.011,0c-4.166-1.457-8.474-2.964-12.054-2.964a7.623,7.623,0,0,0-6.183,2.527c-1.474,1.724-2.376,4.42-2.682,8.013A9.829,9.829,0,0,0,57.621,219a17.2,17.2,0,0,0,5.963,3.973A37.392,37.392,0,0,0,71.14,225.2a67.538,67.538,0,0,0,12.352,1.136,51.426,51.426,0,0,0,7.3-.459,32.858,32.858,0,0,0,9.049-2.849,37,37,0,0,0,8.29-5.411c5.359-4.666,8.407-10.241,8.584-15.7a19.114,19.114,0,0,0-2.2-9.94,20.359,20.359,0,0,0-6.119-6.71c-5.022-3.642-11.4-5.689-16.53-7.334-1.9-.61-3.872-1.242-5.458-1.892-2.074-.85-3.042-1.551-3.239-2.345-.562-2.267-.392-3.936.521-5.1a6.3,6.3,0,0,1,3.953-1.99,27.469,27.469,0,0,1,4.932-.363c1.654,0,3.435.078,5.159.154l.085,0c1.742.077,3.543.156,5.231.156a22.251,22.251,0,0,0,6.9-.834,5.376,5.376,0,0,0,3.834-3.8,7.929,7.929,0,0,0-1.206-7.171c-1.571-2.029-4.353-3.588-8.267-4.634a62.22,62.22,0,0,0-15.565-1.611m0-.678c12.826,0,21.025,2.189,24.368,6.508a8.573,8.573,0,0,1,1.326,7.755c-1.171,4.528-6.415,5.139-11.391,5.139-1.715,0-3.538-.081-5.3-.158-1.731-.076-3.521-.155-5.174-.155-3.126,0-6.9.238-8.351,2.093-.776.992-.906,2.471-.4,4.522.3,1.205,4.521,2.56,8.247,3.755,10.294,3.3,25.851,8.294,25.321,24.652-.395,12.2-14.282,22.761-26.5,24.606a52.1,52.1,0,0,1-7.4.466h0c-4.558,0-19.93-.545-26.369-7.554a10.482,10.482,0,0,1-2.812-8.285c.639-7.509,3.759-11.16,9.54-11.16,3.692,0,8.057,1.525,12.278,3,4.005,1.4,8.147,2.847,11.385,2.847h0a5.664,5.664,0,0,0,5.21-2.511c1.817-2.772,2.338-5.114,1.594-7.16-1.814-4.983-10.952-7.735-18.3-9.947-4.827-1.454-8.995-2.709-10.813-4.456-5.305-5.1-5.673-14.908-3.294-21.961,2.175-6.449,6.379-10.49,11.534-11.086A138.974,138.974,0,0,1,88.744,147.831Z" transform="translate(57.217 1727.162)" fill="#231f20"/>
  </g>
</svg>
