<svg xmlns="http://www.w3.org/2000/svg" xmlns:xlink="http://www.w3.org/1999/xlink" width="178.58" height="249.45" viewBox="0 0 178.58 249.45">
  <defs>
    <clipPath id="clip-path">
      <rect id="Rectangle_1" data-name="Rectangle 1" width="178.58" height="249.45" fill="none"/>
    </clipPath>
  </defs>
  <g id="fr17" transform="translate(-21 -2332)">
    <g id="Groupe_1" data-name="Groupe 1" transform="translate(21 2332)" clip-path="url(#clip-path)">
      <path id="Tracé_1" data-name="Tracé 1" d="M8.5,0H170.08a8.5,8.5,0,0,1,8.5,8.5V240.95a8.5,8.5,0,0,1-8.5,8.5H8.5a8.5,8.5,0,0,1-8.5-8.5V8.5A8.5,8.5,0,0,1,8.5,0" fill="#fff"/>
      <path id="Tracé_2" data-name="Tracé 2" d="M171.5,58.26V10.09a3.013,3.013,0,0,0-3.01-3.01H10.09a3,3,0,0,0-3,3.01V239.35a3,3,0,0,0,3,3.01h158.4a3.013,3.013,0,0,0,3.01-3.01V91.4m0-.01V58.29M29.01,44.95a.076.076,0,0,1,.02-.04.142.142,0,0,0-.02.06" fill="#fceef4"/>
    </g>
    <path id="Tracé_28" data-name="Tracé 28" d="M211.673,84.676c-3.324-.159-5.331-.255-5.264-5.6.062-4.957-.466-11.176-1.024-17.76-.611-7.193-1.242-14.632-1.013-20.105.268-6.446-.862-10.791-3.455-13.279a8.416,8.416,0,0,0-6.056-2.252c-9.218,0-21.983,10.54-28.072,16.767l-.153.157-.084.2c-1.442,3.375-1.586,5.932-.441,7.816,1.68,2.763,5.551,3.382,9.649,4.038a43.715,43.715,0,0,1,5.154,1.033,4.828,4.828,0,0,1,2.868,3.032c2.787,6.478.744,20.232-1.369,23.726-.688,1.138-2.893,1.533-5.229,1.95-4.51.806-10.688,1.909-9.853,9.861.507,4.817,5.376,7.26,14.476,7.26a80.988,80.988,0,0,0,8.958-.6c.676-.074,1.184-.132,1.471-.147,1.727-.088,4.24-.031,6.887.046,1.813.053,3.687.108,5.545.108,4.58,0,15.305,0,15.305-7.2C219.972,85.074,215.175,84.844,211.673,84.676Z" transform="translate(-119.349 2392.665)" fill="#ef9f5e"/>
    <path id="Tracé_28_-_Contour" data-name="Tracé 28 - Contour" d="M181.806,100.834a80.3,80.3,0,0,0,8.884-.594l.21-.023c.595-.066,1.025-.113,1.3-.127.6-.031,1.307-.045,2.166-.045,1.453,0,3.154.044,4.776.091l.055,0c1.79.052,3.641.106,5.471.106a36.1,36.1,0,0,0,9.189-.876c3.659-1.012,5.438-2.859,5.438-5.645,0-3.6-.834-5.934-2.55-7.149-1.475-1.045-3.4-1.138-5.1-1.219-3.344-.16-5.985-.286-5.909-6.288.062-4.924-.465-11.127-1.022-17.695-.612-7.212-1.245-14.669-1.015-20.191.26-6.242-.8-10.416-3.248-12.762a7.762,7.762,0,0,0-5.586-2.063,18.948,18.948,0,0,0-7.157,1.691,46.3,46.3,0,0,0-7.676,4.242,85.222,85.222,0,0,0-12.754,10.629l-.064.066-.034.08c-1.35,3.16-1.509,5.514-.485,7.2,1.517,2.5,5.238,3.091,9.177,3.721h.006a44.152,44.152,0,0,1,5.231,1.051,5.457,5.457,0,0,1,3.3,3.415c1.736,4.035,1.5,10.072,1.205,13.311-.43,4.722-1.482,9.156-2.617,11.033-.847,1.4-3.2,1.822-5.691,2.266-2.242.4-4.783.855-6.667,2.143a5.791,5.791,0,0,0-2.129,2.537,8.882,8.882,0,0,0-.5,4.442,5.971,5.971,0,0,0,3.645,4.9c2.317,1.162,5.734,1.751,10.156,1.751m0,.678c-9.1,0-13.969-2.442-14.476-7.26-.835-7.952,5.344-9.055,9.853-9.861,2.335-.417,4.541-.811,5.229-1.95,2.113-3.494,4.156-17.248,1.369-23.726a4.828,4.828,0,0,0-2.868-3.032,43.717,43.717,0,0,0-5.154-1.033c-4.1-.656-7.968-1.275-9.649-4.038-1.145-1.884-1-4.441.441-7.816l.084-.2.153-.157c6.089-6.228,18.854-16.767,28.072-16.767a8.416,8.416,0,0,1,6.056,2.252c2.594,2.489,3.724,6.833,3.455,13.279-.228,5.474.4,12.912,1.013,20.105.559,6.585,1.086,12.8,1.024,17.76-.067,5.347,1.939,5.443,5.264,5.6,3.5.168,8.3.4,8.3,9.046,0,7.2-10.725,7.2-15.305,7.2-1.858,0-3.732-.055-5.545-.108-2.647-.077-5.16-.135-6.887-.047-.286.015-.794.073-1.471.147A80.987,80.987,0,0,1,181.806,101.511Z" transform="translate(-119.349 2392.665)" fill="#231f20"/>
    <path id="Tracé_140" data-name="Tracé 140" d="M317.819,151.788a5.864,5.864,0,0,0-4.03-3.326,48.171,48.171,0,0,0-11.523-1.246c-7.226,0-14.857,1.178-21.588,2.217-1.457.225-2.889.446-4.287.652-5.732.841-9.877,2.029-11.478,5.1-1.145,2.193-.8,5.061,1.048,8.769a5.1,5.1,0,0,0,3.441,2.693,59.11,59.11,0,0,0,8.8.784c6.292.282,14.123.633,16.3,3.592a3.688,3.688,0,0,1,.388,3.294c-2.609,9.829-9.024,19.089-15.227,28.044-1.653,2.386-3.214,4.64-4.7,6.9-.232.353-.575.809-.974,1.341-2.482,3.317-7.1,9.489-2.746,13.157a14.774,14.774,0,0,0,9.523,3.393,18.388,18.388,0,0,0,10.571-3.563c4.65-3.283,8.614-12.5,11.238-18.6.49-1.139.923-2.148,1.295-2.957l.616-1.329C316.667,174.473,321.031,158.474,317.819,151.788Z" transform="translate(-151.341 2267.245)" fill="#ef9f5e"/>
    <path id="Tracé_140_-_Contour" data-name="Tracé 140 - Contour" d="M302.267,147.894c-7.173,0-14.775,1.173-21.485,2.209q-2.195.339-4.292.652c-5.526.811-9.508,1.927-10.975,4.739-1.037,1.986-.692,4.653,1.053,8.152a4.416,4.416,0,0,0,2.978,2.334,58.751,58.751,0,0,0,8.684.77,87.918,87.918,0,0,1,9.771.8c3.66.6,5.963,1.6,7.039,3.068a4.316,4.316,0,0,1,.5,3.869c-2.639,9.943-9.088,19.253-15.327,28.259-1.65,2.382-3.209,4.632-4.69,6.883-.237.36-.574.809-.963,1.329l-.034.046a27.788,27.788,0,0,0-3.846,6.282c-.992,2.6-.667,4.551.995,5.95a14.1,14.1,0,0,0,9.086,3.233,17.718,17.718,0,0,0,10.18-3.439c4.492-3.172,8.411-12.28,11.007-18.312l.018-.041c.49-1.14.913-2.124,1.284-2.933l.616-1.33c6.051-13.017,10.226-23.674,12.409-31.676,2.149-7.876,2.464-13.48.939-16.656a5.212,5.212,0,0,0-3.58-2.961,47.505,47.505,0,0,0-11.361-1.226m0-.678a48.171,48.171,0,0,1,11.523,1.246,5.864,5.864,0,0,1,4.03,3.326c3.212,6.686-1.152,22.685-13.343,48.911l-.616,1.329c-.371.809-.805,1.818-1.295,2.957-2.624,6.1-6.589,15.314-11.238,18.6a18.388,18.388,0,0,1-10.571,3.563,14.774,14.774,0,0,1-9.523-3.393c-4.356-3.668.264-9.841,2.746-13.157.4-.532.741-.988.974-1.341,1.486-2.259,3.048-4.512,4.7-6.9,6.2-8.956,12.618-18.216,15.227-28.044a3.688,3.688,0,0,0-.388-3.294c-2.173-2.96-10-3.31-16.3-3.592a59.11,59.11,0,0,1-8.8-.784,5.1,5.1,0,0,1-3.441-2.693c-1.85-3.708-2.193-6.576-1.048-8.769,1.6-3.067,5.746-4.255,11.478-5.1,1.4-.206,2.83-.426,4.287-.652C287.41,148.394,295.041,147.216,302.267,147.216Z" transform="translate(-151.341 2267.245)" fill="#231f20"/>
  </g>
</svg>
