<svg xmlns="http://www.w3.org/2000/svg" xmlns:xlink="http://www.w3.org/1999/xlink" width="178.58" height="249.45" viewBox="0 0 178.58 249.45">
  <defs>
    <clipPath id="clip-path">
      <rect id="Rectangle_1" data-name="Rectangle 1" width="178.58" height="249.45" fill="none"/>
    </clipPath>
  </defs>
  <g id="fr18" transform="translate(-21 -2602)">
    <g id="Groupe_1" data-name="Groupe 1" transform="translate(21 2602)" clip-path="url(#clip-path)">
      <path id="Tracé_1" data-name="Tracé 1" d="M8.5,0H170.08a8.5,8.5,0,0,1,8.5,8.5V240.95a8.5,8.5,0,0,1-8.5,8.5H8.5a8.5,8.5,0,0,1-8.5-8.5V8.5A8.5,8.5,0,0,1,8.5,0" fill="#fff"/>
      <path id="Tracé_2" data-name="Tracé 2" d="M171.5,58.26V10.09a3.013,3.013,0,0,0-3.01-3.01H10.09a3,3,0,0,0-3,3.01V239.35a3,3,0,0,0,3,3.01h158.4a3.013,3.013,0,0,0,3.01-3.01V91.4m0-.01V58.29M29.01,44.95a.076.076,0,0,1,.02-.04.142.142,0,0,0-.02.06" fill="#fceef4"/>
    </g>
    <path id="Tracé_28" data-name="Tracé 28" d="M211.673,84.676c-3.324-.159-5.331-.255-5.264-5.6.062-4.957-.466-11.176-1.024-17.76-.611-7.193-1.242-14.632-1.013-20.105.268-6.446-.862-10.791-3.455-13.279a8.416,8.416,0,0,0-6.056-2.252c-9.218,0-21.983,10.54-28.072,16.767l-.153.157-.084.2c-1.442,3.375-1.586,5.932-.441,7.816,1.68,2.763,5.551,3.382,9.649,4.038a43.715,43.715,0,0,1,5.154,1.033,4.828,4.828,0,0,1,2.868,3.032c2.787,6.478.744,20.232-1.369,23.726-.688,1.138-2.893,1.533-5.229,1.95-4.51.806-10.688,1.909-9.853,9.861.507,4.817,5.376,7.26,14.476,7.26a80.988,80.988,0,0,0,8.958-.6c.676-.074,1.184-.132,1.471-.147,1.727-.088,4.24-.031,6.887.046,1.813.053,3.687.108,5.545.108,4.58,0,15.305,0,15.305-7.2C219.972,85.074,215.175,84.844,211.673,84.676Z" transform="translate(-119.349 2662.665)" fill="#ef9f5e"/>
    <path id="Tracé_28_-_Contour" data-name="Tracé 28 - Contour" d="M181.806,100.834a80.3,80.3,0,0,0,8.884-.594l.21-.023c.595-.066,1.025-.113,1.3-.127.6-.031,1.307-.045,2.166-.045,1.453,0,3.154.044,4.776.091l.055,0c1.79.052,3.641.106,5.471.106a36.1,36.1,0,0,0,9.189-.876c3.659-1.012,5.438-2.859,5.438-5.645,0-3.6-.834-5.934-2.55-7.149-1.475-1.045-3.4-1.138-5.1-1.219-3.344-.16-5.985-.286-5.909-6.288.062-4.924-.465-11.127-1.022-17.695-.612-7.212-1.245-14.669-1.015-20.191.26-6.242-.8-10.416-3.248-12.762a7.762,7.762,0,0,0-5.586-2.063,18.948,18.948,0,0,0-7.157,1.691,46.3,46.3,0,0,0-7.676,4.242,85.222,85.222,0,0,0-12.754,10.629l-.064.066-.034.08c-1.35,3.16-1.509,5.514-.485,7.2,1.517,2.5,5.238,3.091,9.177,3.721h.006a44.152,44.152,0,0,1,5.231,1.051,5.457,5.457,0,0,1,3.3,3.415c1.736,4.035,1.5,10.072,1.205,13.311-.43,4.722-1.482,9.156-2.617,11.033-.847,1.4-3.2,1.822-5.691,2.266-2.242.4-4.783.855-6.667,2.143a5.791,5.791,0,0,0-2.129,2.537,8.882,8.882,0,0,0-.5,4.442,5.971,5.971,0,0,0,3.645,4.9c2.317,1.162,5.734,1.751,10.156,1.751m0,.678c-9.1,0-13.969-2.442-14.476-7.26-.835-7.952,5.344-9.055,9.853-9.861,2.335-.417,4.541-.811,5.229-1.95,2.113-3.494,4.156-17.248,1.369-23.726a4.828,4.828,0,0,0-2.868-3.032,43.717,43.717,0,0,0-5.154-1.033c-4.1-.656-7.968-1.275-9.649-4.038-1.145-1.884-1-4.441.441-7.816l.084-.2.153-.157c6.089-6.228,18.854-16.767,28.072-16.767a8.416,8.416,0,0,1,6.056,2.252c2.594,2.489,3.724,6.833,3.455,13.279-.228,5.474.4,12.912,1.013,20.105.559,6.585,1.086,12.8,1.024,17.76-.067,5.347,1.939,5.443,5.264,5.6,3.5.168,8.3.4,8.3,9.046,0,7.2-10.725,7.2-15.305,7.2-1.858,0-3.732-.055-5.545-.108-2.647-.077-5.16-.135-6.887-.047-.286.015-.794.073-1.471.147A80.987,80.987,0,0,1,181.806,101.511Z" transform="translate(-119.349 2662.665)" fill="#231f20"/>
    <path id="Tracé_141" data-name="Tracé 141" d="M417.071,187.848a1.206,1.206,0,0,1-.053-2.049c6.607-4.341,9.734-9.663,9.841-16.749.069-4.58-2.251-9.5-6.532-13.842-5.891-5.98-14.49-9.845-21.906-9.845l-.284,0c-11.821.153-19.745,3.351-23.55,9.507-5.546,8.97-.806,21.824,2.513,28.687a3.717,3.717,0,0,1-1.634,4.924c-5.217,2.745-16.562,10.811-9.234,26.393,4.964,10.557,16.476,17.114,30.041,17.114a42.3,42.3,0,0,0,9.5-1.1c11.011-2.547,20.875-12.557,22.458-22.79C429.479,200.035,425.515,192.841,417.071,187.848ZM384.929,209.02c.181-3.783,3.129-8.809,9.179-10.9a11.286,11.286,0,0,1,3.642-.566c5.125,0,10.63,2.819,10.741,8.045a10.82,10.82,0,0,1-2.984,8.01c-2.259,2.306-5.572,3.525-9.584,3.525l-.219,0a12.472,12.472,0,0,1-8.839-3.6A6.293,6.293,0,0,1,384.929,209.02Zm21.588-34.732a7.846,7.846,0,0,1-5.709,3.063c-.478.046-.966.069-1.453.069-4.369,0-8.385-1.878-9.14-4.277-.909-2.885.434-6.591,4.761-8.089a11.2,11.2,0,0,1,3.626-.582c1.711,0,7.4.448,8.79,6.215A4.509,4.509,0,0,1,406.518,174.288Z" transform="translate(-251.923 2533.622)" fill="#ef9f5e"/>
    <path id="Tracé_141_-_Contour" data-name="Tracé 141 - Contour" d="M398.422,146.042l-.277,0c-11.575.149-19.307,3.24-22.982,9.186-5.376,8.694-.712,21.3,2.547,28.036a4.391,4.391,0,0,1-1.928,5.819,26.828,26.828,0,0,0-4.559,3.014,19.928,19.928,0,0,0-4.5,5.116c-2.989,5.005-2.949,10.851.118,17.374,4.851,10.316,16.127,16.725,29.428,16.725a41.616,41.616,0,0,0,9.349-1.078,30.287,30.287,0,0,0,14.435-8.328A26.085,26.085,0,0,0,427.562,208a16.7,16.7,0,0,0-1.87-10.851,23.636,23.636,0,0,0-8.966-8.718,1.879,1.879,0,0,1-.929-1.58,1.847,1.847,0,0,1,.849-1.619,21.943,21.943,0,0,0,7.146-7.122,17.964,17.964,0,0,0,2.39-9.07c.066-4.4-2.185-9.141-6.337-13.356-5.77-5.857-14.179-9.642-21.422-9.643m.934,32.056a14.961,14.961,0,0,1-6.213-1.3,6.293,6.293,0,0,1-3.574-3.448c-1.007-3.2.45-7.294,5.185-8.933a11.888,11.888,0,0,1,3.848-.62c1.836,0,7.944.486,9.449,6.734a5.18,5.18,0,0,1-.98,4.153,8.52,8.52,0,0,1-6.2,3.344c-.5.048-1.008.073-1.519.073m-3.433,39.709-.226,0a13.16,13.16,0,0,1-9.325-3.81,6.956,6.956,0,0,1-2.119-5.007c.191-4,3.287-9.314,9.634-11.513a11.969,11.969,0,0,1,3.863-.6c5.446,0,11.3,3.052,11.418,8.708a11.483,11.483,0,0,1-3.177,8.5c-2.389,2.439-5.871,3.729-10.068,3.729m2.5-72.443c7.416,0,16.015,3.865,21.906,9.845,4.281,4.346,6.6,9.262,6.532,13.842-.107,7.085-3.234,12.407-9.841,16.749a1.206,1.206,0,0,0,.053,2.049c8.445,4.993,12.408,12.186,11.162,20.256-1.583,10.234-11.447,20.243-22.458,22.79a42.3,42.3,0,0,1-9.5,1.1c-13.565,0-25.077-6.557-30.041-17.114-7.327-15.582,4.017-23.648,9.234-26.393a3.717,3.717,0,0,0,1.634-4.924c-3.319-6.863-8.06-19.717-2.513-28.687,3.8-6.156,11.729-9.354,23.55-9.507Zm.935,32.056c.487,0,.976-.023,1.453-.069a7.846,7.846,0,0,0,5.709-3.063,4.509,4.509,0,0,0,.874-3.6c-1.389-5.767-7.079-6.215-8.79-6.215a11.2,11.2,0,0,0-3.626.582c-4.326,1.5-5.669,5.2-4.761,8.089C390.971,175.542,394.986,177.42,399.356,177.42Zm-3.433,39.709c4.012,0,7.326-1.219,9.584-3.525a10.82,10.82,0,0,0,2.984-8.01c-.11-5.225-5.616-8.045-10.741-8.045a11.286,11.286,0,0,0-3.642.566c-6.05,2.1-9,7.121-9.179,10.9a6.293,6.293,0,0,0,1.935,4.51,12.472,12.472,0,0,0,8.839,3.6Z" transform="translate(-251.923 2533.622)" fill="#231f20"/>
  </g>
</svg>
