<svg xmlns="http://www.w3.org/2000/svg" xmlns:xlink="http://www.w3.org/1999/xlink" width="178.58" height="249.45" viewBox="0 0 178.58 249.45">
  <defs>
    <clipPath id="clip-path">
      <rect id="Rectangle_1" data-name="Rectangle 1" width="178.58" height="249.45" fill="none"/>
    </clipPath>
  </defs>
  <g id="fr20" transform="translate(-1812 -982)">
    <g id="Groupe_1" data-name="Groupe 1" transform="translate(1812 982)" clip-path="url(#clip-path)">
      <path id="Tracé_1" data-name="Tracé 1" d="M8.5,0H170.08a8.5,8.5,0,0,1,8.5,8.5V240.95a8.5,8.5,0,0,1-8.5,8.5H8.5a8.5,8.5,0,0,1-8.5-8.5V8.5A8.5,8.5,0,0,1,8.5,0" fill="#fff"/>
      <path id="Tracé_2" data-name="Tracé 2" d="M171.5,58.26V10.09a3.013,3.013,0,0,0-3.01-3.01H10.09a3,3,0,0,0-3,3.01V239.35a3,3,0,0,0,3,3.01h158.4a3.013,3.013,0,0,0,3.01-3.01V91.4m0-.01V58.29M29.01,44.95a.076.076,0,0,1,.02-.04.142.142,0,0,0-.02.06" fill="#fceef4"/>
    </g>
    <path id="nb2" d="M114.268,35.628c-6.91-7.618-15.582-11.814-24.416-11.814a29.873,29.873,0,0,0-21.116,9.157C62.42,39.3,58.1,48.4,56.233,59.294,54.987,66.571,57.776,82,66.252,92.054c5.164,6.123,11.52,9.228,18.891,9.229h0c.583,0,1.181-.02,1.776-.06,14.888-1,26.118-9.065,31.62-22.708C124.42,63.945,122.5,44.706,114.268,35.628Zm-9.859,39.206c-1.548,6.379-8.96,13.125-14.419,13.125a5.753,5.753,0,0,1-1.354-.155,9.266,9.266,0,0,1-6.117-5.326,14.853,14.853,0,0,1-.812-9.8c1.617-6.66,9.672-14.252,15.122-14.252A4.985,4.985,0,0,1,98,58.563c2.53.614,4.6,2.683,5.824,5.827A17.842,17.842,0,0,1,104.409,74.834Z" transform="translate(1849.34 1044.177)" fill="#ef9f5e"/>
    <path id="nb2_-_Contour" data-name="nb2 - Contour" d="M89.852,24.492a29.2,29.2,0,0,0-20.636,8.958C63,39.678,58.741,48.654,56.9,59.409a27.205,27.205,0,0,0-.144,6.6,49.506,49.506,0,0,0,1.5,8.447,50.61,50.61,0,0,0,3.294,8.964,38.887,38.887,0,0,0,5.224,8.193C71.8,97.58,77.981,100.6,85.145,100.6c.567,0,1.15-.02,1.731-.058a36.128,36.128,0,0,0,18.98-6.488,35.2,35.2,0,0,0,12.058-15.8,46.481,46.481,0,0,0,2.926-11.4,51.772,51.772,0,0,0,.183-11.777,42.416,42.416,0,0,0-2.421-10.73,25.673,25.673,0,0,0-4.836-8.265c-6.78-7.475-15.273-11.591-23.914-11.591m.139,64.145a6.433,6.433,0,0,1-1.514-.174,9.929,9.929,0,0,1-6.57-5.7,15.53,15.53,0,0,1-.857-10.246,21.868,21.868,0,0,1,6.317-9.956c3.245-3.059,6.695-4.813,9.463-4.813a5.66,5.66,0,0,1,1.334.153c2.751.668,4.987,2.884,6.3,6.239a18.533,18.533,0,0,1,.609,10.851,19.493,19.493,0,0,1-5.945,9.3c-3.035,2.762-6.364,4.347-9.132,4.347m-.139-64.822c8.834,0,17.506,4.2,24.416,11.814,8.235,9.078,10.152,28.317,4.274,42.887-5.5,13.642-16.733,21.706-31.62,22.708-.6.04-1.193.06-1.776.06h0c-7.372,0-13.728-3.106-18.891-9.229C57.776,82,54.987,66.571,56.233,59.294c1.864-10.893,6.188-20,12.5-26.324A29.873,29.873,0,0,1,89.852,23.814Zm.139,64.145c5.459,0,12.871-6.746,14.419-13.125a17.842,17.842,0,0,0-.582-10.445c-1.226-3.144-3.294-5.213-5.824-5.827a4.985,4.985,0,0,0-1.175-.134c-5.45,0-13.505,7.592-15.122,14.252a14.853,14.853,0,0,0,.812,9.8A9.266,9.266,0,0,0,88.636,87.8,5.753,5.753,0,0,0,89.99,87.959Z" transform="translate(1849.34 1044.177)" fill="#231f20"/>
    <path id="_2" data-name="2" d="M318.155,85.968c-.516-3.49-2.885-7.364-6.415-8.016a30.33,30.33,0,0,0-6.472.1,53.063,53.063,0,0,1-6.062.259,1.041,1.041,0,0,1-.7-1.774c4.452-4.469,12.66-13.506,13.53-14.671,7.592-10.165,8.728-26.832-1.685-35.443-5.452-4.509-13.329-7.094-21.612-7.094-11.8,0-24.572,5.709-26.511,18.465a7.4,7.4,0,0,0,1.728,6.106,11.158,11.158,0,0,0,8.448,3.507,12.307,12.307,0,0,0,7.768-2.689c1.284-1.047,4.645-2.13,8.046-2.13,2.389,0,6.46.542,6.877,4.168.489,4.265-2.484,8.389-5.36,12.377q-.481.667-.954,1.33a58.2,58.2,0,0,1-5.6,5.514c-10.127,9.327-19.07,18.2-17.289,24.272.731,2.491,3.185,4.119,7.294,4.838a131.566,131.566,0,0,0,21.09,1.71c6.514,0,15.389-.572,20.67-3.3C317.46,92.2,318.661,89.385,318.155,85.968Z" transform="translate(1574.906 1045.509)" fill="#ef9f5e"/>
    <path id="_2_-_Contour" data-name="2 - Contour" d="M294.273,96.119c6.439,0,15.2-.559,20.359-3.222,2.248-1.16,3.314-3.714,2.853-6.83a10.974,10.974,0,0,0-1.952-4.768,6.514,6.514,0,0,0-3.916-2.68,10.905,10.905,0,0,0-1.878-.128c-1.289,0-2.885.113-4.417.236l-.033,0c-1.718.136-3.494.277-5.122.277-.346,0-.679-.007-.99-.019a1.719,1.719,0,0,1-1.151-2.93c4.436-4.453,12.6-13.443,13.467-14.6a29.258,29.258,0,0,0,4.3-8.418,30.143,30.143,0,0,0,1.472-9.473,24.014,24.014,0,0,0-1.817-9.141,19.389,19.389,0,0,0-5.531-7.483c-5.332-4.41-13.052-6.939-21.18-6.939-11.509,0-23.962,5.531-25.841,17.889a6.742,6.742,0,0,0,1.572,5.562,10.477,10.477,0,0,0,7.934,3.271,11.628,11.628,0,0,0,7.34-2.536c1.357-1.107,4.788-2.283,8.474-2.283a11.7,11.7,0,0,1,4.446.779,4.811,4.811,0,0,1,3.1,3.989c.519,4.526-2.533,8.758-5.484,12.851-.307.425-.633.877-.951,1.326a56.256,56.256,0,0,1-5.68,5.6l-.017.016c-5.6,5.155-9.957,9.387-13.038,13.28-3.477,4.394-4.8,7.764-4.06,10.3.652,2.223,2.927,3.69,6.76,4.362a130.826,130.826,0,0,0,20.973,1.7m0,.678a131.567,131.567,0,0,1-21.09-1.71c-4.109-.72-6.563-2.347-7.294-4.838-1.781-6.07,7.161-14.945,17.289-24.272a58.2,58.2,0,0,0,5.6-5.514q.472-.663.954-1.33c2.876-3.989,5.85-8.113,5.36-12.377-.417-3.626-4.488-4.168-6.877-4.168-3.4,0-6.762,1.083-8.046,2.13a12.307,12.307,0,0,1-7.768,2.689,11.158,11.158,0,0,1-8.448-3.507,7.4,7.4,0,0,1-1.728-6.106c1.939-12.756,14.713-18.465,26.511-18.465,8.283,0,16.159,2.585,21.612,7.094,10.412,8.611,9.277,25.278,1.685,35.443-.87,1.165-9.078,10.2-13.53,14.671a1.041,1.041,0,0,0,.7,1.774,53.056,53.056,0,0,0,6.063-.259,30.33,30.33,0,0,1,6.472-.1c3.53.652,5.9,4.525,6.415,8.016.506,3.417-.7,6.232-3.212,7.531C309.661,96.225,300.787,96.8,294.273,96.8Z" transform="translate(1574.906 1045.509)" fill="#231f20"/>
  </g>
</svg>
