<svg xmlns="http://www.w3.org/2000/svg" xmlns:xlink="http://www.w3.org/1999/xlink" width="178.58" height="249.45" viewBox="0 0 178.58 249.45">
  <defs>
    <clipPath id="clip-path">
      <rect id="Rectangle_1" data-name="Rectangle 1" width="178.58" height="249.45" fill="none"/>
    </clipPath>
  </defs>
  <g id="fr21" transform="translate(-220 -712)">
    <path id="nb2" d="M114.268,35.628c-6.91-7.618-15.582-11.814-24.416-11.814a29.873,29.873,0,0,0-21.116,9.157C62.42,39.3,58.1,48.4,56.233,59.294,54.987,66.571,57.776,82,66.252,92.054c5.164,6.123,11.52,9.228,18.891,9.229h0c.583,0,1.181-.02,1.776-.06,14.888-1,26.118-9.065,31.62-22.708C124.42,63.945,122.5,44.706,114.268,35.628Zm-9.859,39.206c-1.548,6.379-8.96,13.125-14.419,13.125a5.753,5.753,0,0,1-1.354-.155,9.266,9.266,0,0,1-6.117-5.326,14.853,14.853,0,0,1-.812-9.8c1.617-6.66,9.672-14.252,15.122-14.252A4.985,4.985,0,0,1,98,58.563c2.53.614,4.6,2.683,5.824,5.827A17.842,17.842,0,0,1,104.409,74.834Z" transform="translate(253.186 774.177)" fill="#ef9f5e"/>
    <path id="nb2_-_Contour" data-name="nb2 - Contour" d="M89.852,24.492a29.2,29.2,0,0,0-20.636,8.958C63,39.678,58.741,48.654,56.9,59.409a27.205,27.205,0,0,0-.144,6.6,49.506,49.506,0,0,0,1.5,8.447,50.61,50.61,0,0,0,3.294,8.964,38.887,38.887,0,0,0,5.224,8.193C71.8,97.58,77.981,100.6,85.145,100.6c.567,0,1.15-.02,1.731-.058a36.128,36.128,0,0,0,18.98-6.488,35.2,35.2,0,0,0,12.058-15.8,46.481,46.481,0,0,0,2.926-11.4,51.772,51.772,0,0,0,.183-11.777,42.416,42.416,0,0,0-2.421-10.73,25.673,25.673,0,0,0-4.836-8.265c-6.78-7.475-15.273-11.591-23.914-11.591m.139,64.145a6.433,6.433,0,0,1-1.514-.174,9.929,9.929,0,0,1-6.57-5.7,15.53,15.53,0,0,1-.857-10.246,21.868,21.868,0,0,1,6.317-9.956c3.245-3.059,6.695-4.813,9.463-4.813a5.66,5.66,0,0,1,1.334.153c2.751.668,4.987,2.884,6.3,6.239a18.533,18.533,0,0,1,.609,10.851,19.493,19.493,0,0,1-5.945,9.3c-3.035,2.762-6.364,4.347-9.132,4.347m-.139-64.822c8.834,0,17.506,4.2,24.416,11.814,8.235,9.078,10.152,28.317,4.274,42.887-5.5,13.642-16.733,21.706-31.62,22.708-.6.04-1.193.06-1.776.06h0c-7.372,0-13.728-3.106-18.891-9.229C57.776,82,54.987,66.571,56.233,59.294c1.864-10.893,6.188-20,12.5-26.324A29.873,29.873,0,0,1,89.852,23.814Zm.139,64.145c5.459,0,12.871-6.746,14.419-13.125a17.842,17.842,0,0,0-.582-10.445c-1.226-3.144-3.294-5.213-5.824-5.827a4.985,4.985,0,0,0-1.175-.134c-5.45,0-13.505,7.592-15.122,14.252a14.853,14.853,0,0,0,.812,9.8A9.266,9.266,0,0,0,88.636,87.8,5.753,5.753,0,0,0,89.99,87.959Z" transform="translate(253.186 774.177)" fill="#231f20"/>
    <g id="Groupe_1" data-name="Groupe 1" transform="translate(220 712)" clip-path="url(#clip-path)">
      <path id="Tracé_1" data-name="Tracé 1" d="M8.5,0H170.08a8.5,8.5,0,0,1,8.5,8.5V240.95a8.5,8.5,0,0,1-8.5,8.5H8.5a8.5,8.5,0,0,1-8.5-8.5V8.5A8.5,8.5,0,0,1,8.5,0" fill="#fff"/>
      <path id="Tracé_2" data-name="Tracé 2" d="M171.5,58.26V10.09a3.013,3.013,0,0,0-3.01-3.01H10.09a3,3,0,0,0-3,3.01V239.35a3,3,0,0,0,3,3.01h158.4a3.013,3.013,0,0,0,3.01-3.01V91.4m0-.01V58.29M29.01,44.95a.076.076,0,0,1,.02-.04.142.142,0,0,0-.02.06" fill="#fceef4"/>
    </g>
    <path id="Tracé_29" data-name="Tracé 29" d="M318.155,85.968c-.516-3.49-2.885-7.364-6.415-8.016a30.33,30.33,0,0,0-6.472.1,53.063,53.063,0,0,1-6.062.259,1.041,1.041,0,0,1-.7-1.774c4.452-4.469,12.66-13.506,13.53-14.671,7.592-10.165,8.728-26.832-1.685-35.443-5.452-4.509-13.329-7.094-21.612-7.094-11.8,0-24.572,5.709-26.511,18.465a7.4,7.4,0,0,0,1.728,6.106,11.158,11.158,0,0,0,8.448,3.507,12.307,12.307,0,0,0,7.768-2.689c1.284-1.047,4.645-2.13,8.046-2.13,2.389,0,6.46.542,6.877,4.168.489,4.265-2.484,8.389-5.36,12.377q-.481.667-.954,1.33a58.2,58.2,0,0,1-5.6,5.514c-10.127,9.327-19.07,18.2-17.289,24.272.731,2.491,3.185,4.119,7.294,4.838a131.566,131.566,0,0,0,21.09,1.71c6.514,0,15.389-.572,20.67-3.3C317.46,92.2,318.661,89.385,318.155,85.968Z" transform="translate(-19.133 778.672)" fill="#ef9f5e"/>
    <path id="Tracé_29_-_Contour" data-name="Tracé 29 - Contour" d="M294.273,96.119c6.439,0,15.2-.559,20.359-3.222,2.248-1.16,3.314-3.714,2.853-6.83a10.974,10.974,0,0,0-1.952-4.768,6.514,6.514,0,0,0-3.916-2.68,10.905,10.905,0,0,0-1.878-.128c-1.289,0-2.885.113-4.417.236l-.033,0c-1.718.136-3.494.277-5.122.277-.346,0-.679-.007-.99-.019a1.719,1.719,0,0,1-1.151-2.93c4.436-4.453,12.6-13.443,13.467-14.6a29.258,29.258,0,0,0,4.3-8.418,30.143,30.143,0,0,0,1.472-9.473,24.014,24.014,0,0,0-1.817-9.141,19.389,19.389,0,0,0-5.531-7.483c-5.332-4.41-13.052-6.939-21.18-6.939-11.509,0-23.962,5.531-25.841,17.889a6.742,6.742,0,0,0,1.572,5.562,10.477,10.477,0,0,0,7.934,3.271,11.628,11.628,0,0,0,7.34-2.536c1.357-1.107,4.788-2.283,8.474-2.283a11.7,11.7,0,0,1,4.446.779,4.811,4.811,0,0,1,3.1,3.989c.519,4.526-2.533,8.758-5.484,12.851-.307.425-.633.877-.951,1.326a56.256,56.256,0,0,1-5.68,5.6l-.017.016c-5.6,5.155-9.957,9.387-13.038,13.28-3.477,4.394-4.8,7.764-4.06,10.3.652,2.223,2.927,3.69,6.76,4.362a130.826,130.826,0,0,0,20.973,1.7m0,.678a131.567,131.567,0,0,1-21.09-1.71c-4.109-.72-6.563-2.347-7.294-4.838-1.781-6.07,7.161-14.945,17.289-24.272a58.2,58.2,0,0,0,5.6-5.514q.472-.663.954-1.33c2.876-3.989,5.85-8.113,5.36-12.377-.417-3.626-4.488-4.168-6.877-4.168-3.4,0-6.762,1.083-8.046,2.13a12.307,12.307,0,0,1-7.768,2.689,11.158,11.158,0,0,1-8.448-3.507,7.4,7.4,0,0,1-1.728-6.106c1.939-12.756,14.713-18.465,26.511-18.465,8.283,0,16.159,2.585,21.612,7.094,10.412,8.611,9.277,25.278,1.685,35.443-.87,1.165-9.078,10.2-13.53,14.671a1.041,1.041,0,0,0,.7,1.774,53.056,53.056,0,0,0,6.063-.259,30.33,30.33,0,0,1,6.472-.1c3.53.652,5.9,4.525,6.415,8.016.506,3.417-.7,6.232-3.212,7.531C309.661,96.225,300.787,96.8,294.273,96.8Z" transform="translate(-19.133 778.672)" fill="#231f20"/>
    <path id="Tracé_135" data-name="Tracé 135" d="M211.673,84.676c-3.324-.159-5.331-.255-5.264-5.6.062-4.957-.466-11.176-1.024-17.76-.611-7.193-1.242-14.632-1.013-20.105.268-6.446-.862-10.791-3.455-13.279a8.416,8.416,0,0,0-6.056-2.252c-9.218,0-21.983,10.54-28.072,16.767l-.153.157-.084.2c-1.442,3.375-1.586,5.932-.441,7.816,1.68,2.763,5.551,3.382,9.649,4.038a43.715,43.715,0,0,1,5.154,1.033,4.828,4.828,0,0,1,2.868,3.032c2.787,6.478.744,20.232-1.369,23.726-.688,1.138-2.893,1.533-5.229,1.95-4.51.806-10.688,1.909-9.853,9.861.507,4.817,5.376,7.26,14.476,7.26a80.988,80.988,0,0,0,8.958-.6c.676-.074,1.184-.132,1.471-.147,1.727-.088,4.24-.031,6.887.046,1.813.053,3.687.108,5.545.108,4.58,0,15.305,0,15.305-7.2C219.972,85.074,215.175,84.844,211.673,84.676Z" transform="translate(155.164 772.314)" fill="#ef9f5e"/>
    <path id="Tracé_135_-_Contour" data-name="Tracé 135 - Contour" d="M181.806,100.834a80.3,80.3,0,0,0,8.884-.594l.21-.023c.595-.066,1.025-.113,1.3-.127.6-.031,1.307-.045,2.166-.045,1.453,0,3.154.044,4.776.091l.055,0c1.79.052,3.641.106,5.471.106a36.1,36.1,0,0,0,9.189-.876c3.659-1.012,5.438-2.859,5.438-5.645,0-3.6-.834-5.934-2.55-7.149-1.475-1.045-3.4-1.138-5.1-1.219-3.344-.16-5.985-.286-5.909-6.288.062-4.924-.465-11.127-1.022-17.695-.612-7.212-1.245-14.669-1.015-20.191.26-6.242-.8-10.416-3.248-12.762a7.762,7.762,0,0,0-5.586-2.063,18.948,18.948,0,0,0-7.157,1.691,46.3,46.3,0,0,0-7.676,4.242,85.222,85.222,0,0,0-12.754,10.629l-.064.066-.034.08c-1.35,3.16-1.509,5.514-.485,7.2,1.517,2.5,5.238,3.091,9.177,3.721h.006a44.152,44.152,0,0,1,5.231,1.051,5.457,5.457,0,0,1,3.3,3.415c1.736,4.035,1.5,10.072,1.205,13.311-.43,4.722-1.482,9.156-2.617,11.033-.847,1.4-3.2,1.822-5.691,2.266-2.242.4-4.783.855-6.667,2.143a5.791,5.791,0,0,0-2.129,2.537,8.882,8.882,0,0,0-.5,4.442,5.971,5.971,0,0,0,3.645,4.9c2.317,1.162,5.734,1.751,10.156,1.751m0,.678c-9.1,0-13.969-2.442-14.476-7.26-.835-7.952,5.344-9.055,9.853-9.861,2.335-.417,4.541-.811,5.229-1.95,2.113-3.494,4.156-17.248,1.369-23.726a4.828,4.828,0,0,0-2.868-3.032,43.717,43.717,0,0,0-5.154-1.033c-4.1-.656-7.968-1.275-9.649-4.038-1.145-1.884-1-4.441.441-7.816l.084-.2.153-.157c6.089-6.228,18.854-16.767,28.072-16.767a8.416,8.416,0,0,1,6.056,2.252c2.594,2.489,3.724,6.833,3.455,13.279-.228,5.474.4,12.912,1.013,20.105.559,6.585,1.086,12.8,1.024,17.76-.067,5.347,1.939,5.443,5.264,5.6,3.5.168,8.3.4,8.3,9.046,0,7.2-10.725,7.2-15.305,7.2-1.858,0-3.732-.055-5.545-.108-2.647-.077-5.16-.135-6.887-.047-.286.015-.794.073-1.471.147A80.987,80.987,0,0,1,181.806,101.511Z" transform="translate(155.164 772.314)" fill="#231f20"/>
  </g>
</svg>
