<svg xmlns="http://www.w3.org/2000/svg" xmlns:xlink="http://www.w3.org/1999/xlink" width="178.58" height="249.45" viewBox="0 0 178.58 249.45">
  <defs>
    <clipPath id="clip-path">
      <rect id="Rectangle_1" data-name="Rectangle 1" width="178.58" height="249.45" fill="none"/>
    </clipPath>
  </defs>
  <g id="fr30" transform="translate(-1812 -1252)">
    <g id="Groupe_1" data-name="Groupe 1" transform="translate(1812 1252)" clip-path="url(#clip-path)">
      <path id="Tracé_1" data-name="Tracé 1" d="M8.5,0H170.08a8.5,8.5,0,0,1,8.5,8.5V240.95a8.5,8.5,0,0,1-8.5,8.5H8.5a8.5,8.5,0,0,1-8.5-8.5V8.5A8.5,8.5,0,0,1,8.5,0" fill="#fff"/>
      <path id="Tracé_2" data-name="Tracé 2" d="M171.5,58.26V10.09a3.013,3.013,0,0,0-3.01-3.01H10.09a3,3,0,0,0-3,3.01V239.35a3,3,0,0,0,3,3.01h158.4a3.013,3.013,0,0,0,3.01-3.01V91.4m0-.01V58.29M29.01,44.95a.076.076,0,0,1,.02-.04.142.142,0,0,0-.02.06" fill="#fceef4"/>
    </g>
    <path id="nb2" d="M114.268,35.628c-6.91-7.618-15.582-11.814-24.416-11.814a29.873,29.873,0,0,0-21.116,9.157C62.42,39.3,58.1,48.4,56.233,59.294,54.987,66.571,57.776,82,66.252,92.054c5.164,6.123,11.52,9.228,18.891,9.229h0c.583,0,1.181-.02,1.776-.06,14.888-1,26.118-9.065,31.62-22.708C124.42,63.945,122.5,44.706,114.268,35.628Zm-9.859,39.206c-1.548,6.379-8.96,13.125-14.419,13.125a5.753,5.753,0,0,1-1.354-.155,9.266,9.266,0,0,1-6.117-5.326,14.853,14.853,0,0,1-.812-9.8c1.617-6.66,9.672-14.252,15.122-14.252A4.985,4.985,0,0,1,98,58.563c2.53.614,4.6,2.683,5.824,5.827A17.842,17.842,0,0,1,104.409,74.834Z" transform="translate(1850.34 1314.177)" fill="#ef9f5e"/>
    <path id="nb2_-_Contour" data-name="nb2 - Contour" d="M89.852,24.492a29.2,29.2,0,0,0-20.636,8.958C63,39.678,58.741,48.654,56.9,59.409a27.205,27.205,0,0,0-.144,6.6,49.506,49.506,0,0,0,1.5,8.447,50.61,50.61,0,0,0,3.294,8.964,38.887,38.887,0,0,0,5.224,8.193C71.8,97.58,77.981,100.6,85.145,100.6c.567,0,1.15-.02,1.731-.058a36.128,36.128,0,0,0,18.98-6.488,35.2,35.2,0,0,0,12.058-15.8,46.481,46.481,0,0,0,2.926-11.4,51.772,51.772,0,0,0,.183-11.777,42.416,42.416,0,0,0-2.421-10.73,25.673,25.673,0,0,0-4.836-8.265c-6.78-7.475-15.273-11.591-23.914-11.591m.139,64.145a6.433,6.433,0,0,1-1.514-.174,9.929,9.929,0,0,1-6.57-5.7,15.53,15.53,0,0,1-.857-10.246,21.868,21.868,0,0,1,6.317-9.956c3.245-3.059,6.695-4.813,9.463-4.813a5.66,5.66,0,0,1,1.334.153c2.751.668,4.987,2.884,6.3,6.239a18.533,18.533,0,0,1,.609,10.851,19.493,19.493,0,0,1-5.945,9.3c-3.035,2.762-6.364,4.347-9.132,4.347m-.139-64.822c8.834,0,17.506,4.2,24.416,11.814,8.235,9.078,10.152,28.317,4.274,42.887-5.5,13.642-16.733,21.706-31.62,22.708-.6.04-1.193.06-1.776.06h0c-7.372,0-13.728-3.106-18.891-9.229C57.776,82,54.987,66.571,56.233,59.294c1.864-10.893,6.188-20,12.5-26.324A29.873,29.873,0,0,1,89.852,23.814Zm.139,64.145c5.459,0,12.871-6.746,14.419-13.125a17.842,17.842,0,0,0-.582-10.445c-1.226-3.144-3.294-5.213-5.824-5.827a4.985,4.985,0,0,0-1.175-.134c-5.45,0-13.505,7.592-15.122,14.252a14.853,14.853,0,0,0,.812,9.8A9.266,9.266,0,0,0,88.636,87.8,5.753,5.753,0,0,0,89.99,87.959Z" transform="translate(1850.34 1314.177)" fill="#231f20"/>
    <path id="_3" data-name="3" d="M413.127,62.667a1.888,1.888,0,0,1-.832-1.584,1.711,1.711,0,0,1,.779-1.446,19.241,19.241,0,0,0,8.556-15.159,15.763,15.763,0,0,0-6.838-13.38c-5.329-3.888-10.773-7.425-18.723-7.983-.5-.035-1.017-.053-1.549-.053-9.611,0-22.943,5.491-26.7,13.371-1.364,2.857-2.1,7.36,2.131,12.594a7.426,7.426,0,0,0,6.046,2.84c3.932,0,8.893-2.409,14.747-7.16,2.143-1.74,4.142-2.622,5.939-2.622a5.075,5.075,0,0,1,4.273,2.428,8.613,8.613,0,0,1,.84,7.63c-.869,2.13-3.509,2.656-6.567,3.266-5.016,1-11.259,2.242-10.7,11.864.3,5.141,6.075,6.357,11.171,7.43,3.276.689,6.663,1.4,7.364,2.963.327.73.09,1.807-.706,3.2-2.159,3.785-4.187,4.223-5.525,4.223-2.848,0-6.149-2.327-9.644-4.79-4.023-2.836-8.183-5.768-12.523-5.768a9.439,9.439,0,0,0-5.9,2.122c-7.087,5.527-7.208,10.663-6.061,14,2.8,8.148,16.443,14.291,31.732,14.291h0a52.292,52.292,0,0,0,19.415-3.626c11.2-4.523,14.12-10.856,14.6-15.37C429.267,78.288,423.68,69.8,413.127,62.667Z" transform="translate(1470.756 1307.359)" fill="#ef9f5e"/>
    <path id="_3_-_Contour" data-name="3 - Contour" d="M394.521,23.74a33.025,33.025,0,0,0-7.54.962,40.621,40.621,0,0,0-7.717,2.7c-5.314,2.5-9.162,5.813-10.836,9.32a9.774,9.774,0,0,0-.969,5.059,12.55,12.55,0,0,0,3.016,6.818,6.776,6.776,0,0,0,5.519,2.588c3.772,0,8.59-2.358,14.32-7.009,2.267-1.84,4.409-2.773,6.367-2.773a5.726,5.726,0,0,1,4.836,2.728,9.329,9.329,0,0,1,.905,8.264,4.783,4.783,0,0,1-2.832,2.574,23.636,23.636,0,0,1-4.23,1.1c-5.006,1-10.68,2.126-10.151,11.16.12,2.062,1.207,3.548,3.419,4.676a30.182,30.182,0,0,0,7.215,2.13c3.6.757,7,1.473,7.843,3.349.427.952.186,2.2-.736,3.816-2.333,4.092-4.607,4.565-6.114,4.565-3.061,0-6.444-2.384-10.027-4.908l-.008-.006c-3.936-2.775-8.006-5.644-12.133-5.644a8.775,8.775,0,0,0-5.482,1.979c-3.077,2.4-5.059,4.921-5.89,7.5a8.9,8.9,0,0,0,.054,5.748c1.293,3.762,5.136,7.244,10.82,9.8a50.479,50.479,0,0,0,20.275,4.03,51.61,51.61,0,0,0,19.161-3.576c10.887-4.4,13.719-10.482,14.177-14.813.783-7.405-4.7-15.661-15.035-22.651a2.565,2.565,0,0,1-1.131-2.151,2.378,2.378,0,0,1,1.087-2.008,18.545,18.545,0,0,0,8.249-14.609,15.1,15.1,0,0,0-6.56-12.815c-5.246-3.828-10.6-7.309-18.371-7.854-.478-.034-.983-.051-1.5-.051m0-.678c.531,0,1.052.018,1.549.053,7.95.558,13.394,4.095,18.723,7.983a15.763,15.763,0,0,1,6.838,13.38,19.241,19.241,0,0,1-8.556,15.159,1.711,1.711,0,0,0-.779,1.446,1.888,1.888,0,0,0,.832,1.584c10.552,7.135,16.139,15.621,15.33,23.284-.478,4.515-3.4,10.847-14.6,15.37a52.292,52.292,0,0,1-19.415,3.626h0c-15.289,0-28.93-6.143-31.732-14.291-1.148-3.335-1.026-8.471,6.061-14a9.439,9.439,0,0,1,5.9-2.122c4.341,0,8.5,2.932,12.523,5.768,3.5,2.463,6.8,4.79,9.644,4.79,1.338,0,3.366-.438,5.525-4.223.8-1.4,1.033-2.473.706-3.2-.7-1.56-4.088-2.274-7.364-2.963-5.1-1.073-10.871-2.29-11.171-7.43-.564-9.623,5.679-10.866,10.7-11.864,3.058-.609,5.7-1.136,6.567-3.266a8.613,8.613,0,0,0-.84-7.63,5.075,5.075,0,0,0-4.273-2.428c-1.8,0-3.8.882-5.939,2.622-5.854,4.751-10.816,7.16-14.747,7.16a7.426,7.426,0,0,1-6.046-2.84c-4.233-5.234-3.495-9.738-2.131-12.594C371.578,28.553,384.91,23.062,394.521,23.062Z" transform="translate(1470.756 1307.359)" fill="#231f20"/>
  </g>
</svg>
