<svg xmlns="http://www.w3.org/2000/svg" xmlns:xlink="http://www.w3.org/1999/xlink" width="178.58" height="249.45" viewBox="0 0 178.58 249.45">
  <defs>
    <clipPath id="clip-path">
      <rect id="Rectangle_1" data-name="Rectangle 1" width="178.58" height="249.45" fill="none"/>
    </clipPath>
  </defs>
  <g id="fr32" transform="translate(-419 -982)">
    <g id="Groupe_1" data-name="Groupe 1" transform="translate(419 982)" clip-path="url(#clip-path)">
      <path id="Tracé_1" data-name="Tracé 1" d="M8.5,0H170.08a8.5,8.5,0,0,1,8.5,8.5V240.95a8.5,8.5,0,0,1-8.5,8.5H8.5a8.5,8.5,0,0,1-8.5-8.5V8.5A8.5,8.5,0,0,1,8.5,0" fill="#fff"/>
      <path id="Tracé_2" data-name="Tracé 2" d="M171.5,58.26V10.09a3.013,3.013,0,0,0-3.01-3.01H10.09a3,3,0,0,0-3,3.01V239.35a3,3,0,0,0,3,3.01h158.4a3.013,3.013,0,0,0,3.01-3.01V91.4m0-.01V58.29M29.01,44.95a.076.076,0,0,1,.02-.04.142.142,0,0,0-.02.06" fill="#fceef4"/>
    </g>
    <path id="Tracé_30" data-name="Tracé 30" d="M413.127,62.667a1.888,1.888,0,0,1-.832-1.584,1.711,1.711,0,0,1,.779-1.446,19.241,19.241,0,0,0,8.556-15.159,15.763,15.763,0,0,0-6.838-13.38c-5.329-3.888-10.773-7.425-18.723-7.983-.5-.035-1.017-.053-1.549-.053-9.611,0-22.943,5.491-26.7,13.371-1.364,2.857-2.1,7.36,2.131,12.594a7.426,7.426,0,0,0,6.046,2.84c3.932,0,8.893-2.409,14.747-7.16,2.143-1.74,4.142-2.622,5.939-2.622a5.075,5.075,0,0,1,4.273,2.428,8.613,8.613,0,0,1,.84,7.63c-.869,2.13-3.509,2.656-6.567,3.266-5.016,1-11.259,2.242-10.7,11.864.3,5.141,6.075,6.357,11.171,7.43,3.276.689,6.663,1.4,7.364,2.963.327.73.09,1.807-.706,3.2-2.159,3.785-4.187,4.223-5.525,4.223-2.848,0-6.149-2.327-9.644-4.79-4.023-2.836-8.183-5.768-12.523-5.768a9.439,9.439,0,0,0-5.9,2.122c-7.087,5.527-7.208,10.663-6.061,14,2.8,8.148,16.443,14.291,31.732,14.291h0a52.292,52.292,0,0,0,19.415-3.626c11.2-4.523,14.12-10.856,14.6-15.37C429.267,78.288,423.68,69.8,413.127,62.667Z" transform="translate(79.756 1039.23)" fill="#ef9f5e"/>
    <path id="Tracé_30_-_Contour" data-name="Tracé 30 - Contour" d="M394.521,23.74a33.025,33.025,0,0,0-7.54.962,40.621,40.621,0,0,0-7.717,2.7c-5.314,2.5-9.162,5.813-10.836,9.32a9.774,9.774,0,0,0-.969,5.059,12.55,12.55,0,0,0,3.016,6.818,6.776,6.776,0,0,0,5.519,2.588c3.772,0,8.59-2.358,14.32-7.009,2.267-1.84,4.409-2.773,6.367-2.773a5.726,5.726,0,0,1,4.836,2.728,9.329,9.329,0,0,1,.905,8.264,4.783,4.783,0,0,1-2.832,2.574,23.636,23.636,0,0,1-4.23,1.1c-5.006,1-10.68,2.126-10.151,11.16.12,2.062,1.207,3.548,3.419,4.676a30.182,30.182,0,0,0,7.215,2.13c3.6.757,7,1.473,7.843,3.349.427.952.186,2.2-.736,3.816-2.333,4.092-4.607,4.565-6.114,4.565-3.061,0-6.444-2.384-10.027-4.908l-.008-.006c-3.936-2.775-8.006-5.644-12.133-5.644a8.775,8.775,0,0,0-5.482,1.979c-3.077,2.4-5.059,4.921-5.89,7.5a8.9,8.9,0,0,0,.054,5.748c1.293,3.762,5.136,7.244,10.82,9.8a50.479,50.479,0,0,0,20.275,4.03,51.61,51.61,0,0,0,19.161-3.576c10.887-4.4,13.719-10.482,14.177-14.813.783-7.405-4.7-15.661-15.035-22.651a2.565,2.565,0,0,1-1.131-2.151,2.378,2.378,0,0,1,1.087-2.008,18.545,18.545,0,0,0,8.249-14.609,15.1,15.1,0,0,0-6.56-12.815c-5.246-3.828-10.6-7.309-18.371-7.854-.478-.034-.983-.051-1.5-.051m0-.678c.531,0,1.052.018,1.549.053,7.95.558,13.394,4.095,18.723,7.983a15.763,15.763,0,0,1,6.838,13.38,19.241,19.241,0,0,1-8.556,15.159,1.711,1.711,0,0,0-.779,1.446,1.888,1.888,0,0,0,.832,1.584c10.552,7.135,16.139,15.621,15.33,23.284-.478,4.515-3.4,10.847-14.6,15.37a52.292,52.292,0,0,1-19.415,3.626h0c-15.289,0-28.93-6.143-31.732-14.291-1.148-3.335-1.026-8.471,6.061-14a9.439,9.439,0,0,1,5.9-2.122c4.341,0,8.5,2.932,12.523,5.768,3.5,2.463,6.8,4.79,9.644,4.79,1.338,0,3.366-.438,5.525-4.223.8-1.4,1.033-2.473.706-3.2-.7-1.56-4.088-2.274-7.364-2.963-5.1-1.073-10.871-2.29-11.171-7.43-.564-9.623,5.679-10.866,10.7-11.864,3.058-.609,5.7-1.136,6.567-3.266a8.613,8.613,0,0,0-.84-7.63,5.075,5.075,0,0,0-4.273-2.428c-1.8,0-3.8.882-5.939,2.622-5.854,4.751-10.816,7.16-14.747,7.16a7.426,7.426,0,0,1-6.046-2.84c-4.233-5.234-3.495-9.738-2.131-12.594C371.578,28.553,384.91,23.062,394.521,23.062Z" transform="translate(79.756 1039.23)" fill="#231f20"/>
    <path id="_2" data-name="2" d="M318.155,85.968c-.516-3.49-2.885-7.364-6.415-8.016a30.33,30.33,0,0,0-6.472.1,53.063,53.063,0,0,1-6.062.259,1.041,1.041,0,0,1-.7-1.774c4.452-4.469,12.66-13.506,13.53-14.671,7.592-10.165,8.728-26.832-1.685-35.443-5.452-4.509-13.329-7.094-21.612-7.094-11.8,0-24.572,5.709-26.511,18.465a7.4,7.4,0,0,0,1.728,6.106,11.158,11.158,0,0,0,8.448,3.507,12.307,12.307,0,0,0,7.768-2.689c1.284-1.047,4.645-2.13,8.046-2.13,2.389,0,6.46.542,6.877,4.168.489,4.265-2.484,8.389-5.36,12.377q-.481.667-.954,1.33a58.2,58.2,0,0,1-5.6,5.514c-10.127,9.327-19.07,18.2-17.289,24.272.731,2.491,3.185,4.119,7.294,4.838a131.566,131.566,0,0,0,21.09,1.71c6.514,0,15.389-.572,20.67-3.3C317.46,92.2,318.661,89.385,318.155,85.968Z" transform="translate(250.867 1048.663)" fill="#ef9f5e"/>
    <path id="_2_-_Contour" data-name="2 - Contour" d="M294.273,96.119c6.439,0,15.2-.559,20.359-3.222,2.248-1.16,3.314-3.714,2.853-6.83a10.974,10.974,0,0,0-1.952-4.768,6.514,6.514,0,0,0-3.916-2.68,10.905,10.905,0,0,0-1.878-.128c-1.289,0-2.885.113-4.417.236l-.033,0c-1.718.136-3.494.277-5.122.277-.346,0-.679-.007-.99-.019a1.719,1.719,0,0,1-1.151-2.93c4.436-4.453,12.6-13.443,13.467-14.6a29.258,29.258,0,0,0,4.3-8.418,30.143,30.143,0,0,0,1.472-9.473,24.014,24.014,0,0,0-1.817-9.141,19.389,19.389,0,0,0-5.531-7.483c-5.332-4.41-13.052-6.939-21.18-6.939-11.509,0-23.962,5.531-25.841,17.889a6.742,6.742,0,0,0,1.572,5.562,10.477,10.477,0,0,0,7.934,3.271,11.628,11.628,0,0,0,7.34-2.536c1.357-1.107,4.788-2.283,8.474-2.283a11.7,11.7,0,0,1,4.446.779,4.811,4.811,0,0,1,3.1,3.989c.519,4.526-2.533,8.758-5.484,12.851-.307.425-.633.877-.951,1.326a56.256,56.256,0,0,1-5.68,5.6l-.017.016c-5.6,5.155-9.957,9.387-13.038,13.28-3.477,4.394-4.8,7.764-4.06,10.3.652,2.223,2.927,3.69,6.76,4.362a130.826,130.826,0,0,0,20.973,1.7m0,.678a131.567,131.567,0,0,1-21.09-1.71c-4.109-.72-6.563-2.347-7.294-4.838-1.781-6.07,7.161-14.945,17.289-24.272a58.2,58.2,0,0,0,5.6-5.514q.472-.663.954-1.33c2.876-3.989,5.85-8.113,5.36-12.377-.417-3.626-4.488-4.168-6.877-4.168-3.4,0-6.762,1.083-8.046,2.13a12.307,12.307,0,0,1-7.768,2.689,11.158,11.158,0,0,1-8.448-3.507,7.4,7.4,0,0,1-1.728-6.106c1.939-12.756,14.713-18.465,26.511-18.465,8.283,0,16.159,2.585,21.612,7.094,10.412,8.611,9.277,25.278,1.685,35.443-.87,1.165-9.078,10.2-13.53,14.671a1.041,1.041,0,0,0,.7,1.774,53.056,53.056,0,0,0,6.063-.259,30.33,30.33,0,0,1,6.472-.1c3.53.652,5.9,4.525,6.415,8.016.506,3.417-.7,6.232-3.212,7.531C309.661,96.225,300.787,96.8,294.273,96.8Z" transform="translate(250.867 1048.663)" fill="#231f20"/>
  </g>
</svg>
