<svg xmlns="http://www.w3.org/2000/svg" xmlns:xlink="http://www.w3.org/1999/xlink" width="178.58" height="249.45" viewBox="0 0 178.58 249.45">
  <defs>
    <clipPath id="clip-path">
      <rect id="Rectangle_1" data-name="Rectangle 1" width="178.58" height="249.45" fill="none"/>
    </clipPath>
  </defs>
  <g id="fr40" transform="translate(-1812 -1522)">
    <g id="Groupe_1" data-name="Groupe 1" transform="translate(1812 1522)" clip-path="url(#clip-path)">
      <path id="Tracé_1" data-name="Tracé 1" d="M8.5,0H170.08a8.5,8.5,0,0,1,8.5,8.5V240.95a8.5,8.5,0,0,1-8.5,8.5H8.5a8.5,8.5,0,0,1-8.5-8.5V8.5A8.5,8.5,0,0,1,8.5,0" fill="#fff"/>
      <path id="Tracé_2" data-name="Tracé 2" d="M171.5,58.26V10.09a3.013,3.013,0,0,0-3.01-3.01H10.09a3,3,0,0,0-3,3.01V239.35a3,3,0,0,0,3,3.01h158.4a3.013,3.013,0,0,0,3.01-3.01V91.4m0-.01V58.29M29.01,44.95a.076.076,0,0,1,.02-.04.142.142,0,0,0-.02.06" fill="#fceef4"/>
    </g>
    <path id="nb2" d="M114.268,35.628c-6.91-7.618-15.582-11.814-24.416-11.814a29.873,29.873,0,0,0-21.116,9.157C62.42,39.3,58.1,48.4,56.233,59.294,54.987,66.571,57.776,82,66.252,92.054c5.164,6.123,11.52,9.228,18.891,9.229h0c.583,0,1.181-.02,1.776-.06,14.888-1,26.118-9.065,31.62-22.708C124.42,63.945,122.5,44.706,114.268,35.628Zm-9.859,39.206c-1.548,6.379-8.96,13.125-14.419,13.125a5.753,5.753,0,0,1-1.354-.155,9.266,9.266,0,0,1-6.117-5.326,14.853,14.853,0,0,1-.812-9.8c1.617-6.66,9.672-14.252,15.122-14.252A4.985,4.985,0,0,1,98,58.563c2.53.614,4.6,2.683,5.824,5.827A17.842,17.842,0,0,1,104.409,74.834Z" transform="translate(1850.34 1584.177)" fill="#ef9f5e"/>
    <path id="nb2_-_Contour" data-name="nb2 - Contour" d="M89.852,24.492a29.2,29.2,0,0,0-20.636,8.958C63,39.678,58.741,48.654,56.9,59.409a27.205,27.205,0,0,0-.144,6.6,49.506,49.506,0,0,0,1.5,8.447,50.61,50.61,0,0,0,3.294,8.964,38.887,38.887,0,0,0,5.224,8.193C71.8,97.58,77.981,100.6,85.145,100.6c.567,0,1.15-.02,1.731-.058a36.128,36.128,0,0,0,18.98-6.488,35.2,35.2,0,0,0,12.058-15.8,46.481,46.481,0,0,0,2.926-11.4,51.772,51.772,0,0,0,.183-11.777,42.416,42.416,0,0,0-2.421-10.73,25.673,25.673,0,0,0-4.836-8.265c-6.78-7.475-15.273-11.591-23.914-11.591m.139,64.145a6.433,6.433,0,0,1-1.514-.174,9.929,9.929,0,0,1-6.57-5.7,15.53,15.53,0,0,1-.857-10.246,21.868,21.868,0,0,1,6.317-9.956c3.245-3.059,6.695-4.813,9.463-4.813a5.66,5.66,0,0,1,1.334.153c2.751.668,4.987,2.884,6.3,6.239a18.533,18.533,0,0,1,.609,10.851,19.493,19.493,0,0,1-5.945,9.3c-3.035,2.762-6.364,4.347-9.132,4.347m-.139-64.822c8.834,0,17.506,4.2,24.416,11.814,8.235,9.078,10.152,28.317,4.274,42.887-5.5,13.642-16.733,21.706-31.62,22.708-.6.04-1.193.06-1.776.06h0c-7.372,0-13.728-3.106-18.891-9.229C57.776,82,54.987,66.571,56.233,59.294c1.864-10.893,6.188-20,12.5-26.324A29.873,29.873,0,0,1,89.852,23.814Zm.139,64.145c5.459,0,12.871-6.746,14.419-13.125a17.842,17.842,0,0,0-.582-10.445c-1.226-3.144-3.294-5.213-5.824-5.827a4.985,4.985,0,0,0-1.175-.134c-5.45,0-13.505,7.592-15.122,14.252a14.853,14.853,0,0,0,.812,9.8A9.266,9.266,0,0,0,88.636,87.8,5.753,5.753,0,0,0,89.99,87.959Z" transform="translate(1850.34 1584.177)" fill="#231f20"/>
    <path id="Tracé_144" data-name="Tracé 144" d="M533.045,65.644a2.421,2.421,0,0,1-1.919-1.005c-1.185-1.838.142-6.371,1.549-11.17,2.452-8.375,5.5-18.8-.561-26.176a5.616,5.616,0,0,0-4.586-1.886c-8.3,0-23.7,11.332-26.715,14.256-8.678,8.429-11.445,12.872-17.138,23.42-3.462,6.415-4.151,11.2-2.108,14.622,2.127,3.564,7.1,5.3,15.2,5.3a99.384,99.384,0,0,0,11.156-.752,1.591,1.591,0,0,1,1.415.567,1.626,1.626,0,0,1,.35,1.359c-.646,3.5-1.678,12.211,2.688,17.457a10.949,10.949,0,0,0,8.873,3.788h.109c3.654-.023,6.268-.939,7.993-2.8,2.788-3.008,2.457-7.735,2.166-11.907-.369-5.289-.272-7.648,2.21-8.038,5.887-.927,9.381-3.865,9.349-7.857C543.038,70.388,538.727,66.445,533.045,65.644Zm-32.914-2.171c1.05-3.742,12-14.3,14.827-14.3.255,0,.482.335.628.617,1.3,2.508.854,9.774-2.138,13.993-1.152,1.625-6.938,4.933-10.93,4.933h0a2.807,2.807,0,0,1-2.35-.839C499.56,67.074,499.547,65.552,500.131,63.473Z" transform="translate(1352.501 1580.049)" fill="#ef9f5e"/>
    <path id="Tracé_144_-_Contour" data-name="Tracé 144 - Contour" d="M521.243,104.741h.108c3.456-.022,5.91-.867,7.5-2.583,2.588-2.792,2.269-7.364,1.987-11.4-.356-5.1-.412-8.252,2.781-8.755a13.487,13.487,0,0,0,6.564-2.628,5.708,5.708,0,0,0,2.214-4.554,7.568,7.568,0,0,0-2.676-5.452,12.7,12.7,0,0,0-6.769-3.055,3.168,3.168,0,0,1-2.394-1.309c-1.354-2.1-.046-6.561,1.469-11.732,1.21-4.132,2.581-8.815,2.887-13.316.346-5.093-.74-9.1-3.321-12.236a4.975,4.975,0,0,0-4.062-1.638c-4.318,0-10.535,3.226-14.99,5.933a78.561,78.561,0,0,0-11.252,8.131c-8.61,8.363-11.358,12.776-17.014,23.256-3.339,6.186-4.033,10.75-2.123,13.953,1.994,3.341,6.772,4.965,14.609,4.965h.006a98.754,98.754,0,0,0,11.081-.748,2.357,2.357,0,0,1,.262-.015,2.3,2.3,0,0,1,2.245,2.738c-.629,3.407-1.639,11.875,2.543,16.9a10.3,10.3,0,0,0,8.349,3.544M514.959,48.5c.48,0,.894.331,1.23.983.714,1.381.947,3.966.61,6.747a18.081,18.081,0,0,1-2.8,7.948,14,14,0,0,1-4.653,3.292,17.07,17.07,0,0,1-6.831,1.927,3.423,3.423,0,0,1-2.891-1.108c-.751-.993-.8-2.674-.148-5,.617-2.2,3.984-6.018,6.928-8.857,1.444-1.393,6.328-5.936,8.551-5.936m6.288,56.923a10.949,10.949,0,0,1-8.873-3.788c-4.366-5.246-3.334-13.956-2.688-17.457a1.626,1.626,0,0,0-.35-1.359,1.591,1.591,0,0,0-1.415-.567A99.384,99.384,0,0,1,496.764,83h-.006c-8.1,0-13.065-1.732-15.191-5.3-2.043-3.424-1.354-8.207,2.108-14.622,5.693-10.548,8.461-14.992,17.138-23.42,3.011-2.924,18.411-14.256,26.715-14.256a5.616,5.616,0,0,1,4.586,1.886c6.065,7.378,3.012,17.8.561,26.176-1.406,4.8-2.734,9.333-1.549,11.17a2.421,2.421,0,0,0,1.919,1.005c5.682.8,9.993,4.745,10.028,9.173.032,3.992-3.463,6.93-9.349,7.857-2.481.391-2.579,2.749-2.21,8.038.292,4.171.622,8.9-2.166,11.907-1.724,1.861-4.339,2.777-7.993,2.8Zm-6.288-56.245c-2.829,0-13.777,10.558-14.827,14.3-.585,2.079-.571,3.6.036,4.4a2.807,2.807,0,0,0,2.35.839h0c3.992,0,9.778-3.308,10.93-4.933,2.992-4.219,3.434-11.485,2.138-13.993C515.441,49.508,515.214,49.174,514.959,49.174Z" transform="translate(1352.501 1580.049)" fill="#231f20"/>
  </g>
</svg>
