<svg xmlns="http://www.w3.org/2000/svg" xmlns:xlink="http://www.w3.org/1999/xlink" width="178.58" height="249.45" viewBox="0 0 178.58 249.45">
  <defs>
    <clipPath id="clip-path">
      <rect id="Rectangle_1" data-name="Rectangle 1" width="178.58" height="249.45" fill="none"/>
    </clipPath>
  </defs>
  <g id="fr43" transform="translate(-618 -1252)">
    <g id="Groupe_1" data-name="Groupe 1" transform="translate(618 1252)" clip-path="url(#clip-path)">
      <path id="Tracé_1" data-name="Tracé 1" d="M8.5,0H170.08a8.5,8.5,0,0,1,8.5,8.5V240.95a8.5,8.5,0,0,1-8.5,8.5H8.5a8.5,8.5,0,0,1-8.5-8.5V8.5A8.5,8.5,0,0,1,8.5,0" fill="#fff"/>
      <path id="Tracé_2" data-name="Tracé 2" d="M171.5,58.26V10.09a3.013,3.013,0,0,0-3.01-3.01H10.09a3,3,0,0,0-3,3.01V239.35a3,3,0,0,0,3,3.01h158.4a3.013,3.013,0,0,0,3.01-3.01V91.4m0-.01V58.29M29.01,44.95a.076.076,0,0,1,.02-.04.142.142,0,0,0-.02.06" fill="#fceef4"/>
    </g>
    <path id="Tracé_32" data-name="Tracé 32" d="M533.045,65.644a2.421,2.421,0,0,1-1.919-1.005c-1.185-1.838.142-6.371,1.549-11.17,2.452-8.375,5.5-18.8-.561-26.176a5.616,5.616,0,0,0-4.586-1.886c-8.3,0-23.7,11.332-26.715,14.256-8.678,8.429-11.445,12.872-17.138,23.42-3.462,6.415-4.151,11.2-2.108,14.622,2.127,3.564,7.1,5.3,15.2,5.3a99.384,99.384,0,0,0,11.156-.752,1.591,1.591,0,0,1,1.415.567,1.626,1.626,0,0,1,.35,1.359c-.646,3.5-1.678,12.211,2.688,17.457a10.949,10.949,0,0,0,8.873,3.788h.109c3.654-.023,6.268-.939,7.993-2.8,2.788-3.008,2.457-7.735,2.166-11.907-.369-5.289-.272-7.648,2.21-8.038,5.887-.927,9.381-3.865,9.349-7.857C543.038,70.388,538.727,66.445,533.045,65.644Zm-32.914-2.171c1.05-3.742,12-14.3,14.827-14.3.255,0,.482.335.628.617,1.3,2.508.854,9.774-2.138,13.993-1.152,1.625-6.938,4.933-10.93,4.933h0a2.807,2.807,0,0,1-2.35-.839C499.56,67.074,499.547,65.552,500.131,63.473Z" transform="translate(156.26 1306.886)" fill="#ef9f5e"/>
    <path id="Tracé_32_-_Contour" data-name="Tracé 32 - Contour" d="M521.243,104.741h.108c3.456-.022,5.91-.867,7.5-2.583,2.588-2.792,2.269-7.364,1.987-11.4-.356-5.1-.412-8.252,2.781-8.755a13.487,13.487,0,0,0,6.564-2.628,5.708,5.708,0,0,0,2.214-4.554,7.568,7.568,0,0,0-2.676-5.452,12.7,12.7,0,0,0-6.769-3.055,3.168,3.168,0,0,1-2.394-1.309c-1.354-2.1-.046-6.561,1.469-11.732,1.21-4.132,2.581-8.815,2.887-13.316.346-5.093-.74-9.1-3.321-12.236a4.975,4.975,0,0,0-4.062-1.638c-4.318,0-10.535,3.226-14.99,5.933a78.561,78.561,0,0,0-11.252,8.131c-8.61,8.363-11.358,12.776-17.014,23.256-3.339,6.186-4.033,10.75-2.123,13.953,1.994,3.341,6.772,4.965,14.609,4.965h.006a98.754,98.754,0,0,0,11.081-.748,2.357,2.357,0,0,1,.262-.015,2.3,2.3,0,0,1,2.245,2.738c-.629,3.407-1.639,11.875,2.543,16.9a10.3,10.3,0,0,0,8.349,3.544M514.959,48.5c.48,0,.894.331,1.23.983.714,1.381.947,3.966.61,6.747a18.081,18.081,0,0,1-2.8,7.948,14,14,0,0,1-4.653,3.292,17.07,17.07,0,0,1-6.831,1.927,3.423,3.423,0,0,1-2.891-1.108c-.751-.993-.8-2.674-.148-5,.617-2.2,3.984-6.018,6.928-8.857,1.444-1.393,6.328-5.936,8.551-5.936m6.288,56.923a10.949,10.949,0,0,1-8.873-3.788c-4.366-5.246-3.334-13.956-2.688-17.457a1.626,1.626,0,0,0-.35-1.359,1.591,1.591,0,0,0-1.415-.567A99.384,99.384,0,0,1,496.764,83h-.006c-8.1,0-13.065-1.732-15.191-5.3-2.043-3.424-1.354-8.207,2.108-14.622,5.693-10.548,8.461-14.992,17.138-23.42,3.011-2.924,18.411-14.256,26.715-14.256a5.616,5.616,0,0,1,4.586,1.886c6.065,7.378,3.012,17.8.561,26.176-1.406,4.8-2.734,9.333-1.549,11.17a2.421,2.421,0,0,0,1.919,1.005c5.682.8,9.993,4.745,10.028,9.173.032,3.992-3.463,6.93-9.349,7.857-2.481.391-2.579,2.749-2.21,8.038.292,4.171.622,8.9-2.166,11.907-1.724,1.861-4.339,2.777-7.993,2.8Zm-6.288-56.245c-2.829,0-13.777,10.558-14.827,14.3-.585,2.079-.571,3.6.036,4.4a2.807,2.807,0,0,0,2.35.839h0c3.992,0,9.778-3.308,10.93-4.933,2.992-4.219,3.434-11.485,2.138-13.993C515.441,49.508,515.214,49.174,514.959,49.174Z" transform="translate(156.26 1306.886)" fill="#231f20"/>
    <path id="Tracé_136" data-name="Tracé 136" d="M413.127,62.667a1.888,1.888,0,0,1-.832-1.584,1.711,1.711,0,0,1,.779-1.446,19.241,19.241,0,0,0,8.556-15.159,15.763,15.763,0,0,0-6.838-13.38c-5.329-3.888-10.773-7.425-18.723-7.983-.5-.035-1.017-.053-1.549-.053-9.611,0-22.943,5.491-26.7,13.371-1.364,2.857-2.1,7.36,2.131,12.594a7.426,7.426,0,0,0,6.046,2.84c3.932,0,8.893-2.409,14.747-7.16,2.143-1.74,4.142-2.622,5.939-2.622a5.075,5.075,0,0,1,4.273,2.428,8.613,8.613,0,0,1,.84,7.63c-.869,2.13-3.509,2.656-6.567,3.266-5.016,1-11.259,2.242-10.7,11.864.3,5.141,6.075,6.357,11.171,7.43,3.276.689,6.663,1.4,7.364,2.963.327.73.09,1.807-.706,3.2-2.159,3.785-4.187,4.223-5.525,4.223-2.848,0-6.149-2.327-9.644-4.79-4.023-2.836-8.183-5.768-12.523-5.768a9.439,9.439,0,0,0-5.9,2.122c-7.087,5.527-7.208,10.663-6.061,14,2.8,8.148,16.443,14.291,31.732,14.291h0a52.292,52.292,0,0,0,19.415-3.626c11.2-4.523,14.12-10.856,14.6-15.37C429.267,78.288,423.68,69.8,413.127,62.667Z" transform="translate(347.832 1309.23)" fill="#ef9f5e"/>
    <path id="Tracé_136_-_Contour" data-name="Tracé 136 - Contour" d="M394.521,23.74a33.025,33.025,0,0,0-7.54.962,40.621,40.621,0,0,0-7.717,2.7c-5.314,2.5-9.162,5.813-10.836,9.32a9.774,9.774,0,0,0-.969,5.059,12.55,12.55,0,0,0,3.016,6.818,6.776,6.776,0,0,0,5.519,2.588c3.772,0,8.59-2.358,14.32-7.009,2.267-1.84,4.409-2.773,6.367-2.773a5.726,5.726,0,0,1,4.836,2.728,9.329,9.329,0,0,1,.905,8.264,4.783,4.783,0,0,1-2.832,2.574,23.636,23.636,0,0,1-4.23,1.1c-5.006,1-10.68,2.126-10.151,11.16.12,2.062,1.207,3.548,3.419,4.676a30.182,30.182,0,0,0,7.215,2.13c3.6.757,7,1.473,7.843,3.349.427.952.186,2.2-.736,3.816-2.333,4.092-4.607,4.565-6.114,4.565-3.061,0-6.444-2.384-10.027-4.908l-.008-.006c-3.936-2.775-8.006-5.644-12.133-5.644a8.775,8.775,0,0,0-5.482,1.979c-3.077,2.4-5.059,4.921-5.89,7.5a8.9,8.9,0,0,0,.054,5.748c1.293,3.762,5.136,7.244,10.82,9.8a50.479,50.479,0,0,0,20.275,4.03,51.61,51.61,0,0,0,19.161-3.576c10.887-4.4,13.719-10.482,14.177-14.813.783-7.405-4.7-15.661-15.035-22.651a2.565,2.565,0,0,1-1.131-2.151,2.378,2.378,0,0,1,1.087-2.008,18.545,18.545,0,0,0,8.249-14.609,15.1,15.1,0,0,0-6.56-12.815c-5.246-3.828-10.6-7.309-18.371-7.854-.478-.034-.983-.051-1.5-.051m0-.678c.531,0,1.052.018,1.549.053,7.95.558,13.394,4.095,18.723,7.983a15.763,15.763,0,0,1,6.838,13.38,19.241,19.241,0,0,1-8.556,15.159,1.711,1.711,0,0,0-.779,1.446,1.888,1.888,0,0,0,.832,1.584c10.552,7.135,16.139,15.621,15.33,23.284-.478,4.515-3.4,10.847-14.6,15.37a52.292,52.292,0,0,1-19.415,3.626h0c-15.289,0-28.93-6.143-31.732-14.291-1.148-3.335-1.026-8.471,6.061-14a9.439,9.439,0,0,1,5.9-2.122c4.341,0,8.5,2.932,12.523,5.768,3.5,2.463,6.8,4.79,9.644,4.79,1.338,0,3.366-.438,5.525-4.223.8-1.4,1.033-2.473.706-3.2-.7-1.56-4.088-2.274-7.364-2.963-5.1-1.073-10.871-2.29-11.171-7.43-.564-9.623,5.679-10.866,10.7-11.864,3.058-.609,5.7-1.136,6.567-3.266a8.613,8.613,0,0,0-.84-7.63,5.075,5.075,0,0,0-4.273-2.428c-1.8,0-3.8.882-5.939,2.622-5.854,4.751-10.816,7.16-14.747,7.16a7.426,7.426,0,0,1-6.046-2.84c-4.233-5.234-3.495-9.738-2.131-12.594C371.578,28.553,384.91,23.062,394.521,23.062Z" transform="translate(347.832 1309.23)" fill="#231f20"/>
  </g>
</svg>
