<svg xmlns="http://www.w3.org/2000/svg" xmlns:xlink="http://www.w3.org/1999/xlink" width="178.58" height="249.45" viewBox="0 0 178.58 249.45">
  <defs>
    <clipPath id="clip-path">
      <rect id="Rectangle_1" data-name="Rectangle 1" width="178.58" height="249.45" fill="none"/>
    </clipPath>
  </defs>
  <g id="fr50" transform="translate(-1812 -1792)">
    <g id="Groupe_1" data-name="Groupe 1" transform="translate(1812 1792)" clip-path="url(#clip-path)">
      <path id="Tracé_1" data-name="Tracé 1" d="M8.5,0H170.08a8.5,8.5,0,0,1,8.5,8.5V240.95a8.5,8.5,0,0,1-8.5,8.5H8.5a8.5,8.5,0,0,1-8.5-8.5V8.5A8.5,8.5,0,0,1,8.5,0" fill="#fff"/>
      <path id="Tracé_2" data-name="Tracé 2" d="M171.5,58.26V10.09a3.013,3.013,0,0,0-3.01-3.01H10.09a3,3,0,0,0-3,3.01V239.35a3,3,0,0,0,3,3.01h158.4a3.013,3.013,0,0,0,3.01-3.01V91.4m0-.01V58.29M29.01,44.95a.076.076,0,0,1,.02-.04.142.142,0,0,0-.02.06" fill="#fceef4"/>
    </g>
    <path id="nb2" d="M114.268,35.628c-6.91-7.618-15.582-11.814-24.416-11.814a29.873,29.873,0,0,0-21.116,9.157C62.42,39.3,58.1,48.4,56.233,59.294,54.987,66.571,57.776,82,66.252,92.054c5.164,6.123,11.52,9.228,18.891,9.229h0c.583,0,1.181-.02,1.776-.06,14.888-1,26.118-9.065,31.62-22.708C124.42,63.945,122.5,44.706,114.268,35.628Zm-9.859,39.206c-1.548,6.379-8.96,13.125-14.419,13.125a5.753,5.753,0,0,1-1.354-.155,9.266,9.266,0,0,1-6.117-5.326,14.853,14.853,0,0,1-.812-9.8c1.617-6.66,9.672-14.252,15.122-14.252A4.985,4.985,0,0,1,98,58.563c2.53.614,4.6,2.683,5.824,5.827A17.842,17.842,0,0,1,104.409,74.834Z" transform="translate(1852.34 1854.177)" fill="#ef9f5e"/>
    <path id="nb2_-_Contour" data-name="nb2 - Contour" d="M89.852,24.492a29.2,29.2,0,0,0-20.636,8.958C63,39.678,58.741,48.654,56.9,59.409a27.205,27.205,0,0,0-.144,6.6,49.506,49.506,0,0,0,1.5,8.447,50.61,50.61,0,0,0,3.294,8.964,38.887,38.887,0,0,0,5.224,8.193C71.8,97.58,77.981,100.6,85.145,100.6c.567,0,1.15-.02,1.731-.058a36.128,36.128,0,0,0,18.98-6.488,35.2,35.2,0,0,0,12.058-15.8,46.481,46.481,0,0,0,2.926-11.4,51.772,51.772,0,0,0,.183-11.777,42.416,42.416,0,0,0-2.421-10.73,25.673,25.673,0,0,0-4.836-8.265c-6.78-7.475-15.273-11.591-23.914-11.591m.139,64.145a6.433,6.433,0,0,1-1.514-.174,9.929,9.929,0,0,1-6.57-5.7,15.53,15.53,0,0,1-.857-10.246,21.868,21.868,0,0,1,6.317-9.956c3.245-3.059,6.695-4.813,9.463-4.813a5.66,5.66,0,0,1,1.334.153c2.751.668,4.987,2.884,6.3,6.239a18.533,18.533,0,0,1,.609,10.851,19.493,19.493,0,0,1-5.945,9.3c-3.035,2.762-6.364,4.347-9.132,4.347m-.139-64.822c8.834,0,17.506,4.2,24.416,11.814,8.235,9.078,10.152,28.317,4.274,42.887-5.5,13.642-16.733,21.706-31.62,22.708-.6.04-1.193.06-1.776.06h0c-7.372,0-13.728-3.106-18.891-9.229C57.776,82,54.987,66.571,56.233,59.294c1.864-10.893,6.188-20,12.5-26.324A29.873,29.873,0,0,1,89.852,23.814Zm.139,64.145c5.459,0,12.871-6.746,14.419-13.125a17.842,17.842,0,0,0-.582-10.445c-1.226-3.144-3.294-5.213-5.824-5.827a4.985,4.985,0,0,0-1.175-.134c-5.45,0-13.505,7.592-15.122,14.252a14.853,14.853,0,0,0,.812,9.8A9.266,9.266,0,0,0,88.636,87.8,5.753,5.753,0,0,0,89.99,87.959Z" transform="translate(1852.34 1854.177)" fill="#231f20"/>
    <path id="Tracé_145" data-name="Tracé 145" d="M92.072,177.291c-3.726-1.195-7.948-2.55-8.247-3.755-.509-2.051-.379-3.53.4-4.522,1.451-1.855,5.225-2.093,8.351-2.093,1.653,0,3.443.079,5.174.155,1.763.077,3.585.158,5.3.158,4.975,0,10.22-.611,11.391-5.139a8.573,8.573,0,0,0-1.327-7.755c-3.344-4.319-11.543-6.508-24.368-6.508a138.974,138.974,0,0,0-15.294.914c-5.155.6-9.359,4.637-11.534,11.086-2.379,7.053-2.011,16.862,3.294,21.961,1.818,1.747,5.986,3,10.813,4.456,7.343,2.211,16.482,4.963,18.3,9.947.744,2.045.223,4.388-1.594,7.16a5.664,5.664,0,0,1-5.21,2.511h0c-3.238,0-7.38-1.448-11.385-2.847-4.222-1.477-8.586-3-12.278-3-5.781,0-8.9,3.651-9.54,11.16a10.482,10.482,0,0,0,2.812,8.285c6.438,7.01,21.811,7.554,26.369,7.554h0a52.1,52.1,0,0,0,7.4-.466c12.217-1.845,26.1-12.4,26.5-24.606C117.923,185.584,102.366,180.594,92.072,177.291Z" transform="translate(1778.769 1727.162)" fill="#ef9f5e"/>
    <path id="Tracé_145_-_Contour" data-name="Tracé 145 - Contour" d="M88.744,148.509a138.3,138.3,0,0,0-15.216.909c-4.884.564-8.882,4.438-10.969,10.629a27.233,27.233,0,0,0-1.2,11.419c.336,2.914,1.359,6.986,4.325,9.837,1.7,1.634,5.8,2.867,10.538,4.3,7.488,2.255,16.807,5.061,18.737,10.364.823,2.26.278,4.8-1.664,7.763a6.365,6.365,0,0,1-5.779,2.817c-3.351,0-7.543-1.465-11.6-2.881l-.011,0c-4.166-1.457-8.474-2.964-12.054-2.964a7.623,7.623,0,0,0-6.183,2.527c-1.474,1.724-2.376,4.42-2.682,8.013A9.829,9.829,0,0,0,57.621,219a17.2,17.2,0,0,0,5.963,3.973A37.392,37.392,0,0,0,71.14,225.2a67.538,67.538,0,0,0,12.352,1.136,51.426,51.426,0,0,0,7.3-.459,32.858,32.858,0,0,0,9.049-2.849,37,37,0,0,0,8.29-5.411c5.359-4.666,8.407-10.241,8.584-15.7a19.114,19.114,0,0,0-2.2-9.94,20.359,20.359,0,0,0-6.119-6.71c-5.022-3.642-11.4-5.689-16.53-7.334-1.9-.61-3.872-1.242-5.458-1.892-2.074-.85-3.042-1.551-3.239-2.345-.562-2.267-.392-3.936.521-5.1a6.3,6.3,0,0,1,3.953-1.99,27.469,27.469,0,0,1,4.932-.363c1.654,0,3.435.078,5.159.154l.085,0c1.742.077,3.543.156,5.231.156a22.251,22.251,0,0,0,6.9-.834,5.376,5.376,0,0,0,3.834-3.8,7.929,7.929,0,0,0-1.206-7.171c-1.571-2.029-4.353-3.588-8.267-4.634a62.22,62.22,0,0,0-15.565-1.611m0-.678c12.826,0,21.025,2.189,24.368,6.508a8.573,8.573,0,0,1,1.326,7.755c-1.171,4.528-6.415,5.139-11.391,5.139-1.715,0-3.538-.081-5.3-.158-1.731-.076-3.521-.155-5.174-.155-3.126,0-6.9.238-8.351,2.093-.776.992-.906,2.471-.4,4.522.3,1.205,4.521,2.56,8.247,3.755,10.294,3.3,25.851,8.294,25.321,24.652-.395,12.2-14.282,22.761-26.5,24.606a52.1,52.1,0,0,1-7.4.466h0c-4.558,0-19.93-.545-26.369-7.554a10.482,10.482,0,0,1-2.812-8.285c.639-7.509,3.759-11.16,9.54-11.16,3.692,0,8.057,1.525,12.278,3,4.005,1.4,8.147,2.847,11.385,2.847h0a5.664,5.664,0,0,0,5.21-2.511c1.817-2.772,2.338-5.114,1.594-7.16-1.814-4.983-10.952-7.735-18.3-9.947-4.827-1.454-8.995-2.709-10.813-4.456-5.305-5.1-5.673-14.908-3.294-21.961,2.175-6.449,6.379-10.49,11.534-11.086A138.974,138.974,0,0,1,88.744,147.831Z" transform="translate(1778.769 1727.162)" fill="#231f20"/>
  </g>
</svg>
