<svg xmlns="http://www.w3.org/2000/svg" xmlns:xlink="http://www.w3.org/1999/xlink" width="178.58" height="249.45" viewBox="0 0 178.58 249.45">
  <defs>
    <clipPath id="clip-path">
      <rect id="Rectangle_1" data-name="Rectangle 1" width="178.58" height="249.45" fill="none"/>
    </clipPath>
  </defs>
  <g id="fr53" transform="translate(-817 -1252)">
    <g id="Groupe_1" data-name="Groupe 1" transform="translate(817 1252)" clip-path="url(#clip-path)">
      <path id="Tracé_1" data-name="Tracé 1" d="M8.5,0H170.08a8.5,8.5,0,0,1,8.5,8.5V240.95a8.5,8.5,0,0,1-8.5,8.5H8.5a8.5,8.5,0,0,1-8.5-8.5V8.5A8.5,8.5,0,0,1,8.5,0" fill="#fff"/>
      <path id="Tracé_2" data-name="Tracé 2" d="M171.5,58.26V10.09a3.013,3.013,0,0,0-3.01-3.01H10.09a3,3,0,0,0-3,3.01V239.35a3,3,0,0,0,3,3.01h158.4a3.013,3.013,0,0,0,3.01-3.01V91.4m0-.01V58.29M29.01,44.95a.076.076,0,0,1,.02-.04.142.142,0,0,0-.02.06" fill="#fceef4"/>
    </g>
    <path id="Tracé_31" data-name="Tracé 31" d="M92.072,177.291c-3.726-1.195-7.948-2.55-8.247-3.755-.509-2.051-.379-3.53.4-4.522,1.451-1.855,5.225-2.093,8.351-2.093,1.653,0,3.443.079,5.174.155,1.763.077,3.585.158,5.3.158,4.975,0,10.22-.611,11.391-5.139a8.573,8.573,0,0,0-1.327-7.755c-3.344-4.319-11.543-6.508-24.368-6.508a138.974,138.974,0,0,0-15.294.914c-5.155.6-9.359,4.637-11.534,11.086-2.379,7.053-2.011,16.862,3.294,21.961,1.818,1.747,5.986,3,10.813,4.456,7.343,2.211,16.482,4.963,18.3,9.947.744,2.045.223,4.388-1.594,7.16a5.664,5.664,0,0,1-5.21,2.511h0c-3.238,0-7.38-1.448-11.385-2.847-4.222-1.477-8.586-3-12.278-3-5.781,0-8.9,3.651-9.54,11.16a10.482,10.482,0,0,0,2.812,8.285c6.438,7.01,21.811,7.554,26.369,7.554h0a52.1,52.1,0,0,0,7.4-.466c12.217-1.845,26.1-12.4,26.5-24.606C117.923,185.584,102.366,180.594,92.072,177.291Z" transform="translate(788.884 1187.162)" fill="#ef9f5e"/>
    <path id="Tracé_31_-_Contour" data-name="Tracé 31 - Contour" d="M88.744,148.509a138.3,138.3,0,0,0-15.216.909c-4.884.564-8.882,4.438-10.969,10.629a27.233,27.233,0,0,0-1.2,11.419c.336,2.914,1.359,6.986,4.325,9.837,1.7,1.634,5.8,2.867,10.538,4.3,7.488,2.255,16.807,5.061,18.737,10.364.823,2.26.278,4.8-1.664,7.763a6.365,6.365,0,0,1-5.779,2.817c-3.351,0-7.543-1.465-11.6-2.881l-.011,0c-4.166-1.457-8.474-2.964-12.054-2.964a7.623,7.623,0,0,0-6.183,2.527c-1.474,1.724-2.376,4.42-2.682,8.013A9.829,9.829,0,0,0,57.621,219a17.2,17.2,0,0,0,5.963,3.973A37.392,37.392,0,0,0,71.14,225.2a67.538,67.538,0,0,0,12.352,1.136,51.426,51.426,0,0,0,7.3-.459,32.858,32.858,0,0,0,9.049-2.849,37,37,0,0,0,8.29-5.411c5.359-4.666,8.407-10.241,8.584-15.7a19.114,19.114,0,0,0-2.2-9.94,20.359,20.359,0,0,0-6.119-6.71c-5.022-3.642-11.4-5.689-16.53-7.334-1.9-.61-3.872-1.242-5.458-1.892-2.074-.85-3.042-1.551-3.239-2.345-.562-2.267-.392-3.936.521-5.1a6.3,6.3,0,0,1,3.953-1.99,27.469,27.469,0,0,1,4.932-.363c1.654,0,3.435.078,5.159.154l.085,0c1.742.077,3.543.156,5.231.156a22.251,22.251,0,0,0,6.9-.834,5.376,5.376,0,0,0,3.834-3.8,7.929,7.929,0,0,0-1.206-7.171c-1.571-2.029-4.353-3.588-8.267-4.634a62.22,62.22,0,0,0-15.565-1.611m0-.678c12.826,0,21.025,2.189,24.368,6.508a8.573,8.573,0,0,1,1.326,7.755c-1.171,4.528-6.415,5.139-11.391,5.139-1.715,0-3.538-.081-5.3-.158-1.731-.076-3.521-.155-5.174-.155-3.126,0-6.9.238-8.351,2.093-.776.992-.906,2.471-.4,4.522.3,1.205,4.521,2.56,8.247,3.755,10.294,3.3,25.851,8.294,25.321,24.652-.395,12.2-14.282,22.761-26.5,24.606a52.1,52.1,0,0,1-7.4.466h0c-4.558,0-19.93-.545-26.369-7.554a10.482,10.482,0,0,1-2.812-8.285c.639-7.509,3.759-11.16,9.54-11.16,3.692,0,8.057,1.525,12.278,3,4.005,1.4,8.147,2.847,11.385,2.847h0a5.664,5.664,0,0,0,5.21-2.511c1.817-2.772,2.338-5.114,1.594-7.16-1.814-4.983-10.952-7.735-18.3-9.947-4.827-1.454-8.995-2.709-10.813-4.456-5.305-5.1-5.673-14.908-3.294-21.961,2.175-6.449,6.379-10.49,11.534-11.086A138.974,138.974,0,0,1,88.744,147.831Z" transform="translate(788.884 1187.162)" fill="#231f20"/>
    <path id="Tracé_136" data-name="Tracé 136" d="M413.127,62.667a1.888,1.888,0,0,1-.832-1.584,1.711,1.711,0,0,1,.779-1.446,19.241,19.241,0,0,0,8.556-15.159,15.763,15.763,0,0,0-6.838-13.38c-5.329-3.888-10.773-7.425-18.723-7.983-.5-.035-1.017-.053-1.549-.053-9.611,0-22.943,5.491-26.7,13.371-1.364,2.857-2.1,7.36,2.131,12.594a7.426,7.426,0,0,0,6.046,2.84c3.932,0,8.893-2.409,14.747-7.16,2.143-1.74,4.142-2.622,5.939-2.622a5.075,5.075,0,0,1,4.273,2.428,8.613,8.613,0,0,1,.84,7.63c-.869,2.13-3.509,2.656-6.567,3.266-5.016,1-11.259,2.242-10.7,11.864.3,5.141,6.075,6.357,11.171,7.43,3.276.689,6.663,1.4,7.364,2.963.327.73.09,1.807-.706,3.2-2.159,3.785-4.187,4.223-5.525,4.223-2.848,0-6.149-2.327-9.644-4.79-4.023-2.836-8.183-5.768-12.523-5.768a9.439,9.439,0,0,0-5.9,2.122c-7.087,5.527-7.208,10.663-6.061,14,2.8,8.148,16.443,14.291,31.732,14.291h0a52.292,52.292,0,0,0,19.415-3.626c11.2-4.523,14.12-10.856,14.6-15.37C429.267,78.288,423.68,69.8,413.127,62.667Z" transform="translate(546.832 1309.23)" fill="#ef9f5e"/>
    <path id="Tracé_136_-_Contour" data-name="Tracé 136 - Contour" d="M394.521,23.74a33.025,33.025,0,0,0-7.54.962,40.621,40.621,0,0,0-7.717,2.7c-5.314,2.5-9.162,5.813-10.836,9.32a9.774,9.774,0,0,0-.969,5.059,12.55,12.55,0,0,0,3.016,6.818,6.776,6.776,0,0,0,5.519,2.588c3.772,0,8.59-2.358,14.32-7.009,2.267-1.84,4.409-2.773,6.367-2.773a5.726,5.726,0,0,1,4.836,2.728,9.329,9.329,0,0,1,.905,8.264,4.783,4.783,0,0,1-2.832,2.574,23.636,23.636,0,0,1-4.23,1.1c-5.006,1-10.68,2.126-10.151,11.16.12,2.062,1.207,3.548,3.419,4.676a30.182,30.182,0,0,0,7.215,2.13c3.6.757,7,1.473,7.843,3.349.427.952.186,2.2-.736,3.816-2.333,4.092-4.607,4.565-6.114,4.565-3.061,0-6.444-2.384-10.027-4.908l-.008-.006c-3.936-2.775-8.006-5.644-12.133-5.644a8.775,8.775,0,0,0-5.482,1.979c-3.077,2.4-5.059,4.921-5.89,7.5a8.9,8.9,0,0,0,.054,5.748c1.293,3.762,5.136,7.244,10.82,9.8a50.479,50.479,0,0,0,20.275,4.03,51.61,51.61,0,0,0,19.161-3.576c10.887-4.4,13.719-10.482,14.177-14.813.783-7.405-4.7-15.661-15.035-22.651a2.565,2.565,0,0,1-1.131-2.151,2.378,2.378,0,0,1,1.087-2.008,18.545,18.545,0,0,0,8.249-14.609,15.1,15.1,0,0,0-6.56-12.815c-5.246-3.828-10.6-7.309-18.371-7.854-.478-.034-.983-.051-1.5-.051m0-.678c.531,0,1.052.018,1.549.053,7.95.558,13.394,4.095,18.723,7.983a15.763,15.763,0,0,1,6.838,13.38,19.241,19.241,0,0,1-8.556,15.159,1.711,1.711,0,0,0-.779,1.446,1.888,1.888,0,0,0,.832,1.584c10.552,7.135,16.139,15.621,15.33,23.284-.478,4.515-3.4,10.847-14.6,15.37a52.292,52.292,0,0,1-19.415,3.626h0c-15.289,0-28.93-6.143-31.732-14.291-1.148-3.335-1.026-8.471,6.061-14a9.439,9.439,0,0,1,5.9-2.122c4.341,0,8.5,2.932,12.523,5.768,3.5,2.463,6.8,4.79,9.644,4.79,1.338,0,3.366-.438,5.525-4.223.8-1.4,1.033-2.473.706-3.2-.7-1.56-4.088-2.274-7.364-2.963-5.1-1.073-10.871-2.29-11.171-7.43-.564-9.623,5.679-10.866,10.7-11.864,3.058-.609,5.7-1.136,6.567-3.266a8.613,8.613,0,0,0-.84-7.63,5.075,5.075,0,0,0-4.273-2.428c-1.8,0-3.8.882-5.939,2.622-5.854,4.751-10.816,7.16-14.747,7.16a7.426,7.426,0,0,1-6.046-2.84c-4.233-5.234-3.495-9.738-2.131-12.594C371.578,28.553,384.91,23.062,394.521,23.062Z" transform="translate(546.832 1309.23)" fill="#231f20"/>
  </g>
</svg>
