<svg xmlns="http://www.w3.org/2000/svg" xmlns:xlink="http://www.w3.org/1999/xlink" width="178.58" height="249.45" viewBox="0 0 178.58 249.45">
  <defs>
    <clipPath id="clip-path">
      <rect id="Rectangle_1" data-name="Rectangle 1" width="178.58" height="249.45" fill="none"/>
    </clipPath>
  </defs>
  <g id="fr58" transform="translate(-817 -2602)">
    <g id="Groupe_1" data-name="Groupe 1" transform="translate(817 2602)" clip-path="url(#clip-path)">
      <path id="Tracé_1" data-name="Tracé 1" d="M8.5,0H170.08a8.5,8.5,0,0,1,8.5,8.5V240.95a8.5,8.5,0,0,1-8.5,8.5H8.5a8.5,8.5,0,0,1-8.5-8.5V8.5A8.5,8.5,0,0,1,8.5,0" fill="#fff"/>
      <path id="Tracé_2" data-name="Tracé 2" d="M171.5,58.26V10.09a3.013,3.013,0,0,0-3.01-3.01H10.09a3,3,0,0,0-3,3.01V239.35a3,3,0,0,0,3,3.01h158.4a3.013,3.013,0,0,0,3.01-3.01V91.4m0-.01V58.29M29.01,44.95a.076.076,0,0,1,.02-.04.142.142,0,0,0-.02.06" fill="#fceef4"/>
    </g>
    <path id="Tracé_31" data-name="Tracé 31" d="M92.072,177.291c-3.726-1.195-7.948-2.55-8.247-3.755-.509-2.051-.379-3.53.4-4.522,1.451-1.855,5.225-2.093,8.351-2.093,1.653,0,3.443.079,5.174.155,1.763.077,3.585.158,5.3.158,4.975,0,10.22-.611,11.391-5.139a8.573,8.573,0,0,0-1.327-7.755c-3.344-4.319-11.543-6.508-24.368-6.508a138.974,138.974,0,0,0-15.294.914c-5.155.6-9.359,4.637-11.534,11.086-2.379,7.053-2.011,16.862,3.294,21.961,1.818,1.747,5.986,3,10.813,4.456,7.343,2.211,16.482,4.963,18.3,9.947.744,2.045.223,4.388-1.594,7.16a5.664,5.664,0,0,1-5.21,2.511h0c-3.238,0-7.38-1.448-11.385-2.847-4.222-1.477-8.586-3-12.278-3-5.781,0-8.9,3.651-9.54,11.16a10.482,10.482,0,0,0,2.812,8.285c6.438,7.01,21.811,7.554,26.369,7.554h0a52.1,52.1,0,0,0,7.4-.466c12.217-1.845,26.1-12.4,26.5-24.606C117.923,185.584,102.366,180.594,92.072,177.291Z" transform="translate(785.884 2537.162)" fill="#ef9f5e"/>
    <path id="Tracé_31_-_Contour" data-name="Tracé 31 - Contour" d="M88.744,148.509a138.3,138.3,0,0,0-15.216.909c-4.884.564-8.882,4.438-10.969,10.629a27.233,27.233,0,0,0-1.2,11.419c.336,2.914,1.359,6.986,4.325,9.837,1.7,1.634,5.8,2.867,10.538,4.3,7.488,2.255,16.807,5.061,18.737,10.364.823,2.26.278,4.8-1.664,7.763a6.365,6.365,0,0,1-5.779,2.817c-3.351,0-7.543-1.465-11.6-2.881l-.011,0c-4.166-1.457-8.474-2.964-12.054-2.964a7.623,7.623,0,0,0-6.183,2.527c-1.474,1.724-2.376,4.42-2.682,8.013A9.829,9.829,0,0,0,57.621,219a17.2,17.2,0,0,0,5.963,3.973A37.392,37.392,0,0,0,71.14,225.2a67.538,67.538,0,0,0,12.352,1.136,51.426,51.426,0,0,0,7.3-.459,32.858,32.858,0,0,0,9.049-2.849,37,37,0,0,0,8.29-5.411c5.359-4.666,8.407-10.241,8.584-15.7a19.114,19.114,0,0,0-2.2-9.94,20.359,20.359,0,0,0-6.119-6.71c-5.022-3.642-11.4-5.689-16.53-7.334-1.9-.61-3.872-1.242-5.458-1.892-2.074-.85-3.042-1.551-3.239-2.345-.562-2.267-.392-3.936.521-5.1a6.3,6.3,0,0,1,3.953-1.99,27.469,27.469,0,0,1,4.932-.363c1.654,0,3.435.078,5.159.154l.085,0c1.742.077,3.543.156,5.231.156a22.251,22.251,0,0,0,6.9-.834,5.376,5.376,0,0,0,3.834-3.8,7.929,7.929,0,0,0-1.206-7.171c-1.571-2.029-4.353-3.588-8.267-4.634a62.22,62.22,0,0,0-15.565-1.611m0-.678c12.826,0,21.025,2.189,24.368,6.508a8.573,8.573,0,0,1,1.326,7.755c-1.171,4.528-6.415,5.139-11.391,5.139-1.715,0-3.538-.081-5.3-.158-1.731-.076-3.521-.155-5.174-.155-3.126,0-6.9.238-8.351,2.093-.776.992-.906,2.471-.4,4.522.3,1.205,4.521,2.56,8.247,3.755,10.294,3.3,25.851,8.294,25.321,24.652-.395,12.2-14.282,22.761-26.5,24.606a52.1,52.1,0,0,1-7.4.466h0c-4.558,0-19.93-.545-26.369-7.554a10.482,10.482,0,0,1-2.812-8.285c.639-7.509,3.759-11.16,9.54-11.16,3.692,0,8.057,1.525,12.278,3,4.005,1.4,8.147,2.847,11.385,2.847h0a5.664,5.664,0,0,0,5.21-2.511c1.817-2.772,2.338-5.114,1.594-7.16-1.814-4.983-10.952-7.735-18.3-9.947-4.827-1.454-8.995-2.709-10.813-4.456-5.305-5.1-5.673-14.908-3.294-21.961,2.175-6.449,6.379-10.49,11.534-11.086A138.974,138.974,0,0,1,88.744,147.831Z" transform="translate(785.884 2537.162)" fill="#231f20"/>
    <path id="Tracé_141" data-name="Tracé 141" d="M417.071,187.848a1.206,1.206,0,0,1-.053-2.049c6.607-4.341,9.734-9.663,9.841-16.749.069-4.58-2.251-9.5-6.532-13.842-5.891-5.98-14.49-9.845-21.906-9.845l-.284,0c-11.821.153-19.745,3.351-23.55,9.507-5.546,8.97-.806,21.824,2.513,28.687a3.717,3.717,0,0,1-1.634,4.924c-5.217,2.745-16.562,10.811-9.234,26.393,4.964,10.557,16.476,17.114,30.041,17.114a42.3,42.3,0,0,0,9.5-1.1c11.011-2.547,20.875-12.557,22.458-22.79C429.479,200.035,425.515,192.841,417.071,187.848ZM384.929,209.02c.181-3.783,3.129-8.809,9.179-10.9a11.286,11.286,0,0,1,3.642-.566c5.125,0,10.63,2.819,10.741,8.045a10.82,10.82,0,0,1-2.984,8.01c-2.259,2.306-5.572,3.525-9.584,3.525l-.219,0a12.472,12.472,0,0,1-8.839-3.6A6.293,6.293,0,0,1,384.929,209.02Zm21.588-34.732a7.846,7.846,0,0,1-5.709,3.063c-.478.046-.966.069-1.453.069-4.369,0-8.385-1.878-9.14-4.277-.909-2.885.434-6.591,4.761-8.089a11.2,11.2,0,0,1,3.626-.582c1.711,0,7.4.448,8.79,6.215A4.509,4.509,0,0,1,406.518,174.288Z" transform="translate(546.077 2533.622)" fill="#ef9f5e"/>
    <path id="Tracé_141_-_Contour" data-name="Tracé 141 - Contour" d="M398.422,146.042l-.277,0c-11.575.149-19.307,3.24-22.982,9.186-5.376,8.694-.712,21.3,2.547,28.036a4.391,4.391,0,0,1-1.928,5.819,26.828,26.828,0,0,0-4.559,3.014,19.928,19.928,0,0,0-4.5,5.116c-2.989,5.005-2.949,10.851.118,17.374,4.851,10.316,16.127,16.725,29.428,16.725a41.616,41.616,0,0,0,9.349-1.078,30.287,30.287,0,0,0,14.435-8.328A26.085,26.085,0,0,0,427.562,208a16.7,16.7,0,0,0-1.87-10.851,23.636,23.636,0,0,0-8.966-8.718,1.879,1.879,0,0,1-.929-1.58,1.847,1.847,0,0,1,.849-1.619,21.943,21.943,0,0,0,7.146-7.122,17.964,17.964,0,0,0,2.39-9.07c.066-4.4-2.185-9.141-6.337-13.356-5.77-5.857-14.179-9.642-21.422-9.643m.934,32.056a14.961,14.961,0,0,1-6.213-1.3,6.293,6.293,0,0,1-3.574-3.448c-1.007-3.2.45-7.294,5.185-8.933a11.888,11.888,0,0,1,3.848-.62c1.836,0,7.944.486,9.449,6.734a5.18,5.18,0,0,1-.98,4.153,8.52,8.52,0,0,1-6.2,3.344c-.5.048-1.008.073-1.519.073m-3.433,39.709-.226,0a13.16,13.16,0,0,1-9.325-3.81,6.956,6.956,0,0,1-2.119-5.007c.191-4,3.287-9.314,9.634-11.513a11.969,11.969,0,0,1,3.863-.6c5.446,0,11.3,3.052,11.418,8.708a11.483,11.483,0,0,1-3.177,8.5c-2.389,2.439-5.871,3.729-10.068,3.729m2.5-72.443c7.416,0,16.015,3.865,21.906,9.845,4.281,4.346,6.6,9.262,6.532,13.842-.107,7.085-3.234,12.407-9.841,16.749a1.206,1.206,0,0,0,.053,2.049c8.445,4.993,12.408,12.186,11.162,20.256-1.583,10.234-11.447,20.243-22.458,22.79a42.3,42.3,0,0,1-9.5,1.1c-13.565,0-25.077-6.557-30.041-17.114-7.327-15.582,4.017-23.648,9.234-26.393a3.717,3.717,0,0,0,1.634-4.924c-3.319-6.863-8.06-19.717-2.513-28.687,3.8-6.156,11.729-9.354,23.55-9.507Zm.935,32.056c.487,0,.976-.023,1.453-.069a7.846,7.846,0,0,0,5.709-3.063,4.509,4.509,0,0,0,.874-3.6c-1.389-5.767-7.079-6.215-8.79-6.215a11.2,11.2,0,0,0-3.626.582c-4.326,1.5-5.669,5.2-4.761,8.089C390.971,175.542,394.986,177.42,399.356,177.42Zm-3.433,39.709c4.012,0,7.326-1.219,9.584-3.525a10.82,10.82,0,0,0,2.984-8.01c-.11-5.225-5.616-8.045-10.741-8.045a11.286,11.286,0,0,0-3.642.566c-6.05,2.1-9,7.121-9.179,10.9a6.293,6.293,0,0,0,1.935,4.51,12.472,12.472,0,0,0,8.839,3.6Z" transform="translate(546.077 2533.622)" fill="#231f20"/>
  </g>
</svg>
