<svg xmlns="http://www.w3.org/2000/svg" xmlns:xlink="http://www.w3.org/1999/xlink" width="178.58" height="249.45" viewBox="0 0 178.58 249.45">
  <defs>
    <clipPath id="clip-path">
      <rect id="Rectangle_1" data-name="Rectangle 1" width="178.58" height="249.45" fill="none"/>
    </clipPath>
  </defs>
  <g id="fr59" transform="translate(-817 -2872)">
    <g id="Groupe_1" data-name="Groupe 1" transform="translate(817 2872)" clip-path="url(#clip-path)">
      <path id="Tracé_1" data-name="Tracé 1" d="M8.5,0H170.08a8.5,8.5,0,0,1,8.5,8.5V240.95a8.5,8.5,0,0,1-8.5,8.5H8.5a8.5,8.5,0,0,1-8.5-8.5V8.5A8.5,8.5,0,0,1,8.5,0" fill="#fff"/>
      <path id="Tracé_2" data-name="Tracé 2" d="M171.5,58.26V10.09a3.013,3.013,0,0,0-3.01-3.01H10.09a3,3,0,0,0-3,3.01V239.35a3,3,0,0,0,3,3.01h158.4a3.013,3.013,0,0,0,3.01-3.01V91.4m0-.01V58.29M29.01,44.95a.076.076,0,0,1,.02-.04.142.142,0,0,0-.02.06" fill="#fceef4"/>
    </g>
    <path id="Tracé_31" data-name="Tracé 31" d="M92.072,177.291c-3.726-1.195-7.948-2.55-8.247-3.755-.509-2.051-.379-3.53.4-4.522,1.451-1.855,5.225-2.093,8.351-2.093,1.653,0,3.443.079,5.174.155,1.763.077,3.585.158,5.3.158,4.975,0,10.22-.611,11.391-5.139a8.573,8.573,0,0,0-1.327-7.755c-3.344-4.319-11.543-6.508-24.368-6.508a138.974,138.974,0,0,0-15.294.914c-5.155.6-9.359,4.637-11.534,11.086-2.379,7.053-2.011,16.862,3.294,21.961,1.818,1.747,5.986,3,10.813,4.456,7.343,2.211,16.482,4.963,18.3,9.947.744,2.045.223,4.388-1.594,7.16a5.664,5.664,0,0,1-5.21,2.511h0c-3.238,0-7.38-1.448-11.385-2.847-4.222-1.477-8.586-3-12.278-3-5.781,0-8.9,3.651-9.54,11.16a10.482,10.482,0,0,0,2.812,8.285c6.438,7.01,21.811,7.554,26.369,7.554h0a52.1,52.1,0,0,0,7.4-.466c12.217-1.845,26.1-12.4,26.5-24.606C117.923,185.584,102.366,180.594,92.072,177.291Z" transform="translate(788.884 2807.162)" fill="#ef9f5e"/>
    <path id="Tracé_31_-_Contour" data-name="Tracé 31 - Contour" d="M88.744,148.509a138.3,138.3,0,0,0-15.216.909c-4.884.564-8.882,4.438-10.969,10.629a27.233,27.233,0,0,0-1.2,11.419c.336,2.914,1.359,6.986,4.325,9.837,1.7,1.634,5.8,2.867,10.538,4.3,7.488,2.255,16.807,5.061,18.737,10.364.823,2.26.278,4.8-1.664,7.763a6.365,6.365,0,0,1-5.779,2.817c-3.351,0-7.543-1.465-11.6-2.881l-.011,0c-4.166-1.457-8.474-2.964-12.054-2.964a7.623,7.623,0,0,0-6.183,2.527c-1.474,1.724-2.376,4.42-2.682,8.013A9.829,9.829,0,0,0,57.621,219a17.2,17.2,0,0,0,5.963,3.973A37.392,37.392,0,0,0,71.14,225.2a67.538,67.538,0,0,0,12.352,1.136,51.426,51.426,0,0,0,7.3-.459,32.858,32.858,0,0,0,9.049-2.849,37,37,0,0,0,8.29-5.411c5.359-4.666,8.407-10.241,8.584-15.7a19.114,19.114,0,0,0-2.2-9.94,20.359,20.359,0,0,0-6.119-6.71c-5.022-3.642-11.4-5.689-16.53-7.334-1.9-.61-3.872-1.242-5.458-1.892-2.074-.85-3.042-1.551-3.239-2.345-.562-2.267-.392-3.936.521-5.1a6.3,6.3,0,0,1,3.953-1.99,27.469,27.469,0,0,1,4.932-.363c1.654,0,3.435.078,5.159.154l.085,0c1.742.077,3.543.156,5.231.156a22.251,22.251,0,0,0,6.9-.834,5.376,5.376,0,0,0,3.834-3.8,7.929,7.929,0,0,0-1.206-7.171c-1.571-2.029-4.353-3.588-8.267-4.634a62.22,62.22,0,0,0-15.565-1.611m0-.678c12.826,0,21.025,2.189,24.368,6.508a8.573,8.573,0,0,1,1.326,7.755c-1.171,4.528-6.415,5.139-11.391,5.139-1.715,0-3.538-.081-5.3-.158-1.731-.076-3.521-.155-5.174-.155-3.126,0-6.9.238-8.351,2.093-.776.992-.906,2.471-.4,4.522.3,1.205,4.521,2.56,8.247,3.755,10.294,3.3,25.851,8.294,25.321,24.652-.395,12.2-14.282,22.761-26.5,24.606a52.1,52.1,0,0,1-7.4.466h0c-4.558,0-19.93-.545-26.369-7.554a10.482,10.482,0,0,1-2.812-8.285c.639-7.509,3.759-11.16,9.54-11.16,3.692,0,8.057,1.525,12.278,3,4.005,1.4,8.147,2.847,11.385,2.847h0a5.664,5.664,0,0,0,5.21-2.511c1.817-2.772,2.338-5.114,1.594-7.16-1.814-4.983-10.952-7.735-18.3-9.947-4.827-1.454-8.995-2.709-10.813-4.456-5.305-5.1-5.673-14.908-3.294-21.961,2.175-6.449,6.379-10.49,11.534-11.086A138.974,138.974,0,0,1,88.744,147.831Z" transform="translate(788.884 2807.162)" fill="#231f20"/>
    <path id="Tracé_142" data-name="Tracé 142" d="M535.673,157.659c-4.149-5.254-11.383-8.148-20.368-8.148-7.148,0-14.426,1.893-19.468,5.064-9.992,6.284-17.789,27.141-11.547,37.547,4.27,7.118,13.006,8.031,20.14,8.031q.906,0,1.78-.018l.28,0c3.67,0,6.6,1.212,6.783,2.028.065.287-.465,1.363-3.65,2.881a50.338,50.338,0,0,1-6.051,1.814c-9.152,2.433-21.687,5.765-20.608,11.919,1.014,5.786,10.322,7,17.953,7,1.852,0,3.392-.073,4.356-.135,14.762-.941,25.84-7.62,29.636-17.866C543.338,185.027,543.6,167.7,535.673,157.659Zm-20.718,15.986c-1.4,4.167-4.862,7.077-8.409,7.077a6.153,6.153,0,0,1-1.969-.321c-4.206-1.417-7.711-5.044-6.057-9.952,1.5-4.467,6.752-8.689,10.8-8.689a4.6,4.6,0,0,1,1.465.224C514.795,163.337,516.667,168.568,514.955,173.645Z" transform="translate(430.857 2809.082)" fill="#ef9f5e"/>
    <path id="Tracé_142_-_Contour" data-name="Tracé 142 - Contour" d="M515.305,150.189c-7.027,0-14.17,1.854-19.107,4.96-4.668,2.936-9.105,9.4-11.579,16.867a35.1,35.1,0,0,0-1.886,10.735,17.279,17.279,0,0,0,2.138,9.023c4.1,6.826,12.6,7.7,19.558,7.7.569,0,1.163-.006,1.767-.017h.005l.288,0a15.976,15.976,0,0,1,4.913.743c1.047.349,2.336.947,2.531,1.814.224.991-1.242,2.318-4.02,3.643a49.99,49.99,0,0,1-6.169,1.857,92.106,92.106,0,0,0-14.031,4.525,15.911,15.911,0,0,0-4.784,3.092,3.957,3.957,0,0,0-1.3,3.53c.408,2.328,2.435,4.057,6.023,5.138a40.231,40.231,0,0,0,11.262,1.3c1.833,0,3.357-.073,4.313-.134,14.486-.923,25.344-7.437,29.044-17.425,4.167-11.248,6.345-21.207,6.473-29.6.127-8.309-1.76-14.991-5.606-19.862-4.017-5.088-11.062-7.89-19.836-7.89M506.547,181.4a6.828,6.828,0,0,1-2.186-.356,11.082,11.082,0,0,1-5.564-3.919,7.422,7.422,0,0,1-.919-6.891,14.486,14.486,0,0,1,4.663-6.331,11.461,11.461,0,0,1,6.776-2.819,5.274,5.274,0,0,1,1.681.26,7.588,7.588,0,0,1,4.654,4.847,11.757,11.757,0,0,1-.056,7.672c-1.5,4.439-5.217,7.539-9.051,7.539m8.758-31.889c8.985,0,16.219,2.893,20.368,8.148,7.928,10.039,7.664,27.368-.763,50.116-3.8,10.246-14.874,16.925-29.636,17.866-.965.061-2.5.135-4.356.135-7.631,0-16.939-1.215-17.953-7-1.078-6.154,11.456-9.487,20.609-11.919a50.338,50.338,0,0,0,6.051-1.814c3.186-1.518,3.715-2.595,3.65-2.881-.184-.816-3.114-2.028-6.783-2.028l-.28,0q-.874.017-1.78.018c-7.133,0-15.869-.913-20.14-8.031-6.243-10.406,1.555-31.263,11.547-37.547C500.879,151.4,508.157,149.511,515.305,149.511Zm-8.758,31.211c3.547,0,7-2.91,8.409-7.077,1.711-5.077-.161-10.308-4.173-11.66a4.6,4.6,0,0,0-1.465-.224c-4.045,0-9.293,4.222-10.8,8.689-1.654,4.908,1.85,8.535,6.057,9.952A6.153,6.153,0,0,0,506.547,180.722Z" transform="translate(430.857 2809.082)" fill="#231f20"/>
  </g>
</svg>
