<svg xmlns="http://www.w3.org/2000/svg" xmlns:xlink="http://www.w3.org/1999/xlink" width="178.58" height="249.45" viewBox="0 0 178.58 249.45">
  <defs>
    <clipPath id="clip-path">
      <rect id="Rectangle_1" data-name="Rectangle 1" width="178.58" height="249.45" fill="none"/>
    </clipPath>
  </defs>
  <g id="fr63" transform="translate(-1016 -1252)">
    <g id="Groupe_1" data-name="Groupe 1" transform="translate(1016 1252)" clip-path="url(#clip-path)">
      <path id="Tracé_1" data-name="Tracé 1" d="M8.5,0H170.08a8.5,8.5,0,0,1,8.5,8.5V240.95a8.5,8.5,0,0,1-8.5,8.5H8.5a8.5,8.5,0,0,1-8.5-8.5V8.5A8.5,8.5,0,0,1,8.5,0" fill="#fff"/>
      <path id="Tracé_2" data-name="Tracé 2" d="M171.5,58.26V10.09a3.013,3.013,0,0,0-3.01-3.01H10.09a3,3,0,0,0-3,3.01V239.35a3,3,0,0,0,3,3.01h158.4a3.013,3.013,0,0,0,3.01-3.01V91.4m0-.01V58.29M29.01,44.95a.076.076,0,0,1,.02-.04.142.142,0,0,0-.02.06" fill="#fceef4"/>
    </g>
    <path id="Tracé_33" data-name="Tracé 33" d="M218.1,183.64c-4.269-7.118-13.007-8.031-20.142-8.031-.6,0-1.195.007-1.778.018l-.28,0c-3.67,0-6.6-1.211-6.785-2.028-.065-.286.465-1.362,3.651-2.881a50.371,50.371,0,0,1,6.052-1.814c9.152-2.433,21.687-5.766,20.608-11.921-1.014-5.784-10.321-7-17.951-7-1.853,0-3.393.073-4.358.135-14.762.941-25.841,7.62-29.638,17.867-8.426,22.747-8.69,40.076-.763,50.114,4.149,5.254,11.383,8.148,20.368,8.148h0c7.148,0,14.426-1.893,19.466-5.062C216.545,214.9,224.342,194.046,218.1,183.64ZM202.07,206.828a13.789,13.789,0,0,1-10.929,6.89c-.351.024-.706.038-1.061.038-1.647,0-4.618-.3-6.027-2.331-1.207-1.737-1.132-4.462.224-8.1,1.694-4.547,7.878-8.209,11.87-8.209a5.234,5.234,0,0,1,1.666.248,7.872,7.872,0,0,1,4.571,4.7A8,8,0,0,1,202.07,206.828Z" transform="translate(878.426 1188.14)" fill="#ef9f5e"/>
    <path id="Tracé_33_-_Contour" data-name="Tracé 33 - Contour" d="M201.475,150.666c-1.833,0-3.358.073-4.315.134-14.486.923-25.344,7.438-29.045,17.426-4.167,11.248-6.344,21.206-6.472,29.6-.126,8.309,1.76,14.991,5.605,19.861,4.018,5.088,11.062,7.89,19.838,7.89,7.026,0,14.168-1.854,19.106-4.958,4.669-2.937,9.106-9.4,11.579-16.869a35.1,35.1,0,0,0,1.885-10.735,17.28,17.28,0,0,0-2.138-9.023c-4.094-6.826-12.6-7.7-19.561-7.7-.548,0-1.125.006-1.765.018h-.007l-.285,0a15.983,15.983,0,0,1-4.914-.742c-1.047-.349-2.336-.947-2.533-1.814-.224-.99,1.242-2.317,4.021-3.642a50.026,50.026,0,0,1,6.17-1.857,92.148,92.148,0,0,0,14.031-4.526,15.908,15.908,0,0,0,4.784-3.092,3.957,3.957,0,0,0,1.3-3.531c-.408-2.327-2.434-4.056-6.023-5.137a40.225,40.225,0,0,0-11.26-1.3m-11.4,63.768c-1.779,0-5-.341-6.584-2.622-1.341-1.93-1.292-4.866.146-8.724a13.348,13.348,0,0,1,5.336-6.14,14.045,14.045,0,0,1,7.169-2.511,5.9,5.9,0,0,1,1.882.283,8.553,8.553,0,0,1,4.986,5.092,8.676,8.676,0,0,1-.351,7.342,14.484,14.484,0,0,1-11.477,7.24c-.38.026-.752.039-1.108.039m11.4-64.445c7.629,0,16.936,1.215,17.951,7,1.079,6.155-11.455,9.488-20.608,11.921a50.371,50.371,0,0,0-6.052,1.814c-3.187,1.519-3.716,2.595-3.651,2.881.185.817,3.115,2.028,6.785,2.028l.28,0c.583-.011,1.176-.018,1.778-.018,7.135,0,15.873.913,20.142,8.031,6.243,10.406-1.554,31.263-11.546,37.549-5.041,3.17-12.319,5.062-19.466,5.062h0c-8.985,0-16.219-2.893-20.368-8.148-7.927-10.038-7.664-27.367.763-50.114,3.8-10.247,14.876-16.926,29.638-17.867C198.082,150.061,199.622,149.988,201.475,149.988Zm-11.4,63.768c.355,0,.711-.014,1.061-.038a13.789,13.789,0,0,0,10.929-6.89,8,8,0,0,0,.314-6.77,7.872,7.872,0,0,0-4.571-4.7,5.234,5.234,0,0,0-1.666-.248c-3.992,0-10.176,3.662-11.87,8.209-1.356,3.639-1.431,6.363-.224,8.1C185.461,213.453,188.432,213.756,190.079,213.756Z" transform="translate(878.426 1188.14)" fill="#231f20"/>
    <path id="Tracé_136" data-name="Tracé 136" d="M413.127,62.667a1.888,1.888,0,0,1-.832-1.584,1.711,1.711,0,0,1,.779-1.446,19.241,19.241,0,0,0,8.556-15.159,15.763,15.763,0,0,0-6.838-13.38c-5.329-3.888-10.773-7.425-18.723-7.983-.5-.035-1.017-.053-1.549-.053-9.611,0-22.943,5.491-26.7,13.371-1.364,2.857-2.1,7.36,2.131,12.594a7.426,7.426,0,0,0,6.046,2.84c3.932,0,8.893-2.409,14.747-7.16,2.143-1.74,4.142-2.622,5.939-2.622a5.075,5.075,0,0,1,4.273,2.428,8.613,8.613,0,0,1,.84,7.63c-.869,2.13-3.509,2.656-6.567,3.266-5.016,1-11.259,2.242-10.7,11.864.3,5.141,6.075,6.357,11.171,7.43,3.276.689,6.663,1.4,7.364,2.963.327.73.09,1.807-.706,3.2-2.159,3.785-4.187,4.223-5.525,4.223-2.848,0-6.149-2.327-9.644-4.79-4.023-2.836-8.183-5.768-12.523-5.768a9.439,9.439,0,0,0-5.9,2.122c-7.087,5.527-7.208,10.663-6.061,14,2.8,8.148,16.443,14.291,31.732,14.291h0a52.292,52.292,0,0,0,19.415-3.626c11.2-4.523,14.12-10.856,14.6-15.37C429.267,78.288,423.68,69.8,413.127,62.667Z" transform="translate(745.832 1309.23)" fill="#ef9f5e"/>
    <path id="Tracé_136_-_Contour" data-name="Tracé 136 - Contour" d="M394.521,23.74a33.025,33.025,0,0,0-7.54.962,40.621,40.621,0,0,0-7.717,2.7c-5.314,2.5-9.162,5.813-10.836,9.32a9.774,9.774,0,0,0-.969,5.059,12.55,12.55,0,0,0,3.016,6.818,6.776,6.776,0,0,0,5.519,2.588c3.772,0,8.59-2.358,14.32-7.009,2.267-1.84,4.409-2.773,6.367-2.773a5.726,5.726,0,0,1,4.836,2.728,9.329,9.329,0,0,1,.905,8.264,4.783,4.783,0,0,1-2.832,2.574,23.636,23.636,0,0,1-4.23,1.1c-5.006,1-10.68,2.126-10.151,11.16.12,2.062,1.207,3.548,3.419,4.676a30.182,30.182,0,0,0,7.215,2.13c3.6.757,7,1.473,7.843,3.349.427.952.186,2.2-.736,3.816-2.333,4.092-4.607,4.565-6.114,4.565-3.061,0-6.444-2.384-10.027-4.908l-.008-.006c-3.936-2.775-8.006-5.644-12.133-5.644a8.775,8.775,0,0,0-5.482,1.979c-3.077,2.4-5.059,4.921-5.89,7.5a8.9,8.9,0,0,0,.054,5.748c1.293,3.762,5.136,7.244,10.82,9.8a50.479,50.479,0,0,0,20.275,4.03,51.61,51.61,0,0,0,19.161-3.576c10.887-4.4,13.719-10.482,14.177-14.813.783-7.405-4.7-15.661-15.035-22.651a2.565,2.565,0,0,1-1.131-2.151,2.378,2.378,0,0,1,1.087-2.008,18.545,18.545,0,0,0,8.249-14.609,15.1,15.1,0,0,0-6.56-12.815c-5.246-3.828-10.6-7.309-18.371-7.854-.478-.034-.983-.051-1.5-.051m0-.678c.531,0,1.052.018,1.549.053,7.95.558,13.394,4.095,18.723,7.983a15.763,15.763,0,0,1,6.838,13.38,19.241,19.241,0,0,1-8.556,15.159,1.711,1.711,0,0,0-.779,1.446,1.888,1.888,0,0,0,.832,1.584c10.552,7.135,16.139,15.621,15.33,23.284-.478,4.515-3.4,10.847-14.6,15.37a52.292,52.292,0,0,1-19.415,3.626h0c-15.289,0-28.93-6.143-31.732-14.291-1.148-3.335-1.026-8.471,6.061-14a9.439,9.439,0,0,1,5.9-2.122c4.341,0,8.5,2.932,12.523,5.768,3.5,2.463,6.8,4.79,9.644,4.79,1.338,0,3.366-.438,5.525-4.223.8-1.4,1.033-2.473.706-3.2-.7-1.56-4.088-2.274-7.364-2.963-5.1-1.073-10.871-2.29-11.171-7.43-.564-9.623,5.679-10.866,10.7-11.864,3.058-.609,5.7-1.136,6.567-3.266a8.613,8.613,0,0,0-.84-7.63,5.075,5.075,0,0,0-4.273-2.428c-1.8,0-3.8.882-5.939,2.622-5.854,4.751-10.816,7.16-14.747,7.16a7.426,7.426,0,0,1-6.046-2.84c-4.233-5.234-3.495-9.738-2.131-12.594C371.578,28.553,384.91,23.062,394.521,23.062Z" transform="translate(745.832 1309.23)" fill="#231f20"/>
  </g>
</svg>
