<svg xmlns="http://www.w3.org/2000/svg" xmlns:xlink="http://www.w3.org/1999/xlink" width="178.58" height="249.45" viewBox="0 0 178.58 249.45">
  <defs>
    <clipPath id="clip-path">
      <rect id="Rectangle_1" data-name="Rectangle 1" width="178.58" height="249.45" fill="none"/>
    </clipPath>
  </defs>
  <g id="fr69" transform="translate(-1016 -2872)">
    <g id="Groupe_1" data-name="Groupe 1" transform="translate(1016 2872)" clip-path="url(#clip-path)">
      <path id="Tracé_1" data-name="Tracé 1" d="M8.5,0H170.08a8.5,8.5,0,0,1,8.5,8.5V240.95a8.5,8.5,0,0,1-8.5,8.5H8.5a8.5,8.5,0,0,1-8.5-8.5V8.5A8.5,8.5,0,0,1,8.5,0" fill="#fff"/>
      <path id="Tracé_2" data-name="Tracé 2" d="M171.5,58.26V10.09a3.013,3.013,0,0,0-3.01-3.01H10.09a3,3,0,0,0-3,3.01V239.35a3,3,0,0,0,3,3.01h158.4a3.013,3.013,0,0,0,3.01-3.01V91.4m0-.01V58.29M29.01,44.95a.076.076,0,0,1,.02-.04.142.142,0,0,0-.02.06" fill="#fceef4"/>
    </g>
    <path id="Tracé_33" data-name="Tracé 33" d="M218.1,183.64c-4.269-7.118-13.007-8.031-20.142-8.031-.6,0-1.195.007-1.778.018l-.28,0c-3.67,0-6.6-1.211-6.785-2.028-.065-.286.465-1.362,3.651-2.881a50.371,50.371,0,0,1,6.052-1.814c9.152-2.433,21.687-5.766,20.608-11.921-1.014-5.784-10.321-7-17.951-7-1.853,0-3.393.073-4.358.135-14.762.941-25.841,7.62-29.638,17.867-8.426,22.747-8.69,40.076-.763,50.114,4.149,5.254,11.383,8.148,20.368,8.148h0c7.148,0,14.426-1.893,19.466-5.062C216.545,214.9,224.342,194.046,218.1,183.64ZM202.07,206.828a13.789,13.789,0,0,1-10.929,6.89c-.351.024-.706.038-1.061.038-1.647,0-4.618-.3-6.027-2.331-1.207-1.737-1.132-4.462.224-8.1,1.694-4.547,7.878-8.209,11.87-8.209a5.234,5.234,0,0,1,1.666.248,7.872,7.872,0,0,1,4.571,4.7A8,8,0,0,1,202.07,206.828Z" transform="translate(878.426 2808.14)" fill="#ef9f5e"/>
    <path id="Tracé_33_-_Contour" data-name="Tracé 33 - Contour" d="M201.475,150.666c-1.833,0-3.358.073-4.315.134-14.486.923-25.344,7.438-29.045,17.426-4.167,11.248-6.344,21.206-6.472,29.6-.126,8.309,1.76,14.991,5.605,19.861,4.018,5.088,11.062,7.89,19.838,7.89,7.026,0,14.168-1.854,19.106-4.958,4.669-2.937,9.106-9.4,11.579-16.869a35.1,35.1,0,0,0,1.885-10.735,17.28,17.28,0,0,0-2.138-9.023c-4.094-6.826-12.6-7.7-19.561-7.7-.548,0-1.125.006-1.765.018h-.007l-.285,0a15.983,15.983,0,0,1-4.914-.742c-1.047-.349-2.336-.947-2.533-1.814-.224-.99,1.242-2.317,4.021-3.642a50.026,50.026,0,0,1,6.17-1.857,92.148,92.148,0,0,0,14.031-4.526,15.908,15.908,0,0,0,4.784-3.092,3.957,3.957,0,0,0,1.3-3.531c-.408-2.327-2.434-4.056-6.023-5.137a40.225,40.225,0,0,0-11.26-1.3m-11.4,63.768c-1.779,0-5-.341-6.584-2.622-1.341-1.93-1.292-4.866.146-8.724a13.348,13.348,0,0,1,5.336-6.14,14.045,14.045,0,0,1,7.169-2.511,5.9,5.9,0,0,1,1.882.283,8.553,8.553,0,0,1,4.986,5.092,8.676,8.676,0,0,1-.351,7.342,14.484,14.484,0,0,1-11.477,7.24c-.38.026-.752.039-1.108.039m11.4-64.445c7.629,0,16.936,1.215,17.951,7,1.079,6.155-11.455,9.488-20.608,11.921a50.371,50.371,0,0,0-6.052,1.814c-3.187,1.519-3.716,2.595-3.651,2.881.185.817,3.115,2.028,6.785,2.028l.28,0c.583-.011,1.176-.018,1.778-.018,7.135,0,15.873.913,20.142,8.031,6.243,10.406-1.554,31.263-11.546,37.549-5.041,3.17-12.319,5.062-19.466,5.062h0c-8.985,0-16.219-2.893-20.368-8.148-7.927-10.038-7.664-27.367.763-50.114,3.8-10.247,14.876-16.926,29.638-17.867C198.082,150.061,199.622,149.988,201.475,149.988Zm-11.4,63.768c.355,0,.711-.014,1.061-.038a13.789,13.789,0,0,0,10.929-6.89,8,8,0,0,0,.314-6.77,7.872,7.872,0,0,0-4.571-4.7,5.234,5.234,0,0,0-1.666-.248c-3.992,0-10.176,3.662-11.87,8.209-1.356,3.639-1.431,6.363-.224,8.1C185.461,213.453,188.432,213.756,190.079,213.756Z" transform="translate(878.426 2808.14)" fill="#231f20"/>
    <path id="Tracé_142" data-name="Tracé 142" d="M535.673,157.659c-4.149-5.254-11.383-8.148-20.368-8.148-7.148,0-14.426,1.893-19.468,5.064-9.992,6.284-17.789,27.141-11.547,37.547,4.27,7.118,13.006,8.031,20.14,8.031q.906,0,1.78-.018l.28,0c3.67,0,6.6,1.212,6.783,2.028.065.287-.465,1.363-3.65,2.881a50.338,50.338,0,0,1-6.051,1.814c-9.152,2.433-21.687,5.765-20.608,11.919,1.014,5.786,10.322,7,17.953,7,1.852,0,3.392-.073,4.356-.135,14.762-.941,25.84-7.62,29.636-17.866C543.338,185.027,543.6,167.7,535.673,157.659Zm-20.718,15.986c-1.4,4.167-4.862,7.077-8.409,7.077a6.153,6.153,0,0,1-1.969-.321c-4.206-1.417-7.711-5.044-6.057-9.952,1.5-4.467,6.752-8.689,10.8-8.689a4.6,4.6,0,0,1,1.465.224C514.795,163.337,516.667,168.568,514.955,173.645Z" transform="translate(630.857 2809.082)" fill="#ef9f5e"/>
    <path id="Tracé_142_-_Contour" data-name="Tracé 142 - Contour" d="M515.305,150.189c-7.027,0-14.17,1.854-19.107,4.96-4.668,2.936-9.105,9.4-11.579,16.867a35.1,35.1,0,0,0-1.886,10.735,17.279,17.279,0,0,0,2.138,9.023c4.1,6.826,12.6,7.7,19.558,7.7.569,0,1.163-.006,1.767-.017h.005l.288,0a15.976,15.976,0,0,1,4.913.743c1.047.349,2.336.947,2.531,1.814.224.991-1.242,2.318-4.02,3.643a49.99,49.99,0,0,1-6.169,1.857,92.106,92.106,0,0,0-14.031,4.525,15.911,15.911,0,0,0-4.784,3.092,3.957,3.957,0,0,0-1.3,3.53c.408,2.328,2.435,4.057,6.023,5.138a40.231,40.231,0,0,0,11.262,1.3c1.833,0,3.357-.073,4.313-.134,14.486-.923,25.344-7.437,29.044-17.425,4.167-11.248,6.345-21.207,6.473-29.6.127-8.309-1.76-14.991-5.606-19.862-4.017-5.088-11.062-7.89-19.836-7.89M506.547,181.4a6.828,6.828,0,0,1-2.186-.356,11.082,11.082,0,0,1-5.564-3.919,7.422,7.422,0,0,1-.919-6.891,14.486,14.486,0,0,1,4.663-6.331,11.461,11.461,0,0,1,6.776-2.819,5.274,5.274,0,0,1,1.681.26,7.588,7.588,0,0,1,4.654,4.847,11.757,11.757,0,0,1-.056,7.672c-1.5,4.439-5.217,7.539-9.051,7.539m8.758-31.889c8.985,0,16.219,2.893,20.368,8.148,7.928,10.039,7.664,27.368-.763,50.116-3.8,10.246-14.874,16.925-29.636,17.866-.965.061-2.5.135-4.356.135-7.631,0-16.939-1.215-17.953-7-1.078-6.154,11.456-9.487,20.609-11.919a50.338,50.338,0,0,0,6.051-1.814c3.186-1.518,3.715-2.595,3.65-2.881-.184-.816-3.114-2.028-6.783-2.028l-.28,0q-.874.017-1.78.018c-7.133,0-15.869-.913-20.14-8.031-6.243-10.406,1.555-31.263,11.547-37.547C500.879,151.4,508.157,149.511,515.305,149.511Zm-8.758,31.211c3.547,0,7-2.91,8.409-7.077,1.711-5.077-.161-10.308-4.173-11.66a4.6,4.6,0,0,0-1.465-.224c-4.045,0-9.293,4.222-10.8,8.689-1.654,4.908,1.85,8.535,6.057,9.952A6.153,6.153,0,0,0,506.547,180.722Z" transform="translate(630.857 2809.082)" fill="#231f20"/>
  </g>
</svg>
