<svg xmlns="http://www.w3.org/2000/svg" width="178.58" height="249.45" viewBox="0 0 178.58 249.45">
  <g id="fr74" transform="translate(-1215 -1522)">
    <g id="Groupe_45" data-name="Groupe 45" transform="translate(0 810)">
      <path id="Tracé_2" data-name="Tracé 2" d="M171.5,58.26V10.09a3.013,3.013,0,0,0-3.01-3.01H10.09a3,3,0,0,0-3,3.01V239.35a3,3,0,0,0,3,3.01h158.4a3.013,3.013,0,0,0,3.01-3.01V91.4m0-.01V58.29M29.01,44.95a.076.076,0,0,1,.02-.04.142.142,0,0,0-.02.06" transform="translate(1215 712)" fill="#fceef4"/>
      <rect id="Rectangle_1" data-name="Rectangle 1" width="178.58" height="249.45" transform="translate(1215 712)" fill="none"/>
    </g>
    <path id="Tracé_34" data-name="Tracé 34" d="M317.819,151.788a5.864,5.864,0,0,0-4.03-3.326,48.171,48.171,0,0,0-11.523-1.246c-7.226,0-14.857,1.178-21.588,2.217-1.457.225-2.889.446-4.287.652-5.732.841-9.877,2.029-11.478,5.1-1.145,2.193-.8,5.061,1.048,8.769a5.1,5.1,0,0,0,3.441,2.693,59.11,59.11,0,0,0,8.8.784c6.292.282,14.123.633,16.3,3.592a3.688,3.688,0,0,1,.388,3.294c-2.609,9.829-9.024,19.089-15.227,28.044-1.653,2.386-3.214,4.64-4.7,6.9-.232.353-.575.809-.974,1.341-2.482,3.317-7.1,9.489-2.746,13.157a14.774,14.774,0,0,0,9.523,3.393,18.388,18.388,0,0,0,10.571-3.563c4.65-3.283,8.614-12.5,11.238-18.6.49-1.139.923-2.148,1.295-2.957l.616-1.329C316.667,174.473,321.031,158.474,317.819,151.788Z" transform="translate(978.077 1457.245)" fill="#ef9f5e"/>
    <path id="Tracé_34_-_Contour" data-name="Tracé 34 - Contour" d="M302.267,147.894c-7.173,0-14.775,1.173-21.485,2.209q-2.195.339-4.292.652c-5.526.811-9.508,1.927-10.975,4.739-1.037,1.986-.692,4.653,1.053,8.152a4.416,4.416,0,0,0,2.978,2.334,58.751,58.751,0,0,0,8.684.77,87.918,87.918,0,0,1,9.771.8c3.66.6,5.963,1.6,7.039,3.068a4.316,4.316,0,0,1,.5,3.869c-2.639,9.943-9.088,19.253-15.327,28.259-1.65,2.382-3.209,4.632-4.69,6.883-.237.36-.574.809-.963,1.329l-.034.046a27.788,27.788,0,0,0-3.846,6.282c-.992,2.6-.667,4.551.995,5.95a14.1,14.1,0,0,0,9.086,3.233,17.718,17.718,0,0,0,10.18-3.439c4.492-3.172,8.411-12.28,11.007-18.312l.018-.041c.49-1.14.913-2.124,1.284-2.933l.616-1.33c6.051-13.017,10.226-23.674,12.409-31.676,2.149-7.876,2.464-13.48.939-16.656a5.212,5.212,0,0,0-3.58-2.961,47.505,47.505,0,0,0-11.361-1.226m0-.678a48.171,48.171,0,0,1,11.523,1.246,5.864,5.864,0,0,1,4.03,3.326c3.212,6.686-1.152,22.685-13.343,48.911l-.616,1.329c-.371.809-.805,1.818-1.295,2.957-2.624,6.1-6.589,15.314-11.238,18.6a18.388,18.388,0,0,1-10.571,3.563,14.774,14.774,0,0,1-9.523-3.393c-4.356-3.668.264-9.841,2.746-13.157.4-.532.741-.988.974-1.341,1.486-2.259,3.048-4.512,4.7-6.9,6.2-8.956,12.618-18.216,15.227-28.044a3.688,3.688,0,0,0-.388-3.294c-2.173-2.96-10-3.31-16.3-3.592a59.11,59.11,0,0,1-8.8-.784,5.1,5.1,0,0,1-3.441-2.693c-1.85-3.708-2.193-6.576-1.048-8.769,1.6-3.067,5.746-4.255,11.478-5.1,1.4-.206,2.83-.426,4.287-.652C287.41,148.394,295.041,147.216,302.267,147.216Z" transform="translate(978.077 1457.245)" fill="#231f20"/>
    <path id="Tracé_137" data-name="Tracé 137" d="M533.045,65.644a2.421,2.421,0,0,1-1.919-1.005c-1.185-1.838.142-6.371,1.549-11.17,2.452-8.375,5.5-18.8-.561-26.176a5.616,5.616,0,0,0-4.586-1.886c-8.3,0-23.7,11.332-26.715,14.256-8.678,8.429-11.445,12.872-17.138,23.42-3.462,6.415-4.151,11.2-2.108,14.622,2.127,3.564,7.1,5.3,15.2,5.3a99.384,99.384,0,0,0,11.156-.752,1.591,1.591,0,0,1,1.415.567,1.626,1.626,0,0,1,.35,1.359c-.646,3.5-1.678,12.211,2.688,17.457a10.949,10.949,0,0,0,8.873,3.788h.109c3.654-.023,6.268-.939,7.993-2.8,2.788-3.008,2.457-7.735,2.166-11.907-.369-5.289-.272-7.648,2.21-8.038,5.887-.927,9.381-3.865,9.349-7.857C543.038,70.388,538.727,66.445,533.045,65.644Zm-32.914-2.171c1.05-3.742,12-14.3,14.827-14.3.255,0,.482.335.628.617,1.3,2.508.854,9.774-2.138,13.993-1.152,1.625-6.938,4.933-10.93,4.933h0a2.807,2.807,0,0,1-2.35-.839C499.56,67.074,499.547,65.552,500.131,63.473Z" transform="translate(826.062 1576.886)" fill="#ef9f5e"/>
    <path id="Tracé_137_-_Contour" data-name="Tracé 137 - Contour" d="M521.243,104.741h.108c3.456-.022,5.91-.867,7.5-2.583,2.588-2.792,2.269-7.364,1.987-11.4-.356-5.1-.412-8.252,2.781-8.755a13.487,13.487,0,0,0,6.564-2.628,5.708,5.708,0,0,0,2.214-4.554,7.568,7.568,0,0,0-2.676-5.452,12.7,12.7,0,0,0-6.769-3.055,3.168,3.168,0,0,1-2.394-1.309c-1.354-2.1-.046-6.561,1.469-11.732,1.21-4.132,2.581-8.815,2.887-13.316.346-5.093-.74-9.1-3.321-12.236a4.975,4.975,0,0,0-4.062-1.638c-4.318,0-10.535,3.226-14.99,5.933a78.561,78.561,0,0,0-11.252,8.131c-8.61,8.363-11.358,12.776-17.014,23.256-3.339,6.186-4.033,10.75-2.123,13.953,1.994,3.341,6.772,4.965,14.609,4.965h.006a98.754,98.754,0,0,0,11.081-.748,2.357,2.357,0,0,1,.262-.015,2.3,2.3,0,0,1,2.245,2.738c-.629,3.407-1.639,11.875,2.543,16.9a10.3,10.3,0,0,0,8.349,3.544M514.959,48.5c.48,0,.894.331,1.23.983.714,1.381.947,3.966.61,6.747a18.081,18.081,0,0,1-2.8,7.948,14,14,0,0,1-4.653,3.292,17.07,17.07,0,0,1-6.831,1.927,3.423,3.423,0,0,1-2.891-1.108c-.751-.993-.8-2.674-.148-5,.617-2.2,3.984-6.018,6.928-8.857,1.444-1.393,6.328-5.936,8.551-5.936m6.288,56.923a10.949,10.949,0,0,1-8.873-3.788c-4.366-5.246-3.334-13.956-2.688-17.457a1.626,1.626,0,0,0-.35-1.359,1.591,1.591,0,0,0-1.415-.567A99.384,99.384,0,0,1,496.764,83h-.006c-8.1,0-13.065-1.732-15.191-5.3-2.043-3.424-1.354-8.207,2.108-14.622,5.693-10.548,8.461-14.992,17.138-23.42,3.011-2.924,18.411-14.256,26.715-14.256a5.616,5.616,0,0,1,4.586,1.886c6.065,7.378,3.012,17.8.561,26.176-1.406,4.8-2.734,9.333-1.549,11.17a2.421,2.421,0,0,0,1.919,1.005c5.682.8,9.993,4.745,10.028,9.173.032,3.992-3.463,6.93-9.349,7.857-2.481.391-2.579,2.749-2.21,8.038.292,4.171.622,8.9-2.166,11.907-1.724,1.861-4.339,2.777-7.993,2.8Zm-6.288-56.245c-2.829,0-13.777,10.558-14.827,14.3-.585,2.079-.571,3.6.036,4.4a2.807,2.807,0,0,0,2.35.839h0c3.992,0,9.778-3.308,10.93-4.933,2.992-4.219,3.434-11.485,2.138-13.993C515.441,49.508,515.214,49.174,514.959,49.174Z" transform="translate(826.062 1576.886)" fill="#231f20"/>
  </g>
</svg>
