<svg xmlns="http://www.w3.org/2000/svg" width="178.58" height="249.45" viewBox="0 0 178.58 249.45">
  <g id="fr76" transform="translate(-1215 -2062)">
    <g id="Groupe_45" data-name="Groupe 45" transform="translate(0 1350)">
      <path id="Tracé_2" data-name="Tracé 2" d="M171.5,58.26V10.09a3.013,3.013,0,0,0-3.01-3.01H10.09a3,3,0,0,0-3,3.01V239.35a3,3,0,0,0,3,3.01h158.4a3.013,3.013,0,0,0,3.01-3.01V91.4m0-.01V58.29M29.01,44.95a.076.076,0,0,1,.02-.04.142.142,0,0,0-.02.06" transform="translate(1215 712)" fill="#fceef4"/>
      <rect id="Rectangle_1" data-name="Rectangle 1" width="178.58" height="249.45" transform="translate(1215 712)" fill="none"/>
    </g>
    <path id="Tracé_34" data-name="Tracé 34" d="M317.819,151.788a5.864,5.864,0,0,0-4.03-3.326,48.171,48.171,0,0,0-11.523-1.246c-7.226,0-14.857,1.178-21.588,2.217-1.457.225-2.889.446-4.287.652-5.732.841-9.877,2.029-11.478,5.1-1.145,2.193-.8,5.061,1.048,8.769a5.1,5.1,0,0,0,3.441,2.693,59.11,59.11,0,0,0,8.8.784c6.292.282,14.123.633,16.3,3.592a3.688,3.688,0,0,1,.388,3.294c-2.609,9.829-9.024,19.089-15.227,28.044-1.653,2.386-3.214,4.64-4.7,6.9-.232.353-.575.809-.974,1.341-2.482,3.317-7.1,9.489-2.746,13.157a14.774,14.774,0,0,0,9.523,3.393,18.388,18.388,0,0,0,10.571-3.563c4.65-3.283,8.614-12.5,11.238-18.6.49-1.139.923-2.148,1.295-2.957l.616-1.329C316.667,174.473,321.031,158.474,317.819,151.788Z" transform="translate(978.077 1997.245)" fill="#ef9f5e"/>
    <path id="Tracé_34_-_Contour" data-name="Tracé 34 - Contour" d="M302.267,147.894c-7.173,0-14.775,1.173-21.485,2.209q-2.195.339-4.292.652c-5.526.811-9.508,1.927-10.975,4.739-1.037,1.986-.692,4.653,1.053,8.152a4.416,4.416,0,0,0,2.978,2.334,58.751,58.751,0,0,0,8.684.77,87.918,87.918,0,0,1,9.771.8c3.66.6,5.963,1.6,7.039,3.068a4.316,4.316,0,0,1,.5,3.869c-2.639,9.943-9.088,19.253-15.327,28.259-1.65,2.382-3.209,4.632-4.69,6.883-.237.36-.574.809-.963,1.329l-.034.046a27.788,27.788,0,0,0-3.846,6.282c-.992,2.6-.667,4.551.995,5.95a14.1,14.1,0,0,0,9.086,3.233,17.718,17.718,0,0,0,10.18-3.439c4.492-3.172,8.411-12.28,11.007-18.312l.018-.041c.49-1.14.913-2.124,1.284-2.933l.616-1.33c6.051-13.017,10.226-23.674,12.409-31.676,2.149-7.876,2.464-13.48.939-16.656a5.212,5.212,0,0,0-3.58-2.961,47.505,47.505,0,0,0-11.361-1.226m0-.678a48.171,48.171,0,0,1,11.523,1.246,5.864,5.864,0,0,1,4.03,3.326c3.212,6.686-1.152,22.685-13.343,48.911l-.616,1.329c-.371.809-.805,1.818-1.295,2.957-2.624,6.1-6.589,15.314-11.238,18.6a18.388,18.388,0,0,1-10.571,3.563,14.774,14.774,0,0,1-9.523-3.393c-4.356-3.668.264-9.841,2.746-13.157.4-.532.741-.988.974-1.341,1.486-2.259,3.048-4.512,4.7-6.9,6.2-8.956,12.618-18.216,15.227-28.044a3.688,3.688,0,0,0-.388-3.294c-2.173-2.96-10-3.31-16.3-3.592a59.11,59.11,0,0,1-8.8-.784,5.1,5.1,0,0,1-3.441-2.693c-1.85-3.708-2.193-6.576-1.048-8.769,1.6-3.067,5.746-4.255,11.478-5.1,1.4-.206,2.83-.426,4.287-.652C287.41,148.394,295.041,147.216,302.267,147.216Z" transform="translate(978.077 1997.245)" fill="#231f20"/>
    <path id="Tracé_139" data-name="Tracé 139" d="M218.1,183.64c-4.269-7.118-13.007-8.031-20.142-8.031-.6,0-1.195.007-1.778.018l-.28,0c-3.67,0-6.6-1.211-6.785-2.028-.065-.286.465-1.362,3.651-2.881a50.371,50.371,0,0,1,6.052-1.814c9.152-2.433,21.687-5.766,20.608-11.921-1.014-5.784-10.321-7-17.951-7-1.853,0-3.393.073-4.358.135-14.762.941-25.841,7.62-29.638,17.867-8.426,22.747-8.69,40.076-.763,50.114,4.149,5.254,11.383,8.148,20.368,8.148h0c7.148,0,14.426-1.893,19.466-5.062C216.545,214.9,224.342,194.046,218.1,183.64ZM202.07,206.828a13.789,13.789,0,0,1-10.929,6.89c-.351.024-.706.038-1.061.038-1.647,0-4.618-.3-6.027-2.331-1.207-1.737-1.132-4.462.224-8.1,1.694-4.547,7.878-8.209,11.87-8.209a5.234,5.234,0,0,1,1.666.248,7.872,7.872,0,0,1,4.571,4.7A8,8,0,0,1,202.07,206.828Z" transform="translate(1153.164 1998.14)" fill="#ef9f5e"/>
    <path id="Tracé_139_-_Contour" data-name="Tracé 139 - Contour" d="M201.475,150.666c-1.833,0-3.358.073-4.315.134-14.486.923-25.344,7.438-29.045,17.426-4.167,11.248-6.344,21.206-6.472,29.6-.126,8.309,1.76,14.991,5.605,19.861,4.018,5.088,11.062,7.89,19.838,7.89,7.026,0,14.168-1.854,19.106-4.958,4.669-2.937,9.106-9.4,11.579-16.869a35.1,35.1,0,0,0,1.885-10.735,17.28,17.28,0,0,0-2.138-9.023c-4.094-6.826-12.6-7.7-19.561-7.7-.548,0-1.125.006-1.765.018h-.007l-.285,0a15.983,15.983,0,0,1-4.914-.742c-1.047-.349-2.336-.947-2.533-1.814-.224-.99,1.242-2.317,4.021-3.642a50.026,50.026,0,0,1,6.17-1.857,92.148,92.148,0,0,0,14.031-4.526,15.908,15.908,0,0,0,4.784-3.092,3.957,3.957,0,0,0,1.3-3.531c-.408-2.327-2.434-4.056-6.023-5.137a40.225,40.225,0,0,0-11.26-1.3m-11.4,63.768c-1.779,0-5-.341-6.584-2.622-1.341-1.93-1.292-4.866.146-8.724a13.348,13.348,0,0,1,5.336-6.14,14.045,14.045,0,0,1,7.169-2.511,5.9,5.9,0,0,1,1.882.283,8.553,8.553,0,0,1,4.986,5.092,8.676,8.676,0,0,1-.351,7.342,14.484,14.484,0,0,1-11.477,7.24c-.38.026-.752.039-1.108.039m11.4-64.445c7.629,0,16.936,1.215,17.951,7,1.079,6.155-11.455,9.488-20.608,11.921a50.371,50.371,0,0,0-6.052,1.814c-3.187,1.519-3.716,2.595-3.651,2.881.185.817,3.115,2.028,6.785,2.028l.28,0c.583-.011,1.176-.018,1.778-.018,7.135,0,15.873.913,20.142,8.031,6.243,10.406-1.554,31.263-11.546,37.549-5.041,3.17-12.319,5.062-19.466,5.062h0c-8.985,0-16.219-2.893-20.368-8.148-7.927-10.038-7.664-27.367.763-50.114,3.8-10.247,14.876-16.926,29.638-17.867C198.082,150.061,199.622,149.988,201.475,149.988Zm-11.4,63.768c.355,0,.711-.014,1.061-.038a13.789,13.789,0,0,0,10.929-6.89,8,8,0,0,0,.314-6.77,7.872,7.872,0,0,0-4.571-4.7,5.234,5.234,0,0,0-1.666-.248c-3.992,0-10.176,3.662-11.87,8.209-1.356,3.639-1.431,6.363-.224,8.1C185.461,213.453,188.432,213.756,190.079,213.756Z" transform="translate(1153.164 1998.14)" fill="#231f20"/>
  </g>
</svg>
