<svg xmlns="http://www.w3.org/2000/svg" width="178.58" height="249.45" viewBox="0 0 178.58 249.45">
  <g id="fr77" transform="translate(-1215 -2332)">
    <g id="Groupe_203" data-name="Groupe 203">
      <path id="Tracé_2" data-name="Tracé 2" d="M171.5,58.26V10.09a3.013,3.013,0,0,0-3.01-3.01H10.09a3,3,0,0,0-3,3.01V239.35a3,3,0,0,0,3,3.01h158.4a3.013,3.013,0,0,0,3.01-3.01V91.4m0-.01V58.29M29.01,44.95a.076.076,0,0,1,.02-.04.142.142,0,0,0-.02.06" transform="translate(1215 2332)" fill="#fceef4"/>
      <rect id="Rectangle_1" data-name="Rectangle 1" width="178.58" height="249.45" transform="translate(1215 2332)" fill="none"/>
    </g>
    <path id="Tracé_34" data-name="Tracé 34" d="M317.819,151.788a5.864,5.864,0,0,0-4.03-3.326,48.171,48.171,0,0,0-11.523-1.246c-7.226,0-14.857,1.178-21.588,2.217-1.457.225-2.889.446-4.287.652-5.732.841-9.877,2.029-11.478,5.1-1.145,2.193-.8,5.061,1.048,8.769a5.1,5.1,0,0,0,3.441,2.693,59.11,59.11,0,0,0,8.8.784c6.292.282,14.123.633,16.3,3.592a3.688,3.688,0,0,1,.388,3.294c-2.609,9.829-9.024,19.089-15.227,28.044-1.653,2.386-3.214,4.64-4.7,6.9-.232.353-.575.809-.974,1.341-2.482,3.317-7.1,9.489-2.746,13.157a14.774,14.774,0,0,0,9.523,3.393,18.388,18.388,0,0,0,10.571-3.563c4.65-3.283,8.614-12.5,11.238-18.6.49-1.139.923-2.148,1.295-2.957l.616-1.329C316.667,174.473,321.031,158.474,317.819,151.788Z" transform="translate(978.077 2267.245)" fill="#ef9f5e"/>
    <path id="Tracé_34_-_Contour" data-name="Tracé 34 - Contour" d="M302.267,147.894c-7.173,0-14.775,1.173-21.485,2.209q-2.195.339-4.292.652c-5.526.811-9.508,1.927-10.975,4.739-1.037,1.986-.692,4.653,1.053,8.152a4.416,4.416,0,0,0,2.978,2.334,58.751,58.751,0,0,0,8.684.77,87.918,87.918,0,0,1,9.771.8c3.66.6,5.963,1.6,7.039,3.068a4.316,4.316,0,0,1,.5,3.869c-2.639,9.943-9.088,19.253-15.327,28.259-1.65,2.382-3.209,4.632-4.69,6.883-.237.36-.574.809-.963,1.329l-.034.046a27.788,27.788,0,0,0-3.846,6.282c-.992,2.6-.667,4.551.995,5.95a14.1,14.1,0,0,0,9.086,3.233,17.718,17.718,0,0,0,10.18-3.439c4.492-3.172,8.411-12.28,11.007-18.312l.018-.041c.49-1.14.913-2.124,1.284-2.933l.616-1.33c6.051-13.017,10.226-23.674,12.409-31.676,2.149-7.876,2.464-13.48.939-16.656a5.212,5.212,0,0,0-3.58-2.961,47.505,47.505,0,0,0-11.361-1.226m0-.678a48.171,48.171,0,0,1,11.523,1.246,5.864,5.864,0,0,1,4.03,3.326c3.212,6.686-1.152,22.685-13.343,48.911l-.616,1.329c-.371.809-.805,1.818-1.295,2.957-2.624,6.1-6.589,15.314-11.238,18.6a18.388,18.388,0,0,1-10.571,3.563,14.774,14.774,0,0,1-9.523-3.393c-4.356-3.668.264-9.841,2.746-13.157.4-.532.741-.988.974-1.341,1.486-2.259,3.048-4.512,4.7-6.9,6.2-8.956,12.618-18.216,15.227-28.044a3.688,3.688,0,0,0-.388-3.294c-2.173-2.96-10-3.31-16.3-3.592a59.11,59.11,0,0,1-8.8-.784,5.1,5.1,0,0,1-3.441-2.693c-1.85-3.708-2.193-6.576-1.048-8.769,1.6-3.067,5.746-4.255,11.478-5.1,1.4-.206,2.83-.426,4.287-.652C287.41,148.394,295.041,147.216,302.267,147.216Z" transform="translate(978.077 2267.245)" fill="#231f20"/>
    <path id="Tracé_140" data-name="Tracé 140" d="M317.819,151.788a5.864,5.864,0,0,0-4.03-3.326,48.171,48.171,0,0,0-11.523-1.246c-7.226,0-14.857,1.178-21.588,2.217-1.457.225-2.889.446-4.287.652-5.732.841-9.877,2.029-11.478,5.1-1.145,2.193-.8,5.061,1.048,8.769a5.1,5.1,0,0,0,3.441,2.693,59.11,59.11,0,0,0,8.8.784c6.292.282,14.123.633,16.3,3.592a3.688,3.688,0,0,1,.388,3.294c-2.609,9.829-9.024,19.089-15.227,28.044-1.653,2.386-3.214,4.64-4.7,6.9-.232.353-.575.809-.974,1.341-2.482,3.317-7.1,9.489-2.746,13.157a14.774,14.774,0,0,0,9.523,3.393,18.388,18.388,0,0,0,10.571-3.563c4.65-3.283,8.614-12.5,11.238-18.6.49-1.139.923-2.148,1.295-2.957l.616-1.329C316.667,174.473,321.031,158.474,317.819,151.788Z" transform="translate(1048.659 2267.245)" fill="#ef9f5e"/>
    <path id="Tracé_140_-_Contour" data-name="Tracé 140 - Contour" d="M302.267,147.894c-7.173,0-14.775,1.173-21.485,2.209q-2.195.339-4.292.652c-5.526.811-9.508,1.927-10.975,4.739-1.037,1.986-.692,4.653,1.053,8.152a4.416,4.416,0,0,0,2.978,2.334,58.751,58.751,0,0,0,8.684.77,87.918,87.918,0,0,1,9.771.8c3.66.6,5.963,1.6,7.039,3.068a4.316,4.316,0,0,1,.5,3.869c-2.639,9.943-9.088,19.253-15.327,28.259-1.65,2.382-3.209,4.632-4.69,6.883-.237.36-.574.809-.963,1.329l-.034.046a27.788,27.788,0,0,0-3.846,6.282c-.992,2.6-.667,4.551.995,5.95a14.1,14.1,0,0,0,9.086,3.233,17.718,17.718,0,0,0,10.18-3.439c4.492-3.172,8.411-12.28,11.007-18.312l.018-.041c.49-1.14.913-2.124,1.284-2.933l.616-1.33c6.051-13.017,10.226-23.674,12.409-31.676,2.149-7.876,2.464-13.48.939-16.656a5.212,5.212,0,0,0-3.58-2.961,47.505,47.505,0,0,0-11.361-1.226m0-.678a48.171,48.171,0,0,1,11.523,1.246,5.864,5.864,0,0,1,4.03,3.326c3.212,6.686-1.152,22.685-13.343,48.911l-.616,1.329c-.371.809-.805,1.818-1.295,2.957-2.624,6.1-6.589,15.314-11.238,18.6a18.388,18.388,0,0,1-10.571,3.563,14.774,14.774,0,0,1-9.523-3.393c-4.356-3.668.264-9.841,2.746-13.157.4-.532.741-.988.974-1.341,1.486-2.259,3.048-4.512,4.7-6.9,6.2-8.956,12.618-18.216,15.227-28.044a3.688,3.688,0,0,0-.388-3.294c-2.173-2.96-10-3.31-16.3-3.592a59.11,59.11,0,0,1-8.8-.784,5.1,5.1,0,0,1-3.441-2.693c-1.85-3.708-2.193-6.576-1.048-8.769,1.6-3.067,5.746-4.255,11.478-5.1,1.4-.206,2.83-.426,4.287-.652C287.41,148.394,295.041,147.216,302.267,147.216Z" transform="translate(1048.659 2267.245)" fill="#231f20"/>
  </g>
</svg>
