<svg xmlns="http://www.w3.org/2000/svg" xmlns:xlink="http://www.w3.org/1999/xlink" width="178.58" height="249.45" viewBox="0 0 178.58 249.45">
  <defs>
    <clipPath id="clip-path">
      <rect id="Rectangle_1" data-name="Rectangle 1" width="178.58" height="249.45" fill="none"/>
    </clipPath>
  </defs>
  <g id="fr82" transform="translate(-1414 -982)">
    <g id="Groupe_1" data-name="Groupe 1" transform="translate(1414 982)" clip-path="url(#clip-path)">
      <path id="Tracé_1" data-name="Tracé 1" d="M8.5,0H170.08a8.5,8.5,0,0,1,8.5,8.5V240.95a8.5,8.5,0,0,1-8.5,8.5H8.5a8.5,8.5,0,0,1-8.5-8.5V8.5A8.5,8.5,0,0,1,8.5,0" fill="#fff"/>
      <path id="Tracé_2" data-name="Tracé 2" d="M171.5,58.26V10.09a3.013,3.013,0,0,0-3.01-3.01H10.09a3,3,0,0,0-3,3.01V239.35a3,3,0,0,0,3,3.01h158.4a3.013,3.013,0,0,0,3.01-3.01V91.4m0-.01V58.29M29.01,44.95a.076.076,0,0,1,.02-.04.142.142,0,0,0-.02.06" fill="#fceef4"/>
    </g>
    <path id="Tracé_35" data-name="Tracé 35" d="M417.071,187.848a1.206,1.206,0,0,1-.053-2.049c6.607-4.341,9.734-9.663,9.841-16.749.069-4.58-2.251-9.5-6.532-13.842-5.891-5.98-14.49-9.845-21.906-9.845l-.284,0c-11.821.153-19.745,3.351-23.55,9.507-5.546,8.97-.806,21.824,2.513,28.687a3.717,3.717,0,0,1-1.634,4.924c-5.217,2.745-16.562,10.811-9.234,26.393,4.964,10.557,16.476,17.114,30.041,17.114a42.3,42.3,0,0,0,9.5-1.1c11.011-2.547,20.875-12.557,22.458-22.79C429.479,200.035,425.515,192.841,417.071,187.848ZM384.929,209.02c.181-3.783,3.129-8.809,9.179-10.9a11.286,11.286,0,0,1,3.642-.566c5.125,0,10.63,2.819,10.741,8.045a10.82,10.82,0,0,1-2.984,8.01c-2.259,2.306-5.572,3.525-9.584,3.525l-.219,0a12.472,12.472,0,0,1-8.839-3.6A6.293,6.293,0,0,1,384.929,209.02Zm21.588-34.732a7.846,7.846,0,0,1-5.709,3.063c-.478.046-.966.069-1.453.069-4.369,0-8.385-1.878-9.14-4.277-.909-2.885.434-6.591,4.761-8.089a11.2,11.2,0,0,1,3.626-.582c1.711,0,7.4.448,8.79,6.215A4.509,4.509,0,0,1,406.518,174.288Z" transform="translate(1074.833 913.622)" fill="#ef9f5e"/>
    <path id="Tracé_35_-_Contour" data-name="Tracé 35 - Contour" d="M398.422,146.042l-.277,0c-11.575.149-19.307,3.24-22.982,9.186-5.376,8.694-.712,21.3,2.547,28.036a4.391,4.391,0,0,1-1.928,5.819,26.828,26.828,0,0,0-4.559,3.014,19.928,19.928,0,0,0-4.5,5.116c-2.989,5.005-2.949,10.851.118,17.374,4.851,10.316,16.127,16.725,29.428,16.725a41.616,41.616,0,0,0,9.349-1.078,30.287,30.287,0,0,0,14.435-8.328A26.085,26.085,0,0,0,427.562,208a16.7,16.7,0,0,0-1.87-10.851,23.636,23.636,0,0,0-8.966-8.718,1.879,1.879,0,0,1-.929-1.58,1.847,1.847,0,0,1,.849-1.619,21.943,21.943,0,0,0,7.146-7.122,17.964,17.964,0,0,0,2.39-9.07c.066-4.4-2.185-9.141-6.337-13.356-5.77-5.857-14.179-9.642-21.422-9.643m.934,32.056a14.961,14.961,0,0,1-6.213-1.3,6.293,6.293,0,0,1-3.574-3.448c-1.007-3.2.45-7.294,5.185-8.933a11.888,11.888,0,0,1,3.848-.62c1.836,0,7.944.486,9.449,6.734a5.18,5.18,0,0,1-.98,4.153,8.52,8.52,0,0,1-6.2,3.344c-.5.048-1.008.073-1.519.073m-3.433,39.709-.226,0a13.16,13.16,0,0,1-9.325-3.81,6.956,6.956,0,0,1-2.119-5.007c.191-4,3.287-9.314,9.634-11.513a11.969,11.969,0,0,1,3.863-.6c5.446,0,11.3,3.052,11.418,8.708a11.483,11.483,0,0,1-3.177,8.5c-2.389,2.439-5.871,3.729-10.068,3.729m2.5-72.443c7.416,0,16.015,3.865,21.906,9.845,4.281,4.346,6.6,9.262,6.532,13.842-.107,7.085-3.234,12.407-9.841,16.749a1.206,1.206,0,0,0,.053,2.049c8.445,4.993,12.408,12.186,11.162,20.256-1.583,10.234-11.447,20.243-22.458,22.79a42.3,42.3,0,0,1-9.5,1.1c-13.565,0-25.077-6.557-30.041-17.114-7.327-15.582,4.017-23.648,9.234-26.393a3.717,3.717,0,0,0,1.634-4.924c-3.319-6.863-8.06-19.717-2.513-28.687,3.8-6.156,11.729-9.354,23.55-9.507Zm.935,32.056c.487,0,.976-.023,1.453-.069a7.846,7.846,0,0,0,5.709-3.063,4.509,4.509,0,0,0,.874-3.6c-1.389-5.767-7.079-6.215-8.79-6.215a11.2,11.2,0,0,0-3.626.582c-4.326,1.5-5.669,5.2-4.761,8.089C390.971,175.542,394.986,177.42,399.356,177.42Zm-3.433,39.709c4.012,0,7.326-1.219,9.584-3.525a10.82,10.82,0,0,0,2.984-8.01c-.11-5.225-5.616-8.045-10.741-8.045a11.286,11.286,0,0,0-3.642.566c-6.05,2.1-9,7.121-9.179,10.9a6.293,6.293,0,0,0,1.935,4.51,12.472,12.472,0,0,0,8.839,3.6Z" transform="translate(1074.833 913.622)" fill="#231f20"/>
    <path id="_2" data-name="2" d="M318.155,85.968c-.516-3.49-2.885-7.364-6.415-8.016a30.33,30.33,0,0,0-6.472.1,53.063,53.063,0,0,1-6.062.259,1.041,1.041,0,0,1-.7-1.774c4.452-4.469,12.66-13.506,13.53-14.671,7.592-10.165,8.728-26.832-1.685-35.443-5.452-4.509-13.329-7.094-21.612-7.094-11.8,0-24.572,5.709-26.511,18.465a7.4,7.4,0,0,0,1.728,6.106,11.158,11.158,0,0,0,8.448,3.507,12.307,12.307,0,0,0,7.768-2.689c1.284-1.047,4.645-2.13,8.046-2.13,2.389,0,6.46.542,6.877,4.168.489,4.265-2.484,8.389-5.36,12.377q-.481.667-.954,1.33a58.2,58.2,0,0,1-5.6,5.514c-10.127,9.327-19.07,18.2-17.289,24.272.731,2.491,3.185,4.119,7.294,4.838a131.566,131.566,0,0,0,21.09,1.71c6.514,0,15.389-.572,20.67-3.3C317.46,92.2,318.661,89.385,318.155,85.968Z" transform="translate(1250.867 1048.663)" fill="#ef9f5e"/>
    <path id="_2_-_Contour" data-name="2 - Contour" d="M294.273,96.119c6.439,0,15.2-.559,20.359-3.222,2.248-1.16,3.314-3.714,2.853-6.83a10.974,10.974,0,0,0-1.952-4.768,6.514,6.514,0,0,0-3.916-2.68,10.905,10.905,0,0,0-1.878-.128c-1.289,0-2.885.113-4.417.236l-.033,0c-1.718.136-3.494.277-5.122.277-.346,0-.679-.007-.99-.019a1.719,1.719,0,0,1-1.151-2.93c4.436-4.453,12.6-13.443,13.467-14.6a29.258,29.258,0,0,0,4.3-8.418,30.143,30.143,0,0,0,1.472-9.473,24.014,24.014,0,0,0-1.817-9.141,19.389,19.389,0,0,0-5.531-7.483c-5.332-4.41-13.052-6.939-21.18-6.939-11.509,0-23.962,5.531-25.841,17.889a6.742,6.742,0,0,0,1.572,5.562,10.477,10.477,0,0,0,7.934,3.271,11.628,11.628,0,0,0,7.34-2.536c1.357-1.107,4.788-2.283,8.474-2.283a11.7,11.7,0,0,1,4.446.779,4.811,4.811,0,0,1,3.1,3.989c.519,4.526-2.533,8.758-5.484,12.851-.307.425-.633.877-.951,1.326a56.256,56.256,0,0,1-5.68,5.6l-.017.016c-5.6,5.155-9.957,9.387-13.038,13.28-3.477,4.394-4.8,7.764-4.06,10.3.652,2.223,2.927,3.69,6.76,4.362a130.826,130.826,0,0,0,20.973,1.7m0,.678a131.567,131.567,0,0,1-21.09-1.71c-4.109-.72-6.563-2.347-7.294-4.838-1.781-6.07,7.161-14.945,17.289-24.272a58.2,58.2,0,0,0,5.6-5.514q.472-.663.954-1.33c2.876-3.989,5.85-8.113,5.36-12.377-.417-3.626-4.488-4.168-6.877-4.168-3.4,0-6.762,1.083-8.046,2.13a12.307,12.307,0,0,1-7.768,2.689,11.158,11.158,0,0,1-8.448-3.507,7.4,7.4,0,0,1-1.728-6.106c1.939-12.756,14.713-18.465,26.511-18.465,8.283,0,16.159,2.585,21.612,7.094,10.412,8.611,9.277,25.278,1.685,35.443-.87,1.165-9.078,10.2-13.53,14.671a1.041,1.041,0,0,0,.7,1.774,53.056,53.056,0,0,0,6.063-.259,30.33,30.33,0,0,1,6.472-.1c3.53.652,5.9,4.525,6.415,8.016.506,3.417-.7,6.232-3.212,7.531C309.661,96.225,300.787,96.8,294.273,96.8Z" transform="translate(1250.867 1048.663)" fill="#231f20"/>
  </g>
</svg>
