<svg xmlns="http://www.w3.org/2000/svg" xmlns:xlink="http://www.w3.org/1999/xlink" width="178.58" height="249.45" viewBox="0 0 178.58 249.45">
  <defs>
    <clipPath id="clip-path">
      <rect id="Rectangle_1" data-name="Rectangle 1" width="178.58" height="249.45" fill="none"/>
    </clipPath>
  </defs>
  <g id="fr84" transform="translate(-1414 -1522)">
    <g id="Groupe_1" data-name="Groupe 1" transform="translate(1414 1522)" clip-path="url(#clip-path)">
      <path id="Tracé_1" data-name="Tracé 1" d="M8.5,0H170.08a8.5,8.5,0,0,1,8.5,8.5V240.95a8.5,8.5,0,0,1-8.5,8.5H8.5a8.5,8.5,0,0,1-8.5-8.5V8.5A8.5,8.5,0,0,1,8.5,0" fill="#fff"/>
      <path id="Tracé_2" data-name="Tracé 2" d="M171.5,58.26V10.09a3.013,3.013,0,0,0-3.01-3.01H10.09a3,3,0,0,0-3,3.01V239.35a3,3,0,0,0,3,3.01h158.4a3.013,3.013,0,0,0,3.01-3.01V91.4m0-.01V58.29M29.01,44.95a.076.076,0,0,1,.02-.04.142.142,0,0,0-.02.06" fill="#fceef4"/>
    </g>
    <path id="Tracé_35" data-name="Tracé 35" d="M417.071,187.848a1.206,1.206,0,0,1-.053-2.049c6.607-4.341,9.734-9.663,9.841-16.749.069-4.58-2.251-9.5-6.532-13.842-5.891-5.98-14.49-9.845-21.906-9.845l-.284,0c-11.821.153-19.745,3.351-23.55,9.507-5.546,8.97-.806,21.824,2.513,28.687a3.717,3.717,0,0,1-1.634,4.924c-5.217,2.745-16.562,10.811-9.234,26.393,4.964,10.557,16.476,17.114,30.041,17.114a42.3,42.3,0,0,0,9.5-1.1c11.011-2.547,20.875-12.557,22.458-22.79C429.479,200.035,425.515,192.841,417.071,187.848ZM384.929,209.02c.181-3.783,3.129-8.809,9.179-10.9a11.286,11.286,0,0,1,3.642-.566c5.125,0,10.63,2.819,10.741,8.045a10.82,10.82,0,0,1-2.984,8.01c-2.259,2.306-5.572,3.525-9.584,3.525l-.219,0a12.472,12.472,0,0,1-8.839-3.6A6.293,6.293,0,0,1,384.929,209.02Zm21.588-34.732a7.846,7.846,0,0,1-5.709,3.063c-.478.046-.966.069-1.453.069-4.369,0-8.385-1.878-9.14-4.277-.909-2.885.434-6.591,4.761-8.089a11.2,11.2,0,0,1,3.626-.582c1.711,0,7.4.448,8.79,6.215A4.509,4.509,0,0,1,406.518,174.288Z" transform="translate(1074.833 1453.622)" fill="#ef9f5e"/>
    <path id="Tracé_35_-_Contour" data-name="Tracé 35 - Contour" d="M398.422,146.042l-.277,0c-11.575.149-19.307,3.24-22.982,9.186-5.376,8.694-.712,21.3,2.547,28.036a4.391,4.391,0,0,1-1.928,5.819,26.828,26.828,0,0,0-4.559,3.014,19.928,19.928,0,0,0-4.5,5.116c-2.989,5.005-2.949,10.851.118,17.374,4.851,10.316,16.127,16.725,29.428,16.725a41.616,41.616,0,0,0,9.349-1.078,30.287,30.287,0,0,0,14.435-8.328A26.085,26.085,0,0,0,427.562,208a16.7,16.7,0,0,0-1.87-10.851,23.636,23.636,0,0,0-8.966-8.718,1.879,1.879,0,0,1-.929-1.58,1.847,1.847,0,0,1,.849-1.619,21.943,21.943,0,0,0,7.146-7.122,17.964,17.964,0,0,0,2.39-9.07c.066-4.4-2.185-9.141-6.337-13.356-5.77-5.857-14.179-9.642-21.422-9.643m.934,32.056a14.961,14.961,0,0,1-6.213-1.3,6.293,6.293,0,0,1-3.574-3.448c-1.007-3.2.45-7.294,5.185-8.933a11.888,11.888,0,0,1,3.848-.62c1.836,0,7.944.486,9.449,6.734a5.18,5.18,0,0,1-.98,4.153,8.52,8.52,0,0,1-6.2,3.344c-.5.048-1.008.073-1.519.073m-3.433,39.709-.226,0a13.16,13.16,0,0,1-9.325-3.81,6.956,6.956,0,0,1-2.119-5.007c.191-4,3.287-9.314,9.634-11.513a11.969,11.969,0,0,1,3.863-.6c5.446,0,11.3,3.052,11.418,8.708a11.483,11.483,0,0,1-3.177,8.5c-2.389,2.439-5.871,3.729-10.068,3.729m2.5-72.443c7.416,0,16.015,3.865,21.906,9.845,4.281,4.346,6.6,9.262,6.532,13.842-.107,7.085-3.234,12.407-9.841,16.749a1.206,1.206,0,0,0,.053,2.049c8.445,4.993,12.408,12.186,11.162,20.256-1.583,10.234-11.447,20.243-22.458,22.79a42.3,42.3,0,0,1-9.5,1.1c-13.565,0-25.077-6.557-30.041-17.114-7.327-15.582,4.017-23.648,9.234-26.393a3.717,3.717,0,0,0,1.634-4.924c-3.319-6.863-8.06-19.717-2.513-28.687,3.8-6.156,11.729-9.354,23.55-9.507Zm.935,32.056c.487,0,.976-.023,1.453-.069a7.846,7.846,0,0,0,5.709-3.063,4.509,4.509,0,0,0,.874-3.6c-1.389-5.767-7.079-6.215-8.79-6.215a11.2,11.2,0,0,0-3.626.582c-4.326,1.5-5.669,5.2-4.761,8.089C390.971,175.542,394.986,177.42,399.356,177.42Zm-3.433,39.709c4.012,0,7.326-1.219,9.584-3.525a10.82,10.82,0,0,0,2.984-8.01c-.11-5.225-5.616-8.045-10.741-8.045a11.286,11.286,0,0,0-3.642.566c-6.05,2.1-9,7.121-9.179,10.9a6.293,6.293,0,0,0,1.935,4.51,12.472,12.472,0,0,0,8.839,3.6Z" transform="translate(1074.833 1453.622)" fill="#231f20"/>
    <path id="Tracé_137" data-name="Tracé 137" d="M533.045,65.644a2.421,2.421,0,0,1-1.919-1.005c-1.185-1.838.142-6.371,1.549-11.17,2.452-8.375,5.5-18.8-.561-26.176a5.616,5.616,0,0,0-4.586-1.886c-8.3,0-23.7,11.332-26.715,14.256-8.678,8.429-11.445,12.872-17.138,23.42-3.462,6.415-4.151,11.2-2.108,14.622,2.127,3.564,7.1,5.3,15.2,5.3a99.384,99.384,0,0,0,11.156-.752,1.591,1.591,0,0,1,1.415.567,1.626,1.626,0,0,1,.35,1.359c-.646,3.5-1.678,12.211,2.688,17.457a10.949,10.949,0,0,0,8.873,3.788h.109c3.654-.023,6.268-.939,7.993-2.8,2.788-3.008,2.457-7.735,2.166-11.907-.369-5.289-.272-7.648,2.21-8.038,5.887-.927,9.381-3.865,9.349-7.857C543.038,70.388,538.727,66.445,533.045,65.644Zm-32.914-2.171c1.05-3.742,12-14.3,14.827-14.3.255,0,.482.335.628.617,1.3,2.508.854,9.774-2.138,13.993-1.152,1.625-6.938,4.933-10.93,4.933h0a2.807,2.807,0,0,1-2.35-.839C499.56,67.074,499.547,65.552,500.131,63.473Z" transform="translate(1026.062 1576.886)" fill="#ef9f5e"/>
    <path id="Tracé_137_-_Contour" data-name="Tracé 137 - Contour" d="M521.243,104.741h.108c3.456-.022,5.91-.867,7.5-2.583,2.588-2.792,2.269-7.364,1.987-11.4-.356-5.1-.412-8.252,2.781-8.755a13.487,13.487,0,0,0,6.564-2.628,5.708,5.708,0,0,0,2.214-4.554,7.568,7.568,0,0,0-2.676-5.452,12.7,12.7,0,0,0-6.769-3.055,3.168,3.168,0,0,1-2.394-1.309c-1.354-2.1-.046-6.561,1.469-11.732,1.21-4.132,2.581-8.815,2.887-13.316.346-5.093-.74-9.1-3.321-12.236a4.975,4.975,0,0,0-4.062-1.638c-4.318,0-10.535,3.226-14.99,5.933a78.561,78.561,0,0,0-11.252,8.131c-8.61,8.363-11.358,12.776-17.014,23.256-3.339,6.186-4.033,10.75-2.123,13.953,1.994,3.341,6.772,4.965,14.609,4.965h.006a98.754,98.754,0,0,0,11.081-.748,2.357,2.357,0,0,1,.262-.015,2.3,2.3,0,0,1,2.245,2.738c-.629,3.407-1.639,11.875,2.543,16.9a10.3,10.3,0,0,0,8.349,3.544M514.959,48.5c.48,0,.894.331,1.23.983.714,1.381.947,3.966.61,6.747a18.081,18.081,0,0,1-2.8,7.948,14,14,0,0,1-4.653,3.292,17.07,17.07,0,0,1-6.831,1.927,3.423,3.423,0,0,1-2.891-1.108c-.751-.993-.8-2.674-.148-5,.617-2.2,3.984-6.018,6.928-8.857,1.444-1.393,6.328-5.936,8.551-5.936m6.288,56.923a10.949,10.949,0,0,1-8.873-3.788c-4.366-5.246-3.334-13.956-2.688-17.457a1.626,1.626,0,0,0-.35-1.359,1.591,1.591,0,0,0-1.415-.567A99.384,99.384,0,0,1,496.764,83h-.006c-8.1,0-13.065-1.732-15.191-5.3-2.043-3.424-1.354-8.207,2.108-14.622,5.693-10.548,8.461-14.992,17.138-23.42,3.011-2.924,18.411-14.256,26.715-14.256a5.616,5.616,0,0,1,4.586,1.886c6.065,7.378,3.012,17.8.561,26.176-1.406,4.8-2.734,9.333-1.549,11.17a2.421,2.421,0,0,0,1.919,1.005c5.682.8,9.993,4.745,10.028,9.173.032,3.992-3.463,6.93-9.349,7.857-2.481.391-2.579,2.749-2.21,8.038.292,4.171.622,8.9-2.166,11.907-1.724,1.861-4.339,2.777-7.993,2.8Zm-6.288-56.245c-2.829,0-13.777,10.558-14.827,14.3-.585,2.079-.571,3.6.036,4.4a2.807,2.807,0,0,0,2.35.839h0c3.992,0,9.778-3.308,10.93-4.933,2.992-4.219,3.434-11.485,2.138-13.993C515.441,49.508,515.214,49.174,514.959,49.174Z" transform="translate(1026.062 1576.886)" fill="#231f20"/>
  </g>
</svg>
