<svg xmlns="http://www.w3.org/2000/svg" xmlns:xlink="http://www.w3.org/1999/xlink" width="178.58" height="249.45" viewBox="0 0 178.58 249.45">
  <defs>
    <clipPath id="clip-path">
      <rect id="Rectangle_1" data-name="Rectangle 1" width="178.58" height="249.45" fill="none"/>
    </clipPath>
  </defs>
  <g id="fr89" transform="translate(-1414 -2872)">
    <g id="Groupe_1" data-name="Groupe 1" transform="translate(1414 2872)" clip-path="url(#clip-path)">
      <path id="Tracé_1" data-name="Tracé 1" d="M8.5,0H170.08a8.5,8.5,0,0,1,8.5,8.5V240.95a8.5,8.5,0,0,1-8.5,8.5H8.5a8.5,8.5,0,0,1-8.5-8.5V8.5A8.5,8.5,0,0,1,8.5,0" fill="#fff"/>
      <path id="Tracé_2" data-name="Tracé 2" d="M171.5,58.26V10.09a3.013,3.013,0,0,0-3.01-3.01H10.09a3,3,0,0,0-3,3.01V239.35a3,3,0,0,0,3,3.01h158.4a3.013,3.013,0,0,0,3.01-3.01V91.4m0-.01V58.29M29.01,44.95a.076.076,0,0,1,.02-.04.142.142,0,0,0-.02.06" fill="#fceef4"/>
    </g>
    <path id="Tracé_35" data-name="Tracé 35" d="M417.071,187.848a1.206,1.206,0,0,1-.053-2.049c6.607-4.341,9.734-9.663,9.841-16.749.069-4.58-2.251-9.5-6.532-13.842-5.891-5.98-14.49-9.845-21.906-9.845l-.284,0c-11.821.153-19.745,3.351-23.55,9.507-5.546,8.97-.806,21.824,2.513,28.687a3.717,3.717,0,0,1-1.634,4.924c-5.217,2.745-16.562,10.811-9.234,26.393,4.964,10.557,16.476,17.114,30.041,17.114a42.3,42.3,0,0,0,9.5-1.1c11.011-2.547,20.875-12.557,22.458-22.79C429.479,200.035,425.515,192.841,417.071,187.848ZM384.929,209.02c.181-3.783,3.129-8.809,9.179-10.9a11.286,11.286,0,0,1,3.642-.566c5.125,0,10.63,2.819,10.741,8.045a10.82,10.82,0,0,1-2.984,8.01c-2.259,2.306-5.572,3.525-9.584,3.525l-.219,0a12.472,12.472,0,0,1-8.839-3.6A6.293,6.293,0,0,1,384.929,209.02Zm21.588-34.732a7.846,7.846,0,0,1-5.709,3.063c-.478.046-.966.069-1.453.069-4.369,0-8.385-1.878-9.14-4.277-.909-2.885.434-6.591,4.761-8.089a11.2,11.2,0,0,1,3.626-.582c1.711,0,7.4.448,8.79,6.215A4.509,4.509,0,0,1,406.518,174.288Z" transform="translate(1074.833 2803.622)" fill="#ef9f5e"/>
    <path id="Tracé_35_-_Contour" data-name="Tracé 35 - Contour" d="M398.422,146.042l-.277,0c-11.575.149-19.307,3.24-22.982,9.186-5.376,8.694-.712,21.3,2.547,28.036a4.391,4.391,0,0,1-1.928,5.819,26.828,26.828,0,0,0-4.559,3.014,19.928,19.928,0,0,0-4.5,5.116c-2.989,5.005-2.949,10.851.118,17.374,4.851,10.316,16.127,16.725,29.428,16.725a41.616,41.616,0,0,0,9.349-1.078,30.287,30.287,0,0,0,14.435-8.328A26.085,26.085,0,0,0,427.562,208a16.7,16.7,0,0,0-1.87-10.851,23.636,23.636,0,0,0-8.966-8.718,1.879,1.879,0,0,1-.929-1.58,1.847,1.847,0,0,1,.849-1.619,21.943,21.943,0,0,0,7.146-7.122,17.964,17.964,0,0,0,2.39-9.07c.066-4.4-2.185-9.141-6.337-13.356-5.77-5.857-14.179-9.642-21.422-9.643m.934,32.056a14.961,14.961,0,0,1-6.213-1.3,6.293,6.293,0,0,1-3.574-3.448c-1.007-3.2.45-7.294,5.185-8.933a11.888,11.888,0,0,1,3.848-.62c1.836,0,7.944.486,9.449,6.734a5.18,5.18,0,0,1-.98,4.153,8.52,8.52,0,0,1-6.2,3.344c-.5.048-1.008.073-1.519.073m-3.433,39.709-.226,0a13.16,13.16,0,0,1-9.325-3.81,6.956,6.956,0,0,1-2.119-5.007c.191-4,3.287-9.314,9.634-11.513a11.969,11.969,0,0,1,3.863-.6c5.446,0,11.3,3.052,11.418,8.708a11.483,11.483,0,0,1-3.177,8.5c-2.389,2.439-5.871,3.729-10.068,3.729m2.5-72.443c7.416,0,16.015,3.865,21.906,9.845,4.281,4.346,6.6,9.262,6.532,13.842-.107,7.085-3.234,12.407-9.841,16.749a1.206,1.206,0,0,0,.053,2.049c8.445,4.993,12.408,12.186,11.162,20.256-1.583,10.234-11.447,20.243-22.458,22.79a42.3,42.3,0,0,1-9.5,1.1c-13.565,0-25.077-6.557-30.041-17.114-7.327-15.582,4.017-23.648,9.234-26.393a3.717,3.717,0,0,0,1.634-4.924c-3.319-6.863-8.06-19.717-2.513-28.687,3.8-6.156,11.729-9.354,23.55-9.507Zm.935,32.056c.487,0,.976-.023,1.453-.069a7.846,7.846,0,0,0,5.709-3.063,4.509,4.509,0,0,0,.874-3.6c-1.389-5.767-7.079-6.215-8.79-6.215a11.2,11.2,0,0,0-3.626.582c-4.326,1.5-5.669,5.2-4.761,8.089C390.971,175.542,394.986,177.42,399.356,177.42Zm-3.433,39.709c4.012,0,7.326-1.219,9.584-3.525a10.82,10.82,0,0,0,2.984-8.01c-.11-5.225-5.616-8.045-10.741-8.045a11.286,11.286,0,0,0-3.642.566c-6.05,2.1-9,7.121-9.179,10.9a6.293,6.293,0,0,0,1.935,4.51,12.472,12.472,0,0,0,8.839,3.6Z" transform="translate(1074.833 2803.622)" fill="#231f20"/>
    <path id="Tracé_142" data-name="Tracé 142" d="M535.673,157.659c-4.149-5.254-11.383-8.148-20.368-8.148-7.148,0-14.426,1.893-19.468,5.064-9.992,6.284-17.789,27.141-11.547,37.547,4.27,7.118,13.006,8.031,20.14,8.031q.906,0,1.78-.018l.28,0c3.67,0,6.6,1.212,6.783,2.028.065.287-.465,1.363-3.65,2.881a50.338,50.338,0,0,1-6.051,1.814c-9.152,2.433-21.687,5.765-20.608,11.919,1.014,5.786,10.322,7,17.953,7,1.852,0,3.392-.073,4.356-.135,14.762-.941,25.84-7.62,29.636-17.866C543.338,185.027,543.6,167.7,535.673,157.659Zm-20.718,15.986c-1.4,4.167-4.862,7.077-8.409,7.077a6.153,6.153,0,0,1-1.969-.321c-4.206-1.417-7.711-5.044-6.057-9.952,1.5-4.467,6.752-8.689,10.8-8.689a4.6,4.6,0,0,1,1.465.224C514.795,163.337,516.667,168.568,514.955,173.645Z" transform="translate(1030.857 2809.082)" fill="#ef9f5e"/>
    <path id="Tracé_142_-_Contour" data-name="Tracé 142 - Contour" d="M515.305,150.189c-7.027,0-14.17,1.854-19.107,4.96-4.668,2.936-9.105,9.4-11.579,16.867a35.1,35.1,0,0,0-1.886,10.735,17.279,17.279,0,0,0,2.138,9.023c4.1,6.826,12.6,7.7,19.558,7.7.569,0,1.163-.006,1.767-.017h.005l.288,0a15.976,15.976,0,0,1,4.913.743c1.047.349,2.336.947,2.531,1.814.224.991-1.242,2.318-4.02,3.643a49.99,49.99,0,0,1-6.169,1.857,92.106,92.106,0,0,0-14.031,4.525,15.911,15.911,0,0,0-4.784,3.092,3.957,3.957,0,0,0-1.3,3.53c.408,2.328,2.435,4.057,6.023,5.138a40.231,40.231,0,0,0,11.262,1.3c1.833,0,3.357-.073,4.313-.134,14.486-.923,25.344-7.437,29.044-17.425,4.167-11.248,6.345-21.207,6.473-29.6.127-8.309-1.76-14.991-5.606-19.862-4.017-5.088-11.062-7.89-19.836-7.89M506.547,181.4a6.828,6.828,0,0,1-2.186-.356,11.082,11.082,0,0,1-5.564-3.919,7.422,7.422,0,0,1-.919-6.891,14.486,14.486,0,0,1,4.663-6.331,11.461,11.461,0,0,1,6.776-2.819,5.274,5.274,0,0,1,1.681.26,7.588,7.588,0,0,1,4.654,4.847,11.757,11.757,0,0,1-.056,7.672c-1.5,4.439-5.217,7.539-9.051,7.539m8.758-31.889c8.985,0,16.219,2.893,20.368,8.148,7.928,10.039,7.664,27.368-.763,50.116-3.8,10.246-14.874,16.925-29.636,17.866-.965.061-2.5.135-4.356.135-7.631,0-16.939-1.215-17.953-7-1.078-6.154,11.456-9.487,20.609-11.919a50.338,50.338,0,0,0,6.051-1.814c3.186-1.518,3.715-2.595,3.65-2.881-.184-.816-3.114-2.028-6.783-2.028l-.28,0q-.874.017-1.78.018c-7.133,0-15.869-.913-20.14-8.031-6.243-10.406,1.555-31.263,11.547-37.547C500.879,151.4,508.157,149.511,515.305,149.511Zm-8.758,31.211c3.547,0,7-2.91,8.409-7.077,1.711-5.077-.161-10.308-4.173-11.66a4.6,4.6,0,0,0-1.465-.224c-4.045,0-9.293,4.222-10.8,8.689-1.654,4.908,1.85,8.535,6.057,9.952A6.153,6.153,0,0,0,506.547,180.722Z" transform="translate(1030.857 2809.082)" fill="#231f20"/>
  </g>
</svg>
