<svg xmlns="http://www.w3.org/2000/svg" xmlns:xlink="http://www.w3.org/1999/xlink" width="178.58" height="249.45" viewBox="0 0 178.58 249.45">
  <defs>
    <clipPath id="clip-path">
      <rect id="Rectangle_1" data-name="Rectangle 1" width="178.58" height="249.45" fill="none"/>
    </clipPath>
  </defs>
  <g id="fr90" transform="translate(-1812 -2602)">
    <g id="Groupe_1" data-name="Groupe 1" transform="translate(1812 2602)" clip-path="url(#clip-path)">
      <path id="Tracé_1" data-name="Tracé 1" d="M8.5,0H170.08a8.5,8.5,0,0,1,8.5,8.5V240.95a8.5,8.5,0,0,1-8.5,8.5H8.5a8.5,8.5,0,0,1-8.5-8.5V8.5A8.5,8.5,0,0,1,8.5,0" fill="#fff"/>
      <path id="Tracé_2" data-name="Tracé 2" d="M171.5,58.26V10.09a3.013,3.013,0,0,0-3.01-3.01H10.09a3,3,0,0,0-3,3.01V239.35a3,3,0,0,0,3,3.01h158.4a3.013,3.013,0,0,0,3.01-3.01V91.4m0-.01V58.29M29.01,44.95a.076.076,0,0,1,.02-.04.142.142,0,0,0-.02.06" fill="#fceef4"/>
    </g>
    <path id="nb2" d="M114.268,35.628c-6.91-7.618-15.582-11.814-24.416-11.814a29.873,29.873,0,0,0-21.116,9.157C62.42,39.3,58.1,48.4,56.233,59.294,54.987,66.571,57.776,82,66.252,92.054c5.164,6.123,11.52,9.228,18.891,9.229h0c.583,0,1.181-.02,1.776-.06,14.888-1,26.118-9.065,31.62-22.708C124.42,63.945,122.5,44.706,114.268,35.628Zm-9.859,39.206c-1.548,6.379-8.96,13.125-14.419,13.125a5.753,5.753,0,0,1-1.354-.155,9.266,9.266,0,0,1-6.117-5.326,14.853,14.853,0,0,1-.812-9.8c1.617-6.66,9.672-14.252,15.122-14.252A4.985,4.985,0,0,1,98,58.563c2.53.614,4.6,2.683,5.824,5.827A17.842,17.842,0,0,1,104.409,74.834Z" transform="translate(1852.34 2664.177)" fill="#ef9f5e"/>
    <path id="nb2_-_Contour" data-name="nb2 - Contour" d="M89.852,24.492a29.2,29.2,0,0,0-20.636,8.958C63,39.678,58.741,48.654,56.9,59.409a27.205,27.205,0,0,0-.144,6.6,49.506,49.506,0,0,0,1.5,8.447,50.61,50.61,0,0,0,3.294,8.964,38.887,38.887,0,0,0,5.224,8.193C71.8,97.58,77.981,100.6,85.145,100.6c.567,0,1.15-.02,1.731-.058a36.128,36.128,0,0,0,18.98-6.488,35.2,35.2,0,0,0,12.058-15.8,46.481,46.481,0,0,0,2.926-11.4,51.772,51.772,0,0,0,.183-11.777,42.416,42.416,0,0,0-2.421-10.73,25.673,25.673,0,0,0-4.836-8.265c-6.78-7.475-15.273-11.591-23.914-11.591m.139,64.145a6.433,6.433,0,0,1-1.514-.174,9.929,9.929,0,0,1-6.57-5.7,15.53,15.53,0,0,1-.857-10.246,21.868,21.868,0,0,1,6.317-9.956c3.245-3.059,6.695-4.813,9.463-4.813a5.66,5.66,0,0,1,1.334.153c2.751.668,4.987,2.884,6.3,6.239a18.533,18.533,0,0,1,.609,10.851,19.493,19.493,0,0,1-5.945,9.3c-3.035,2.762-6.364,4.347-9.132,4.347m-.139-64.822c8.834,0,17.506,4.2,24.416,11.814,8.235,9.078,10.152,28.317,4.274,42.887-5.5,13.642-16.733,21.706-31.62,22.708-.6.04-1.193.06-1.776.06h0c-7.372,0-13.728-3.106-18.891-9.229C57.776,82,54.987,66.571,56.233,59.294c1.864-10.893,6.188-20,12.5-26.324A29.873,29.873,0,0,1,89.852,23.814Zm.139,64.145c5.459,0,12.871-6.746,14.419-13.125a17.842,17.842,0,0,0-.582-10.445c-1.226-3.144-3.294-5.213-5.824-5.827a4.985,4.985,0,0,0-1.175-.134c-5.45,0-13.505,7.592-15.122,14.252a14.853,14.853,0,0,0,.812,9.8A9.266,9.266,0,0,0,88.636,87.8,5.753,5.753,0,0,0,89.99,87.959Z" transform="translate(1852.34 2664.177)" fill="#231f20"/>
    <path id="Tracé_150" data-name="Tracé 150" d="M535.673,157.659c-4.149-5.254-11.383-8.148-20.368-8.148-7.148,0-14.426,1.893-19.468,5.064-9.992,6.284-17.789,27.141-11.547,37.547,4.27,7.118,13.006,8.031,20.14,8.031q.906,0,1.78-.018l.28,0c3.67,0,6.6,1.212,6.783,2.028.065.287-.465,1.363-3.65,2.881a50.338,50.338,0,0,1-6.051,1.814c-9.152,2.433-21.687,5.765-20.608,11.919,1.014,5.786,10.322,7,17.953,7,1.852,0,3.392-.073,4.356-.135,14.762-.941,25.84-7.62,29.636-17.866C543.338,185.027,543.6,167.7,535.673,157.659Zm-20.718,15.986c-1.4,4.167-4.862,7.077-8.409,7.077a6.153,6.153,0,0,1-1.969-.321c-4.206-1.417-7.711-5.044-6.057-9.952,1.5-4.467,6.752-8.689,10.8-8.689a4.6,4.6,0,0,1,1.465.224C514.795,163.337,516.667,168.568,514.955,173.645Z" transform="translate(1359.859 2539.077)" fill="#ef9f5e"/>
    <path id="Tracé_150_-_Contour" data-name="Tracé 150 - Contour" d="M515.305,150.189c-7.027,0-14.17,1.854-19.107,4.96-4.668,2.936-9.105,9.4-11.579,16.867a35.1,35.1,0,0,0-1.886,10.735,17.279,17.279,0,0,0,2.138,9.023c4.1,6.826,12.6,7.7,19.558,7.7.569,0,1.163-.006,1.767-.017h.005l.288,0a15.976,15.976,0,0,1,4.913.743c1.047.349,2.336.947,2.531,1.814.224.991-1.242,2.318-4.02,3.643a49.99,49.99,0,0,1-6.169,1.857,92.106,92.106,0,0,0-14.031,4.525,15.911,15.911,0,0,0-4.784,3.092,3.957,3.957,0,0,0-1.3,3.53c.408,2.328,2.435,4.057,6.023,5.138a40.231,40.231,0,0,0,11.262,1.3c1.833,0,3.357-.073,4.313-.134,14.486-.923,25.344-7.437,29.044-17.425,4.167-11.248,6.345-21.207,6.473-29.6.127-8.309-1.76-14.991-5.606-19.862-4.017-5.088-11.062-7.89-19.836-7.89M506.547,181.4a6.828,6.828,0,0,1-2.186-.356,11.082,11.082,0,0,1-5.564-3.919,7.422,7.422,0,0,1-.919-6.891,14.486,14.486,0,0,1,4.663-6.331,11.461,11.461,0,0,1,6.776-2.819,5.274,5.274,0,0,1,1.681.26,7.588,7.588,0,0,1,4.654,4.847,11.757,11.757,0,0,1-.056,7.672c-1.5,4.439-5.217,7.539-9.051,7.539m8.758-31.889c8.985,0,16.219,2.893,20.368,8.148,7.928,10.039,7.664,27.368-.763,50.116-3.8,10.246-14.874,16.925-29.636,17.866-.965.061-2.5.135-4.356.135-7.631,0-16.939-1.215-17.953-7-1.078-6.154,11.456-9.487,20.609-11.919a50.338,50.338,0,0,0,6.051-1.814c3.186-1.518,3.715-2.595,3.65-2.881-.184-.816-3.114-2.028-6.783-2.028l-.28,0q-.874.017-1.78.018c-7.133,0-15.869-.913-20.14-8.031-6.243-10.406,1.555-31.263,11.547-37.547C500.879,151.4,508.157,149.511,515.305,149.511Zm-8.758,31.211c3.547,0,7-2.91,8.409-7.077,1.711-5.077-.161-10.308-4.173-11.66a4.6,4.6,0,0,0-1.465-.224c-4.045,0-9.293,4.222-10.8,8.689-1.654,4.908,1.85,8.535,6.057,9.952A6.153,6.153,0,0,0,506.547,180.722Z" transform="translate(1359.859 2539.077)" fill="#231f20"/>
  </g>
</svg>
