<svg xmlns="http://www.w3.org/2000/svg" xmlns:xlink="http://www.w3.org/1999/xlink" width="178.58" height="249.45" viewBox="0 0 178.58 249.45">
  <defs>
    <clipPath id="clip-path">
      <rect id="Rectangle_1" data-name="Rectangle 1" width="178.58" height="249.45" fill="none"/>
    </clipPath>
  </defs>
  <g id="fr92" transform="translate(-1613 -982)">
    <g id="Groupe_1" data-name="Groupe 1" transform="translate(1613 982)" clip-path="url(#clip-path)">
      <path id="Tracé_1" data-name="Tracé 1" d="M8.5,0H170.08a8.5,8.5,0,0,1,8.5,8.5V240.95a8.5,8.5,0,0,1-8.5,8.5H8.5a8.5,8.5,0,0,1-8.5-8.5V8.5A8.5,8.5,0,0,1,8.5,0" fill="#fff"/>
      <path id="Tracé_2" data-name="Tracé 2" d="M171.5,58.26V10.09a3.013,3.013,0,0,0-3.01-3.01H10.09a3,3,0,0,0-3,3.01V239.35a3,3,0,0,0,3,3.01h158.4a3.013,3.013,0,0,0,3.01-3.01V91.4m0-.01V58.29M29.01,44.95a.076.076,0,0,1,.02-.04.142.142,0,0,0-.02.06" fill="#fceef4"/>
    </g>
    <path id="Tracé_36" data-name="Tracé 36" d="M535.673,157.659c-4.149-5.254-11.383-8.148-20.368-8.148-7.148,0-14.426,1.893-19.468,5.064-9.992,6.284-17.789,27.141-11.547,37.547,4.27,7.118,13.006,8.031,20.14,8.031q.906,0,1.78-.018l.28,0c3.67,0,6.6,1.212,6.783,2.028.065.287-.465,1.363-3.65,2.881a50.338,50.338,0,0,1-6.051,1.814c-9.152,2.433-21.687,5.765-20.608,11.919,1.014,5.786,10.322,7,17.953,7,1.852,0,3.392-.073,4.356-.135,14.762-.941,25.84-7.62,29.636-17.866C543.338,185.027,543.6,167.7,535.673,157.659Zm-20.718,15.986c-1.4,4.167-4.862,7.077-8.409,7.077a6.153,6.153,0,0,1-1.969-.321c-4.206-1.417-7.711-5.044-6.057-9.952,1.5-4.467,6.752-8.689,10.8-8.689a4.6,4.6,0,0,1,1.465.224C514.795,163.337,516.667,168.568,514.955,173.645Z" transform="translate(1160.859 919.837)" fill="#ef9f5e"/>
    <path id="Tracé_36_-_Contour" data-name="Tracé 36 - Contour" d="M515.305,150.189c-7.027,0-14.17,1.854-19.107,4.96-4.668,2.936-9.105,9.4-11.579,16.867a35.1,35.1,0,0,0-1.886,10.735,17.279,17.279,0,0,0,2.138,9.023c4.1,6.826,12.6,7.7,19.558,7.7.569,0,1.163-.006,1.767-.017h.005l.288,0a15.976,15.976,0,0,1,4.913.743c1.047.349,2.336.947,2.531,1.814.224.991-1.242,2.318-4.02,3.643a49.99,49.99,0,0,1-6.169,1.857,92.106,92.106,0,0,0-14.031,4.525,15.911,15.911,0,0,0-4.784,3.092,3.957,3.957,0,0,0-1.3,3.53c.408,2.328,2.435,4.057,6.023,5.138a40.231,40.231,0,0,0,11.262,1.3c1.833,0,3.357-.073,4.313-.134,14.486-.923,25.344-7.437,29.044-17.425,4.167-11.248,6.345-21.207,6.473-29.6.127-8.309-1.76-14.991-5.606-19.862-4.017-5.088-11.062-7.89-19.836-7.89M506.547,181.4a6.828,6.828,0,0,1-2.186-.356,11.082,11.082,0,0,1-5.564-3.919,7.422,7.422,0,0,1-.919-6.891,14.486,14.486,0,0,1,4.663-6.331,11.461,11.461,0,0,1,6.776-2.819,5.274,5.274,0,0,1,1.681.26,7.588,7.588,0,0,1,4.654,4.847,11.757,11.757,0,0,1-.056,7.672c-1.5,4.439-5.217,7.539-9.051,7.539m8.758-31.889c8.985,0,16.219,2.893,20.368,8.148,7.928,10.039,7.664,27.368-.763,50.116-3.8,10.246-14.874,16.925-29.636,17.866-.965.061-2.5.135-4.356.135-7.631,0-16.939-1.215-17.953-7-1.078-6.154,11.456-9.487,20.609-11.919a50.338,50.338,0,0,0,6.051-1.814c3.186-1.518,3.715-2.595,3.65-2.881-.184-.816-3.114-2.028-6.783-2.028l-.28,0q-.874.017-1.78.018c-7.133,0-15.869-.913-20.14-8.031-6.243-10.406,1.555-31.263,11.547-37.547C500.879,151.4,508.157,149.511,515.305,149.511Zm-8.758,31.211c3.547,0,7-2.91,8.409-7.077,1.711-5.077-.161-10.308-4.173-11.66a4.6,4.6,0,0,0-1.465-.224c-4.045,0-9.293,4.222-10.8,8.689-1.654,4.908,1.85,8.535,6.057,9.952A6.153,6.153,0,0,0,506.547,180.722Z" transform="translate(1160.859 919.837)" fill="#231f20"/>
    <path id="_2" data-name="2" d="M318.155,85.968c-.516-3.49-2.885-7.364-6.415-8.016a30.33,30.33,0,0,0-6.472.1,53.063,53.063,0,0,1-6.062.259,1.041,1.041,0,0,1-.7-1.774c4.452-4.469,12.66-13.506,13.53-14.671,7.592-10.165,8.728-26.832-1.685-35.443-5.452-4.509-13.329-7.094-21.612-7.094-11.8,0-24.572,5.709-26.511,18.465a7.4,7.4,0,0,0,1.728,6.106,11.158,11.158,0,0,0,8.448,3.507,12.307,12.307,0,0,0,7.768-2.689c1.284-1.047,4.645-2.13,8.046-2.13,2.389,0,6.46.542,6.877,4.168.489,4.265-2.484,8.389-5.36,12.377q-.481.667-.954,1.33a58.2,58.2,0,0,1-5.6,5.514c-10.127,9.327-19.07,18.2-17.289,24.272.731,2.491,3.185,4.119,7.294,4.838a131.566,131.566,0,0,0,21.09,1.71c6.514,0,15.389-.572,20.67-3.3C317.46,92.2,318.661,89.385,318.155,85.968Z" transform="translate(1450.867 1048.663)" fill="#ef9f5e"/>
    <path id="_2_-_Contour" data-name="2 - Contour" d="M294.273,96.119c6.439,0,15.2-.559,20.359-3.222,2.248-1.16,3.314-3.714,2.853-6.83a10.974,10.974,0,0,0-1.952-4.768,6.514,6.514,0,0,0-3.916-2.68,10.905,10.905,0,0,0-1.878-.128c-1.289,0-2.885.113-4.417.236l-.033,0c-1.718.136-3.494.277-5.122.277-.346,0-.679-.007-.99-.019a1.719,1.719,0,0,1-1.151-2.93c4.436-4.453,12.6-13.443,13.467-14.6a29.258,29.258,0,0,0,4.3-8.418,30.143,30.143,0,0,0,1.472-9.473,24.014,24.014,0,0,0-1.817-9.141,19.389,19.389,0,0,0-5.531-7.483c-5.332-4.41-13.052-6.939-21.18-6.939-11.509,0-23.962,5.531-25.841,17.889a6.742,6.742,0,0,0,1.572,5.562,10.477,10.477,0,0,0,7.934,3.271,11.628,11.628,0,0,0,7.34-2.536c1.357-1.107,4.788-2.283,8.474-2.283a11.7,11.7,0,0,1,4.446.779,4.811,4.811,0,0,1,3.1,3.989c.519,4.526-2.533,8.758-5.484,12.851-.307.425-.633.877-.951,1.326a56.256,56.256,0,0,1-5.68,5.6l-.017.016c-5.6,5.155-9.957,9.387-13.038,13.28-3.477,4.394-4.8,7.764-4.06,10.3.652,2.223,2.927,3.69,6.76,4.362a130.826,130.826,0,0,0,20.973,1.7m0,.678a131.567,131.567,0,0,1-21.09-1.71c-4.109-.72-6.563-2.347-7.294-4.838-1.781-6.07,7.161-14.945,17.289-24.272a58.2,58.2,0,0,0,5.6-5.514q.472-.663.954-1.33c2.876-3.989,5.85-8.113,5.36-12.377-.417-3.626-4.488-4.168-6.877-4.168-3.4,0-6.762,1.083-8.046,2.13a12.307,12.307,0,0,1-7.768,2.689,11.158,11.158,0,0,1-8.448-3.507,7.4,7.4,0,0,1-1.728-6.106c1.939-12.756,14.713-18.465,26.511-18.465,8.283,0,16.159,2.585,21.612,7.094,10.412,8.611,9.277,25.278,1.685,35.443-.87,1.165-9.078,10.2-13.53,14.671a1.041,1.041,0,0,0,.7,1.774,53.056,53.056,0,0,0,6.063-.259,30.33,30.33,0,0,1,6.472-.1c3.53.652,5.9,4.525,6.415,8.016.506,3.417-.7,6.232-3.212,7.531C309.661,96.225,300.787,96.8,294.273,96.8Z" transform="translate(1450.867 1048.663)" fill="#231f20"/>
  </g>
</svg>
