<svg xmlns="http://www.w3.org/2000/svg" width="178.58" height="249.45" viewBox="0 0 178.58 249.45">
  <g id="fr-baleine" transform="translate(-1669 -106)">
    <g id="Groupe_250" data-name="Groupe 250" transform="translate(3.347 59.392)">
      <g id="Groupe_249" data-name="Groupe 249">
        <rect id="bg" width="178.58" height="249.45" rx="8.5" transform="translate(1665.653 46.608)" fill="#fff"/>
        <path id="Tracé_159" data-name="Tracé 159" d="M1837.153,104.868V56.7a3.012,3.012,0,0,0-3.01-3.01h-158.4a3,3,0,0,0-3,3.01v229.26a3,3,0,0,0,3,3.009h158.4a3.012,3.012,0,0,0,3.01-3.009V138.008m0-.01V104.9m-142.49-13.34a.072.072,0,0,1,.02-.04.138.138,0,0,0-.02.06" fill="#fceef4"/>
      </g>
    </g>
    <g id="Groupe_282" data-name="Groupe 282" transform="translate(3 62)">
      <path id="Tracé_187" data-name="Tracé 187" d="M1825.9,192.393c-3.379-2.926-5.492-6.245-9.808-8.058a15.273,15.273,0,0,0-8.887-.994c1.663-1.691.858-5.586.248-8.113a9.64,9.64,0,0,0-.328-1.357,2.034,2.034,0,0,0-.16-.365c-.011-.038-.015-.075-.026-.113a15.746,15.746,0,0,0-2.767-5.484,15,15,0,0,0-4.518-5.977.593.593,0,0,0-.553-.068.636.636,0,0,0-.621.515c-.225.82-.395,1.655-.538,2.5a1.911,1.911,0,0,0-.168,1.111,56.14,56.14,0,0,0-.293,8.852c.1,3.485-.118,7.714.97,11.12-2.525,1.765-4.721,3.425-7.892,4.1a13.65,13.65,0,0,1-11.313-3.076c-4-3.629-5.274-10.028-6.526-15.423-1.139-13.719-6.421-27.572-17.059-35.722a17.512,17.512,0,0,0-4.689-3.794,45.059,45.059,0,0,0-5.92-2.791,37.889,37.889,0,0,0-6.658-2.327c-7.459-1.858-18.055-2.632-25.17,1.417a1.1,1.1,0,0,0-.322.027c-6.308,1.693-11.972,5.935-16.554,10.5a29.918,29.918,0,0,0-5.666,7.9l-.015.018a27.178,27.178,0,0,0-2.863,5.31,1.292,1.292,0,0,0-.572.656,34.393,34.393,0,0,0-2.074,6.661,39.592,39.592,0,0,0-.866,7.141c-.71,3.679-.09,7.79.368,11.416.338,2.672.773,4.57,3.443,5.517,2.858,1.014,6.3.667,9.375.355a22.422,22.422,0,0,0,6.756-.221,26.205,26.205,0,0,0,7.642-.648c5.012.248,10.464-1.744,14.879-3.251,2.685-.916,5.343-1.909,7.986-2.943.36-.112.715-.234,1.073-.35a21.8,21.8,0,0,1-7.378,5.162c-2.64,1.1-5.346,2.044-8.079,2.879a101.346,101.346,0,0,1-17.933,3.728c-1.68.2-3.6.5-5.6.754-1.772-.67-3.657-.211-5.541-.046a43.946,43.946,0,0,1-5.133-.028c-.336-.091-.663-.193-.98-.311a.428.428,0,0,0-.553.389.557.557,0,0,0-.025.251c.783,6.669,5.086,13.468,9.065,18.688,4.213,5.527,9.915,8.839,16.116,11.744a70.691,70.691,0,0,0,21.342,6c6.84.925,14.564,1.947,21.344-.1,4.074.766,8.872-1.311,12.617-2.484a55.143,55.143,0,0,0,15.675-7.57c7.744-5.51,16.757-13.306,20.748-22.373,1.606,1.65,4.367,2.3,6.661,2.826,5.589,1.277,11.387.722,16.942-.5A1.837,1.837,0,0,0,1825.9,192.393Z" fill="#b1d8ef"/>
      <path id="Tracé_188" data-name="Tracé 188" d="M1714.214,119.614a4.3,4.3,0,0,0-.6-2.678,5.183,5.183,0,0,0-3.017-2.416,1.02,1.02,0,0,0-1.159.335c-.016,0-.03,0-.046,0a1.163,1.163,0,0,0-1.1.843,3.276,3.276,0,0,0,1.577,3.452c.558.416,1.166.769,1.753,1.142a3.178,3.178,0,0,0,.873.4,1.036,1.036,0,0,0,1.5.141A1.072,1.072,0,0,0,1714.214,119.614Z" fill="#b1d8ef"/>
      <path id="Tracé_189" data-name="Tracé 189" d="M1722.783,117.306a4.128,4.128,0,0,1,.168-1.525,7.932,7.932,0,0,0,.033-1.86,3.61,3.61,0,0,0-1.4-2.57,1.406,1.406,0,0,0-1.689-.566,1.363,1.363,0,0,0-1.18,1.4,2.506,2.506,0,0,0,.4,2.463,6.718,6.718,0,0,0,1.073,1.059c.011.021.025.045.034.065a1.194,1.194,0,0,0,.536.564l.011.014a16.3,16.3,0,0,1,.783,1.762.73.73,0,1,0,1.339-.567C1722.848,117.469,1722.82,117.384,1722.783,117.306Z" fill="#b1d8ef"/>
      <path id="Tracé_190" data-name="Tracé 190" d="M1733.172,114.3a1.224,1.224,0,0,0-2.208-.29,13.951,13.951,0,0,0-.772,1.942,7.815,7.815,0,0,0-.221.949,7.112,7.112,0,0,1-.64,1.074.57.57,0,0,0,.772.775c.45-.215.7-.637,1.117-.885a3.657,3.657,0,0,0,1.077-.724A3.029,3.029,0,0,0,1733.172,114.3Z" fill="#b1d8ef"/>
      <g id="Groupe_281" data-name="Groupe 281">
        <path id="Tracé_191" data-name="Tracé 191" d="M1827.291,194.94a18.863,18.863,0,0,0-18.829-12.384c2.17-8.641-3.371-16.366-9.123-22.3a.651.651,0,0,0-1.079.286,44.62,44.62,0,0,0-.563,23.627c.261,1.14.291,1.368-.572,2.185a12.114,12.114,0,0,1-2.193,1.644,13.193,13.193,0,0,1-5.487,1.732,12.185,12.185,0,0,1-9.917-3.645c-6.032-6.188-5.609-15.631-6.932-23.576a45.774,45.774,0,0,0-40.276-37.709,45.923,45.923,0,0,0-37.361,14.217,46.691,46.691,0,0,0-10.506,42.735.3.3,0,0,0,.051.219c.022.081.036.164.058.245a.61.61,0,0,0,.767.439c2.6,1.855,5.793,2.054,8.954,2.1a109.554,109.554,0,0,0,14.6-.78,112.987,112.987,0,0,0,24.367-5.745c-6.138,4.48-14.31,6.523-21.526,8.019a94.945,94.945,0,0,1-27.281,1.573.6.6,0,0,0-.569.749l.024.12c.1.018.2.047.3.07,2.026,19.056,19.673,31.651,36.974,35.806,19.534,4.691,42.539,3,59.522-8.429a75.962,75.962,0,0,0,21.322-22.543c.055.056.113.107.165.165l.015-.02a29.211,29.211,0,0,0,24.623,2.049A.694.694,0,0,0,1827.291,194.94Zm-24.95-2.662a.592.592,0,0,0-.372-.076.628.628,0,0,0-.779.249,79.561,79.561,0,0,1-18.352,20.491,60.81,60.81,0,0,1-26.234,11.313,89.074,89.074,0,0,1-30.222.065c-9.484-1.594-18.88-4.947-26.475-11.007a40.923,40.923,0,0,1-14.931-24.319c.064.025.131.043.194.071l0-.019a95.6,95.6,0,0,0,27.643-1.9c8.207-1.8,17.808-4.263,24.016-10.311.418-.407-.008-1.267-.6-1.036a115.28,115.28,0,0,1-25.085,6.687,113.345,113.345,0,0,1-13.606,1.168c-3.776.1-8.376.522-11.7-1.619a.633.633,0,0,0-.012-.171,45.38,45.38,0,0,1,9.41-41.167,44.6,44.6,0,0,1,39.547-14.277c13.771,2.052,25.811,11.2,32.227,23.519,3.635,6.981,4.387,14.217,5.457,21.9.908,6.514,3.015,13.938,9.077,17.478a14.176,14.176,0,0,0,16.914-2.464c1.346-1.422.765-1.894.3-3.8a40.7,40.7,0,0,1-1.121-7.6,41.546,41.546,0,0,1,1.564-13.482c5.35,5.7,10.315,12.969,7.751,21.135a.663.663,0,0,0,.634.836,17.517,17.517,0,0,1,18.157,10.761A27.879,27.879,0,0,1,1802.341,192.278Z" fill="#231f20"/>
        <path id="Tracé_192" data-name="Tracé 192" d="M1699.514,160.245a1.4,1.4,0,0,0-.575-.681.905.905,0,0,0-.564-.365.936.936,0,0,0-.612.093,1.153,1.153,0,0,0-1.358.668,1.951,1.951,0,0,0-.8,1.479,2.109,2.109,0,0,0,.486,1.314,1.156,1.156,0,0,0,1.148.915,1.379,1.379,0,0,0,.747-.218.958.958,0,0,0,.245-.012,1.259,1.259,0,0,0,1.274-.486,1.418,1.418,0,0,0,.29-.857,1.651,1.651,0,0,0,.178-.465A1.394,1.394,0,0,0,1699.514,160.245Z" fill="#231f20"/>
        <path id="Tracé_193" data-name="Tracé 193" d="M1726.959,163.467a2.785,2.785,0,0,0-.055-1.119c0-.054-.008-.107-.015-.161a1.842,1.842,0,0,0-.066-.589c-.005-.016-.015-.027-.02-.043a1.707,1.707,0,0,0-.133-.4,1.324,1.324,0,0,0-1.976-.459,2.106,2.106,0,0,0-1.492,3.092,1.78,1.78,0,0,0,2.286,1.315,1.333,1.333,0,0,0,.49-.153,1.811,1.811,0,0,0,.724-.725A1.719,1.719,0,0,0,1726.959,163.467Z" fill="#231f20"/>
        <path id="Tracé_194" data-name="Tracé 194" d="M1709.227,114.073a2.129,2.129,0,0,0-1.278,3.118c.876,1.929,3.315,3.393,5.067,4.417a.507.507,0,0,0,.742-.295.219.219,0,0,0,.128-.1C1715.629,118.212,1712.973,113.262,1709.227,114.073Zm.976,4.332a9.253,9.253,0,0,1-.955-.9c-.821-.949-.935-2.756.795-2.641a4.218,4.218,0,0,1,3.1,1.985,4.775,4.775,0,0,1,.389,3.844A19.7,19.7,0,0,1,1710.2,118.4Z" fill="#231f20"/>
        <path id="Tracé_195" data-name="Tracé 195" d="M1723.1,112.334c-.579-1.481-2.111-2.826-3.782-2.158-4.192,1.676,1.365,6.72,2.723,8.94a.46.46,0,0,0,.211.4c.009.023.022.048.029.07a.145.145,0,0,0,.272.009.353.353,0,0,0,.281-.215A9.644,9.644,0,0,0,1723.1,112.334Zm-.873,6.259c-.708-1.57-1.941-2.656-2.827-4.207a3.6,3.6,0,0,1-.642-1.991q1.083-2.512,2.868-.858a3.594,3.594,0,0,1,.863,1.75A9.362,9.362,0,0,1,1722.225,118.593Z" fill="#231f20"/>
        <path id="Tracé_196" data-name="Tracé 196" d="M1733.541,113.568a1.848,1.848,0,0,0-2.849-.4,3.739,3.739,0,0,0-1,2.158,9.821,9.821,0,0,1-1.276,3.419.405.405,0,0,0-.055.34.184.184,0,0,0,.117.325c.066,0,.141-.013.211-.018a.438.438,0,0,0,.378-.048C1731.532,118.912,1735.336,116.251,1733.541,113.568Zm-2.007,3.9a7.3,7.3,0,0,1-2.009,1.177,8.663,8.663,0,0,0,.877-2.292c.205-.918.987-4.4,2.444-2.19C1733.6,115.309,1732.368,116.757,1731.534,117.467Z" fill="#231f20"/>
      </g>
    </g>
  </g>
</svg>
