<svg xmlns="http://www.w3.org/2000/svg" width="178.58" height="249.45" viewBox="0 0 178.58 249.45">
  <g id="fr-elephant" transform="translate(-872 -726)">
    <g id="Groupe_272" data-name="Groupe 272" transform="translate(3.847 59.392)">
      <g id="Groupe_271" data-name="Groupe 271">
        <rect id="bg" width="178.58" height="249.45" rx="8.5" transform="translate(868.153 666.607)" fill="#fff"/>
        <path id="Tracé_170" data-name="Tracé 170" d="M1039.653,724.868V676.7a3.012,3.012,0,0,0-3.01-3.01h-158.4a3,3,0,0,0-3,3.01v229.26a3,3,0,0,0,3,3.009h158.4a3.012,3.012,0,0,0,3.01-3.009V758.008m0-.01V724.9m-142.49-13.34a.072.072,0,0,1,.02-.04.137.137,0,0,0-.02.06" fill="#fceef4"/>
      </g>
    </g>
    <g id="Groupe_314" data-name="Groupe 314" transform="translate(2 59)">
      <path id="Tracé_432" data-name="Tracé 432" d="M1034.915,817.089c.24-.291-.075-.824-.372-.583-1.465,1.188-3.153,2.127-4.945,1.574a.245.245,0,0,0-.241.045,11.417,11.417,0,0,1-4.232-3.4,24.667,24.667,0,0,1-3.853-5.835,55.283,55.283,0,0,1-3.873-12.905c-.858-4.214-1.577-8.48-2.734-12.595a131.088,131.088,0,0,0-5.12-15.094c-3.413-8.127-12.212-11.117-19.032-12.6-9.2-2-18.769-1.475-27.8-4.562-4.559-1.557-8.655-4.158-12.818-6.818a25.106,25.106,0,0,0-10.479-4.055,30.6,30.6,0,0,0-22.6,5.8,37.278,37.278,0,0,0-8.788,9.833,81.626,81.626,0,0,1-9.326,11.548c-6.025,6.492-13.361,13.1-15.786,22.838-1.87,7.509-1.185,19.025,5.1,23.418,3.142,2.2,7.225,1.752,10.479.143a10.89,10.89,0,0,0,4.6-4.295c1.263-2.138,2.005-4.65,3.1-6.905l0-.013c-.089-.01-.177-.015-.266-.023a1.092,1.092,0,0,0,.338-1.4c-.633-1.834-3.6-2.592-4.977-2.843a9.652,9.652,0,0,0-3.582-.027,1.989,1.989,0,0,0-1.427,1.184.357.357,0,0,0-.172.23l-.033.153a.529.529,0,0,0-.006.087.351.351,0,0,0,.082.5c1.459.873,2.241,3.42,1.734,5.278-.683,2.5-3.093,2.257-4.679,1.35-2.794-1.6-4.328-5.369-4.143-9.013.388-7.654,6.186-12.784,11.877-14.506a18.006,18.006,0,0,1,15.4,2.4,19.236,19.236,0,0,1,5.9,6.495c1.795,3.208,2.619,6.972,3.292,10.715a146.6,146.6,0,0,1,1.67,14.856c.3,3.911.058,7.694-.015,11.606-.061,3.32.111,6.887,1.691,9.73.022.039.047.071.069.109a.356.356,0,0,0,.206.325,7.9,7.9,0,0,0,6.08,3.761c2.081.2,4.509-.022,6.022-1.979,1.781-2.3,2.008-5.995,1.933-8.964-.051-2.007-.474-4.212-.2-6.2.3-2.218,2.206-5.376,3.855-2.37,1.351,2.461.638,6.569.587,9.344-.044,2.378.083,5.539,1.612,7.293,1.642,1.883,4.631,2.243,6.768,1.952a6.559,6.559,0,0,0,5.652-4.343,17.725,17.725,0,0,0,.452-6.11,46.4,46.4,0,0,1,.161-7.073,2.389,2.389,0,0,1-.052-.235c.453-2.549,3.176-2.751,4.952-2.623a5.53,5.53,0,0,1,5.161,3.718c1.563,4.22.352,9.127,1.608,13.431,1.2,4.116,5.311,4.971,8.51,4.652a4.606,4.606,0,0,0,4.254-2.994,18.045,18.045,0,0,0,.744-5.973c.057-3.543-.162-8.148,1.628-10.93a.218.218,0,0,0,.254-.113c.563-.852,1.954-.866,2.769-.734,1.386.226,1.858,1.506,2.212,2.994a42.1,42.1,0,0,1,.611,7.947c.157,3.663.913,7.246,3.88,8.938a7.489,7.489,0,0,0,8.649-.575c3.012-2.719,2.976-7.234,3.484-11.3a.473.473,0,0,0-.01-.17,42.946,42.946,0,0,0-.077-4.794c-.224-4.537-.582-9.112-.492-13.66.066-3.287-.382-6.792.253-10.018.146-.744.433-2.05,1.2-2.239.787-.2,1.385.864,1.753,1.526a31.243,31.243,0,0,1,1.584,3.716,37.51,37.51,0,0,0,6.032,10.559,9.412,9.412,0,0,0,3.782,2.914,9.222,9.222,0,0,0,4.073.011.388.388,0,0,0,0,.14,24.446,24.446,0,0,1,.981,5.416.311.311,0,1,0,.615,0,20.882,20.882,0,0,0-.845-4.947c.05.027.1.067.148.1a39.034,39.034,0,0,1,2.415,3.7c.188.341.657.135.562-.286a7.578,7.578,0,0,0-1.935-3.486c.237.088.474.178.71.272a8.226,8.226,0,0,0,2.671,1.117c.384.063.548-.555.164-.716-.891-.373-1.775-.761-2.668-1.116-.2-.11-.391-.217-.587-.323A5.85,5.85,0,0,0,1034.915,817.089ZM896.866,799.9c.948-1.191,2.528-1.016,3.845-.87,1.189.132,4.208.748,4.558,2.358q.564.848-.2.715c-.223.037-.447.064-.672.083a10.214,10.214,0,0,1-1.078.044,12.2,12.2,0,0,1-2.632-.31A6.785,6.785,0,0,1,896.866,799.9Z" fill="#cadae8"/>
      <path id="Tracé_433" data-name="Tracé 433" d="M925.352,765.242a2.809,2.809,0,0,1-.915-.715c.271-.7.478-1.455.669-2.14.127-.454-.467-.648-.593-.2-.481,1.72-1.033,4.376-3.005,3.938a2.4,2.4,0,0,1-.426-.148l-.017-.006a2.442,2.442,0,0,1-1.172-1.127.352.352,0,0,0-.128-.268,8.072,8.072,0,0,1-.389-3.776c.047-.474-.568-.47-.615,0a10.938,10.938,0,0,0-.022,1.892.349.349,0,0,0-.146.207.336.336,0,0,1-.471.242c-.359-.188-.673.452-.31.641a.877.877,0,0,0,1.052-.133,6.388,6.388,0,0,0,.339,1.186c-.182.25-.416.447-.608.686-.275.343.159.869.435.525.162-.2.337-.376.5-.566a2.978,2.978,0,0,0,1.115,1.081,5.834,5.834,0,0,0-.208.981c-.055.467.537.669.593.2a5.238,5.238,0,0,1,.2-.946,2.7,2.7,0,0,0,.408.1,2.136,2.136,0,0,0,.95-.1,5.193,5.193,0,0,0,.266.755c.191.42.722.045.531-.375a4.1,4.1,0,0,1-.233-.68,3.585,3.585,0,0,0,1-1.3,3.531,3.531,0,0,0,1.04.767C925.558,766.13,925.719,765.412,925.352,765.242Z" fill="#231f20"/>
      <path id="Tracé_434" data-name="Tracé 434" d="M961.635,770.839c-2.769-4.955-7.073-8.148-11.3-11.037-2.3-1.573-4.921-2.767-6.9-4.907-.914-.986-2.111-3.026-3.371-3.365-.385-.1-.55.613-.163.717,1.15.309,2.371,2.4,3.233,3.319a21.84,21.84,0,0,0,4.437,3.254c3.952,2.548,8.107,5.245,11.292,9.116,5.928,7.205,8.006,19.488,3.71,28.479-4.318,9.035-13.5,11.206-21.409,8.917a14.759,14.759,0,0,1-9.352-7.444,25.858,25.858,0,0,1-2.712-12.7c.254-8.791,4.855-19.568-1.4-26.875-.285-.333-.72.192-.435.525,6.573,7.673.766,19.506,1.254,28.759a24.961,24.961,0,0,0,3.469,11.877,15.244,15.244,0,0,0,9.224,6.633c7.353,2.05,15.994.443,20.754-7.226C967.043,790.687,966.24,779.077,961.635,770.839Z" fill="#231f20"/>
      <path id="Tracé_435" data-name="Tracé 435" d="M1034.915,817.089c.24-.291-.075-.824-.372-.583-1.465,1.188-3.153,2.127-4.945,1.574a.245.245,0,0,0-.241.045,11.417,11.417,0,0,1-4.232-3.4,24.667,24.667,0,0,1-3.853-5.835,55.283,55.283,0,0,1-3.873-12.905c-.858-4.214-1.577-8.48-2.734-12.595a131.088,131.088,0,0,0-5.12-15.094c-3.413-8.127-12.212-11.117-19.032-12.6-9.2-2-18.769-1.475-27.8-4.562-4.559-1.557-8.655-4.158-12.818-6.818a25.106,25.106,0,0,0-10.479-4.055,30.6,30.6,0,0,0-22.6,5.8,37.278,37.278,0,0,0-8.788,9.833,81.626,81.626,0,0,1-9.326,11.548c-6.025,6.492-13.361,13.1-15.786,22.838-1.87,7.509-1.185,19.025,5.1,23.418,3.142,2.2,7.225,1.752,10.479.143a10.89,10.89,0,0,0,4.6-4.295c1.263-2.138,2.005-4.65,3.1-6.905l0-.013c-.089-.01-.177-.015-.266-.023a1.092,1.092,0,0,0,.338-1.4c-.633-1.834-3.6-2.592-4.977-2.843a9.652,9.652,0,0,0-3.582-.027,1.989,1.989,0,0,0-1.427,1.184.357.357,0,0,0-.172.23l-.033.153a.529.529,0,0,0-.006.087.351.351,0,0,0,.082.5c1.459.873,2.241,3.42,1.734,5.278-.683,2.5-3.093,2.257-4.679,1.35-2.794-1.6-4.328-5.369-4.143-9.013.388-7.654,6.186-12.784,11.877-14.506a18.006,18.006,0,0,1,15.4,2.4,19.236,19.236,0,0,1,5.9,6.495c1.795,3.208,2.619,6.972,3.292,10.715a146.6,146.6,0,0,1,1.67,14.856c.3,3.911.058,7.694-.015,11.606-.061,3.32.111,6.887,1.691,9.73.022.039.047.071.069.109a.356.356,0,0,0,.206.325,7.9,7.9,0,0,0,6.08,3.761c2.081.2,4.509-.022,6.022-1.979,1.781-2.3,2.008-5.995,1.933-8.964-.051-2.007-.474-4.212-.2-6.2.3-2.218,2.206-5.376,3.855-2.37,1.351,2.461.638,6.569.587,9.344-.044,2.378.083,5.539,1.612,7.293,1.642,1.883,4.631,2.243,6.768,1.952a6.559,6.559,0,0,0,5.652-4.343,17.725,17.725,0,0,0,.452-6.11,46.4,46.4,0,0,1,.161-7.073,2.389,2.389,0,0,1-.052-.235c.453-2.549,3.176-2.751,4.952-2.623a5.53,5.53,0,0,1,5.161,3.718c1.563,4.22.352,9.127,1.608,13.431,1.2,4.116,5.311,4.971,8.51,4.652a4.606,4.606,0,0,0,4.254-2.994,18.045,18.045,0,0,0,.744-5.973c.057-3.543-.162-8.148,1.628-10.93a.218.218,0,0,0,.254-.113c.563-.852,1.954-.866,2.769-.734,1.386.226,1.858,1.506,2.212,2.994a42.1,42.1,0,0,1,.611,7.947c.157,3.663.913,7.246,3.88,8.938a7.489,7.489,0,0,0,8.649-.575c3.012-2.719,2.976-7.234,3.484-11.3a.473.473,0,0,0-.01-.17,42.946,42.946,0,0,0-.077-4.794c-.224-4.537-.582-9.112-.492-13.66.066-3.287-.382-6.792.253-10.018.146-.744.433-2.05,1.2-2.239.787-.2,1.385.864,1.753,1.526a31.243,31.243,0,0,1,1.584,3.716,37.51,37.51,0,0,0,6.032,10.559,9.412,9.412,0,0,0,3.782,2.914,9.222,9.222,0,0,0,4.073.011.388.388,0,0,0,0,.14,24.446,24.446,0,0,1,.981,5.416.311.311,0,1,0,.615,0,20.882,20.882,0,0,0-.845-4.947c.05.027.1.067.148.1a39.034,39.034,0,0,1,2.415,3.7c.188.341.657.135.562-.286a7.578,7.578,0,0,0-1.935-3.486c.237.088.474.178.71.272a8.226,8.226,0,0,0,2.671,1.117c.384.063.548-.555.164-.716-.891-.373-1.775-.761-2.668-1.116-.2-.11-.391-.217-.587-.323A5.85,5.85,0,0,0,1034.915,817.089ZM896.866,799.9c.948-1.191,2.528-1.016,3.845-.87,1.189.132,4.208.748,4.558,2.358q.564.848-.2.715c-.223.037-.447.064-.672.083a10.214,10.214,0,0,1-1.078.044,12.2,12.2,0,0,1-2.632-.31A6.785,6.785,0,0,1,896.866,799.9Zm127.872,18.493c-1.759-.678-3.272-2.433-4.457-4.087a45.94,45.94,0,0,1-5.162-9.926c-.571-1.467-1.526-4.546-3.171-4.682-1.708-.142-2.148,2.632-2.3,4.122-.3,2.951-.037,5.945-.1,8.908-.092,4.627.275,9.282.505,13.9a33.292,33.292,0,0,1-.007,5.255,16.778,16.778,0,0,1-.29,2.727,22.966,22.966,0,0,1-.761,3.9.338.338,0,0,0-.318.357c.024-.539.294-.279.034-.471a1.156,1.156,0,0,0-.744-.2,2.559,2.559,0,0,0-1.53.825,4.658,4.658,0,0,0-1.253,2.9c-1.212-2.238-3.649-2.513-4.888-.3a3.038,3.038,0,0,0-1.548-2.614,1.742,1.742,0,0,0-2.335.694,8.522,8.522,0,0,1-.775-2.32c-.766-4.2.369-9.328-1.566-13.179-.936-1.863-4.1-2.469-5.337-.689a1.176,1.176,0,0,1-.111-.113,12.5,12.5,0,0,0-1.878,6.462c-.147,2.253-.047,4.515-.15,6.77a17.765,17.765,0,0,1-.359,3.24,3.26,3.26,0,0,0-4.079,2.311c-.537-1.038-1.216-1.825-2.38-1.8a2.441,2.441,0,0,0-2.1,1.406c-.227-1.07-.61-2.194-1.537-2.477a1.191,1.191,0,0,0-1.508.734c-.814-1.827-.817-4.155-.905-6.155-.176-4.027-.088-9.381-3.571-11.462-2.161-1.291-7.065-1.742-8.431,1.331l-.029-.109a.349.349,0,0,0-.083.189c-.012.082-.02.164-.031.246a4.242,4.242,0,0,0-.174.744.436.436,0,0,0,.045.27,33.759,33.759,0,0,0-.238,5.235c.089,2.381.4,4.93-.192,7.252-.008.035-.022.065-.031.1-1.711-1.4-3.49.811-4,2.828-1.3-1.861-3.574-2.121-4.569-.048a3.271,3.271,0,0,0-1.461-2.279,1.632,1.632,0,0,0-2.162.9,12.735,12.735,0,0,1-.747-4.34c-.126-3.124.481-6.351-.148-9.435-.394-1.936-2-4.222-3.75-2.817-2.368,1.9-1.773,5.957-1.631,8.785a21.9,21.9,0,0,1-.71,7.873c-1.8-1.167-3.374.722-4.13,2.675a2.6,2.6,0,0,0-2.516-1.6,2.048,2.048,0,0,0-1.845,1.188c-.389-1.175-.694-2.515-1.692-3.088a1.748,1.748,0,0,0-2.3.513c-.055-.1-.115-.2-.167-.3-1.874-3.814-1.378-8.7-1.2-12.922a98.431,98.431,0,0,0-.658-13.743c-.741-7.661-1.662-16.364-6.176-22.265-6.961-9.1-20.7-10.364-28.365-1.776-4.223,4.731-6.475,13.791-1.289,18.842,1.675,1.632,4.746,2.939,6.4.574a5.825,5.825,0,0,0,.159-5.495,11.161,11.161,0,0,0,4.459,1.173,8.939,8.939,0,0,0,2.892-.083c-1.858,3.985-2.995,8.076-6.769,10.121-3.374,1.829-7.776,2.274-10.928-.4-5.851-4.951-6.008-16.457-3.737-23.725,1.518-4.862,4.325-8.651,7.347-12.242,3.052-3.626,6.318-6.972,9.488-10.443a80.725,80.725,0,0,0,8.331-10.79,33.984,33.984,0,0,1,9.345-9.656,29.954,29.954,0,0,1,23.223-4.317c4.119.928,7.6,3.435,11.259,5.752a44.442,44.442,0,0,0,11.16,5.194c8.592,2.523,17.557,2.181,26.237,4.064a35.44,35.44,0,0,1,11.677,4.458,18.456,18.456,0,0,1,7.736,9.747,134.409,134.409,0,0,1,5.1,16.063c1.056,4.527,1.766,9.16,2.862,13.673a38.584,38.584,0,0,0,4.747,12c1.458,2.236,3.552,4.968,5.939,6.158A7.313,7.313,0,0,1,1024.738,818.392Z" fill="#231f20"/>
      <path id="Tracé_436" data-name="Tracé 436" d="M959.887,782.687a25.249,25.249,0,0,0-7.505-14.666c-4.355-4.272-9-8.44-14.043-11.4a2.366,2.366,0,0,0-.632-.253c-.03-.041-.063-.076-.092-.117a2.6,2.6,0,0,0-.4-.439c-1.417-1.667-4.584-.051-4.131,3.05.768,5.259,2.372,10.228,2.606,15.651.216,4.968-.106,10.015,1.041,14.862.9,3.792,2.579,7.368,5.755,8.843a11.172,11.172,0,0,0,9.366-.208,7.639,7.639,0,0,0,2.1-1.5c.172-.081.344-.159.514-.248C958.652,794.077,960.506,787.845,959.887,782.687Z" fill="#ffe9ed"/>
    </g>
  </g>
</svg>
