<svg xmlns="http://www.w3.org/2000/svg" width="178.58" height="249.45" viewBox="0 0 178.58 249.45">
  <g id="fr-kangourou" transform="translate(-872 -416)">
    <g id="Groupe_258" data-name="Groupe 258" transform="translate(3.847 59.392)">
      <g id="Groupe_257" data-name="Groupe 257">
        <rect id="bg" width="178.58" height="249.45" rx="8.5" transform="translate(868.153 356.608)" fill="#fff"/>
        <path id="Tracé_163" data-name="Tracé 163" d="M1039.653,414.868V366.7a3.012,3.012,0,0,0-3.01-3.01h-158.4a3,3,0,0,0-3,3.01v229.26a3,3,0,0,0,3,3.009h158.4a3.012,3.012,0,0,0,3.01-3.009V448.008m0-.01V414.9m-142.49-13.34a.072.072,0,0,1,.02-.04.138.138,0,0,0-.02.06" fill="#fceef4"/>
      </g>
    </g>
    <g id="Groupe_290" data-name="Groupe 290" transform="translate(3.848 57.731)">
      <path id="Tracé_235" data-name="Tracé 235" d="M955.343,430.632c-6.542-.293-13.06-1.031-19.63-.56a2.484,2.484,0,0,0-1.557.686,10.905,10.905,0,0,0-2.536.269c-1.09.269-.8,1.358.257,1.452,2.816.249,7.394,6.764,8.927,8.538,2.939,3.4,3.876,7.293,6.471,10.724a1,1,0,0,0,1.585-.158,5.6,5.6,0,0,0,.306-1.249.63.63,0,0,0,.157-.254c1.863-6.066,4.815-11.974,7.658-17.8C957.39,431.435,956.351,430.677,955.343,430.632Z" fill="#efd2af"/>
      <path id="Tracé_236" data-name="Tracé 236" d="M969.758,511.133c.061-.1.132-.2.188-.309.129-.246-.063-.447-.33-.538l0-.009c-.064-.4-.828-.555-.988-.1-.036.1-.06.2-.092.305-3.452,1.413-6.93,3.184-10.689,4.23.12-.464.21-.923.285-1.382,2.941-2.9,2.519-7.011,1.13-10.581.694-2.681,1.112-5.357.193-7.8-.009-.024-.036-.036-.053-.055a1.5,1.5,0,0,0-.094-.356.18.18,0,0,0-.206-.09c-2.628.777-4.055,3.382-4.332,5.883a2.082,2.082,0,0,0-1.179-.347c-1.424-.022-2.748.636-4.2.689a9.658,9.658,0,0,1-1.654-.159,16.772,16.772,0,0,0-1.125-2.631c-.742-1.388-1.863-3.419-4.033-3.583h0a.459.459,0,0,0-.6.052c-1.608,2.054-.208,4.653.714,6.753.25.567.458,1.162.655,1.766a4.646,4.646,0,0,0-.719,2.462,5.174,5.174,0,0,0,.36,3.931c1.04,2,2.075,3.932,3.028,5.9-1.8-.247-3.6-.549-5.4-.795a10.415,10.415,0,0,0-3.85-1.477,13.082,13.082,0,0,0-1.816-.873c-1.031-.4-2.039.257-1.851,1.087a77.27,77.27,0,0,1,.926,8.613c-.611,6.919,4.995,11.613,15.713,12.214,5.3.3,9.785-.735,13.431-3.534a18.239,18.239,0,0,0,2.153-1.389,12.185,12.185,0,0,0,2.847-3C971.83,522.182,970.538,515.684,969.758,511.133Z" fill="#efd2af"/>
      <path id="Tracé_237" data-name="Tracé 237" d="M1014.929,482.467a28.505,28.505,0,0,0-.363-4.618c-.684-4.152-2.595-9.9-7.192-12.822-2.668-3.586-8.471-5.685-13.885-5.171a18.282,18.282,0,0,0-9.172,3.467c-3,2.315-2.945,5.32-3.5,8.369h0c-.014.091-.038.177-.05.269-.067.507.285.807.752.917a10.344,10.344,0,0,0,.348,1.007c.262.715,1.569.531,1.635-.169.263-2.8,2.719-4.844,3.817-7.28,2.616-1.834,5.692-3.317,9.353-1.964a12.946,12.946,0,0,1,6.875,6.561c2.289,4.723,1.191,9.756,2.708,14.546a1.584,1.584,0,0,0,.24.46,45.04,45.04,0,0,0-.3,6.948c-.76,2.646-1.4,5.3-3.16,7.846a26.855,26.855,0,0,1-7.673,7.079,1.415,1.415,0,0,0-.538.311c-.038.035-.07.07-.108.106-.411.257-.826.511-1.25.76a7.824,7.824,0,0,0-2.086-4.962,12.7,12.7,0,0,0-4.143-6.2,14.651,14.651,0,0,0-14.555-2.263,13.44,13.44,0,0,0,3.563-6.954,16.188,16.188,0,0,0,.345-3.3,1.671,1.671,0,0,0,.116-.85c-.056-.456-.136-.912-.2-1.368a42.029,42.029,0,0,0-1.343-6.637q-.357-1.418-.751-2.824a1.43,1.43,0,0,0-.46-.723,38.2,38.2,0,0,0-2.99-7.141,38.1,38.1,0,0,1-4.521-12c.273-.9.57-1.8.876-2.72a37.884,37.884,0,0,0,2.326-13.533,1.293,1.293,0,0,0,.261-.5l.011-.04c.031-.028.066-.053.095-.082a35.806,35.806,0,0,0,7.926-12.3c1.012-2.648,2.137-5.55.314-7.958l.347-.283c.81-.661.016-2.079-1.272-1.67-6.169,1.954-11.469,3.47-15.4,7.862a17.456,17.456,0,0,0-4.089,7.729c-3.663,6.2-5.224,12.977-8.192,19.387a21.212,21.212,0,0,1-2.523,4.206c-3.088-8.876-7.3-18.418-17.98-23.529a25.755,25.755,0,0,0-8.214-8.088,52.622,52.622,0,0,0-8.285-3.488c-2.284-.842-4.173-1.775-6.68-1.439l-.024-.021c-.8-.644-1.77.37-1.246.853a11.076,11.076,0,0,1,1.206,2.962,19.953,19.953,0,0,0,8.934,14.709,21.647,21.647,0,0,0,3.025,1.507,18.145,18.145,0,0,0,1.878.98,2.968,2.968,0,0,0,1.119.239c.273.114.535.239.8.359.489.528.977,1.058,1.444,1.6.243.28.473.57.706.86a61.937,61.937,0,0,0,1.323,7.258,28.855,28.855,0,0,0,1.927,9.993,23.91,23.91,0,0,1,1.07,4.068c-.542,10.2-11.709,23.276-5.4,32.954-7.376,2.328-11.073,7.13-12.172,12.511a13.961,13.961,0,0,0-.635,8.641c1.628,5.907,6.561,11.386,12.032,15.765-8.429.536-25.417,10.316-15.407,14.247,4.841,1.9,11.711-1.04,15.628-3.1,3.848-2.024,8.239-4.8,10.6-8.145,3.4.75,6.636,1.716,10.25,1.745,4.181.033,9.054.417,13.193.052a18.877,18.877,0,0,0,7.23-.656,57.055,57.055,0,0,0,5.667-1.6c4.4,5.079,22.362,15.373,29.223,9.5,3.285-2.811-1.685-6.453-4.314-8.115a39.764,39.764,0,0,0-12.774-5.132,64.37,64.37,0,0,0,5.393-5.307c4.185,1.1,9.218-1.873,12.627-4.609,6.086-3.895,9.864-10.633,12.268-15.9C1014.7,498.716,1017.859,489.827,1014.929,482.467Zm-47.953,46.277c-4.54,1.923-7.723,5.355-13.958,5.241-3.335-.062-6.869-.3-10.377-.679a1.877,1.877,0,0,0-.577-.344,7.644,7.644,0,0,0-1.806-.441l-.382-.154c-.01-.008-.016-.018-.027-.027-1.689-1.318-3.179-2.706-4.965-3.9a43.429,43.429,0,0,1-1.5-12.067,28.636,28.636,0,0,0,.019-4.579c3.19,1.729,7.414,2.461,10.984,3.241,1.062.232,1.969-.692,1.422-1.412-1.23-1.617-3.13-3.466-3.744-5.3-.93-2.777,1.127-3.7,1.1-6-.016-1.25-1.029-2.564-1.333-3.793a16.172,16.172,0,0,1-.384-4.91c.894.252,1.825.4,2.67.724a14.686,14.686,0,0,1,2.029,2.042.2.2,0,0,0-.051.248c.546,1.043,1.011,3.007,2.453,3.612a9.043,9.043,0,0,0,4.9-.172c1.614-.652,1.806-2.387,2.725-3.5a23.365,23.365,0,0,1,3.359-2.855,17.8,17.8,0,0,1,1.033,4.159c-.2.621-.384,1.22-.535,1.815a1.418,1.418,0,0,0-.186.687c0,.043.009.082.009.125a6.4,6.4,0,0,0,.147,3.122c1.067,3.418.216,6.421-1.568,9.609-.243.435.257.859.845.646,1.317-.477,2.62-.968,3.9-1.495a1.846,1.846,0,0,0,.432-.145c.179-.087.349-.179.527-.268,1.154-.5,2.286-1.036,3.367-1.641a21.7,21.7,0,0,0,2.676-1.627C970.882,516,971.394,522,966.976,528.744Z" fill="#f4c17d"/>
      <g id="Groupe_289" data-name="Groupe 289">
        <path id="Tracé_238" data-name="Tracé 238" d="M1013.324,470.769c-3.182-6.327-10.4-12.523-20.092-11.876-9.914.662-16.028,9.046-11.116,15.736.245.333,1.024.108.836-.264.047.2.395.218.489.024,1.932-4.013,3.08-11.172,11.205-9.493,7.617,1.574,8.728,8.893,9.751,13.875,2.082,10.142,1.246,22.216-10.429,28.852-.022-.127-.035-.254-.06-.382-1.3-6.562-9.052-15.1-18.836-12.828a14.441,14.441,0,0,0,2.8-6.881c1.074-8.011-4-16.136-7.309-23.537a47.093,47.093,0,0,1-2.25-5.409c-.818-2.7-.429-5.151.208-7.845.93-3.93.412-8.112,1.8-11.954,1.509-4.172,5.392-7.592,7.269-11.672a21.269,21.269,0,0,0,1.667-12.339.667.667,0,0,0-.847-.493c-10.715,1.687-19.433,8.107-22,16.222a51.855,51.855,0,0,0-26.288.673c-.137-.059-.265-.131-.4-.187-.008,0-.017,0-.026,0-3.647-8.125-14.649-13.6-25.463-14.664a.672.672,0,0,0-.768.771c1.793,7.688,4.032,16.5,13.33,21.035,2.583,1.26,5.186,1.588,6.333,4.052,1.033,2.219.48,5.177.611,7.507.26,4.645,3.321,8.737,3.627,13.338.62,9.307-7.927,17.46-7.173,26.778a13.507,13.507,0,0,0,2.132,5.975,16.746,16.746,0,0,0-13.581,16.127c-.229,7.635,4.124,15.1,11.652,20.089-3.118,1.134-6.258,2.236-9.351,3.408-2.543.963-5.217,2.124-6.815,3.986a5.2,5.2,0,0,0-1.312,4.6,10.608,10.608,0,0,0-6.615,1.61c-.371.237.026.775.485.637,1.141-.345,2.229-.778,3.373-1.118a23.229,23.229,0,0,0,2.844-.846,4.312,4.312,0,0,0,.84,1.48,6.358,6.358,0,0,0-2.709,2.892c-.129.358.525.7.865.384a29.972,29.972,0,0,1,2.239-2.091c.167-.126.345-.241.523-.354a7.122,7.122,0,0,0,2.1,1c.15.045.3.077.453.116a6.814,6.814,0,0,0-1.916,2.8c-.141.449.636.694.963.31.6-.71,1.174-1.444,1.823-2.13a8.306,8.306,0,0,1,.744-.673c4.338.526,9.085-1.041,12.555-2.834a42.176,42.176,0,0,0,11.656-9.331c5.1,2.525,12.812,2.363,18.624,2.5,5.324.124,11.844-.058,16.247-2.723a43.158,43.158,0,0,0,13.248,8.684,35.627,35.627,0,0,0,11.788,2.781c.035.061.072.123.1.184a9.544,9.544,0,0,0,1.562,2.434.474.474,0,0,0,.786-.349,7.642,7.642,0,0,0-1.183-2.277,13.039,13.039,0,0,0,3.553-.588,5.026,5.026,0,0,0,.593-.246c.039.037.082.071.12.109a35.034,35.034,0,0,0,2.312,2.711c.289.234.943.069.891-.282-.161-1.1-1.236-2.1-2.14-2.93-.08-.074-.17-.142-.252-.215a3.3,3.3,0,0,0,.713-3.569,20.127,20.127,0,0,1,4.307,1.976c.438.258,1.1-.255.771-.59a10.432,10.432,0,0,0-5.541-2.583,11.227,11.227,0,0,0-1.992-2.853c-3.575-3.669-9.784-5.652-15.5-6.533a54.956,54.956,0,0,0,4.251-4.158c2.951,1.181,7.431-1.027,9.769-2.285a32.857,32.857,0,0,0,9.136-7.5,47.038,47.038,0,0,0,11.028-22.8C1017.705,486.856,1017.088,478.251,1013.324,470.769Zm-56.9-39.23c-2.83,6.839-5.7,13.671-8.507,20.516a50.008,50.008,0,0,0-6.52-11.376c-2.589-3.312-6.04-6.96-10.418-9.1A54.151,54.151,0,0,1,956.419,431.539ZM980.8,530.823c-.587.528.235,1.263.9.986a.211.211,0,0,0,.09.076c4.176,1.543,8.714,2.505,12.231,4.936a11.9,11.9,0,0,1,3.712,3.867,12.434,12.434,0,0,0-1.908.069c-.442.055-.29.534.1.56a19.631,19.631,0,0,1,2.227.271c.357.96.67,2.145-.116,3a11.986,11.986,0,0,0-2.149-1.168c-.386-.158-.839.241-.486.482.612.416,1.215.832,1.791,1.27a4.448,4.448,0,0,1-.6.225,10.722,10.722,0,0,1-3.185.188,5.582,5.582,0,0,0-1.01-1.265c-.172-.154-.593-.037-.557.177a4.1,4.1,0,0,0,.349,1.02c-10.151-.6-16.943-6.137-23.683-11.353-.575-.445-1.639.1-1.307.632a44.62,44.62,0,0,1-6.349,1.96,47.093,47.093,0,0,1-9.657.477c-2.917-.063-5.844-.141-8.744-.4-3.053-.279-5.955-.987-8.961-1.371l.092-.1c.546-.611-.711-1.128-1.272-.569-5.23,5.22-11.841,11.87-21.325,12.12-.267.007-.54-.01-.812-.019.037-.041.082-.078.117-.121.2-.24-.136-.6-.505-.5a5.481,5.481,0,0,0-1.133.478,7.53,7.53,0,0,1-2.65-.884c.337-.188.672-.378.991-.589.343-.227-.038-.567-.4-.524a6.3,6.3,0,0,0-1.478.389,3.107,3.107,0,0,1-.69-1.086c-.928-2.648,1.723-4.991,4.375-6.331,4.1-2.074,8.993-3.462,13.438-5.051a.536.536,0,0,0,.16-.954c-7.2-4.533-11.85-11.255-12.229-18.428-.365-6.9,3.514-14.422,12.53-16.952a12.621,12.621,0,0,0,10.487,5.67,4.18,4.18,0,0,0,1.778,1.246c.348.11.6-.239.453-.45a4.634,4.634,0,0,0-.848-.87,7.731,7.731,0,0,0,1.776-.433,4.03,4.03,0,0,0,1.6.624c.436.065.71-.369.309-.559-.33-.157-.67-.315-1-.484a4.865,4.865,0,0,0,1.561-1.345,5.54,5.54,0,0,0,.606.152c.608.1.834-.549.256-.707-.162-.045-.307-.1-.456-.151a2.864,2.864,0,0,0-.581-3.063c-1.622-1.939-3.964-3.04-4.8-5.417-.872-2.476-.5-5.115-.152-7.627.083-.6-1.129-.587-1.221,0-.478,3.052-.907,6.4.777,9.294a13.447,13.447,0,0,0,3.107,3.209c1.216,1.05,1.595,2.061,1.4,2.921-.208-.121-.415-.248-.625-.382-.31-.2-.737.044-.557.328a2.887,2.887,0,0,0,.851.8,3.553,3.553,0,0,1-1.413,1.122c-.144-.128-.287-.258-.431-.384-.189-.167-.518.013-.459.2a2.02,2.02,0,0,0,.212.453,7.428,7.428,0,0,1-1.888.339c-.324-.456-.652-1.048-1.2-1.235a.266.266,0,0,0-.342.106,1.161,1.161,0,0,0,.269,1.1,9.31,9.31,0,0,1-1.088-.159c-11.246-2.414-10.361-13.656-7.856-20.249,2.705-7.119,7.2-14.337,4.338-21.862-.672-1.768-1.6-3.479-2.091-5.286-.652-2.4-.5-4.851-.61-7.28-.118-2.589-.12-5.526-3.2-7.121-2.284-1.183-4.726-1.847-6.8-3.319a20.074,20.074,0,0,1-4.8-4.878c-2.807-4-3.913-8.539-4.874-12.984A34.345,34.345,0,0,1,929.5,432.071c.177.248.7.079.6-.192-.008-.023-.019-.045-.029-.067,3.974,3.022,7.658,5.836,10.476,9.658a53.336,53.336,0,0,1,6.359,11.719.472.472,0,0,0,.024.177,1.574,1.574,0,0,0-.4.268,1.933,1.933,0,0,0-.354.253,1.333,1.333,0,0,0-.433.8,1.532,1.532,0,0,0-.267.933,2.01,2.01,0,0,0,2.095,1.747.868.868,0,0,0,.705-.112c.077-.051.145-.109.216-.165l.022-.013a1.766,1.766,0,0,0,1.157-.672,1.375,1.375,0,0,0,.2-1.394c.49-.768.042-1.627-.863-2.038,3.035-7.381,5.988-14.784,9-22.171a.358.358,0,0,0-.19-.468c2.66-7.374,10.416-13.156,20.186-14.925a20.556,20.556,0,0,1-1.23,10.328c-1.411,3.568-4.168,6.518-6.247,9.841a18.15,18.15,0,0,0-2.458,8.94c-.246,3.721-1.832,7.409-1.71,11.127.108,3.275,1.83,6.41,3.188,9.471,1.638,3.694,3.387,7.371,4.852,11.108,1.43,3.649,2.507,7.477,1.978,11.305-.473,3.426-2.444,8.009-6.876,9.48-.005-.02,0-.042-.01-.063-.082-.287-.6-.247-.71,0-.043.1-.06.21-.1.313a2.769,2.769,0,0,1-1.62.13,2.759,2.759,0,0,0,.383-.59c.066-.146-.16-.242-.315-.185a4.245,4.245,0,0,0-.784.4c-.061-.042-.118-.077-.183-.127a3.713,3.713,0,0,1-1.063-1.413,2.5,2.5,0,0,0,.982-.579.222.222,0,0,0-.181-.341,2.907,2.907,0,0,0-1.05.1,5.775,5.775,0,0,1,1.13-3.712A18.745,18.745,0,0,0,968.4,486.5a4.466,4.466,0,0,0-2.967-5.647c-.779-.276-1.467.593-.682.892,5.866,2.239-.111,7.833-1.109,10.9a4.89,4.89,0,0,0-.152,2.372,1.67,1.67,0,0,0-1.044.547c-.136.227-.028.466.293.549a1.741,1.741,0,0,0,1.043-.119,4.4,4.4,0,0,0,1.457,1.816,3.194,3.194,0,0,0-1.137,1.141c-.135.339.351.54.712.418a3.619,3.619,0,0,0,1.337-1.027c.07.031.125.072.2.1a4.789,4.789,0,0,0,2.006.335,21.931,21.931,0,0,0-.045,2.575c.011.518.946.486,1.025,0a19.117,19.117,0,0,0,.317-2.8,10.443,10.443,0,0,0,4.065-2.605c.188-.182.355-.374.529-.562,11.193-2.653,18.238,7.363,18.447,14.519C992.93,517.912,987.361,524.926,980.8,530.823Zm28.387-22.007a44.055,44.055,0,0,1-8.219,10.674,28.66,28.66,0,0,1-5.8,4.255c-1.391.757-5.642,3.036-7.732,2.4,4.334-5.087,7.212-10.864,6.722-16.973.02-.009.039-.009.059-.019,14.831-7.79,14.222-23.144,10.607-35.1-1.44-4.766-5.565-11.266-13.44-10.2-5.818.789-8.647,6.446-8.453,10.479-2.336-4.444-1.3-9.573,3.979-12.505,4.824-2.68,11.051-2.192,15.884.209,9.342,4.64,11.622,14.744,12.105,22.6A43.635,43.635,0,0,1,1009.192,508.816Z" fill="#231f20"/>
        <path id="Tracé_239" data-name="Tracé 239" d="M935,443.4a.931.931,0,0,0-.066-1.545,1.5,1.5,0,0,0-.825-.306,2.049,2.049,0,0,0-.335-.2.813.813,0,0,0-.654,0,1.57,1.57,0,0,0-.837.928,1.026,1.026,0,0,0-.006,1.568,1.646,1.646,0,0,0,1.928.207A.946.946,0,0,0,935,443.4Z" fill="#231f20"/>
        <path id="Tracé_240" data-name="Tracé 240" d="M960.437,440.5c-1.559-.492-2.98.873-1.717,1.84.009.007.021.01.03.016a.777.777,0,0,0,.6.43,1.242,1.242,0,0,0,1.09-.068,1.73,1.73,0,0,0,.265-.17A1.07,1.07,0,0,0,960.437,440.5Z" fill="#231f20"/>
        <path id="Tracé_241" data-name="Tracé 241" d="M970.528,509.111a.693.693,0,0,0-1.09-.345,30.432,30.432,0,0,1-10.589,5.038c-.066-1.912,1.961-3.388,2.38-5.235a7.05,7.05,0,0,0-.468-4.038,7.611,7.611,0,0,1-.878-3.357c.064-.811.589-1.669.714-2.5a9.3,9.3,0,0,0-.686-5.05.467.467,0,0,0-.677-.137,14.277,14.277,0,0,0-4.295,4.294c-.381.634-.521,1.568-1.251,1.928a16.2,16.2,0,0,1-4.678.164c-1.5-.41-2.1-3.185-3.138-4.246a8.175,8.175,0,0,0-4.159-2.213.4.4,0,0,0-.507.295,10.153,10.153,0,0,0,1.893,8.23c.132.161.481.059.409-.132a33.327,33.327,0,0,1-1.208-3.278c-.129-.495-1.024-3.6-.378-4.064,1.072-.774,3.2,1.52,3.6,2.034a13.676,13.676,0,0,1,1.942,3.949.5.5,0,0,0,.477.278,36.473,36.473,0,0,1,6.408.007.451.451,0,0,0,.159-.016,32.66,32.66,0,0,1-1.905,6.012c-.773-1.044-1.559-2.083-2.4-3.1a8.958,8.958,0,0,0-2.688-2.658c-.081-.042-.166.027-.151.088.285,1.16,1.4,2.2,2.186,3.209q1.354,1.742,2.639,3.513a1.07,1.07,0,0,0-.123,2.005.6.6,0,0,0,.572-.057.137.137,0,0,0,.019-.015,1.4,1.4,0,0,0,.275,0c.009.006.016.013.024.018a.67.67,0,0,0,.749,0,.878.878,0,0,0,.354-.849,1.117,1.117,0,0,0,.036-.24,1.271,1.271,0,0,0-.749-1.1,26.72,26.72,0,0,0,2.251-7.782c.023-.186-.173-.3-.385-.326a12.439,12.439,0,0,1,4.062-5.117,10.435,10.435,0,0,1-.2,6.277,4.269,4.269,0,0,0,.4,3.395c.895,2.188,1.109,4.238-.235,6.364-.785,1.242-1.556,2.1-1.591,3.505a.34.34,0,0,0,.072.215,34.914,34.914,0,0,1-5.308.8,30.422,30.422,0,0,1-5.458-.106c-.593-2.048-2.616-3.491-3.6-5.421-1.316-2.584-.245-4.648-.027-7.225,0-.013-.02-.018-.031-.01-1.8,1.351-1.945,3.683-1.636,5.5.455,2.677,3.061,4.521,3.936,6.979a71.22,71.22,0,0,1-12.7-3.587c-.446-.154-.824.307-.391.51l.1.047a.474.474,0,0,0-.071.243c-.045,3.577-.191,7.164-.1,10.741a9.385,9.385,0,0,0,2.793,7.1c4.109,3.867,11.9,5.4,18.168,5.13,6.544-.279,11.87-3.1,14.938-7.48C972.3,521.662,971.588,515.23,970.528,509.111Zm-2.518,15.863c-2.516,4.8-7.674,8.293-14.6,8.615-5.914.275-13.778-1.2-17.377-5.112-2.281-2.475-2.012-5.59-2-8.473.011-2.6,0-5.2,0-7.8a39.332,39.332,0,0,0,19.261,3.564,32.809,32.809,0,0,0,16.121-5.656C970.192,515.051,970.459,520.3,968.01,524.974Z" fill="#231f20"/>
        <path id="Tracé_242" data-name="Tracé 242" d="M947.936,505.68a.514.514,0,0,0-.531-.449c-.935-.081-1.3,1.378-.313,1.452C947.748,506.732,948.173,506.09,947.936,505.68Z" fill="#231f20"/>
        <path id="Tracé_243" data-name="Tracé 243" d="M957.151,504.613a.856.856,0,0,0-.826.531.727.727,0,0,0-.153.146c-.135.209-.005.4.209.478a.866.866,0,0,0,.579.4.645.645,0,0,0,.463-.082h.005C958.384,505.823,958.277,504.568,957.151,504.613Z" fill="#231f20"/>
      </g>
    </g>
  </g>
</svg>
