<svg xmlns="http://www.w3.org/2000/svg" width="178.58" height="249.45" viewBox="0 0 178.58 249.45">
  <g id="fr-lapin" transform="translate(-74 -106)">
    <g id="Groupe_238" data-name="Groupe 238" transform="translate(3.347 59.392)">
      <g id="Groupe_237" data-name="Groupe 237">
        <rect id="bg" width="178.58" height="249.45" rx="8.5" transform="translate(70.653 46.608)" fill="#fff"/>
        <path id="Tracé_153" data-name="Tracé 153" d="M242.153,104.868V56.7a3.012,3.012,0,0,0-3.01-3.01H80.743a3,3,0,0,0-3,3.01v229.26a3,3,0,0,0,3,3.009h158.4a3.012,3.012,0,0,0,3.01-3.009V138.008m0-.01V104.9M99.663,91.558a.072.072,0,0,1,.02-.04.138.138,0,0,0-.02.06" fill="#fceef4"/>
      </g>
    </g>
    <g id="Groupe_318" data-name="Groupe 318" transform="translate(3.347 59.392)">
      <path id="Tracé_442" data-name="Tracé 442" d="M150.284,137.038c-.944-2.516-.863-5.533-1.437-8.212a28.281,28.281,0,0,0-2.341-6.416c-1.308-2.744-2.035-6.591-4.358-8.374a2.442,2.442,0,0,0-.577-1.393,32.246,32.246,0,0,0-5.968-4.985,9.691,9.691,0,0,0-5.111-2.2,1.549,1.549,0,0,0-.427-.3c-2.223-1.066-6.038.433-5.706,3.7.435,4.282,5.946,4.7,8.751,5.192.071.013.138,0,.208.011a15.756,15.756,0,0,0,3.039,1.252,8.659,8.659,0,0,1,4.385,3.218c.884,1.979,1.926,3.909,2.789,5.8a51.187,51.187,0,0,1,3.757,13.627C147.6,140.121,151.05,139.077,150.284,137.038Z" fill="#ffe9ed"/>
      <path id="Tracé_443" data-name="Tracé 443" d="M178.87,122.28a29.472,29.472,0,0,0-.3-3.857,1.953,1.953,0,0,0,.1-1.2,7.18,7.18,0,0,0-.46-1.115l-.005-.019a2.757,2.757,0,0,0,.131-1.766,36.9,36.9,0,0,0-2.2-5.607,12.58,12.58,0,0,0-1.892-3.844,2.635,2.635,0,0,0-.428-.976c-1.747-2.459-5.627-1.363-4.9,2.088a22.421,22.421,0,0,0,2.09,4.869c.918,1.882,1.9,3.7,2.973,5.481a2.644,2.644,0,0,0,.683.761,40.784,40.784,0,0,0,.711,5.455,42.191,42.191,0,0,1-.587,13.389c-.461,2.292,2.8,3.251,3.2.966A67.492,67.492,0,0,0,178.87,122.28Z" fill="#ffe9ed"/>
      <path id="Tracé_444" data-name="Tracé 444" d="M187.135,213.589a2.525,2.525,0,0,0,.058-.865c-.141-1.286-.3-2.884-.594-4.484-.113-2.9-.82-5.848-1.138-8.686-.467-4.155-.874-8.318-1.154-12.494s-.309-8.331-.425-12.506c-.03-1.052-.018-2.146-.025-3.246.843-6.307,2.066-14.847-.5-20.877a2.129,2.129,0,0,0-.026-1.264c-.1-.3-.183-.549-.271-.781a20.808,20.808,0,0,0-.8-3.193c-.2-.814-.353-1.636-.479-2.464.652-1.308.424-3.221.142-4.9a26.983,26.983,0,0,0,.246-3.354,32.451,32.451,0,0,0-.254-5.436A56.752,56.752,0,0,0,181.5,117.9c.6-2.751-.628-6.3-1.312-8.766a19.753,19.753,0,0,0-1.715-5.07,1.968,1.968,0,0,0-.177-.655,22.313,22.313,0,0,0-4.88-6.439c-1.327-1.228-3.688-3.559-5.641-3.39a5.5,5.5,0,0,0-4.1-.7A2.849,2.849,0,0,0,161.9,94.4,2.423,2.423,0,0,0,160.4,97.16c.58,3.456,2.466,6.345,3.674,9.556,1.267,3.371,3.107,6.228,4.554,9.479,3.224,7.242,1.871,15.449,1.53,23.246a20.608,20.608,0,0,1-1.533,3.166,10.325,10.325,0,0,1-5.416,4.169c-2.336.746-4.814.876-6.705-1.081a7.576,7.576,0,0,1-.857-1.091c-.241-.527-.478-1.048-.705-1.56a2.5,2.5,0,0,0-.45-.692,68.854,68.854,0,0,0-.838-8.844c-.468-3.209-.892-7.709-2.718-10.692a2.445,2.445,0,0,0-.05-1.161c-2.143-7.738-6.3-15.442-13.374-18.765-.509-.239-1.034-.457-1.566-.663a1.719,1.719,0,0,0-.323-.3c-3.614-2.514-8.491-2.957-12.673-2.964-.419,0-.888-.021-1.381-.042a5.63,5.63,0,0,0-3.412.036,8.388,8.388,0,0,0-1.107.2c-5.767-.028-11.81,7.588-6.6,13.391,3.619,4.035,8.94,5.014,13.727,6.3,6.2,1.66,11.385,4.107,14.394,10.45.358.474.712.949,1.058,1.432a2.526,2.526,0,0,0,.673.362c.084.342.177.683.266,1.025a17.017,17.017,0,0,1,1.129,2.068,36.185,36.185,0,0,1,2.585,9.642,1.3,1.3,0,0,1-.409,1.188,113.093,113.093,0,0,1-2.4,16.654c-.836,4.272-1.774,9.052-.224,13.073a35.71,35.71,0,0,0,.3,3.582c.119,1.239.375,2.466.538,3.7a39.192,39.192,0,0,0-6.4,10.09,61.567,61.567,0,0,0-3.663,14.962c-.67,5.365-.758,15.277,3.523,19.7,2.077,5.555,8.929,10.329,13.73,10.654,2.575.174,5.752-.353,7.11-3.076.479-.961.32-2.782-.219-4.374a5.2,5.2,0,0,0,.761.087,6.145,6.145,0,0,0,2.764-.521c1.116,3.652,3.362,8.255,7.291,8.009,5.544-.345,3.282-7.112,2.312-10.591-.125-.449-.241-.907-.352-1.368a7.57,7.57,0,0,0,4.177.993,2.766,2.766,0,0,0,.6,2.177,4.659,4.659,0,0,0,.858,3.209,4.994,4.994,0,0,0,6.185,1.415c6.538-2.831,6.362-11.582,6.444-17.929C187.207,214.957,187.187,214.315,187.135,213.589Zm-37.18-74.015c-.157.036-.314.075-.474.112-.033,0-.091,0-.191.01a2.472,2.472,0,0,1-.421.024c-.159,0-.319-.014-.479-.018-.029-.053-.063-.1-.091-.155-.979-1.956-1.073-4.5-1.74-6.6a18.681,18.681,0,0,0-.93-2.357c-.137-2.7-1.517-5.668-2.745-7.862a13.337,13.337,0,0,0-1.809-2.6,17.879,17.879,0,0,0-3.851-3.949c-4.628-3.438-13.29-1.507-13.287-8.817a6.867,6.867,0,0,1,3.558-2.589c1.626.229,3.261.411,4.892.547,6.34,2.8,12.844,12.55,14.486,17.546a2.316,2.316,0,0,0,.809,1.167c.28,3.049,1.671,6.207,2.075,9.155A33.984,33.984,0,0,1,149.955,139.574Zm20.8,33.554c-3.037,4.072-12.113,3.584-12.505-2.6a4.055,4.055,0,0,1,.107-2.316,4.108,4.108,0,0,1,2.846-2.8.815.815,0,0,1,.086-.066,2.989,2.989,0,0,1,.644-.272,8.815,8.815,0,0,1,6.314.272C171.028,166.684,172.951,170.178,170.752,173.128Zm8.575-40.6c-.436,1.618-1.065,3.253-1.511,4.815-.158.549-.345,1.069-.5,1.574l-.069.079c-.018.02-.129.136-.142.158-.064.05-.13.1-.2.142,0,0-.313.171-.228.135-.029.013-.1.038-.181.067-.127-.118-.248-.231-.358-.328-.379-.337-.778-.724-1.207-1.038a48.009,48.009,0,0,0-1.11-20.683c-1.088-3.492-3.106-6.568-4.483-9.928-.108-.262-.239-.523-.358-.785a2.051,2.051,0,0,0,.166-.609c.182-1.6-.05-2.968.692-4.018,1.8-.425,4.593,2.363,5.57,3.737a1.7,1.7,0,0,0,.571.522c.29.827.638,1.647.953,2.548.226.645.426,1.276.611,1.9.019.084.04.167.059.251.547,2.448.3,5.4,1.28,7.682a55.126,55.126,0,0,1,.1,5.937c-.092,2.344-.566,4.693.071,6.957a1.35,1.35,0,0,0,.278.511C179.333,132.285,179.331,132.409,179.327,132.53Z" fill="#e3e4e5"/>
      <g id="Groupe_317" data-name="Groupe 317">
        <path id="Tracé_445" data-name="Tracé 445" d="M186.541,201.244c-1.51-9.55-3.274-18.894-1.972-28.585,1.149-8.543,1.39-17.78-1.715-25.947a.44.44,0,0,0-.208-.236c-.153-6.927-.021-13.856-.109-20.784-.07-5.381-.092-10.9-1.352-16.159a25.771,25.771,0,0,0-7.329-12.825c-2.651-2.509-6.69-5.642-10.551-4.445-3.2.992-3.734,4.326-3.03,7.253a15.018,15.018,0,0,0,2.075,4.52A53.886,53.886,0,0,1,170.7,131c.192,5.544-1.3,13.657-7.357,15.383-6.932,1.975-8.309-5.418-8.812-10.519a67.729,67.729,0,0,0-2.819-14.5c-1.633-5.023-3.831-10.241-7.487-14.1a30.437,30.437,0,0,0-11.25-7.3c-7.082-2.707-19.018-3.84-23.667,3.837-2.107,3.479-1.694,7.25,1.393,9.911,3.245,2.8,7.536,3.692,11.573,4.582,3.132.689,6.365,1.4,9.137,3.108a25.418,25.418,0,0,1,7.727,8.368,28.534,28.534,0,0,1,4.305,19.43c-.833,5.919-2.873,11.6-3.49,17.557a28.506,28.506,0,0,0,.2,7.935c.142.8,2.031,5.589,1.662,5.938a.384.384,0,0,0-.069.5c-8.1,11.953-13.862,26.943-9.091,41.353,1.706,5.153,4.724,10.115,9.373,13,3.487,2.164,9.671,3.886,13.362,1.217a10.258,10.258,0,0,0,1.295.2c.569.052.542-.853-.023-.9-.134-.012-.276-.028-.424-.048a6.121,6.121,0,0,0,.425-.466,5.247,5.247,0,0,0,.815-1.514c.232-.01.463-.023.689-.048.565-.063.547-.969-.023-.9-.142.016-.291.024-.438.035a5.634,5.634,0,0,0-.148-2.313c.028-.013.056-.021.084-.034.486-.224.1-.9-.37-.792a6.2,6.2,0,0,0-1.27-1.893c-2.183-2.21-6.416-3.248-7.069-6.648-.109-.57-.96-.3-.851.263.838,4.366,6.7,4.89,8.356,8.563a5.591,5.591,0,0,1-1.7.193c-.572-.021-.547.884.023.9a6.133,6.133,0,0,0,1.961-.254,5.035,5.035,0,0,1,.13.664,5.237,5.237,0,0,1-.03,1.364,3.749,3.749,0,0,1-1.578-.368c-.511-.264-.94.529-.429.793a4.564,4.564,0,0,0,1.755.461,4.015,4.015,0,0,1-1.426,1.767,3.159,3.159,0,0,1-1.692-1c-.343-.459-1.1.012-.756.477a3.615,3.615,0,0,0,1.439,1.093,10.525,10.525,0,0,1-5.182.648,15.694,15.694,0,0,1-7.5-2.931c-8.908-6.5-10.991-19.845-8.929-30.086,1.681-8.352,5.656-16.077,10.443-23a.4.4,0,0,0-.313-.631,10.065,10.065,0,0,0-.392-1.412,33.094,33.094,0,0,1-1.512-6.458c-.467-5.416.894-10.727,2.13-15.946,1.133-4.788,2.2-9.719,1.645-14.672a31.478,31.478,0,0,0-5.875-14.386c-2.787-3.9-6.166-7.025-10.7-8.581-4.769-1.635-9.99-1.811-14.467-4.307-1.967-1.1-4-2.705-4.538-5.037-.671-2.875,1.145-6,3.326-7.726,3.865-3.051,9.814-3.318,14.462-2.566a31.081,31.081,0,0,1,13.674,5.868c4.575,3.465,7.324,8.22,9.39,13.554a59.421,59.421,0,0,1,3.74,16.1c.307,3.369.426,7.762,2.664,10.5,2.356,2.882,6.543,2.873,9.548,1.118,3.748-2.189,5.163-7.293,5.674-11.37.664-5.3-.342-11.04-1.678-16.17a53.626,53.626,0,0,0-6.226-14.58c-1.287-2.093-2.55-4.157-2.649-6.706-.131-3.388,2.528-5.224,5.736-4.362,5.638,1.515,10.419,7.53,12.519,12.788,2.27,5.683,2.38,11.98,2.5,18.025.146,7.633-.038,15.267.142,22.9a.406.406,0,0,0,.346.41c2.463,6.677,2.652,14.079,2.049,21.114-.3,3.551-.952,7.046-1.022,10.618a74.789,74.789,0,0,0,.857,11.835c1.1,7.848,2.878,15.633,3.016,23.589.1,5.873-.433,16.226-6.85,18.914,0-.3.006-.6,0-.9a.445.445,0,0,0-.89.024c.013.4.014.793,0,1.186a4.178,4.178,0,0,1-2,.09c.077-.367.147-.736.207-1.109.092-.572-.771-.793-.864-.218q-.083.51-.184,1.017a3.26,3.26,0,0,1-.967-.769,9.347,9.347,0,0,0,1.063-2.494.446.446,0,0,0-.864-.218,8.209,8.209,0,0,1-.75,1.846,4.634,4.634,0,0,1-.262-.7c-.657-2.362.037-4.805.449-7.146.711-4.035.081-8.078-.6-12.075-.1-.571-.947-.3-.851.263a53.239,53.239,0,0,1,.887,7.466c.068,2.58-.573,4.96-.9,7.489a9.224,9.224,0,0,0,.707,5.624,11.351,11.351,0,0,1-1.13,1.4.449.449,0,0,0,.645.623,12.3,12.3,0,0,0,1.045-1.257,4.046,4.046,0,0,0,.807.678,5.294,5.294,0,0,0,.49.278,14.229,14.229,0,0,1-.557,1.742c-.213.535.564.976.779.437a16.394,16.394,0,0,0,.606-1.855,4.257,4.257,0,0,0,2.177.033,13.96,13.96,0,0,1-.463,2.544.445.445,0,0,0,.863.217,14.793,14.793,0,0,0,.511-3.059c3.073-1.348,5.549-5.588,6.4-8.212C189.072,218.322,187.819,209.322,186.541,201.244Z" fill="#231f20"/>
        <path id="Tracé_446" data-name="Tracé 446" d="M171.41,233.819c-.119-.026-.236-.06-.354-.087a12.789,12.789,0,0,0-.233-2.884c-1.068-5.6-3.661-11.2-1.432-16.9.209-.535-.569-.976-.78-.436-1.51,3.863-1.014,8.084-.075,12.035.483,2.029,1.891,5.357,1.8,8.012q-.589-.162-1.171-.356c-.544-.184-.754.7-.214.878.427.145.86.271,1.294.387a3.652,3.652,0,0,1-.785,1.719,6.052,6.052,0,0,1-.933-.814c-.369-.446-.978.214-.613.656a5.3,5.3,0,0,0,.874.77,2.837,2.837,0,0,1-2.091.44,3.066,3.066,0,0,1-.238-.813c-.081-.569-.971-.553-.889.023a4.156,4.156,0,0,0,.1.482,8.648,8.648,0,0,1-3.037-2.421,14.718,14.718,0,0,1-2.836-6.22c-1.262-5.574-.6-11.391-.207-17.028.04-.581-.85-.553-.89.023-.439,6.341-1.227,13.023.762,19.187.955,2.96,3.369,6.94,6.68,7.6a5.407,5.407,0,0,0,1.961,1.874c.5.289.926-.505.429-.793a5.04,5.04,0,0,1-1.243-1.005c.1,0,.2,0,.309-.009a3.7,3.7,0,0,0,1.947-.744,11.325,11.325,0,0,0,.957.677c.491.3.918-.491.429-.793-.263-.162-.514-.342-.761-.529a4.816,4.816,0,0,0,.8-2.1c.075.017.149.039.224.055C171.755,234.819,171.97,233.941,171.41,233.819Z" fill="#231f20"/>
        <path id="Tracé_447" data-name="Tracé 447" d="M152.968,162.128a.958.958,0,0,0-.112-.619,1.693,1.693,0,0,0-.144-.311,1.3,1.3,0,0,0-1.454-1.014c-.916.195-1.164,1.223-.936,2.1a1.058,1.058,0,0,0,.366.83c.112.609.506,1.06,1.239.849a1.3,1.3,0,0,0,1.025-1.548A1.8,1.8,0,0,0,152.968,162.128Z" fill="#231f20"/>
        <path id="Tracé_448" data-name="Tracé 448" d="M176.219,162.939a1.768,1.768,0,0,0,.445-1.957,1.376,1.376,0,0,0-1.647-.966,1.609,1.609,0,0,0-1.169,1.509,1.5,1.5,0,0,0,.072.44,1.468,1.468,0,0,0,.634,1.22,1.255,1.255,0,0,0,.945.118.435.435,0,0,0,.149-.049A1.7,1.7,0,0,0,176.219,162.939Z" fill="#231f20"/>
        <path id="Tracé_449" data-name="Tracé 449" d="M167.508,172.416c-.774-.558-2.218-1.719-1.87-2.834a.407.407,0,0,0,.006-.231,1.481,1.481,0,0,0,.149-.74.8.8,0,0,0,0-.481.787.787,0,0,0-.208-.321.5.5,0,0,0-.558-.578,1.728,1.728,0,0,0-.282.094,1.223,1.223,0,0,0-.178-.055.887.887,0,0,0-.345.02c-.01,0-.02-.006-.03-.007a.455.455,0,0,0-.5.221l-.026.06a.873.873,0,0,0-.46.871,1.21,1.21,0,0,0,.191,1.044,1.014,1.014,0,0,0,.074.073.444.444,0,0,0,.53.532c.036.031.077.057.112.087a2.325,2.325,0,0,1-1.408,2.1c-.531.207-.278,1.075.259.866a3.171,3.171,0,0,0,1.924-2.282,6.58,6.58,0,0,0,2.184,2.355C167.547,173.546,167.97,172.749,167.508,172.416Z" fill="#231f20"/>
        <path id="Tracé_450" data-name="Tracé 450" d="M165.736,164.028c-2.161.058-4.708-.007-6.508,1.419a5.637,5.637,0,0,0-1.821,5.469c.647,3.57,3.729,5.539,7.146,5.57,3.114.028,6.624-1.573,7.561-4.825C173.324,167.463,169.572,164.228,165.736,164.028Zm5.051,8.485c-1.249,2.151-3.908,3.1-6.257,3.068-2.746-.032-5.331-1.42-6.122-4.252A4.755,4.755,0,0,1,160.3,165.8c1.611-.923,3.673-.824,5.462-.871C169.463,165.126,172.964,168.765,170.787,172.513Z" fill="#231f20"/>
        <path id="Tracé_451" data-name="Tracé 451" d="M177.965,138.295a60.411,60.411,0,0,0,1.529-19.52,38.348,38.348,0,0,0-2.119-9.166c-.838-2.34-1.652-5.063-3.546-6.771-1.09-.982-2.892-1.858-4.2-.779-1.266,1.046-1.258,3.258-1.025,4.723.436,2.734,2.335,4.787,3.689,7.086,2.092,3.551,2.3,8.366,2.606,12.414a35.95,35.95,0,0,1-.147,7.348,15.155,15.155,0,0,0-.416,3.564c.194,1.706,1.421,2.694,2.661,2.144a.442.442,0,0,0,.768-.171c.042-.172.077-.346.117-.518A.408.408,0,0,0,177.965,138.295Zm-2.74-1.573a14.754,14.754,0,0,1,.176-1.5c.066-.46.157-.916.217-1.377a35.639,35.639,0,0,0,.285-5.1,61.048,61.048,0,0,0-1.045-9.982,20.123,20.123,0,0,0-3.494-7.942c-1.139-1.738-3.451-6.178-1.122-7.984,2.975-2.306,5.53,4.936,6.188,6.771A38.234,38.234,0,0,1,178.6,118.8a59.469,59.469,0,0,1-1.5,19.272C175.716,138.217,175.085,137.77,175.225,136.722Z" fill="#231f20"/>
        <path id="Tracé_452" data-name="Tracé 452" d="M150.619,138.176a.417.417,0,0,0-.039-.207,56.829,56.829,0,0,0-2.056-11.438,39.638,39.638,0,0,0-4.258-10.708,28.425,28.425,0,0,0-7.179-7.731c-2.419-1.785-5.815-4.272-8.978-4.063-5.395.356-5.861,7.021-1.264,9.061,3.447,1.529,7.364,1.137,10.587,3.327,3.646,2.477,5.739,6.83,7.041,10.95a65.127,65.127,0,0,1,1.7,6.734c.339,1.681.517,3.556,1.629,4.933,1.015,1.258,2.067,1.269,2.548.241a.4.4,0,0,0,.281-.42c-.009-.188-.025-.375-.035-.562C150.6,138.251,150.616,138.219,150.619,138.176Zm-2.307.048a4.963,4.963,0,0,1-.68-1.535,27.034,27.034,0,0,1-.6-2.851c-.406-2.011-.893-4.019-1.477-5.985a27.274,27.274,0,0,0-4.295-8.975,13.47,13.47,0,0,0-6.478-4.741c-3.132-1.018-9.447-.661-10.264-4.873a3.746,3.746,0,0,1,3.617-4.33c2.215-.154,4.345,1.271,6.165,2.382a28.016,28.016,0,0,1,8.442,7.82,34.876,34.876,0,0,1,4.6,10.5,57.328,57.328,0,0,1,2.362,12.6C149.114,138.986,148.65,138.987,148.312,138.224Z" fill="#231f20"/>
      </g>
    </g>
  </g>
</svg>
