<svg xmlns="http://www.w3.org/2000/svg" width="178.58" height="249.45" viewBox="0 0 178.58 249.45">
  <g id="fr-ours" transform="translate(-1403 -726)">
    <g id="Groupe_276" data-name="Groupe 276" transform="translate(3.181 59.392)">
      <g id="Groupe_275" data-name="Groupe 275">
        <rect id="bg" width="178.58" height="249.45" rx="8.5" transform="translate(1399.819 666.607)" fill="#fff"/>
        <path id="Tracé_172" data-name="Tracé 172" d="M1571.319,724.868V676.7a3.012,3.012,0,0,0-3.01-3.01h-158.4a3,3,0,0,0-3,3.01v229.26a3,3,0,0,0,3,3.009h158.4a3.012,3.012,0,0,0,3.01-3.009V758.008m0-.01V724.9m-142.49-13.34a.072.072,0,0,1,.02-.04.137.137,0,0,0-.02.06" fill="#fceef4"/>
      </g>
    </g>
    <g id="Groupe_319" data-name="Groupe 319" transform="translate(12 84)">
      <path id="Tracé_453" data-name="Tracé 453" d="M1497.913,728.077c-.864-2.937-4.109-8.3-7.488-5.75a6.646,6.646,0,0,0-2.065-.248c-3.877.134-5.951,3.266-6.625,6.759-1.144,5.934,2.14,14.46,8.513,14.407a4.874,4.874,0,0,0,4.294-1.293,2.484,2.484,0,0,0,.664-.484,8.749,8.749,0,0,0,1.053-1.232C1498.943,736.7,1499.208,732.479,1497.913,728.077Z" fill="#ddb294"/>
      <path id="Tracé_454" data-name="Tracé 454" d="M1528.94,811.515c-.219-1.92-.5-3.833-.842-5.737a37.528,37.528,0,0,0-1.452-7.387c.2-1.572.122-3.4-1.061-4.4-1.2-6.258-2.579-12.491-3.536-18.8-.649-4.272-1.506-8.5-2.124-12.781-.364-2.52-.574-5.14-1.077-7.67-.036-.595-.058-1.185-.049-1.767.048-3.358.745-7.13-.412-10.271a103.109,103.109,0,0,0,.036-10.463c-.315-5.644-1.554-11.1-2.246-16.691a29.2,29.2,0,0,1-.064-7.724,21.964,21.964,0,0,1,.46-2.2c2.361-3.5,3.961-9.98-1.734-10.444-4.787-.389-6.374,3.883-6.672,8.035-6.3-1.251-12.534-.286-18.947.542-3.707.478-7.472.448-11.2.691-3.441.224-7.129-.12-10.459.852a1.958,1.958,0,0,0-.584.283,17.09,17.09,0,0,0-3.272.293,7.363,7.363,0,0,0-3.505-7.408,5.094,5.094,0,0,0-2.393-.722,2.794,2.794,0,0,0-.839-.4,3.021,3.021,0,0,0-2.881.768,4.127,4.127,0,0,0-.818,1.232,2.724,2.724,0,0,0-.276.409,3.631,3.631,0,0,0-.275,2.9,2.8,2.8,0,0,0,.2.453c.006,3.041,1.241,6.32,1.559,9.151.239,2.13.263,4.6.692,6.89-.734,1.279-.545,3.013-.433,4.73a110.929,110.929,0,0,1-.269,13.371,62.53,62.53,0,0,1-2.057,13.093c-1.113,4.046-3.141,8.224-3.4,12.413-4.569,6.921-5.672,16.957-7.341,24.768a140.8,140.8,0,0,0-2.414,13.921c-.044.395-.094.816-.146,1.249-.025.012-.052.022-.078.034a1.679,1.679,0,0,0-1.4.212c-.481.33-.9.716-1.35,1.071a2.192,2.192,0,0,0-.317.131c-1.731.923-3.611,2.03-4.057,4.1-.495,2.293,1.092,4.312,3.061,5.268a3.455,3.455,0,0,0,3.338.114,2.662,2.662,0,0,0,.475-.361c-.292,9.277,5.036,19.79,13.93,22.752,7.931,2.642,26.121-.4,24.642-11.889,0-.024-.01-.046-.013-.069a13.208,13.208,0,0,0,3.056-.215c2.209,5.276,5.8,9.752,11.487,9.75a10.008,10.008,0,0,0,8.215-3.677c2.121-.853,3.354-3.821,3.949-6.11a7.962,7.962,0,0,0-.38-5.205c-.015-.036-.034-.075-.052-.113.011-.264.021-.527.026-.789a8.1,8.1,0,0,0,3.841.911c-.117,1.312-.265,2.628-.389,3.975-1.1,1.863-.35,5.1,1.394,6.7a7.518,7.518,0,0,0,3.241,2.922,2.938,2.938,0,0,0,.982.657,10.291,10.291,0,0,0,9.67-.867,3.484,3.484,0,0,0,1.377-.773,13.649,13.649,0,0,0,4.372-7.472C1530.57,820.829,1529.324,814.88,1528.94,811.515Zm-35.91-68.739c-.144.066-.3.117-.448.173-.061.02-.116.049-.177.068l-.01,0c-.063.021-.122.05-.186.07-3.83,1.177-6.988-2.391-9.4-5.335a18.084,18.084,0,0,1-.6-3.478c-1.114-4.157-.859-8.95,3.127-11.131a1.117,1.117,0,0,1,.622-.142,17.749,17.749,0,0,1,3.868-.9,1.089,1.089,0,0,1,.934.2,5.954,5.954,0,0,1,2.044.152c2.461.649,3.977,3.152,4.762,5.756a1.141,1.141,0,0,1,.412.555C1499.829,733.893,1498.3,740.665,1493.03,742.776Z" fill="#c19676"/>
      <path id="Tracé_455" data-name="Tracé 455" d="M1529.994,814.634c-.2-7.622-2.23-15.157-4-22.563-1.989-8.309-4.057-16.624-5.167-25.083-1.129-8.612-1.093-17.341-1.461-26a236.3,236.3,0,0,0-2.111-24.971c-.372-2.488-1.043-5.027-.617-7.542.314-1.857,1.314-3.4,2.077-5.1,1.08-2.412.928-5.538-1.327-7.376-1.99-1.624-5.027-1.071-7,.316-2.341,1.646-3.062,4.428-3.071,7.037-7.3-1.622-15.024-.3-22.339.573a121.164,121.164,0,0,1-13.3.437c-2.375.02-5.036.02-7.156,1.111-.219-3.9-4.059-9.761-8.807-8.378a5.507,5.507,0,0,0-3.792,5.915,39.152,39.152,0,0,0,1.52,5.126,28.342,28.342,0,0,1,.752,7.219c.065,9.159.188,18.405-1.046,27.509-1.3,9.573-4.971,18.54-7.781,27.776a191.586,191.586,0,0,0-6.483,27.785q-.282,1.91-.509,3.848a.439.439,0,0,0-.05.011c-3.429,1.478-9.509,5.235-6.522,9.463,1.061,1.5,4.386,3.14,6.139,2.2a39.633,39.633,0,0,0,1.167,7.534c1.694,6.494,6.519,11.394,13.267,13.749,5.649,1.972,12.659,1.248,18.118-1.016a13.7,13.7,0,0,0,1.68-.838,27.963,27.963,0,0,1,3.72,3.142c.413.388,1.057-.21.644-.6a31.248,31.248,0,0,0-3.58-3.043,11.684,11.684,0,0,0,2.825-2.709,14.9,14.9,0,0,1,2.633,1.057c.512.266.973-.465.46-.731a16.059,16.059,0,0,0-2.6-1.067,9.085,9.085,0,0,0,1.353-5.133c.5.057,1.006.124,1.5.2.574.092.82-.723.243-.816-.606-.1-1.219-.181-1.834-.245a9.778,9.778,0,0,0-1.158-3.386,9.262,9.262,0,0,0-7.02-4.451c-4.849-.668-8.807,2.352-13.5,2.707-.581.044-.586.891,0,.846,3.388-.256,6.247-1.928,9.52-2.576,3.546-.7,7.557.18,9.686,3.077a8.425,8.425,0,0,1,1.579,3.709,12.315,12.315,0,0,0-5.113.6c-.538.2-.3,1.019.242.817a11.751,11.751,0,0,1,4.955-.566,8.487,8.487,0,0,1-1.394,4.953,14.458,14.458,0,0,0-3.985-.423.423.423,0,1,0,0,.846,13.6,13.6,0,0,1,3.455.328,11.141,11.141,0,0,1-2.676,2.436,9.581,9.581,0,0,0-2.481-1.056.426.426,0,1,0-.242.816,8.508,8.508,0,0,1,1.894.747c-.338.185-.677.368-1.037.523-5.174,2.214-11.954,2.937-17.35,1.137a19.15,19.15,0,0,1-13.162-14.22,41.771,41.771,0,0,1-.94-7.353,2.94,2.94,0,0,0,.192-.707.321.321,0,0,0-.224-.371,76.1,76.1,0,0,1,.821-12.138,177.65,177.65,0,0,1,5.27-24.226c2.166-7.609,5.1-15.028,7.186-22.647a94.334,94.334,0,0,0,2.922-21.87c.146-4.433.125-8.868.123-13.3,0-3.916-.036-7.709-1.326-11.474-.754-2.2-1.62-4.4-.12-6.522a4.055,4.055,0,0,1,5.352-1.391,8.858,8.858,0,0,1,4.6,7.739c-.056.042-.118.072-.173.116-.445.356.2.952.645.6,2.491-1.99,6.465-1.5,9.521-1.556a108.236,108.236,0,0,0,11.977-.5c7.172-.925,14.933-2.148,22.068-.4a.454.454,0,0,0,.577-.408c-.112-3.358,1.108-7.066,5.086-7.905,4.9-1.034,5.85,4.448,4.325,7.569-1.131,2.316-2.146,4.4-2.052,7.02.126,3.5,1.021,7.023,1.428,10.5,1.721,14.729.99,29.609,2.7,44.321,1.613,13.863,6.1,27.2,8.471,40.937,1.14,6.6,1.884,14.326-1.21,20.59a11.547,11.547,0,0,1-7.9,6.269c.075-.955.1-1.92.108-2.895,0-.545-.908-.546-.911,0-.006,1.022-.028,2.039-.113,3.046a10.291,10.291,0,0,1-4.3-.384,14.09,14.09,0,0,0,.156-2.662c-.021-.544-.932-.546-.911,0a13.755,13.755,0,0,1-.114,2.337,11.364,11.364,0,0,1-2.737-1.587c-.041-.032-.079-.067-.12-.1a12.351,12.351,0,0,0,1.148-4.6c.026-.544-.885-.543-.911,0a11.385,11.385,0,0,1-.952,3.974,7.721,7.721,0,0,1-2.375-3.828c-.46-2.145.249-4.648.594-6.773a41.249,41.249,0,0,0,.355-11.035c-.8-7.687-3.2-15.128-5.535-22.509-.165-.521-1.045-.3-.879.225,2.539,8.032,5.21,16.183,5.691,24.595.237,4.14-.589,8.065-1.062,12.156-.349,3.018.128,5.352,2.42,7.621.127.127.264.24.4.361a10.363,10.363,0,0,1-2.468,3.1c-.437.364.209.961.644.6a10.934,10.934,0,0,0,2.523-3.1,12.307,12.307,0,0,0,3.114,1.784,7.217,7.217,0,0,1-2.333,4.1c-.436.365.21.962.645.6a7.93,7.93,0,0,0,2.547-4.4,11.469,11.469,0,0,0,4.358.461,13.038,13.038,0,0,1-1.243,4.273c-.247.49.538.92.787.427a14.286,14.286,0,0,0,1.374-4.8,11.149,11.149,0,0,0,4.9-2.136C1529.274,827.933,1530.154,820.689,1529.994,814.634Zm-95.626-1.863a3.761,3.761,0,0,1-2.341-3.416c.155-3.059,3.523-4.91,6.239-6.119a66.019,66.019,0,0,0-.387,9.595C1437.214,813.819,1435.316,813.271,1434.368,812.771Z" fill="#231f20"/>
      <path id="Tracé_456" data-name="Tracé 456" d="M1501.776,829.172c3.541-5.117,3.081-12.06,1.62-17.708-1.186-4.583-2.5-9.095-3.481-13.723-.835-3.94-2.222-9.122-.224-12.937.255-.488-.531-.918-.787-.427-2.582,4.932-.28,11.586.8,16.635,1.491,6.993,4.614,13.832,3.643,21.078a13.706,13.706,0,0,1-3.393,7.894,19.88,19.88,0,0,1-1.125-2.063c-.224-.494-1.106-.277-.878.225a22.567,22.567,0,0,0,1.345,2.426,9.744,9.744,0,0,1-4.638,2.023,10.238,10.238,0,0,1-.672-3.433c0-.545-.908-.545-.911,0a10.706,10.706,0,0,0,.676,3.537,11.765,11.765,0,0,1-4.437-.458c-.348-.108-.674-.243-1-.377.03-.806.1-1.614.2-2.42.068-.54-.843-.535-.911,0-.085.672-.147,1.342-.182,2.008-6.053-3.09-8.018-10.677-8.951-16.546-1.545-9.717-.819-19.708.916-29.357.1-.533-.782-.762-.879-.225a92.279,92.279,0,0,0-1.242,27.494c.8,6.522,2.3,14.182,8.259,18.459a11.744,11.744,0,0,0,1.871,1.089,12.629,12.629,0,0,0,1.181,5.755c.242.5,1.027.066.787-.427a11.387,11.387,0,0,1-1.068-4.955,12.879,12.879,0,0,0,5.729.75c.3.84.63,1.682.884,2.556.153.525,1.032.3.879-.225-.244-.838-.559-1.646-.857-2.453a10.906,10.906,0,0,0,4.806-2.063,12.785,12.785,0,0,1,1.854,4.177c.1.535.981.308.879-.225a13.7,13.7,0,0,0-2.057-4.514A9.453,9.453,0,0,0,1501.776,829.172Z" fill="#231f20"/>
      <path id="Tracé_457" data-name="Tracé 457" d="M1469.909,717.443a1.3,1.3,0,0,0-.244-.231.4.4,0,0,0-.215-.372c-.844-.417-2.006-.391-2.342.6a1.394,1.394,0,0,0-.066.546.8.8,0,0,0-.166.272.767.767,0,0,0,.2.768l0,.01c0,.006.01.007.014.012a1.8,1.8,0,0,0,.269.236c.005.01.011.024.017.034a.36.36,0,0,0,.133.133,2.165,2.165,0,0,0,1.451.608.458.458,0,0,0,.2-.047c.655.035,1.539-.918,1.655-1.476C1470.949,717.9,1470.5,717.579,1469.909,717.443Z" fill="#231f20"/>
      <path id="Tracé_458" data-name="Tracé 458" d="M1507.374,718.8a1.743,1.743,0,0,0,.12-.251,2,2,0,0,0,.571-1.173c.086-1.281-1.659-1.725-2.639-1.1h-.026l-.041-.008c-.009,0-.017.007-.027.007a.444.444,0,0,0-.428.3c0,.012-.007.025-.011.037-.034.059-.069.117-.1.18-.037,0-.067,0-.106.01a.438.438,0,0,0-.318.3,2.479,2.479,0,0,0,0,2.059,1.108,1.108,0,0,0,.83.454,1.08,1.08,0,0,0,.955.215,1.17,1.17,0,0,0,.244-.1,1.124,1.124,0,0,0,.132-.049.212.212,0,0,0,.035-.014,1.126,1.126,0,0,0,.335-.213,1.341,1.341,0,0,0,.182-.241c.021-.024.044-.046.065-.071A.4.4,0,0,0,1507.374,718.8Z" fill="#231f20"/>
      <path id="Tracé_459" data-name="Tracé 459" d="M1493.951,739.046c-.61-.1-1.12-.9-1.439-1.332a13.263,13.263,0,0,1-1.022-1.577l-.01-.011a2.082,2.082,0,0,0,.12-.491,24.227,24.227,0,0,0-.383-3.233c-.013-.385-.119-1.168-.127-1.9a1.848,1.848,0,0,0,.516-.262l.012,0a1.961,1.961,0,0,0,1.16-1.63c0-.018.007-.034.009-.051a2.723,2.723,0,0,0,.032-.329,4.906,4.906,0,0,0,.159-.546.425.425,0,0,0-.209-.478l-.064-.035a2.24,2.24,0,0,0-1.268-.632c-.017,0-.033,0-.05,0s-.028-.011-.043-.012a1.469,1.469,0,0,0-.176.007,2.239,2.239,0,0,0-.233.01l-.068.013-.023,0a2.034,2.034,0,0,0-1.241-.028,1.418,1.418,0,0,0-1.175,1.267,1.253,1.253,0,0,0-.1.285.981.981,0,0,0,.085.617,1.287,1.287,0,0,0,.846,1.1,1.976,1.976,0,0,0,.922.708c0,.788.1,1.59.132,2.1.069,1.2.657,2.782-.031,3.8a7.008,7.008,0,0,1-1.542,1.548c-.467.32-.013,1.055.459.731a7.784,7.784,0,0,0,1.781-1.669,13.435,13.435,0,0,0,1.024,1.482c.414.513.969,1.241,1.7,1.358C1494.283,739.953,1494.529,739.138,1493.951,739.046Z" fill="#231f20"/>
      <path id="Tracé_460" data-name="Tracé 460" d="M1498.4,728.332c-.875-2.351-3.048-7.326-6.464-6.45a.451.451,0,0,0-.227-.06c-2.428.009-5.078.034-7.2,1.273a7.9,7.9,0,0,0-3.511,5.882c-.7,4.648,1.334,10.7,5.456,13.649,4.164,2.976,9.137.719,11.285-3.2A12.8,12.8,0,0,0,1498.4,728.332Zm-4.049,13.7c-6.033,4.218-11.039-3.338-12.181-7.991-.744-3.034-.7-7.1,1.809-9.481,1.815-1.722,4.548-1.868,7.019-1.887a.241.241,0,0,0,.023.032,4.015,4.015,0,0,1,1.36-.054c3.232-.537,5.316,6.063,5.831,8.092C1499.168,734.529,1497.791,739.624,1494.346,742.032Z" fill="#231f20"/>
      <path id="Tracé_461" data-name="Tracé 461" d="M1478.231,725.565a.43.43,0,0,0,.382.756l.092-.02a.438.438,0,0,0,.319-.3l.021-.085C1479.166,725.442,1478.469,725.217,1478.231,725.565Z" fill="#231f20"/>
      <path id="Tracé_462" data-name="Tracé 462" d="M1476.54,728.657l-.022-.086a.434.434,0,0,0-.318-.295l-.093-.021a.43.43,0,0,0-.381.756C1475.964,729.359,1476.661,729.135,1476.54,728.657Z" fill="#231f20"/>
      <path id="Tracé_463" data-name="Tracé 463" d="M1478.606,730.674h-.114a.423.423,0,1,0,0,.846h.114A.423.423,0,1,0,1478.606,730.674Z" fill="#231f20"/>
      <path id="Tracé_464" data-name="Tracé 464" d="M1476.1,733.424a.423.423,0,1,0,0,.846A.423.423,0,1,0,1476.1,733.424Z" fill="#231f20"/>
      <path id="Tracé_465" data-name="Tracé 465" d="M1499.556,723.072a.9.9,0,0,0-.429.214c-.446.355.2.951.644.6l.027,0C1500.37,723.771,1500.128,722.955,1499.556,723.072Z" fill="#231f20"/>
      <path id="Tracé_466" data-name="Tracé 466" d="M1502.866,725.384a.423.423,0,1,0,0,.846A.423.423,0,1,0,1502.866,725.384Z" fill="#231f20"/>
      <path id="Tracé_467" data-name="Tracé 467" d="M1501.043,727.077a.423.423,0,1,0,0,.846A.423.423,0,1,0,1501.043,727.077Z" fill="#231f20"/>
      <path id="Tracé_468" data-name="Tracé 468" d="M1502.069,731.2a.424.424,0,1,0,0,.847A.424.424,0,1,0,1502.069,731.2Z" fill="#231f20"/>
    </g>
  </g>
</svg>
