<svg xmlns="http://www.w3.org/2000/svg" width="178.58" height="249.45" viewBox="0 0 178.58 249.45">
  <g id="fr-pieuvre" transform="translate(-1669 -416)">
    <g id="Groupe_264" data-name="Groupe 264" transform="translate(3.347 59.392)">
      <g id="Groupe_263" data-name="Groupe 263">
        <rect id="bg" width="178.58" height="249.45" rx="8.5" transform="translate(1665.653 356.608)" fill="#fff"/>
        <path id="Tracé_166" data-name="Tracé 166" d="M1837.153,414.868V366.7a3.012,3.012,0,0,0-3.01-3.01h-158.4a3,3,0,0,0-3,3.01v229.26a3,3,0,0,0,3,3.009h158.4a3.012,3.012,0,0,0,3.01-3.009V448.008m0-.01V414.9m-142.49-13.34a.072.072,0,0,1,.02-.04.138.138,0,0,0-.02.06" fill="#fceef4"/>
      </g>
    </g>
    <g id="Groupe_288" data-name="Groupe 288" transform="translate(-1 71)">
      <path id="Tracé_208" data-name="Tracé 208" d="M1807.255,489.141a.91.91,0,0,0-.474.38q-.162.277-.325.553c-.506.861.792,1.938,1.461,1.1.036-.046.074-.077.111-.119,1.828,1.791,3.852,3.4,2.753,6.43-.756,2.088-4.5,3.014-6.363,3.366a20.137,20.137,0,0,1-2.325.288,29.256,29.256,0,0,1-13.484-4.759c-4.953-3.39-7.262-9.414-8.92-15l.345.089a1.143,1.143,0,0,0,.995.322,11.252,11.252,0,0,0,1,.773,1.117,1.117,0,0,0,.327.15,19.582,19.582,0,0,0,2.352,2.163c8.219,8.77,23.559,3.946,29.682-5.525,4.438-6.864,2.95-17.9-2.735-24.359a7.56,7.56,0,0,0-2.44-2.278,13.963,13.963,0,0,0-6.448-2.73,7.451,7.451,0,0,0-2.348-.232,8.579,8.579,0,0,0-6.041,2.952,5,5,0,0,0-1.091,4.417.215.215,0,0,0-.123.159,3.647,3.647,0,0,0,.62,2.817.778.778,0,0,0,1.432-.378c.087-1.449-.226-2.55.209-3.836.412-.178.788-.426,1.284-.686,2.536-1.332,5-.6,6.863,1.46a9.292,9.292,0,0,1,1.091,1.529c.542,5.59-.408,11.867-3.738,16.288-1.964,2.607-5.313,5.982-8.748,6.272-1.828.155-4.321-1.256-6.457-2.494a1.374,1.374,0,0,0-.252-.576c-4.69-6.376-4.124-12.509-1.911-19.681,1.051-3.409,2.476-6.956,2.772-10.535a31.376,31.376,0,0,0,1.551-17.075,26.8,26.8,0,0,0-20.634-20.98c-2.517-1.558-6.635-1.95-9.74-1.347-13.241-2.074-26.866,9.649-29.132,22.465-1.546,8.739,1.345,16.33,4.784,24.247.845,1.947,1.658,3.908,2.47,5.869a.625.625,0,0,0-.063.425c1.523,7.668,4.809,15.111-1.588,21.715a14.673,14.673,0,0,1-14.366,3.974c-1.784-1.021-3.612-2-5.392-3.005a19.333,19.333,0,0,1-2.434-3.826c-.074-.87-.2-1.722-.214-2.353a42.121,42.121,0,0,1,.293-5.449c1.269-3.259,3.936-6.034,7.594-3.833a11.024,11.024,0,0,0,.107,1.789.6.6,0,0,0,1.008.408,5.093,5.093,0,0,0-.29-7.267c-2.688-2.624-7.017-2.154-10.2-.872-6.869,2.769-8.821,9.709-7.473,16.186.739,12.457,14.466,22.7,26.784,17.644a26.514,26.514,0,0,0,10.669-7.817c-.716,3.928-1.418,7.812-3.187,11.522a14.344,14.344,0,0,0-1.555,2.733,22.093,22.093,0,0,1-2.685,3.166c-.9.689-1.794,1.451-2.65,2.23-4.776,3.407-10.441,4.29-12.3-3.126a1.43,1.43,0,0,0,.966-.606c.107-.154.213-.308.32-.461a1.116,1.116,0,0,0-.412-1.533l-.509-.272a1.078,1.078,0,0,0-1.25.158l-.117.109a4.033,4.033,0,0,0-2.662,1.049,5.476,5.476,0,0,0-1.062,1.929c-.019.045-.041.085-.057.134a8.5,8.5,0,0,0-.462,2.888,11.346,11.346,0,0,0,6.553,10.665c6.172,3.152,13.65,1.6,19.556-1.338a24.429,24.429,0,0,0,10.8-10.177,42.361,42.361,0,0,0,1.53,7.238,27.193,27.193,0,0,0,3.236,8.036,33,33,0,0,0,2.13,4.1,1.837,1.837,0,0,0,1.69.85c4.273,4.239,10.819,6.209,16.668,3.567,6.117-2.762,9.679-11.7,6.993-17.81a6.8,6.8,0,0,0-6.377-4.377,5.916,5.916,0,0,0-5.692,2.307,1.446,1.446,0,0,0,.6,2.02c-.033.856,1.391,1.131,1.761.193.065-.063.127-.106.191-.165a6.805,6.805,0,0,1,3.35,1.184,1.444,1.444,0,0,0,.483.152c.035.692.006,1.393-.009,1.763a5.031,5.031,0,0,1-5.513,5.051c-3.5-.143-5.936-2.694-7.762-5.593-2.384-6.217-.707-14.555-1.129-21.384.8-3.264,1.456-6.548,2.073-9.856a9.736,9.736,0,0,1,2.017-.972,2.73,2.73,0,0,1,.314-.06,12.27,12.27,0,0,1,1.94,1.643c.253.8.544,1.59.858,2.366,1.086,4.116,2.539,8.326,4.994,11.665a41.226,41.226,0,0,0,10.68,9.562,19.955,19.955,0,0,0,14.94,2.866,2,2,0,0,0,.879-.009,23.639,23.639,0,0,0,5.664-2.059c.508-.228,1.005-.476,1.493-.735,5.8-2.028,9.815-9.384,9.491-15.018C1816.525,488.4,1811.161,485.2,1807.255,489.141Z" fill="#b1d8ef"/>
      <g id="Groupe_287" data-name="Groupe 287">
        <path id="Tracé_209" data-name="Tracé 209" d="M1816.469,489.431c-1.528-2.34-4.6-4.006-7.455-3.138a5.156,5.156,0,0,0-3.589,6.06.712.712,0,0,0,1.171.3,2.362,2.362,0,0,1,3.516.037,3.249,3.249,0,0,1,.15,4.122c-1.09,1.732-3.216,2.492-5.158,2.857a20.822,20.822,0,0,1-11.629-1.326,20.449,20.449,0,0,1-12.242-15.5c3.465,5.027,10.875,7.578,16.751,7.15a21.588,21.588,0,0,0,16.978-10.832,22.29,22.29,0,0,0-.312-21.823c-3.237-5.442-9.852-10.019-16.531-8.067-2.972.868-5.75,3.14-6.1,6.3a6.193,6.193,0,0,0,4.121,6.68.567.567,0,0,0,.729-.3.774.774,0,0,0,.24-1.419c-2.076-1.175-1.3-4.479.79-5.246,3.535-1.3,6.246,2.821,6.545,5.663.483,4.593-1.676,10.519-4.594,14.081-3.161,3.858-9.276,6.04-13.389,2.2-3.265-3.051-3.9-7.8-3.358-11.97.623-4.829,2.535-9.4,3.776-14.093a63.192,63.192,0,0,0,2.139-12.689c.424-7.8-1.329-15.808-6.714-21.8-11.235-12.5-32.876-12.414-45.839-2.5-6.575,5.029-9.681,13.032-9.709,21.049-.034,9.795,4.49,18.023,8.163,26.831,2.091,5.014,3.41,10.517,1.217,15.72A13.772,13.772,0,0,1,1724.5,486.4c-5.28.311-10.47-2.477-12.184-7.513a10.988,10.988,0,0,1-.046-6.891,9.107,9.107,0,0,1,2.251-3.694c3.038-2.893,6.943,1.389,3.508,3.582q-.252.09-.51.163a.189.189,0,0,0,.051.37c.059,0,.113-.013.171-.014a.392.392,0,0,0,.579.247,3.947,3.947,0,0,0,.576-.4,5.32,5.32,0,0,0,4.094-4.463c.421-3-1.558-5.49-4.3-6.6-6.556-2.657-13.749,1.8-16.269,7.757-5.529,13.075,5.878,29.527,20.242,29.619,6.309.041,12.842-2.981,16.359-8.151a31.443,31.443,0,0,1-5.854,13.35c-1.941,2.505-4.392,5.012-7.6,5.835a6.89,6.89,0,0,1-4.6-.407,5.947,5.947,0,0,1-1.84-1.335c-.6-.667-1.77-3.973.154-3.541a.649.649,0,0,0,.735-.934,4.093,4.093,0,0,0-5.033-1.954c-2.311.737-3.392,3.14-3.623,5.335-.6,5.671,3.385,11.352,8.676,13.456,6.152,2.447,14.679.886,20.373-2.094a19.067,19.067,0,0,0,8.893-9.524c.178,11.2,6.315,24.186,18.874,24.73,5.951.258,11.689-2.846,13.785-8.429,1.972-5.251,1.609-13.69-4.3-16.43-2.4-1.114-5.467-1-7.284,1.076a4.934,4.934,0,0,0-.069,6.616.7.7,0,0,0,1.17-.474q2.06-3.389,4.043-.669a3.172,3.172,0,0,1,.383,2.609,4.971,4.971,0,0,1-2.154,2.753,5.916,5.916,0,0,1-6.471-.5c-3.678-2.518-4.5-7.219-4.937-11.276-.859-7.96-.422-16.055,2.59-23.568a.5.5,0,0,0-.028-.472c.786-.548,1.558-.239,2.315.943a5.3,5.3,0,0,1,.586,1.367c.277.789.474,1.607.732,2.4a42.206,42.206,0,0,0,2.042,5.144,37.061,37.061,0,0,0,5.8,8.777,28.942,28.942,0,0,0,18.313,9.642,21.992,21.992,0,0,0,18.14-6.373C1816.885,502.262,1819.984,494.817,1816.469,489.431Zm-4.646,16.043c-5.844,6.079-14.758,7.448-22.658,4.794-8.305-2.79-14.356-9.46-17.925-17.114-.95-2.038-1.616-4.125-2.356-6.236a5.528,5.528,0,0,0-1.762-2.914,2.364,2.364,0,0,0-3.745,1.07.222.222,0,0,0,.1.26,46.811,46.811,0,0,0-2.743,20.307c.368,5.641.992,12.906,6.774,15.859,3.9,1.993,10.148-.023,9.745-5.087-.289-3.622-5.118-5.089-6.668-2.457a3.817,3.817,0,0,1,1.248-3.932c1.637-1.353,4.028-1.066,5.758-.087,3.279,1.856,4.118,5.941,4.042,9.364-.155,6.95-4.915,12.267-12.11,12.661-6.357.349-11.874-3.686-15.076-8.782-3.567-5.678-3.8-11.966-4.233-18.37a13.054,13.054,0,0,0,.062-1.771.644.644,0,0,0-1.286,0c-.579,11.149-11.376,16.584-21.7,16.9-5.237.162-10.049-1.52-12.866-6.051a11.577,11.577,0,0,1-1.829-6.43,5.973,5.973,0,0,1,1.458-4.012,3.181,3.181,0,0,1,4.138-.3c-1.655.689-1.41,3.738-.373,5.149,2.179,2.964,6.41,3.361,9.624,1.987,4.2-1.794,7.284-5.974,9.384-9.806a28.185,28.185,0,0,0,3.551-12.517c.038-.087.084-.169.121-.257a.507.507,0,0,0-.109-.564c0-.19.013-.379.008-.57a.393.393,0,0,0-.785,0c-.013.124-.035.246-.049.369a.548.548,0,0,0-.3.258,18.488,18.488,0,0,1-16.27,9.984c-7.2.093-13.685-4.26-17.314-10.154-3.826-6.212-4.934-15.351.245-21.2a12.1,12.1,0,0,1,9.887-4.085c2.5.237,5.35,1.5,6.065,4.066a4.577,4.577,0,0,1-1.939,5.069,3.281,3.281,0,0,0-2.147-4.617c-3.778-1.138-6.431,3.821-7.034,6.7-1.855,8.85,6.353,15.877,15.091,14.579,9.721-1.444,14.239-11.56,12.254-20.212-1.351-5.889-4.667-11.13-6.822-16.739-2.256-5.87-3.658-12.185-2.99-18.476a24.391,24.391,0,0,1,7.585-15.678c4.369-3.934,10.207-6.2,15.968-7.327,11.927-2.334,25.48,1.316,31.956,12.015,6.116,10.107,3.757,22.811.488,33.43-1.59,5.165-3.613,10.582-2.752,16.062.609,3.877,2.728,7.907,6.582,9.517,11.153,4.659,19.456-11.438,17.772-20.228-.718-3.75-4.921-7.952-9.092-5.836a4.78,4.78,0,0,0-2.222,5.778c-2.429-2.409-.931-6.922,2.139-8.6,3.553-1.936,7.912-1.15,11.2.914,6.916,4.34,9.614,13.3,7.962,20.909a20.3,20.3,0,0,1-15.185,15.3,19.092,19.092,0,0,1-11.159-.846c-3.55-1.372-6-3.729-8.564-6.339-.016-.138-.039-.275-.053-.415-.078-.789-1.307-.823-1.286,0,.289,11.225,10.069,20.276,21.437,20.516,4.184.088,10.447-1,11.117-5.99.414-3.087-2.823-5.724-5.508-4.4.159-2.733,3.48-4.136,6.04-2.955,2.667,1.231,3.74,4.089,3.766,6.81A15.779,15.779,0,0,1,1811.823,505.474Z" fill="#231f20"/>
        <path id="Tracé_210" data-name="Tracé 210" d="M1746.119,431.158a1.212,1.212,0,0,0,.03-.688.992.992,0,0,0-.169-.353c-.245-.761-.9-1.535-1.724-1.443a1.254,1.254,0,0,0-.911.517,1.765,1.765,0,0,0-.951.508,1.73,1.73,0,0,0,.345,2.543,1.564,1.564,0,0,0,.226.109,1.815,1.815,0,0,0,.329.264,1.5,1.5,0,0,0,1.478.393,1.541,1.541,0,0,0,1.082-1.026A1.6,1.6,0,0,0,1746.119,431.158Z" fill="#231f20"/>
        <path id="Tracé_211" data-name="Tracé 211" d="M1775.111,431.215a1.924,1.924,0,0,0-1.038-1.664,1.224,1.224,0,0,0-1.208-.249.94.94,0,0,0-.392.344,1.578,1.578,0,0,0-.954,1.461,1.336,1.336,0,0,0,.119.555,1.248,1.248,0,0,0,.318.654c.293.557.813,1.084,1.39.975a1.389,1.389,0,0,0,.649-.334,1.882,1.882,0,0,0,.269-.119,1.553,1.553,0,0,0,.55-.522A1.242,1.242,0,0,0,1775.111,431.215Z" fill="#231f20"/>
        <path id="Tracé_212" data-name="Tracé 212" d="M1763.415,431.5a.53.53,0,0,0-.976.259,7.661,7.661,0,0,1-.111,3.109,3.507,3.507,0,0,1-2.9,2.391,3.345,3.345,0,0,1-3.054-1.238c-.677-.961-.342-2.157-.9-3.13a.15.15,0,0,0-.253,0c-.9,1.229-.3,3.324.748,4.335a4.621,4.621,0,0,0,3.832,1.148C1762.752,437.934,1764.889,434.153,1763.415,431.5Z" fill="#231f20"/>
        <path id="Tracé_213" data-name="Tracé 213" d="M1708.64,480.565a1.65,1.65,0,0,0-2.193.562,3.567,3.567,0,0,0-.192,2.883,2.827,2.827,0,0,0,.477,1.242,1.484,1.484,0,0,0,1.625.646,2.781,2.781,0,0,0,1.873-2.652A2.933,2.933,0,0,0,1708.64,480.565Z" fill="#231f20"/>
        <path id="Tracé_214" data-name="Tracé 214" d="M1715.67,488.591c-.813-1.26-2.72-1.715-3.588-.219a3.01,3.01,0,0,0,.407,3.546,1.589,1.589,0,0,0,1.4.436,1.874,1.874,0,0,0,1.678-.716A2.667,2.667,0,0,0,1715.67,488.591Z" fill="#231f20"/>
        <path id="Tracé_215" data-name="Tracé 215" d="M1722.49,490.846a2.515,2.515,0,0,0-3.635.764,1.7,1.7,0,0,0,.612,2.281,2.33,2.33,0,0,0,.593.312,3.231,3.231,0,0,0,1,.6,1.089,1.089,0,0,0,.33.056,1.344,1.344,0,0,0,1.287-.321,1.924,1.924,0,0,0,.416-.723A2.362,2.362,0,0,0,1722.49,490.846Z" fill="#231f20"/>
        <path id="Tracé_216" data-name="Tracé 216" d="M1734.109,490.175a2.234,2.234,0,0,0-2.181-1.779,1.86,1.86,0,0,0-.859.238,1.5,1.5,0,0,0-.887.231,1.724,1.724,0,0,0-.763.969c-.054.024-.109.043-.164.07a1.32,1.32,0,0,0-.486,1.814,2.285,2.285,0,0,0,2.825.808,3.311,3.311,0,0,0,1.657-.289A1.841,1.841,0,0,0,1734.109,490.175Z" fill="#231f20"/>
        <path id="Tracé_217" data-name="Tracé 217" d="M1717.843,511.781l-.077.036a1.558,1.558,0,0,0,0,2.7l.077.048a1.63,1.63,0,1,0,0-2.782Z" fill="#231f20"/>
        <path id="Tracé_218" data-name="Tracé 218" d="M1726.005,514.857a2.188,2.188,0,0,0-2.9.536,1.114,1.114,0,0,0-.127,1.985c.047.035.106.064.157.1a1.533,1.533,0,0,0,.52.437,1.941,1.941,0,0,0,.854.216l.468.178a1.626,1.626,0,0,0,1.8-.714A1.952,1.952,0,0,0,1726.005,514.857Z" fill="#231f20"/>
        <path id="Tracé_219" data-name="Tracé 219" d="M1735.343,513.064a1.659,1.659,0,0,0-1.826-.726l-.029.011a3.371,3.371,0,0,0-2.187,1.2,2.674,2.674,0,0,0-.385,2.034,1.6,1.6,0,0,0,1.513,1.126,2.567,2.567,0,0,0,.857-.135,2.461,2.461,0,0,0,.936-.26,2.075,2.075,0,0,0,.68-.588c.028-.025.058-.044.085-.071A2.03,2.03,0,0,0,1735.343,513.064Z" fill="#231f20"/>
        <path id="Tracé_220" data-name="Tracé 220" d="M1744.714,507.451a1.824,1.824,0,0,0-1.615-1.788,1.769,1.769,0,0,0-1.65.647,2.769,2.769,0,0,0-1.532,2.433,1.536,1.536,0,0,0,.082.492,1.454,1.454,0,0,0-.019.449,1.662,1.662,0,0,0,1.018,1.479,1.724,1.724,0,0,0,1.809-.335,3.9,3.9,0,0,0,1.01-1.371A3.121,3.121,0,0,0,1744.714,507.451Z" fill="#231f20"/>
        <g id="Groupe_285" data-name="Groupe 285">
          <path id="Tracé_221" data-name="Tracé 221" d="M1755.943,515.181c-.014.017-.023.033-.037.05C1755.967,515.157,1755.969,515.152,1755.943,515.181Z" fill="#231f20"/>
          <path id="Tracé_222" data-name="Tracé 222" d="M1756.5,513.475a1.809,1.809,0,0,0-1.736-1.54,1.738,1.738,0,0,0-1.726,1.269,1.225,1.225,0,0,0-.022.194,2.164,2.164,0,0,0-.4,1.437,1.509,1.509,0,0,0,2.229,1.25,2.713,2.713,0,0,0,.676-.44c.052-.045.348-.386.42-.464A2.07,2.07,0,0,0,1756.5,513.475Z" fill="#231f20"/>
        </g>
        <path id="Tracé_223" data-name="Tracé 223" d="M1760.054,522.25a2.188,2.188,0,0,0-.5-.9c-.045-.053-.128-.183-.149-.212a2.741,2.741,0,0,0-.3-.615,1.683,1.683,0,0,0-1.646-.771,1.611,1.611,0,0,0-1.373,1.157,3.2,3.2,0,0,0,.039,1.4,3.1,3.1,0,0,0,.117,1.036,1.545,1.545,0,0,0,1.289,1.086,1.513,1.513,0,0,0,.58-.043,1.312,1.312,0,0,0,.2.034,1.361,1.361,0,0,0,.513-.115A1.66,1.66,0,0,0,1760.054,522.25Z" fill="#231f20"/>
        <path id="Tracé_224" data-name="Tracé 224" d="M1766.535,525.52a2.182,2.182,0,0,0-.815-.225c-.2-.087-.405-.163-.6-.242-1.3-.514-2.538.977-2.2,2.148a2.649,2.649,0,0,0,2.682,1.8,1.218,1.218,0,0,0,1.111-.318,1.842,1.842,0,0,0,.323-.516A1.788,1.788,0,0,0,1766.535,525.52Z" fill="#231f20"/>
        <path id="Tracé_225" data-name="Tracé 225" d="M1776.335,524.7a4.472,4.472,0,0,0-1.478-.022c-.312.041-.517.219-.825.269l.067-.066-.361.058a1.519,1.519,0,0,0,0,2.946s.309.022.352.013a6.885,6.885,0,0,0,.767.248,4.42,4.42,0,0,0,1.478-.021A1.778,1.778,0,0,0,1776.335,524.7Z" fill="#231f20"/>
        <path id="Tracé_226" data-name="Tracé 226" d="M1785.241,501.953a1.574,1.574,0,0,0-1.1.876,4.581,4.581,0,0,0-.426.187.743.743,0,0,0-.271,1.013,2.719,2.719,0,0,0,.431.558,2.341,2.341,0,0,0,.663.769c.044.038.092.072.139.106.028.018.052.038.081.055.044.029.084.064.131.09l.01-.022a3.9,3.9,0,0,0,.4.192,1.746,1.746,0,0,0,1.952-.776c.009-.016.014-.033.022-.049a1.776,1.776,0,0,0,.495-.986A1.955,1.955,0,0,0,1785.241,501.953Z" fill="#231f20"/>
        <path id="Tracé_227" data-name="Tracé 227" d="M1797.113,506.564c.237.522-.014-.131-.123-.309a1.93,1.93,0,0,0-.986-.78,2.475,2.475,0,0,0-1.661-.082,1.82,1.82,0,0,0-1.1,2.655,2.355,2.355,0,0,0,2.184,1.2,1.892,1.892,0,0,0,1.691-2.688Z" fill="#231f20"/>
        <path id="Tracé_228" data-name="Tracé 228" d="M1805.76,505.039a1.8,1.8,0,0,0-1.948-.77,1.354,1.354,0,0,0-.246-.015,1.749,1.749,0,0,0-1.636,1.217,1.731,1.731,0,0,0-.1.549.583.583,0,0,0,.011.1,1.253,1.253,0,0,0,1.077,1.449,2.309,2.309,0,0,0,1.118.245A1.874,1.874,0,0,0,1805.76,505.039Z" fill="#231f20"/>
        <path id="Tracé_229" data-name="Tracé 229" d="M1813.5,501.054a1.761,1.761,0,0,0-2.545-1.012,2.233,2.233,0,0,0-.932.943,1.57,1.57,0,0,0-.638.7,1.661,1.661,0,0,0,.26,1.976,1.788,1.788,0,0,0,2.021.255,3.1,3.1,0,0,0,.553-.333A2.153,2.153,0,0,0,1813.5,501.054Z" fill="#231f20"/>
        <path id="Tracé_230" data-name="Tracé 230" d="M1804.036,480.584a2.9,2.9,0,0,0-2.374.413,2.1,2.1,0,0,0-.8,1.818,1.186,1.186,0,0,0,.8,2.067,3.331,3.331,0,0,0,1.506-.317c.05-.008.1,0,.148-.01a1.732,1.732,0,0,0,1-.658,2.286,2.286,0,0,0,.753-.834A1.7,1.7,0,0,0,1804.036,480.584Z" fill="#231f20"/>
        <path id="Tracé_231" data-name="Tracé 231" d="M1811.1,475.707a1.814,1.814,0,0,0-1.723-.445,1.717,1.717,0,0,0-.414.173,2.1,2.1,0,0,0-1.4,3.145,1.784,1.784,0,0,0,.44.444,1.523,1.523,0,0,0,2.675-.476l.023-.135A1.693,1.693,0,0,0,1811.1,475.707Z" fill="#231f20"/>
        <path id="Tracé_232" data-name="Tracé 232" d="M1814.26,468.7a1.707,1.707,0,0,0-2.076-.665,1.647,1.647,0,0,0-.947,1.029,1.477,1.477,0,0,0-.465,1.348c0,.026.017.05.021.076a1.744,1.744,0,0,0,.021.959,1.525,1.525,0,0,0,2.5.646c.023-.026.04-.055.061-.081A2.257,2.257,0,0,0,1814.26,468.7Z" fill="#231f20"/>
        <g id="Groupe_286" data-name="Groupe 286">
          <path id="Tracé_233" data-name="Tracé 233" d="M1812.874,460.882c-.013-.1-.133-.456-.16-.554a2.129,2.129,0,0,0-.466-.714,1.947,1.947,0,0,0-1.966-.476,1.835,1.835,0,0,0-1.329,1.706,1.9,1.9,0,0,0,.435,1.136,1.293,1.293,0,0,0,.124.651,4.082,4.082,0,0,0,.539.895,1.509,1.509,0,0,0,2.323-.293,2.7,2.7,0,0,0,.366-1.391A1.84,1.84,0,0,0,1812.874,460.882Z" fill="#231f20"/>
          <path id="Tracé_234" data-name="Tracé 234" d="M1812.714,460.328c.017.039.038.072.054.113C1812.709,460.29,1812.7,460.279,1812.714,460.328Z" fill="#231f20"/>
        </g>
      </g>
    </g>
  </g>
</svg>
