<svg xmlns="http://www.w3.org/2000/svg" width="178.58" height="249.45" viewBox="0 0 178.58 249.45">
  <g id="fr-pingouin" transform="translate(-1403.167 -416)">
    <g id="Groupe_262" data-name="Groupe 262" transform="translate(3.347 59.392)">
      <g id="Groupe_261" data-name="Groupe 261">
        <rect id="bg" width="178.58" height="249.45" rx="8.5" transform="translate(1399.819 356.608)" fill="#fff"/>
        <path id="Tracé_165" data-name="Tracé 165" d="M1571.319,414.868V366.7a3.012,3.012,0,0,0-3.01-3.01h-158.4a3,3,0,0,0-3,3.01v229.26a3,3,0,0,0,3,3.009h158.4a3.012,3.012,0,0,0,3.01-3.009V448.008m0-.01V414.9m-142.49-13.34a.072.072,0,0,1,.02-.04.138.138,0,0,0-.02.06" fill="#fceef4"/>
      </g>
    </g>
    <g id="Groupe_321" data-name="Groupe 321" transform="translate(3.347 59.392)">
      <path id="Tracé_469" data-name="Tracé 469" d="M1524.8,496.738c-.92-6.658-2.029-13.278-3.082-19.91-2.237-14.093-2.64-28.19-4.31-42.317-1.134-9.594-4.436-19.324-14.559-17.969a16.658,16.658,0,0,0-12.461,9.71c-2.086-3.947-7.4-6.441-11.33-6.684-9.065-.559-13.5,8.68-13.442,17.827.041,6.6.809,12.679-.177,19.279-.885,5.928-2.272,11.741-2.995,17.7-.732,6.038-.342,12.163-1.343,18.16-.7,4.207-1.667,8.358-2.567,12.524a3.026,3.026,0,0,0-2.057,4.088,1.9,1.9,0,0,0-.377,1.033c-.372,7.646,5.614,13.828,11,17.425,7.309,4.882,16.278,5.666,24.581,5.571,9.221-.107,16.855-1.465,24.4-7.852,3.322-2.812,6.456-6.559,7.848-10.818a4.832,4.832,0,0,0,.573-.888C1527.088,508.419,1525.578,502.344,1524.8,496.738Z" fill="#f2f7fc"/>
      <path id="Tracé_470" data-name="Tracé 470" d="M1496.011,435.62c-2.076.222-4.164.389-6.244.6-1.369.137-2.751-.014-4.112.112a.312.312,0,0,0-.321-.073l-.428.157a.576.576,0,0,0-.146.952.5.5,0,0,0,.038.136,5.7,5.7,0,0,0,2.716,1.988,24.112,24.112,0,0,1,3.61,2.088.624.624,0,0,0,.319.112.522.522,0,0,0,.822.049c1.538-1.552,2.17-3.676,4.011-5.01C1496.68,436.435,1496.563,435.561,1496.011,435.62Z" fill="#ffe9ed"/>
      <path id="Tracé_471" data-name="Tracé 471" d="M1477.228,532.543c-4.281-1.389-8.609-2.75-12.106-6.022a.745.745,0,0,0-1.2.391,32.891,32.891,0,0,1-3.561,1.925.7.7,0,0,0-.062.041,2.22,2.22,0,0,0-.678.371c-.49.382-.186,1.2.4,1.073,1.363-.3,5.292-.8,5.352,1.207.027.9-.633,2.227-.7,3.246a.6.6,0,0,0,1.13.346c.021-.032.047-.055.069-.085a.425.425,0,0,0,.421.037,26.67,26.67,0,0,1,5.164-1.492c-.193,1.519-.134,3.662,1.41,3.927,1.649.283,3.385-2.961,4.495-3.858A.649.649,0,0,0,1477.228,532.543Z" fill="#ffe9ed"/>
      <path id="Tracé_472" data-name="Tracé 472" d="M1524.719,527.621a18.2,18.2,0,0,0-3.658-1.416,14.941,14.941,0,0,0-3.2-.835l-.069-.017v0c-.07-.01-.136-.027-.206-.036-.463-.061-.72.357-.744.8-3.093,1.331-6.09,3.5-9.04,5.187a.91.91,0,0,0,0,1.448c2.66,2.11,5.233,4.453,8.037,6.312.55.365,1.173-.235,1.038-.9a20.738,20.738,0,0,1-.368-3.13.643.643,0,0,0,.067-.176,13.268,13.268,0,0,1,.394-1.618c1.211.279,3.344.494,4.1,1.12.1.114.193.228.287.343.522.646,1.543-.212,1.088-.949-.035-.057-.075-.1-.111-.156l0,0-.02-.023a3.028,3.028,0,0,0-.491-.545,30.441,30.441,0,0,1-3.474-4.349.973.973,0,0,0,.477.058,10.035,10.035,0,0,1,3.9.094.759.759,0,0,0,.758-.323c.336.036.671.063,1.007.072A.533.533,0,0,0,1524.719,527.621Z" fill="#ffe9ed"/>
      <g id="Groupe_320" data-name="Groupe 320">
        <path id="Tracé_473" data-name="Tracé 473" d="M1536.132,464.774a48.037,48.037,0,0,0-5.051-12.061c-1.719-2.83-3.158-6.5-5.771-8.545a.453.453,0,0,0-.372-.1,69.681,69.681,0,0,0-3.535-13.579c-3.382-8.858-9.92-18.234-18.751-21.617-10.905-4.177-24.353-1.1-33.115,6.606a28.262,28.262,0,0,0-8.72,13.667,91.168,91.168,0,0,0-2.441,9.9,45.505,45.505,0,0,0-.262,8.5.625.625,0,0,0-.055.094v.742a.672.672,0,0,1-.022.115c.063.38.111.765.14,1.157-6.719,3.3-10.267,11.256-13.108,18.029-1.875,4.471-2.338,9.148-3.1,13.917-.8,5.047-1.651,9.961-1.971,15.081a.579.579,0,0,0,1.078.306c3.52-5.447,8.1-10.042,11.512-15.543-.292,2.228-.544,4.459-.689,6.7-.539,8.287.284,17.531,3.516,25.444a2.822,2.822,0,0,0,1.082,2.486.307.307,0,0,0,.048.018,32.86,32.86,0,0,0,3.168,5.186,30.471,30.471,0,0,0,4.037,4.392c-2.2,1.277-4.4,1.964-5.677,4.535a.616.616,0,0,0,.5.914c1.946.052,3.89.007,5.835.039a12.08,12.08,0,0,0-.661,4.363.6.6,0,0,0,.732.586,18.243,18.243,0,0,0,3.282-.952c.667-.224,2.035-.971,2.558-.562.326.255.146.595.268,1.046.268.983.124,2.265,1.04,2.939,2.5,1.84,5.936-3.69,7.384-5.406a42.9,42.9,0,0,0,5.518.788c7.4.577,15.071.733,22.039-1.645a.644.644,0,0,0,.115.265c2.63,3.539,6.814,5.119,9.8,8.248a.581.581,0,0,0,.987-.429c.014-2.146-.3-4.3.124-6.4a19.81,19.81,0,0,0,5.817,1.824c.456.04.7-.54.5-.914a38.819,38.819,0,0,0-3.646-5.553c2.072,0,4.125.374,6.206.338a.62.62,0,0,0,.409-1.037,13.791,13.791,0,0,0-8.211-4.346,34.9,34.9,0,0,0,8.649-18.825c.805-5.86.388-11.954.3-17.853-.044-2.882-.122-5.764-.2-8.645a60.987,60.987,0,0,0,5.9,7.058c2.55,2.787,4.665,5.99,7.767,8.155a.581.581,0,0,0,.87-.524A175.146,175.146,0,0,0,1536.132,464.774Zm-60.9,71.032c-.855.884-2.076,2.495-3.379.651a7.308,7.308,0,0,1-.249-2.464.609.609,0,0,0-.578-.607c-2.183-.114-4.045.939-6.108,1.406a9.588,9.588,0,0,1,.839-3.927.617.617,0,0,0-.5-.914c-1.877-.06-3.753-.023-5.63-.041,1.291-1.734,3.258-2.323,5.071-3.42a32.5,32.5,0,0,0,13.01,6.382C1476.889,533.855,1476.121,534.89,1475.235,535.806Zm49.686-7.371a41.662,41.662,0,0,0-5.823-.257.622.622,0,0,0-.409,1.037,45.663,45.663,0,0,1,3.611,5.211,31.524,31.524,0,0,1-4.954-1.832.583.583,0,0,0-.711.425,19.326,19.326,0,0,0-.339,5.994c-2.8-2.472-6.283-4.086-8.621-7.089a27.5,27.5,0,0,0,6.717-3.7,31.306,31.306,0,0,0,3.163-2.747A11.7,11.7,0,0,1,1524.921,528.435Zm-8.153-3.808a28.342,28.342,0,0,1-12.923,7.43c-5.134,1.226-10.656,1.027-15.893.87-8.357-.25-16.142-2.155-22.553-7.453a.567.567,0,0,0-.5-.413,30.912,30.912,0,0,1-2.926-2.885,31.649,31.649,0,0,1-5.539-9.14c.039-2.6,1.525-6.768,1.871-7.966,1.111-3.849,2.269-7.683,3.282-11.564,2.921-11.2,3.906-22.768,4.195-34.346.261-10.476-1.959-23.152,3.911-32.4,2.526-3.981,6.618-6.834,11.314-6.319,2.752.3,6.467,1.794,8.262,4.373a7.386,7.386,0,0,1,1.345,2.326c.22.652.315,1.506.568,2.223a.508.508,0,0,0,.858-.3c.779-4.367,4.97-8.223,8.994-9.021a11.186,11.186,0,0,1,11.366,4.181c2.812,3.62,3.755,8.1,4.184,12.627.487,5.137.751,10.294,1.1,15.443.721,10.519.579,21.045,1.234,31.558.294,4.731.478,9.522,1.145,14.215a64.266,64.266,0,0,0,1.553,7.669c.63,2.333,1.861,4.275,2.647,6.536a.646.646,0,0,0,.118.2A31.568,31.568,0,0,1,1516.768,524.627Z" fill="#231f20"/>
        <path id="Tracé_474" data-name="Tracé 474" d="M1474.573,430.442a2.6,2.6,0,0,0-.433-1.169,1.418,1.418,0,0,0-1.706-.641,1.606,1.606,0,0,0-1.432.872,2.687,2.687,0,0,0-.288,1.926,2.92,2.92,0,0,0-.021.358,1.279,1.279,0,0,0,1.269,1.3,1.828,1.828,0,0,0,.2.083l.005,0a2.054,2.054,0,0,0,.9.128,1.64,1.64,0,0,0,1.475-1.6,2.957,2.957,0,0,0-.006-.408A1.824,1.824,0,0,0,1474.573,430.442Z" fill="#231f20"/>
        <path id="Tracé_475" data-name="Tracé 475" d="M1511.685,427.7a.9.9,0,0,0-.873-.06,1.263,1.263,0,0,0-1.579.016,1.653,1.653,0,0,0-.937,1.464,2.722,2.722,0,0,0-.31,1.429c.065,1.18.979,2.547,2.248,2.214a1.927,1.927,0,0,0,1.177-.915,2.473,2.473,0,0,0,.79-1.074C1512.517,429.92,1512.564,428.235,1511.685,427.7Z" fill="#231f20"/>
        <path id="Tracé_476" data-name="Tracé 476" d="M1498.609,434.157c-2.975,1.079-6.435,1.135-9.577,1.106-1.68-.016-3.739-.18-5.281.716a1.048,1.048,0,0,0-.177,1.448.377.377,0,0,0,.067,0,5.843,5.843,0,0,0,2.066,1.367c2.176,1.041,4.461,1.943,5.4,4.533a.576.576,0,0,0,1.057.145c1.749-3.177,3.863-6.264,6.888-8.208C1499.593,434.92,1499.249,433.924,1498.609,434.157Zm-6.886,7.731a7.235,7.235,0,0,0-2.349-2.523c-1.169-.812-3.58-1.358-4.7-2.517,1.865-.815,4.443-.287,6.341-.356a38,38,0,0,0,5.174-.482A25.839,25.839,0,0,0,1491.723,441.888Z" fill="#231f20"/>
      </g>
    </g>
  </g>
</svg>
