<svg xmlns="http://www.w3.org/2000/svg" width="178.58" height="249.45" viewBox="0 0 178.58 249.45">
  <g id="fr-panda" transform="translate(-872 -106)">
    <g id="Groupe_244" data-name="Groupe 244" transform="translate(3.847 59.392)">
      <g id="Groupe_243" data-name="Groupe 243">
        <rect id="bg" width="178.58" height="249.45" rx="8.5" transform="translate(868.153 46.608)" fill="#fff"/>
        <path id="Tracé_156" data-name="Tracé 156" d="M1039.653,104.868V56.7a3.012,3.012,0,0,0-3.01-3.01h-158.4a3,3,0,0,0-3,3.01v229.26a3,3,0,0,0,3,3.009h158.4a3.012,3.012,0,0,0,3.01-3.009V138.008m0-.01V104.9m-142.49-13.34a.072.072,0,0,1,.02-.04.138.138,0,0,0-.02.06" fill="#fceef4"/>
      </g>
    </g>
    <g id="Groupe_303" data-name="Groupe 303" transform="translate(5.245 65.793)">
      <path id="Tracé_292" data-name="Tracé 292" d="M950.508,193.827c-3.819-.5-7.779.425-11.543-.367-3.232-.681-6.257-2.634-9.093-4.24a168.258,168.258,0,0,1-16.166-10.341,7.065,7.065,0,0,1,.064-1.567,2.363,2.363,0,0,0-2.732-2.622,2.3,2.3,0,0,0-3.454-.333,1.017,1.017,0,0,0-1.3.032c-3.278,2.574-2.926,7.653-2.431,11.386.229,1.734.531,3.458.836,5.181-.007,7.389,2.394,14.963,5.544,21.437,4.289,8.815,10.376,16.742,20.886,17.241,8.9.422,18.532-3.823,17.184-14.225a14.227,14.227,0,0,0-.344-1.763,6.2,6.2,0,0,0,1.379-.822,3.939,3.939,0,0,0,2.951-3.947c1.378-2.8,2.235-6.144,3.176-8.545C956.826,196.852,953.437,194.215,950.508,193.827Z" fill="#e9e9e9"/>
      <path id="Tracé_293" data-name="Tracé 293" d="M988.215,192.948c-3.5-5.953-15.444-3.35-20.773-2.1-2.656.623-4.259,4.206-2.659,6.535l.011.016a68.222,68.222,0,0,0,2.64,10.808c1.191,3.693,2.252,7.923,4.284,11.245,1.787,2.923,5.054,3.235,8.128,2.355,3.4-.975,4.927-3.212,5.917-6.43C987.623,209.336,991.791,199.03,988.215,192.948Z" fill="#e9e9e9"/>
      <path id="Tracé_294" data-name="Tracé 294" d="M1003.228,137.117a32.506,32.506,0,0,0-2.387-12.743,40.911,40.911,0,0,0-7.433-10.993,31.644,31.644,0,0,0-5.921-5.5,2.669,2.669,0,0,0-.243-.407c-2.874-3.8-6.844-4.593-11.355-5.344a128.791,128.791,0,0,0-16.5-1.728,90.963,90.963,0,0,0-33.009,4.885,3.487,3.487,0,0,0-.474.212,2.871,2.871,0,0,0-1.017.286,7.743,7.743,0,0,0-3.259,3.6c-3.046,3.808-4.278,9.586-5.768,14.287q-.438.929-.829,1.871a39.018,39.018,0,0,0-1.508,4.589c-1.449,2.154-1.944,5.215-2.645,7.632-.129.443-.275.887-.415,1.33a8.33,8.33,0,0,0-.692,2.558q-.43.911-.86,1.82a2.109,2.109,0,0,0,1.241,3.053,24.14,24.14,0,0,1,4.046,1.451c.009.044.015.088.024.131a2.58,2.58,0,0,0,3.483,1.737c1.932,1.17,3.788,2.491,5.651,3.836a2.188,2.188,0,0,0,2.58.2,3.478,3.478,0,0,0,1.69.324c.352.215.714.413,1.072.618a2.7,2.7,0,0,0,1.482.822c10.992,5.786,24.388,7.213,37.355,5.689,1.283.063,2.58.07,3.895,0,8.475-.43,16.488-2.575,23.282-7.535a3.445,3.445,0,0,0,1.438,1.729,3.645,3.645,0,0,0,4.942-1.3,18.481,18.481,0,0,0,1.6-5.81,10.121,10.121,0,0,0,1.457-5.486A21.2,21.2,0,0,0,1003.228,137.117ZM947,123.348a24.087,24.087,0,0,0-4.63,8.745,2.622,2.622,0,0,0-3.47.614,2.273,2.273,0,0,0-1.339-1.717c-.033-.2-.058-.392-.094-.589a1.866,1.866,0,0,0-1.689-1.558q.282-.991.585-1.978c.365-.352.742-.691,1.113-1.037-.009-.078-.021-.154-.024-.235-.083-2.259,2.079-3.442,4.091-3.37.035,0,.068.01.1.013,1.265-1,2.561-1.963,3.918-2.844.141-.091.287-.172.429-.262q.4,1.737.944,3.427.055.372.109.746C947.032,123.32,947.016,123.331,947,123.348Zm38.172,9.447c-.033.455-.055.911-.086,1.366a72.8,72.8,0,0,1-9.444-3.941c-2.424-1.215-4.79-2.75-7.316-3.718q.066-3.231.393-6.455c2.646-2.667,7.835-2.91,11.289-3.6a2.6,2.6,0,0,0,.34-.1,9.159,9.159,0,0,1,1.686,1.362c.715,1.284,1.461,2.553,2.281,3.794a3.28,3.28,0,0,0,2.812,1.43,2.159,2.159,0,0,0,1.782.911c.068.374.129.749.2,1.124.058,1.385.142,2.772.244,4.161A3.818,3.818,0,0,0,985.174,132.795Z" fill="#e9e9e9"/>
      <g id="Groupe_302" data-name="Groupe 302">
        <path id="Tracé_295" data-name="Tracé 295" d="M1007.822,185.548c-.311-14.136-.909-28.291-2.588-42.339-1.514-12.672-4.571-26.179-14.761-34.715a7.414,7.414,0,0,0,1.282-12.7c-.1-.075-.209-.127-.313-.2a5.024,5.024,0,0,0-2.253-1.125c-.139-.027-.277-.042-.415-.058-4.631-1.1-9.416,2.243-10.42,7.126-.079.247-.155.494-.221.739a92.208,92.208,0,0,0-23.7-2.029c-7.639.211-15.9.938-23.162,3.494a6.793,6.793,0,0,0-1.231-6.658,6.317,6.317,0,0,0-1.917-1.607,4.007,4.007,0,0,0-2.059-.7,7.884,7.884,0,0,0-4.493.71c-3.023,1.4-5.411,4.57-5.129,8.011a6.735,6.735,0,0,0,4.992,5.972c-12.6,23.813-20.334,51.477-18.376,78.58.868,12.021,4.179,24.274,12.16,33.593a21.252,21.252,0,0,0,14.61,7.749,51.537,51.537,0,0,0,9.779-.124c2.668-.254,4.9-.963,6.422-3.305.088-.135.164-.286.249-.425,1.284.877,1.991,2.172,3.147,3.136a.527.527,0,0,0,.872-.508c-.3-1.445-1.708-2.869-3.362-3.808a17.832,17.832,0,0,0,1.521-4.285c.614.4,1.167.862,1.843,1.216a.541.541,0,0,0,.734-.734,4,4,0,0,0-2.134-1.889,5.038,5.038,0,0,0-.12-1.978,11.242,11.242,0,0,0-.362-2.686,7.622,7.622,0,0,0,1.482-.175c.039.428.074.857.123,1.28.706,6.137,3.32,11.441,8.607,14.125a9.265,9.265,0,0,0,2.141,5.549c.425.46,1.029-.124.807-.623a21.429,21.429,0,0,1-1.67-4.211c-.01-.049-.013-.1-.022-.149a16.154,16.154,0,0,0,1.748.6,21.318,21.318,0,0,0,2.859.571,7.116,7.116,0,0,0,2.46,3.654c.446.31.957-.285.714-.713-.544-.96-1.207-1.822-1.685-2.811a9.89,9.89,0,0,0,4.44-.725,4.693,4.693,0,0,0,3.412,2.154.465.465,0,0,0,.233-.859,9.426,9.426,0,0,1-2.573-1.926A6.306,6.306,0,0,0,973.1,227.9a7.248,7.248,0,0,0,1.145-2.921,16.006,16.006,0,0,0,.288-1.613,15.318,15.318,0,0,0,6.367-1.02,9.135,9.135,0,0,0,2.238,5.4c.13.148.283.272.422.412-.113.2-.224.4-.343.581-.71,1.1-1.632,2.077-2.282,3.211a.551.551,0,0,0,.86.665,12.045,12.045,0,0,0,2.384-3.314l.212-.379a11.308,11.308,0,0,0,3,1.7c-.025.062-.044.129-.07.19a12.787,12.787,0,0,0-1.408,3.221.509.509,0,0,0,.762.437,6.223,6.223,0,0,0,1.774-3.183c.031-.091.063-.188.1-.283a12.681,12.681,0,0,0,5.356.325c-.028.218-.051.436-.1.654-.253,1.265-.87,2.438-1.014,3.711a.516.516,0,0,0,.872.361,8.134,8.134,0,0,0,1.5-5c4.034-1.1,7.307-4.243,9.377-7.8,2.895-4.977,3.495-10.832,3.57-16.483C1008.2,199.7,1007.978,192.613,1007.822,185.548ZM949.815,212.86a5.013,5.013,0,0,0-1.827-.063,8.393,8.393,0,0,0-2.51-3.327,10.523,10.523,0,0,0-5.977-2.3,7.252,7.252,0,0,0-3.721.038.833.833,0,0,0-.49-.009c-2.713.734-5.18,1.867-7.756,2.691-.705.085-1.411.173-2.119.243a36.913,36.913,0,0,1-6.1.112,13.294,13.294,0,0,1-1.3-.345c-4.375-1.426-7.713-4.147-11.112-7.139a78.676,78.676,0,0,1-2.76-20.9c-.014-1.541.019-3.082.067-4.624,2.193,4.039,15.415,10.141,17.055,10.8a101.566,101.566,0,0,0,18.585,5.421l.148.079a13.514,13.514,0,0,1,3.44,1.1c1.077.248,2.156.506,3.261.711,1.647.306,3.363.564,3.748,2.357a1.654,1.654,0,0,1,.229,1.015c.013.011.023.028.036.039h0A51.257,51.257,0,0,0,949.815,212.86Zm36.107-9.741c-1.384,4.9-3.294,9.632-4.637,14.547a1.847,1.847,0,0,1-.165.4,19.987,19.987,0,0,0-.265,3.077,13.649,13.649,0,0,1-2.9.871,12.741,12.741,0,0,1-3.312.126c.006-.1.021-.2.026-.29.244-4.915-2.228-9.41-4.091-13.936a12.268,12.268,0,0,1-1.715-4.075,13.69,13.69,0,0,1-.4-2.915,6.335,6.335,0,0,1-.295-1.478,3.623,3.623,0,0,1,.865-3.135,2.82,2.82,0,0,1,.568-.461c1.527-.922,3.785-1.092,5.5-1.312,3.14-.4,6.288-.425,9.391-1.112a1.74,1.74,0,0,1,2.168,1.651c.007.115,0,.226,0,.339C987.49,197.863,986.594,200.743,985.922,203.119Zm18.014-56.807a75.9,75.9,0,0,1-9.976,7.746,49.848,49.848,0,0,1-11.04,4.911c-8.535,2.616-17.645,3.068-26.5,2.387a88.359,88.359,0,0,1-25.86-5.945c-7.689-3.061-14.372-7.419-21.317-11.814a148.6,148.6,0,0,1,13.67-34.236.611.611,0,0,0,.08-.374,7.655,7.655,0,0,0,3.148-.856,10.792,10.792,0,0,0,4.4-3.421.214.214,0,0,0,.306-.056c.075-.131.124-.269.189-.4,7.682-1.033,15.156-2.494,22.943-2.675,8.1-.188,15.9.837,23.888,2.051a.706.706,0,0,0,.588-.169,1.283,1.283,0,0,0,.477.269l-.009.021a3.147,3.147,0,0,0,.525.085c1.647.278,3.652,1.978,5.066,2.734a11.024,11.024,0,0,0,3.914,1.572.835.835,0,0,0,.322.7c9.334,7.156,12.787,18.872,14.413,30.033.356,2.444.656,4.9.929,7.354A.772.772,0,0,0,1003.936,146.312Z" fill="#231f20"/>
        <path id="Tracé_296" data-name="Tracé 296" d="M943.114,118.076c-5.835-1.139-12.1,2.774-15.267,7.458-1.677,2.477-2.62,5.62-.976,8.355a8.263,8.263,0,0,0,7.427,3.671c3.856-.127,7.187-2.174,10.381-4.121,2.57-1.566,5.157-2.908,5.992-6.047C951.928,122.664,947.919,117.552,943.114,118.076Z" fill="#231f20"/>
        <path id="Tracé_297" data-name="Tracé 297" d="M987.3,121.153a17.537,17.537,0,0,0-8.139-5.774c-.01,0-.018,0-.028,0-4.619-1.627-10.225.587-11.633,5.6a7.658,7.658,0,0,0,1.558,7.275c2.122,2.316,5.34,3,8.184,3.983,2.982,1.034,6.337,3.738,9.687,3.075a5.767,5.767,0,0,0,4.321-5.471C991.479,126.5,989.354,123.558,987.3,121.153Z" fill="#231f20"/>
        <path id="Tracé_298" data-name="Tracé 298" d="M962.8,132.774a.591.591,0,0,0-.257-.975c-.123-.046-.246-.073-.369-.109a.494.494,0,0,0-.391-.356c-.056-.008-.112-.01-.168-.018a.455.455,0,0,0-.286-.166,6.683,6.683,0,0,0-2.94.162,12.316,12.316,0,0,0-3.775,1.128.6.6,0,0,0,0,1.037c.14.059.282.1.422.146-.019.02-.041.034-.059.054a.554.554,0,0,0,.111.863,6.177,6.177,0,0,0,3.736.444,17.338,17.338,0,0,1-.339,4.033,15.422,15.422,0,0,1-2.193,4.117c-.241.4.268.984.678.677a7.673,7.673,0,0,0,2.446-3.63,5.607,5.607,0,0,0,.291.933c.337.818,1.1,2.1,2.085,2.119a.318.318,0,0,0,.306-.4c-.316-.789-1.186-1.268-1.6-2.05a7.24,7.24,0,0,1-.632-2.548,6.8,6.8,0,0,0-.386-3.412,6.2,6.2,0,0,0,2.12-1.158A4.624,4.624,0,0,0,962.8,132.774Z" fill="#231f20"/>
        <path id="Tracé_299" data-name="Tracé 299" d="M941.532,125.125c.005-.022.013-.044.017-.066a.756.756,0,0,0,.084-.984,1.306,1.306,0,0,0-.178-.523,1.141,1.141,0,0,0-1.025-.52.339.339,0,0,0-.045,0,1.418,1.418,0,0,0-.588.162,1.2,1.2,0,0,0-.889.535,1.36,1.36,0,0,0,.232,1.714,1.242,1.242,0,0,0,1.08.56.806.806,0,0,0,.348-.045.731.731,0,0,0,.6-.167,1,1,0,0,0,.276-.395,1.1,1.1,0,0,0,.068-.19C941.517,125.18,941.527,125.154,941.532,125.125Z" fill="#fff"/>
        <path id="Tracé_300" data-name="Tracé 300" d="M976.467,122.74a1.15,1.15,0,0,0-.417-.542,1.044,1.044,0,0,0-.753-.457,1.244,1.244,0,0,0-1.364.339,1.262,1.262,0,0,0,.26,1.82,1.151,1.151,0,0,0,1.233.6,1.167,1.167,0,0,0,.15-.057A1.277,1.277,0,0,0,976.467,122.74Z" fill="#fff"/>
      </g>
    </g>
  </g>
</svg>
