<svg xmlns="http://www.w3.org/2000/svg" width="178.58" height="249.45" viewBox="0 0 178.58 249.45">
  <g id="fr-renard" transform="translate(-340 -106)">
    <g id="Groupe_240" data-name="Groupe 240" transform="translate(3.514 59.392)">
      <g id="Groupe_239" data-name="Groupe 239">
        <rect id="bg" width="178.58" height="249.45" rx="8.5" transform="translate(336.486 46.608)" fill="#fff"/>
        <path id="Tracé_154" data-name="Tracé 154" d="M507.986,104.868V56.7a3.012,3.012,0,0,0-3.01-3.01h-158.4a3,3,0,0,0-3,3.01v229.26a3,3,0,0,0,3,3.009h158.4a3.012,3.012,0,0,0,3.01-3.009V138.008m0-.01V104.9M365.5,91.558a.073.073,0,0,1,.02-.04.138.138,0,0,0-.02.06" fill="#fceef4"/>
      </g>
    </g>
    <g id="Groupe_316" data-name="Groupe 316" transform="translate(-8 51)">
      <path id="Tracé_437" data-name="Tracé 437" d="M503.628,214.538a7.219,7.219,0,0,0-2.078-3.743c-1.747-5.249-8.949-8.124-13.691-9.886-3.867-1.437-7.854-1.7-11.85-2.573-3.134-.682-6.029-2.8-9.185-3.188a10.31,10.31,0,0,0-1.341-.719,1.573,1.573,0,0,0-1.212.021c-.079-.02-.156-.042-.239-.056a.659.659,0,0,0-.822.626,3.308,3.308,0,0,0,1.263,2.257c.122.127.257.241.391.358a.989.989,0,0,0-1.278,1.378c1.992,3.332,4.995,3.142,8.452,3.845a16.078,16.078,0,0,1,5.846,2.456,31.136,31.136,0,0,1,2.947,2.472c.479,1.672,1.8,2.943,2.609,4.54.872,1.716.432,4.563,2.255,5.67,1.892,1.149,3.17-.375,3.98-2.6a13.621,13.621,0,0,0,1.67,3.583,1.651,1.651,0,0,0,2.98-.389c.35-1,.741-1.989,1.147-2.972a2.934,2.934,0,0,0,1.138,1.416,3.61,3.61,0,0,0,2.21,2.455,2,2,0,0,0,2.414-1.371,2.058,2.058,0,0,1,.741-.8,4.447,4.447,0,0,0,.406-.381A2.057,2.057,0,0,0,503.628,214.538Z" fill="#ef9f5e"/>
      <path id="Tracé_438" data-name="Tracé 438" d="M476.572,128.734l-.3-.258a1.339,1.339,0,0,0-1.675-.008,50.989,50.989,0,0,0-14.679,3.995c-2.666,1.178-5.241,2.521-7.826,3.865-1.321.688-2.737,1.3-4.073,2.021-4.462-1.068-7.57,3.46-9.9,6.524a17.45,17.45,0,0,0-3.5,8.506c-1.237,3.092-2.2,6.382-3.684,9.24-1.23,2.36-2.4,4.758-3.639,7.11-1.147,2.17-1.634,2.977-4.192,3.365a4.123,4.123,0,0,1-2.956-.257c-1.3-6.328-4.458-12.814-7.385-18.32-2.514-4.729-6.679-13.292-12.578-14.43-6.276-3.91-13.213-7.852-20.658-7.463-2.065-.431-4.413-1.026-6.15-.615a.871.871,0,0,0-.425.247,5.84,5.84,0,0,0-2.424-.107.5.5,0,0,0-.3.726c.785,1.534.725,1.192,2.2,2.15a10.755,10.755,0,0,1,1,.747c1.25,3.671,4.114,6.752,5.256,10.547a30.467,30.467,0,0,1,1.358,6.284,11.406,11.406,0,0,1-.16,2.759v0c-.981,1.955-3.009,3.851-3.494,5.95a.454.454,0,0,0,.347.561.79.79,0,0,0,.051.128c.565.888,1.457.571,2.149,1.266.741.745,1.445,3.448.453,4.236a1.19,1.19,0,0,0,.835,2.014c1.937-.259,3.348,2.478,4.679,3.644a2.487,2.487,0,0,0,.575.378c.441,1.307.991,2.595,1.491,3.855-.494,3.041.347,6.3.209,9.38-.012.27-.034.539-.06.808a81.835,81.835,0,0,0-1.776,18.3c.16,4.529,1.146,11.171,4.906,14.5,1.781,3.192,6.824,5.156,9.861,5.814,3.554.77,8.3,1.07,11.922-.45a6.486,6.486,0,0,0,7.22.208,2.8,2.8,0,0,0,.746-.3c.194-.115.355-.284.538-.414.033-.017.08-.043.17-.1a3.44,3.44,0,0,0,1.584-1.877,3.3,3.3,0,0,0,.147-1.259,7.235,7.235,0,0,0,.368-2.005,6.44,6.44,0,0,0-.159-1.709,11.844,11.844,0,0,0,5.268.586c-.069.5-.11.989-.134,1.481-.023.123-.048.243-.064.371a6.127,6.127,0,0,0,.525,3.543c1.373,2.656,4.507,3.352,7.265,3.2a2.823,2.823,0,0,0,1.484-.465A6.767,6.767,0,0,0,440.7,224.6a11.948,11.948,0,0,0,1.589-2.728c.006-.014.015-.025.021-.04.024-.058.048-.119.073-.177.132-.315.258-.632.375-.956.012-.032.024-.066.036-.1a34.27,34.27,0,0,0,1.373-3.771c.271,3.069,3.239,6.466,5.78,7.449a13.308,13.308,0,0,0,10.857-.918,3.85,3.85,0,0,0,2.239-.41,4.1,4.1,0,0,0,1.705-2.113,9.7,9.7,0,0,0,3-3.068c1.33-2.866.576-6.852.308-9.879-.3-3.354-.52-6.993-2.117-9.987a2.75,2.75,0,0,0-.331-.481c-.212-.866-.436-1.729-.678-2.585-.548-4.192-1.828-8.273-2.531-12.439a25.661,25.661,0,0,1-.11-7.687c.355-2.552,2.543-6.594,5.642-6.728a.636.636,0,0,0,.445-1.073l-.309-.291a1.052,1.052,0,0,0-.366-.806,2.031,2.031,0,0,1-.7-1.525,2.347,2.347,0,0,0,0-.375.229.229,0,0,1,0-.1,10.832,10.832,0,0,1,1.131.068.906.906,0,0,0,.611-.254,4.617,4.617,0,0,1,.688.533c.5.465,1.451.015,1.21-.7a2.266,2.266,0,0,0-1.344-1.371,1.742,1.742,0,0,0-.428-1.6c-.869-.858-1.886-1.752-.693-2.787a13.42,13.42,0,0,0,2.039-1.77,2.492,2.492,0,0,0,.413-.077.745.745,0,0,0,.175-1.346c-.479-.278-1.025-.389-1.507-.669a5.639,5.639,0,0,1-1.169-1.018,4.989,4.989,0,0,1-.639-.876,3.538,3.538,0,0,1-.164-.644c-.173-1.435.617-3.5,1.031-4.9a31.427,31.427,0,0,1,3.1-7.6c1.143-1.877,4.95-5.328,4.914-8.014A1.337,1.337,0,0,0,476.572,128.734Z" fill="#ef9f5e"/>
      <g id="Groupe_315" data-name="Groupe 315">
        <path id="Tracé_439" data-name="Tracé 439" d="M495.3,203.709a33.861,33.861,0,0,0-13.342-4.669,53.355,53.355,0,0,1-8.848-2.06c-2.561-.886-5.951-1.63-7.652-3.756a.468.468,0,0,0-.124-.1l-.005-.008a89.167,89.167,0,0,1-1.971-10.283c-.539-4.467-1.676-14.866,5.8-14.705a.424.424,0,0,0,.322-.722c-.7-.7-2.924-3.068-.681-3.095.736-.008,1.514.265,2.278.268a.437.437,0,0,0,.439-.536c-.4-1.867-2.358-2.664-3.232-4.246-1.257-2.278,2.75-3.118,4.031-4.519a.412.412,0,0,0-.092-.665c-2.691-1.171-4.36-2.224-4.007-5.3.345-3,2.022-5.91,3.2-8.685a33.685,33.685,0,0,1,3.792-7.137c1.1-1.484,2.426-3.1,2.289-4.995a.455.455,0,0,0-.456-.423c-6.182-.493-12.057,1.577-17.462,4.177-5.117,2.461-9.894,5.984-15.7,6.583a.472.472,0,0,0-.376.038c-.5.04-1,.065-1.512.059-3.343-.04-6.66-.766-9.987-1.053a89.065,89.065,0,0,0-10.824-.3c-3.451.123-6.895.47-10.311.932-3.208.434-6.468,1.78-9.633,1.112-.034-.013-.07-.023-.1-.036a3.4,3.4,0,0,1-1.761-.55.462.462,0,0,0-.083,0c-4.017-2.8-7.946-5.177-13-6.183a52.665,52.665,0,0,0-16.972-.773c-.427.055-.391.592-.109.774,4.358,2.807,7.017,8.138,8.768,12.635,2.233,5.737,1.941,11.067-2.367,15.876a.419.419,0,0,0,.2.707c1.4.528,3.124,1.264,3.651,2.7.51,1.391-.47,2.794-1.3,3.871-.19.248.028.527.272.622,4.04,1.565,6.821,3.212,7.78,7.516.9,4.063.207,8.508-.24,12.588-.707,6.452-1.594,12.966-.828,19.452.613,5.189,2.351,10.576,6.661,14.171,5.475,4.566,12.746,4.191,19.6,3.616a.51.51,0,0,0,.2-.063c.079.037.155.08.235.115a10.09,10.09,0,0,0,2.762.764c.62,1.413,1.406,2.879,2.949,2.992.585.043.582-.8,0-.846-.958-.07-1.517-1.365-1.863-2.052l-.009-.016a9.393,9.393,0,0,0,2.195-.215,7.181,7.181,0,0,0,1.953,1.8.432.432,0,0,0,.46-.731,6.008,6.008,0,0,1-1.5-1.323,6.918,6.918,0,0,0,2.487-1.472,3.81,3.81,0,0,0,2.2.622.424.424,0,1,0,0-.847,2.941,2.941,0,0,1-1.607-.42c.116-.143.243-.274.348-.43,3.155-4.71.023-9.154-2.826-13.14-3.457-4.834-6.434-11.719-5.5-17.634.084-.532-.793-.762-.879-.225-.782,4.948,1.123,10.4,3.415,14.808,1.338,2.571,3.319,4.761,4.785,7.259,1.592,2.712,2.069,6.433-.033,8.9-.357-.283-.694-.6-1.027-.893-.424-.376-1.069.221-.644.6.344.306.694.617,1.059.9a6.345,6.345,0,0,1-1.06.756,8.434,8.434,0,0,1-1.2.554,7.824,7.824,0,0,1-.588-1.035c-.231-.5-1.016-.068-.787.427a8.128,8.128,0,0,0,.482.879,6.9,6.9,0,0,1-2.064.161,17.942,17.942,0,0,0-.821-1.678c-.279-.479-1.066-.052-.786.427a10.375,10.375,0,0,1,.522,1.086c-4.309-.978-7.888-5.692-9.678-9.093-2.9-5.519-4.066-11.653-5.957-17.5-.168-.52-1.048-.3-.879.225,1.685,5.208,2.811,10.592,5.055,15.633,1.567,3.522,3.961,7.671,7.523,9.939-7.652.578-15.6.372-20.408-6.131-3.609-4.887-4.225-11.206-4.153-16.966.088-7.12,1.585-14.148,1.707-21.262.055-3.193-.261-6.6-2.36-9.266-1.483-1.88-3.658-2.705-5.884-3.557,2.2-3.189.918-5.645-2.593-7.164,3.994-4.747,4.525-10.019,2.4-15.744-1.7-4.567-4.266-9.81-8.429-12.967a51.939,51.939,0,0,1,16.166,1.032c4.726,1.017,8.432,3.4,12.2,6.047.177.073.353.149.525.228a1.391,1.391,0,0,1,.517.079l.347.13c0-.006.01-.011.014-.017.179.053.356.083.534.123,2.438.957,4.12,3.3,5.556,5.263,1.842,2.518,3.753,4.995,5.4,7.63a37.767,37.767,0,0,1,4.439,9.674,21.691,21.691,0,0,0-9.351-.568c-.578.073-.332.889.243.817a20.3,20.3,0,0,1,9.268.687.387.387,0,0,0,.109.015c.126.475.261.942.4,1.41a27.372,27.372,0,0,0-6.883.184,54.011,54.011,0,0,0-8.031,2.335c-.544.19-.309,1.008.242.817a59.6,59.6,0,0,1,7.248-2.182,27.051,27.051,0,0,1,7.686-.292q.215.691.453,1.375a29.737,29.737,0,0,0-7.537,3.34c-.5.279-.045,1.011.459.731a28.924,28.924,0,0,1,7.365-3.265c.306.83.641,1.654,1.021,2.473a15.14,15.14,0,0,0,1.342,2.519,3.663,3.663,0,0,0,.514,1.915,2.011,2.011,0,0,0,2.144.887c.05,0,.1.011.148.01a1.868,1.868,0,0,0,1.725-.507,2.694,2.694,0,0,0,.815-2.518c.181-.189.353-.377.5-.553a26.958,26.958,0,0,0,3.236-4.859c3.341.347,6.546,3.48,8.825,5.524.422.379,1.067-.219.644-.6-2.4-2.158-5.568-5.162-9.06-5.716.23-.457.436-.925.649-1.39h0a35.34,35.34,0,0,1,6.623,1.541c2.022.516,4.042,1,6.013,1.67a.426.426,0,1,0,.243-.816c-2.235-.757-4.536-1.273-6.821-1.879a34.408,34.408,0,0,0-5.68-1.328c.193-.442.375-.887.557-1.332,1.634-.173,3.144-.758,4.815-.9,1.988-.164,3.989-.111,5.982-.08a.423.423,0,1,0,0-.846c-1.993-.031-3.993-.081-5.982.08-1.531.124-2.964.629-4.454.843.63-1.6,1.2-3.213,1.752-4.772,1.322-3.762,1.994-7.788,4.06-11.293a17.165,17.165,0,0,1,3.676-4.543,18.64,18.64,0,0,0,2.657-2.219,17.088,17.088,0,0,0,2.008-.254c3.44-.669,6.4-2.408,9.4-4.028a67.031,67.031,0,0,1,11.4-5.154,29.552,29.552,0,0,1,6.192-1.327,17.934,17.934,0,0,1,2.621-.1c.231.012.89-.064,1.072.108.279.262-.59,1.76-.683,1.928-.705,1.264-1.707,2.354-2.509,3.561a29.366,29.366,0,0,0-2.258,4.515c-1.56,3.551-4.156,7.737-3.944,11.672.132,2.465,1.842,3.514,3.97,4.475-1.434,1.049-4.147,1.777-4.326,3.519-.206,2.015,2.668,3.32,3.552,5.081-.987-.088-1.948-.318-2.95-.328a.448.448,0,0,0-.455.423,4.688,4.688,0,0,0,1.2,3.527c-10.006.834-5.409,18.937-4.183,24.344.139.611.286,1.22.433,1.829a14.6,14.6,0,0,0,1.259,5q.324,1.263.64,2.53a.415.415,0,0,0,.051.482c.028.033.061.059.09.091.392,1.6.765,3.212,1.072,4.833.847,4.467,1.377,10.008-2.094,13.689-2.907,3.082-8.063,4.456-12.354,4.05a10.189,10.189,0,0,1-4.987-1.784,8.923,8.923,0,0,0,1.772-.7c.5-.279.045-1.011-.46-.731a9.81,9.81,0,0,1-2.106.782,7.892,7.892,0,0,1-1.189-1.364q.514-.179,1.021-.38c.537-.215.074-.945-.46-.731-.335.135-.674.256-1.017.369-1.367-2.681-.092-4.993,2.961-5.866,2.748-.787,6.573-.826,7.382-3.969.136-.529-.742-.755-.879-.225-.9,3.491-6.618,2.6-9.209,4.44a4.333,4.333,0,0,0-.929.886c.383-2.73.507-5.48.642-7.9a36.976,36.976,0,0,0-.478-8.689c-.263-1.455-.483-4.47-2.113-5.283-.517-.258-.977.473-.46.731,1.644.819,1.818,5.262,2,6.769a43.519,43.519,0,0,1-.189,10.156c-.629,5.559-1.07,15.263-8.509,16.708a7.843,7.843,0,0,1-1.546.122,7.552,7.552,0,0,0,.045-.9c-.016-.544-.927-.546-.911,0a7.511,7.511,0,0,1-.042.849,7.727,7.727,0,0,1-1.887-.461,8.285,8.285,0,0,0,.545-1.757c.1-.533-.781-.762-.878-.225a7.865,7.865,0,0,1-.485,1.6,5.894,5.894,0,0,1-1.717-1.4,14.857,14.857,0,0,0,.8-1.661c.206-.511-.674-.732-.878-.225q-.221.547-.484,1.07c-1.667-3.065.019-6.822,1.194-9.777a35.909,35.909,0,0,0,2.5-10.051c.4-4.118-.468-8.133-.26-12.232.028-.544-.884-.543-.911,0-.195,3.843.638,7.626.327,11.484a38.274,38.274,0,0,1-2.8,11.253c-1.256,3.2-2.4,7.311-.543,10.209a11.1,11.1,0,0,1-1.632,2.088c-.4.4.243,1,.644.6a11.878,11.878,0,0,0,1.565-1.941,6.66,6.66,0,0,0,1.834,1.4c-.428.867-.935,1.705-1.381,2.57-.253.489.533.918.787.427.454-.879.97-1.735,1.41-2.618a8.32,8.32,0,0,0,2.154.524,17.48,17.48,0,0,0-.313,2.727c0,.544.915.545.911,0a16.9,16.9,0,0,1,.307-2.68,8.989,8.989,0,0,0,6.943-3.205,15.229,15.229,0,0,0,2.44-4.465.494.494,0,0,0,.454.179,8.8,8.8,0,0,0,1.175-.242,8,8,0,0,0,.928,1.233c.053.057.116.1.17.157-.155.05-.312.1-.465.152-.537.2-.3,1.019.242.816.31-.116.625-.215.942-.309,5.278,4.3,15.155,2.546,19.355-2.339,3.393-3.947,3.1-9.378,2.044-14.484-.049-.3-.1-.594-.156-.89l.211.139c-.114-.267-.226-.548-.341-.819q-.177-.893-.386-1.78a12.927,12.927,0,0,0,2.179.734,25.928,25.928,0,0,1,6.378,2.075c3.972,2.226,6.612,5.77,7,10.063.434,4.812-1.123,11.7,4.7,14.227,6.683,2.907,14.53-1.31,16.43-7.646C506.6,215,501.173,207.531,495.3,203.709Zm-54.672-62.4a15.664,15.664,0,0,0-2.57,2.826,25.693,25.693,0,0,0-3.721,7.928c-1.79,5.873-3.663,11.746-6.855,17.121a21.839,21.839,0,0,1-2.006,2.983,2.842,2.842,0,0,0-1.544-1.937.515.515,0,0,0-.552.067l-.013.011a1.429,1.429,0,0,0-1.4.343l-.014.013a1.737,1.737,0,0,0-.667.334,2.441,2.441,0,0,0-.767,1.184,27.075,27.075,0,0,1-1.778-4.244c-1.268-3.191-1.759-6.556-3.183-9.711a50.583,50.583,0,0,0-4.793-8.208c-1.581-2.248-3.2-4.541-4.956-6.677a15.515,15.515,0,0,0-2.749-2.718,26.988,26.988,0,0,0,5.334-.84,74.038,74.038,0,0,1,13.638-1.392,89.993,89.993,0,0,1,14.163.792,45.005,45.005,0,0,0,6.5.557C442.053,140.311,441.27,140.775,440.628,141.309Zm3.248,78.744q.261-.8.471-1.624a6.68,6.68,0,0,0,.516,1.432A8.779,8.779,0,0,1,443.876,220.053Zm40.082-6.913a13.679,13.679,0,0,0-5.965-7.849A15.7,15.7,0,0,0,473,203.07c-1.668-.412-4.054-.626-5.461-1.727-.084-.324-.164-.649-.254-.972-.483-1.756-1.346-3.451-1.728-5.228-.013-.209-.042-.418-.045-.626,2.054,1.783,5.21,2.556,7.753,3.412,4.393,1.48,9.058,1.7,13.51,2.925,7.833,2.147,14.827,7.549,16.78,15.129-1.018-.413-2.129,1.309-2.613,1.947-.275.363-.653,1.153-1.073,1.372-1.122.585-2.141-.62-2.654-1.344a15.36,15.36,0,0,1-1.76-3.721.464.464,0,0,0-.895.112c-.088,1.419.167,3.4-.739,4.625-1.778,2.406-3.561-2.647-4.018-3.754-.15-.362-.764-.439-.879,0a6.278,6.278,0,0,1-.755,2.2c-1.49,1.913-3.473-.093-3.514-1.84a.421.421,0,0,0-.429-.4A12.3,12.3,0,0,0,483.958,213.14ZM499.822,227.2c-3.3,2.607-8.548,3.509-12.3,1.148-3.571-2.245-3.273-6.792-3.246-10.883a3.107,3.107,0,0,0,2.662,1.868c1.435-.017,2.1-1.309,2.5-2.545.694,1.812,1.791,4.162,3.841,3.647,1.609-.4,2-2.166,2.116-3.82.674,1.574,1.64,3.172,3.206,3.629a1.983,1.983,0,0,0,2.017-.448c.344-.294,2.351-3.3,2.7-2.923a.4.4,0,0,0,.463.1A10.407,10.407,0,0,1,499.822,227.2Z" fill="#231f20"/>
        <path id="Tracé_440" data-name="Tracé 440" d="M403.781,151.173a1.864,1.864,0,0,0-1.048-1.132,1.242,1.242,0,0,0-1.408-.273,1.288,1.288,0,0,0-.441.317c-.02.008-.043.006-.063.015a1.182,1.182,0,0,0-.572,1.381,1.378,1.378,0,0,0,1.659,1.556,1.33,1.33,0,0,0,.134-.059,1.127,1.127,0,0,0,.118.008,1.148,1.148,0,0,0,.315-.056,1.229,1.229,0,0,0,.689-.156A1.4,1.4,0,0,0,403.781,151.173Z" fill="#231f20"/>
        <path id="Tracé_441" data-name="Tracé 441" d="M445.425,148.4a1.325,1.325,0,0,0-.912.082,1.206,1.206,0,0,0-.475.249c-.013.005-.026.006-.039.011a1.245,1.245,0,0,0-.6,1.688,1.465,1.465,0,0,0,.03.238,1.339,1.339,0,0,0,.082.2,1.521,1.521,0,0,0,.241.464,1.217,1.217,0,0,0,1.639.2,1.639,1.639,0,0,0,.443-.247l.024-.007a.988.988,0,0,0,.611-1c0-.02.016-.038.019-.058A1.605,1.605,0,0,0,445.425,148.4Z" fill="#231f20"/>
      </g>
    </g>
  </g>
</svg>
