<svg xmlns="http://www.w3.org/2000/svg" width="178.58" height="249.45" viewBox="0 0 178.58 249.45">
  <g id="fr-tortue" transform="translate(-74 -726)">
    <g id="Groupe_266" data-name="Groupe 266" transform="translate(3.347 59.392)">
      <g id="Groupe_265" data-name="Groupe 265">
        <rect id="bg" width="178.58" height="249.45" rx="8.5" transform="translate(70.653 666.607)" fill="#fff"/>
        <path id="Tracé_167" data-name="Tracé 167" d="M242.153,724.868V676.7a3.012,3.012,0,0,0-3.01-3.01H80.743a3,3,0,0,0-3,3.01v229.26a3,3,0,0,0,3,3.009h158.4a3.012,3.012,0,0,0,3.01-3.009V758.008m0-.01V724.9m-142.49-13.34a.073.073,0,0,1,.02-.04.138.138,0,0,0-.02.06" fill="#fceef4"/>
      </g>
    </g>
    <g id="Groupe_301" data-name="Groupe 301" transform="translate(8 63)">
      <path id="Tracé_281" data-name="Tracé 281" d="M212.674,807.677c-2.4-4.253-5.309-8.046-7.137-12.626-1.209-3.031-1.754-6.222-3.36-8.952-1.38-6.6-3.566-13.232-7.305-18.3-4.989-6.758-13.945-9.561-22.039-9.418-15.018.264-32.532,9.2-40.337,22.564-.557.657-1.053,1.4-1.606,1.987a9.572,9.572,0,0,1-3.53,2.435,5.639,5.639,0,0,0-1.373-.3,1.575,1.575,0,0,0-1.588,1.253,2.733,2.733,0,0,0-.546-.216,1.328,1.328,0,0,0-1.477.6,12.717,12.717,0,0,0-1.18,3.566,1.469,1.469,0,0,0,1,1.764,28.682,28.682,0,0,0,4.026,1.258,25.3,25.3,0,0,1,.056,3.6c-.023.4-.078.928-.166,1.477a1.313,1.313,0,0,0-.84-.262,7.04,7.04,0,0,1-2.083-.171,3.527,3.527,0,0,0-2.057-.215c-1.086-.3-2.469.533-2.207,1.753a3.751,3.751,0,0,0,.777,3.7,1.167,1.167,0,0,0,.319.273,1.614,1.614,0,0,0,.871.4c.107.1.22.193.331.289,2.061,5.233,9.017,8.42,13.84,10.433,7.032,2.937,14.752,4.006,22.3,4.634,7.849.653,15.621,1.109,23.472.292.461-.047.921-.1,1.382-.149a25.515,25.515,0,0,0,5.451-.091c1.263-.156,2.7-.368,4.136-.69,7.234-.289,13.9-4.082,20.173-8.234A1.989,1.989,0,0,0,212.674,807.677Z" fill="#9bb58c"/>
      <g id="Groupe_299" data-name="Groupe 299">
        <path id="Tracé_282" data-name="Tracé 282" d="M125.586,793.277a1.59,1.59,0,0,0-1.19-.406,1.917,1.917,0,0,0-1.105.051A37.757,37.757,0,0,1,120,790.91c-.433-.23-.863-.462-1.295-.692-.26-.419-.522-.838-.77-1.261-4.291-7.689-3.916-16.387-2.575-24.955a35.539,35.539,0,0,0,.744-10.2c-.21-4.1-1.063-8.549-4.538-11.173-8.554-6.462-19.107,1.836-20.411,10.781-1.607,11.016,2.709,22.254,9.838,30.557a48.957,48.957,0,0,0,12.643,10.361c2.248,1.3,5.862,3.607,8.869,3.437a1.838,1.838,0,0,0,2.473.682c.932-.545.989-1.576,1.045-2.532C126.071,795.093,126.23,793.921,125.586,793.277Z" fill="#c1e2af"/>
        <path id="Tracé_283" data-name="Tracé 283" d="M145,825.632a26.289,26.289,0,0,0-.754-5.742c-.022-.076-.054-.14-.08-.211a1.317,1.317,0,0,0-.791-1.818,21.555,21.555,0,0,1-2.339-.746c-.778-.321-1.493-.761-2.275-1.072a1.3,1.3,0,0,0-.821-.071,4.378,4.378,0,0,0-1.14-.316c-1.023-.126-1.252,1.148-.72,1.781l-.026.02c.394.372.789.746,1.186,1.117.083,2.389.911,4.657.1,7a27.172,27.172,0,0,0-1.1,3.873,1.784,1.784,0,0,0-.566,2.1c1.261,3.751,5.869,4.7,9.06,2.525C148.032,831.819,146.974,828.276,145,825.632Z" fill="#c1e2af"/>
        <path id="Tracé_284" data-name="Tracé 284" d="M161.015,826.234c-.194-.787-.5-1.6-.731-2.412-.045-.3-.086-.611-.129-.925.017-.711.005-1.418-.029-2.161a1.056,1.056,0,0,0-1.818-.678c-1.12-.342-2.531-.342-3.451-.613a1.521,1.521,0,0,0-.633-.038,2.374,2.374,0,0,0-2.078-.1,1.115,1.115,0,0,0-.394,1.5,10.319,10.319,0,0,1,1.053,5.066c-.019,1.445-.526,2.852-.482,4.29.081,2.672,2.281,3.921,4.667,4.254,2.448.342,4.886-.63,5.482-3.232A5.7,5.7,0,0,0,161.015,826.234Z" fill="#c1e2af"/>
        <path id="Tracé_285" data-name="Tracé 285" d="M187.421,828.4a8.31,8.31,0,0,0-1.369-3.111c-.619-1.142-.647-2.455-1.237-3.606-1.082-2.113-3.035-1.659-5.133-1.635a1.6,1.6,0,0,0-.753.2,12.706,12.706,0,0,0-2.729-.15.793.793,0,0,0-.555,1.34,4.838,4.838,0,0,1,1.762,4.152c-.042,1.533-.526,3.1-.407,4.624a4.133,4.133,0,0,0,.087.486,1.768,1.768,0,0,0,.808,2.7,7.937,7.937,0,0,0,3.239.633,1.969,1.969,0,0,0,.337-.047,5.763,5.763,0,0,0,3.035-.72C186.2,832.287,187.633,830.4,187.421,828.4Z" fill="#c1e2af"/>
        <path id="Tracé_286" data-name="Tracé 286" d="M205.463,826.3c-.4-1.41-1.494-2.431-2.019-3.777-.582-1.493-.676-2.765-1.705-4.068a.9.9,0,0,0-1.056-1.158,19.055,19.055,0,0,1-4.319.967,1.434,1.434,0,0,0-1.192.718,1.142,1.142,0,0,0-1.234,1.852c1.107,1.069.051,4.58-.055,5.892a6.441,6.441,0,0,0,.508,3.564,5.6,5.6,0,0,0,7.143,2.443C204.154,831.731,206.294,829.219,205.463,826.3Z" fill="#c1e2af"/>
        <path id="Tracé_287" data-name="Tracé 287" d="M218.2,808.27a4.969,4.969,0,0,1-2.25-.186,1.1,1.1,0,0,0-1.467.384,6.138,6.138,0,0,1-.623.93,1.593,1.593,0,0,0-.6.221,3.538,3.538,0,0,0-.841.407.944.944,0,0,0,.321,1.731,1.386,1.386,0,0,0,1.827.82c1.522-.522,4.21-1.173,4.626-3A1.046,1.046,0,0,0,218.2,808.27Z" fill="#c1e2af"/>
      </g>
      <g id="Groupe_300" data-name="Groupe 300">
        <path id="Tracé_288" data-name="Tracé 288" d="M220.263,808.236c-1.769-.033-4.1-.57-5.731.168a.044.044,0,0,0,0,.075c1.289.762,3.168.692,4.782.736a6.008,6.008,0,0,1-3.4,2.173,7.216,7.216,0,0,1-3.821-.352c.755-.6,1.5-1.227,2.212-1.881a.66.66,0,0,0,0-.929c-7.273-6.035-9.112-15.613-11.481-24.271-2.22-8.112-5.464-15.714-12.6-20.65-14.972-10.353-35.118-4.536-48.182,6.159a54.65,54.65,0,0,0-9.584,10.2c-.744,1.024-1.446,2.076-2.119,3.148a3.607,3.607,0,0,1-3.528,1.969c-1.112.013-2.263-.06-2.871.937-1.855-.343-2.725,3.261-2.836,5.241a14.622,14.622,0,0,1-5.84-8.135c-1.735-5.863-.553-12.061.493-17.928,1.462-8.2,3.465-21.183-6.965-24.338-8.444-2.554-15.922,4.044-18,11.883-2.564,9.65,1.492,20.725,6.928,28.682a43.053,43.053,0,0,0,21.166,16.288c-.674,2.329-1.256,7.007,1.869,7.5a.565.565,0,0,0,.038.073c5.9,7.149,14.254,11.2,23.093,13.319a14.309,14.309,0,0,0,1.5,8.468c1.033,2.314,1.677,4.853-.563,6.693-1.874,1.539-4.985,1.477-7.082.378-4.218-2.212-.177-6.669.285-9.935.324-2.3.027-6.261-2.127-7.677-.123-.081-.248.052-.227.174a22.421,22.421,0,0,0,1.06,2.8,10.275,10.275,0,0,1,.44,3.793c-.172,2.451-1.594,4.3-2.229,6.586-.947,3.416,1.876,5.462,4.946,5.925,3.047.46,6.7-.793,7.447-4.133a7.765,7.765,0,0,0-.94-4.8c-1.222-2.716-2-5.111-1.575-8.054,2.041.457,4.1.816,6.163,1.09a11.406,11.406,0,0,1,1.3,5.705c-.127,1.827-.911,3.6-.678,5.456.377,3,3.115,3.785,5.75,4.018,2.493.221,5.283-.55,5.795-3.351.725-3.967-3.326-7.054-2.034-11.055,4.625.153,9.259.1,13.885.111a.139.139,0,0,0,.017.089,10.832,10.832,0,0,1,1.967,6.324c-.088,1.6-1.158,3.32-.72,4.924.712,2.6,4.234,3.158,6.477,2.848,2.765-.382,5.385-2.428,5.283-5.428-.108-3.146-3.293-5.633-2.962-8.768a55.371,55.371,0,0,0,8.454-.818.116.116,0,0,0,0,.09,9.476,9.476,0,0,1,.32,5.9c-.345,1.426-1.071,3.011-.637,4.5.83,2.856,5.314,3.242,7.717,2.9,2.762-.393,5.137-1.924,5.3-4.918a8.229,8.229,0,0,0-1.332-4.567c-1.236-2.1-3.205-4.088-2.383-6.724a43.6,43.6,0,0,0,8.713-5.145c2.855,2.481,7.938.219,9.487-2.7A.518.518,0,0,0,220.263,808.236Zm-97.7-20.638c.6-1.046,1.479-1.292,2.166-.079a7.642,7.642,0,0,1,.576,1.744,16.881,16.881,0,0,1,.525,3.506.521.521,0,0,0-.24-.1,11.172,11.172,0,0,1-4.086-1.47A9.8,9.8,0,0,1,122.562,787.6Zm-1.424,16.3a1.746,1.746,0,0,1-1.537-1.1,4.463,4.463,0,0,1-.335-1.708,12.913,12.913,0,0,1,.408-3.409,40.318,40.318,0,0,0,4.439,1.19c.548.113.786-.71.233-.846A43.518,43.518,0,0,1,100.475,783.1c-6.065-7.609-10.686-18.554-9.079-28.423a17.148,17.148,0,0,1,6.826-11.464,11.806,11.806,0,0,1,13.119-.281c4.476,3.08,4.859,9.094,4.456,14.024-.424,5.186-1.806,10.236-2.325,15.411-.856,8.54,1.736,19.9,11.811,21.407a.591.591,0,0,0,.563-.227,18.053,18.053,0,0,1-.2,2.706c-.336,2.235-1.065,5.284-2.751,6.907a2.52,2.52,0,0,1-1.562.719A.489.489,0,0,0,121.138,803.9Zm40.045,22.938c.787,1.817,1.841,4.432.1,6.077-1.211,1.141-3.169,1.006-4.678.785-2.165-.317-3.991-1.127-4.077-3.6-.056-1.614.6-3.177.69-4.787a9.451,9.451,0,0,0-1.437-5.608c.509.062,1.019.125,1.527.177,2.305.234,4.615.374,6.928.464C159.237,822.525,160.283,824.755,161.183,826.836Zm24.5-1.284a8.373,8.373,0,0,1,1.345,3.935c-.056,2.445-2.3,3.89-4.49,4.181-1.75.232-4.7-.02-5.311-2.105-.377-1.291.615-3.039.7-4.356a8.408,8.408,0,0,0-2.523-6.715c2.892.008,5.791.07,8.681.013C183.949,822.33,184.82,823.916,185.682,825.552Zm17.891-2.326c1.076,1.669,2.089,3.6,1.61,5.655-.493,2.116-2.428,2.969-4.392,3.258a8.9,8.9,0,0,1-5.318-.737c-2.459-1.307-1.069-4.067-.681-6.1.37-1.932.509-4.229-1.025-5.693.795-.153,1.588-.325,2.377-.53a41.393,41.393,0,0,0,5.339-1.8C201.071,819.511,202.36,821.347,203.573,823.226Zm-6.208-5.858c-6.507,1.969-13.2,1.864-19.921,1.815-13.077-.095-26.586.661-39.1-3.854a38.626,38.626,0,0,1-16.054-10.578c2.662-1.013,3.834-5.749,4.194-7.987a18.127,18.127,0,0,0-.008-5.788c-.222-1.363-.587-4.244-1.973-5.049.948-1.018,3.282-.108,4.446-.479,1.446-.462,2.062-2.085,2.835-3.255a53.322,53.322,0,0,1,8.1-9.533,51.5,51.5,0,0,1,23.209-12.653c8.72-2.025,18.151-1.117,25.773,3.809,7.751,5.009,10.853,13.2,13.106,21.752,2.175,8.262,4.255,17.213,10.882,23.112A41.8,41.8,0,0,1,197.365,817.368Z" fill="#231f20"/>
        <path id="Tracé_289" data-name="Tracé 289" d="M98.474,750.235a1.284,1.284,0,0,0-1.025-.473,1.067,1.067,0,0,0-.549.04,1.244,1.244,0,0,0,.077,2.35C98.066,752.538,99.257,751.208,98.474,750.235Z" fill="#231f20"/>
        <path id="Tracé_290" data-name="Tracé 290" d="M112.119,749.411a.372.372,0,0,0-.358-.358,1.3,1.3,0,0,0-1.241.588.685.685,0,0,0-.18.007,2.49,2.49,0,0,0-.426.05.264.264,0,0,0-.185.185c-.173.546-.041,1.637.608,1.607a1.638,1.638,0,0,0,.172.267.321.321,0,0,0,.39.05c.049-.037.086-.081.132-.12.465-.022.8-.57.862-.98,0-.011,0-.023,0-.035A2.1,2.1,0,0,0,112.119,749.411Z" fill="#231f20"/>
        <path id="Tracé_291" data-name="Tracé 291" d="M112.024,757.931a4.527,4.527,0,0,1-5.858-5.051c.063-.533-.694-.533-.862-.117-1.138,2.819-2.954,6.184-6.594,5.041a.183.183,0,0,0-.141.333c2.981,1.807,5.363-.951,6.774-3.5a5.379,5.379,0,0,0,6.919,4.154A.448.448,0,0,0,112.024,757.931Z" fill="#231f20"/>
      </g>
    </g>
  </g>
</svg>
