<svg xmlns="http://www.w3.org/2000/svg" width="178.58" height="249.45" viewBox="0 0 178.58 249.45">
  <g id="fr-tigre" transform="translate(-340 -726)">
    <g id="Groupe_268" data-name="Groupe 268" transform="translate(3.514 59.392)">
      <g id="Groupe_267" data-name="Groupe 267">
        <rect id="bg" width="178.58" height="249.45" rx="8.5" transform="translate(336.486 666.607)" fill="#fff"/>
        <path id="Tracé_168" data-name="Tracé 168" d="M507.986,724.868V676.7a3.012,3.012,0,0,0-3.01-3.01h-158.4a3,3,0,0,0-3,3.01v229.26a3,3,0,0,0,3,3.009h158.4a3.012,3.012,0,0,0,3.01-3.009V758.008m0-.01V724.9M365.5,711.558a.073.073,0,0,1,.02-.04.138.138,0,0,0-.02.06" fill="#fceef4"/>
      </g>
    </g>
    <g id="Groupe_307" data-name="Groupe 307" transform="translate(14 60)">
      <path id="Tracé_301" data-name="Tracé 301" d="M459.836,819.756c.019-.423.041-.848.062-1.273a48.54,48.54,0,0,0,.313-5.443c0-.122,0-.24-.01-.357.413-7.959.71-16.111-.481-23.831-.359-2.326-.98-4.536-1.522-6.812-.5-2.09-.458-4.189-.853-6.283a10.452,10.452,0,0,0-.831-2.364c.064-1.765.041-3.538.125-5.2a68.51,68.51,0,0,0-.116-11.5c-.435-3.683-1.2-7.315-1.719-10.986-.378-2.691-.809-4.8-2.151-6.607-.025-.323-.043-.647-.051-.975-.014-.56-.03-1.086-.071-1.593,2.3-2.378,3.921-5.2,3.468-8.884-.487-3.956-3.777-6.226-7.215-4.336-2.643,1.452-4.445,5.077-4.576,8.31a4.031,4.031,0,0,0-2.858-.457c-2.551.448-5.157-.92-7.622-1.426-2.158-.443-4.394,0-6.551.01-1.085-.13-2.171-.246-3.254-.361v.025a3.112,3.112,0,0,0-2.3.948c-.471.052-.941.106-1.412.17-.1,0-.193,0-.295.012a24.971,24.971,0,0,0-5.792,1.046,2.975,2.975,0,0,0-1.511,1.108,16.335,16.335,0,0,0-1.967.928,9.307,9.307,0,0,0-1.4-2.585,2.1,2.1,0,0,0-.67-.571c-1.538-2.5-4.643-4.212-7.25-3.287-3.962,1.405-3.864,6.376-2.649,9.864a9.889,9.889,0,0,0,2.683,4.12c-1.968,7-3.466,15.1-2.806,22.323a87.414,87.414,0,0,0,1.173,9.228c-.278,2.391-.034,5.033-.145,7.135-.166,3.163-.931,6.851-.159,9.948a36.953,36.953,0,0,0-1.735,5.936c-1.05,4.448-1.84,9.006-2.7,13.5-1.2,6.258-2.389,13.065-.979,19.351a12.484,12.484,0,0,0-.442,5.458c-.743-.393-1.5-.75-2.252-1.108a19.94,19.94,0,0,0-3.639-1.451c-1.311-1.185-1.989-2.764-3.5-4.032-3.256-2.739-5.06-7.175-5.751-11.6a16.565,16.565,0,0,1,3.167-12.493c3.048-3.953,7.975-5.646,11.9-8.33a2.981,2.981,0,0,0,1.12-1.375,9.807,9.807,0,0,0,.754-.973c.151-.173.3-.345.432-.515a3.825,3.825,0,0,0,.861-2.535,6.6,6.6,0,0,0-1.743-6.051c-3.819-3.985-9.447-2.323-13.7-.327a17.7,17.7,0,0,0-9.8,10.829c-1.379,4.1-2.43,9.666-1.65,14.132-.549,4.011.65,8.839,1.784,12.179s3.5,10.01,7.1,11.635a29.115,29.115,0,0,0,8.871,7.5,21.522,21.522,0,0,0,4.633,3.377,13.219,13.219,0,0,0,4.491,1.829c.1.212.19.429.293.639a19.9,19.9,0,0,0,1.618,4.135,12.314,12.314,0,0,0,6.879,6.208c3.322,1.086,6.77.314,7.684-3.791a12.017,12.017,0,0,0-.285-5.767,3.19,3.19,0,0,0,1.864-.478c2.591,5.259,7.385,11.429,13.276,8.95a6.8,6.8,0,0,0,2.651-1.888,5.151,5.151,0,0,0,2.2-2.648,7.878,7.878,0,0,0,.161-5.122,11.391,11.391,0,0,0,1.906.769,11.9,11.9,0,0,0,2.871.472,6.737,6.737,0,0,0,3.44,6.843c4.4,2.559,10.182.473,13.023-3.668,3.02-4.4,4.831-10.862,5.409-16.254a60.952,60.952,0,0,0,.114-13.108c.006-.092.015-.182.017-.276Zm-26.962-56.017c-.052.076-.108.141-.157.224-1.6,2.734-5.959,5.1-8.882,4.991-2.694-.1-5.215-2.094-6.532-4.589-1.47-3.836-1.881-8.16,1.091-11.366a3.558,3.558,0,0,0,.37-.478,8.527,8.527,0,0,1,5.9-2.284c.31-.006.605.007.9.025,1.9,1.6,4.161,2.644,5.765,4.715A11.878,11.878,0,0,1,432.874,763.739Z" fill="#f4c17d"/>
      <path id="Tracé_302" data-name="Tracé 302" d="M396.024,844.129c-.625-.319-1.251-.633-1.873-.962a3.941,3.941,0,0,0,1.4.25,1.163,1.163,0,0,0,.21-.036,15.3,15.3,0,0,1-.656-3.885,2.506,2.506,0,0,0-1.729-.377,1.494,1.494,0,0,0-1.105.7,1.617,1.617,0,0,0-.171,1.357,3.08,3.08,0,0,0,1.116,1.488c-6.9-3.723-13.44-8.166-18-15.12a32.64,32.64,0,0,1-5.087-16.441c-.052-1.072-.051-2.145-.026-3.218a5.737,5.737,0,0,0,.459.658,1.762,1.762,0,0,0,1.013.727,1.546,1.546,0,0,0,1.228-.268,1.866,1.866,0,0,0,.425-2.425,3,3,0,0,0-1.862-1.549,1.273,1.273,0,0,0-1.14.334c.085-1.139.194-2.277.35-3.408a33.664,33.664,0,0,1,2.135-8.86c2.186-5.007,6.99-8.879,11.757-10.662a9.776,9.776,0,0,1,7.948.028,7.467,7.467,0,0,1,4.127,6.179c.14,6.516-7.84,8.224-11.758,11.008A17.453,17.453,0,0,0,378,810.52a20.347,20.347,0,0,0,4.078,15.892,22.354,22.354,0,0,0,2.53,2.76,1.242,1.242,0,0,0-.893.839,1.684,1.684,0,0,0,.051,1.161,1.339,1.339,0,0,0,1.349,1.13,1.484,1.484,0,0,0,1.192-1.69,26.814,26.814,0,0,0,4.44,2.758l-.029-.007a2.434,2.434,0,0,0-.68-.043,4.244,4.244,0,0,0-.7.186,1.136,1.136,0,0,0-.508,1.65,3.192,3.192,0,0,0,1.018.967,6.159,6.159,0,0,0,1.218.441,1.361,1.361,0,0,0,1.565-.984,1.729,1.729,0,0,0-.236-1.453c.543.229,1.094.438,1.647.638-.017-.032-.035-.063-.051-.1l0-.005-.01-.021c-.019-.037-.037-.075-.056-.113-.057-.116-.11-.235-.16-.354s-.118-.251-.173-.379a.314.314,0,0,1,.069-.342,23.811,23.811,0,0,1-11.962-9.451,18.3,18.3,0,0,1-1.286-17.515,15.7,15.7,0,0,1,5.433-6.267c2.513-1.651,5.406-2.571,7.8-4.453,3.364-2.649,5.253-7.155,2.651-11.2-6-9.316-19.1-1.14-23.431,5.919-2.932,4.781-3.632,11.294-3.83,16.9a36.508,36.508,0,0,0,3.192,17.042c4.976,10.4,14.668,16.419,24.383,20.977A11.376,11.376,0,0,1,396.024,844.129Z" fill="#231f20"/>
      <path id="Tracé_303" data-name="Tracé 303" d="M459.6,784.1c-.819-3.918-2.145-7.67-2.355-11.717-.2-3.95.255-7.9.1-11.853a71.981,71.981,0,0,0-1.5-11.555,70.812,70.812,0,0,0-3.1-11.723c3.78-3.2,5.959-10.336,1.686-14.084-2.013-1.766-4.721-1.394-6.736.168-2.272,1.762-3.323,4.66-4.236,7.415-.834-.248-1.675-.467-2.517-.671a1.2,1.2,0,0,0-.933-.269l-.143.022a50.083,50.083,0,0,0-26.73,1.466,1.911,1.911,0,0,1-.193-.047,1.892,1.892,0,0,0-2.175.912c-.24.095-.482.183-.722.281-.792-4.8-7.109-7.761-10.761-4.712-1.97,1.645-2.1,4.848-1.674,7.289.371,2.141,1.6,5.628,3.746,6.508-5.181,11.578-2.49,24.768-2.166,37.077a80.95,80.95,0,0,1-1.773,18.266c-.633,3.132-1.346,6.248-2,9.375a.345.345,0,0,1,.012.1,10.066,10.066,0,0,1-.24,1.466.292.292,0,0,1-.135.2c-.411,2.036-.789,4.079-1.089,6.139q-.487,3.349-.708,6.737l-.005,0a.364.364,0,0,1,0,.1c-.041.23-.07.462-.1.694-.013.174-.024.348-.036.521a.334.334,0,0,1,.014.1,1.1,1.1,0,0,1-.021.135l.054-.051a86.42,86.42,0,0,0,.014,8.787c.28,5.283,1,10.679,3.2,15.468,1.831,4,4.83,7.709,8.718,9.429a6.538,6.538,0,0,0,6.157-.117,5.357,5.357,0,0,0,1.41,1.5c.328.228.61-.3.369-.571a14.515,14.515,0,0,1-1.178-1.423,4.856,4.856,0,0,0,1.161-1.79c.189.158.379.315.564.471a10.758,10.758,0,0,0,2.3,1.818c.282.123.676-.207.445-.529a10.74,10.74,0,0,0-2.227-1.9c-.272-.213-.548-.438-.828-.66a10.015,10.015,0,0,0,.3-2.293l.293.2a5.876,5.876,0,0,0,2.354,1.192.329.329,0,0,0,.269-.559,10.307,10.307,0,0,0-2.17-1.244c-.259-.147-.514-.316-.771-.484a13.668,13.668,0,0,0-3.774-8.123c-2.769-2.975-6.324-5.26-7.45-9.558a.4.4,0,0,0-.773.153c.571,3.925,3.655,6.36,6.231,8.839a15.341,15.341,0,0,1,4.125,5.671,11.655,11.655,0,0,1,.58,2.417c-.1-.046-.2-.1-.3-.133-.132-.045-.248.147-.169.264a3.442,3.442,0,0,0,.547.6,9.263,9.263,0,0,1-.134,2.448,5.132,5.132,0,0,0-.7-.391c-.148-.066-.356.109-.234.277a6.347,6.347,0,0,0,.75.831,4.4,4.4,0,0,1-.895,1.6c-.171-.349-.328-.705-.5-1.055-.108-.219-.45-.093-.426.148a4.879,4.879,0,0,0,.375,1.4c-3.755,2.667-8.962-1.971-11.179-4.967a27.25,27.25,0,0,1-4.55-11.231c.121.182.253.361.4.543a2.171,2.171,0,0,0,2.266.527l.092-.025a2.4,2.4,0,0,0,1.491-2.34,2.538,2.538,0,0,0-.333-1.228c.005-.024.01-.042.015-.07a5.5,5.5,0,0,0,.067-2.51,1.46,1.46,0,0,0-2.541-.991A10.74,10.74,0,0,0,395.5,834a6.724,6.724,0,0,0-.717,1.706c-.033.1-.089.256-.146.433-.008-.067-.018-.134-.026-.2a75.8,75.8,0,0,1-.306-14.581.616.616,0,0,0,.034-.457c.133-1.773.322-3.542.55-5.307a7.007,7.007,0,0,0,.387,1.005c.795,1.646,3.438,1.086,3.679-.711a14.77,14.77,0,0,0,.325-3.6,1.224,1.224,0,0,0-1.732-1.11,2.022,2.022,0,0,0-.9-.181,1.839,1.839,0,0,0-1.157.491q.612-3.719,1.418-7.417l.234-1.08a1.85,1.85,0,0,0,.292.544c.013.332.028.665.07.994.206,1.6,2.164,2.266,2.944.705a4.755,4.755,0,0,0,.483-1.706,3.286,3.286,0,0,0,1.33-.466c.028-.016.175-.11.289-.183,1.957-.137,2.19-3.718.164-3.989a3.061,3.061,0,0,0-2.05.355,3.111,3.111,0,0,0-.624-.225,2.227,2.227,0,0,0-2.225.842c.4-1.882.786-3.767,1.125-5.662a1.755,1.755,0,0,0,2.617.278,1.422,1.422,0,0,0,.692-.09,3.265,3.265,0,0,0,1.364-.966l.007.006a2.666,2.666,0,0,0,1.563.368,2.7,2.7,0,0,0,2.469-2.853,1.932,1.932,0,0,0-2.428-1.967,1.778,1.778,0,0,0-.508-.331,2.365,2.365,0,0,0-1.951.121l-.012.008a1.243,1.243,0,0,0-1.389.166.567.567,0,0,0-.765-.077,3.556,3.556,0,0,0-1.023,1.3c.07-.523.139-1.047.2-1.573.185-1.632.289-3.265.343-4.9.059.117.109.241.176.351a1.939,1.939,0,0,0,3.568-.69,1.426,1.426,0,0,1,.5-1.03c-.1.1-.068.093.07-.009.031-.012.08-.032.165-.069s.127-.036.16-.047a2.938,2.938,0,0,0,.323-.037,2.3,2.3,0,0,0,2.031-2.414,2.241,2.241,0,0,0-2.231-2.2,4.532,4.532,0,0,0-2.33.862c-.016-.037-.029-.074-.046-.11a1.047,1.047,0,0,0-1.708-.151,3.529,3.529,0,0,0-.659.889c-.048-2.1-.161-4.209-.307-6.314-.1-1.382-.2-2.77-.295-4.161a1.174,1.174,0,0,0,1.885-.8c.029-.228.051-.5.079-.794a1.6,1.6,0,0,0,2.607-.923,1.857,1.857,0,0,0,1.248-2.259l-.036-.172a1.7,1.7,0,0,0-1.684-1.257,2.727,2.727,0,0,0-.728.244,1.54,1.54,0,0,0-2.806-.27.709.709,0,0,0-.912.127c-.076-2-.1-4-.048-5.995a1.511,1.511,0,0,0,2.4-1.275c.016-.143.031-.286.046-.429a.7.7,0,0,0,.915-.135,3.514,3.514,0,0,0,.3-2.635c-.07-.7-.248-1.472-.888-1.713a2.066,2.066,0,0,0-.219-.539.878.878,0,0,0-1.038-.4,2.042,2.042,0,0,0-1.017.962,38.849,38.849,0,0,1,2.169-8.624c.081.018.159.043.241.054a.347.347,0,0,0,.218-.64,8.558,8.558,0,0,1-3.763-5.825c-.5-2.355-.5-5.6,1.545-7.1a5.589,5.589,0,0,1,5.956-.129,8.717,8.717,0,0,1,3.719,4.589c-.33.328-.052,1.055.442.848.1-.043.206-.081.308-.124a2.147,2.147,0,0,0,1.5,1.991,3.333,3.333,0,0,0,1.02.17,1.478,1.478,0,0,0,1.615.457l.042-.017a1.146,1.146,0,0,0,.973-.381,9.672,9.672,0,0,1,1.642-.516,1.813,1.813,0,0,0,1.11-2.234,2.183,2.183,0,0,0-.64-1.823,49.441,49.441,0,0,1,4.967-.934,1.788,1.788,0,0,0,.512,2.592,2.771,2.771,0,0,1,1.1.715,1.611,1.611,0,0,0,2.89-.235.215.215,0,0,1,.025,0,2.207,2.207,0,0,0,.77-.144,3.215,3.215,0,0,0,1.557-.963,1.728,1.728,0,0,0,0-2.408c.847.005,1.694.029,2.54.078l-.149.21a1.8,1.8,0,0,0-.149,1.983l.171.3a1.91,1.91,0,0,0,1.743.968c.136-.012.339-.049.558-.078a3.276,3.276,0,0,0,.662,1.1,1.887,1.887,0,0,0,2.367.209,1.659,1.659,0,0,0,.814-.843,4.3,4.3,0,0,0,.813.083,4.64,4.64,0,0,0,1.843-.628l.227.015c.98.059,1.149-1.109.728-1.807.638.168,1.274.345,1.908.539.242.074.434-.124.508-.348.829-2.527,1.719-5.26,3.694-7.021a5.31,5.31,0,0,1,3.645-1.455,1.869,1.869,0,0,0-1.2.807.583.583,0,0,0,.413.951,2.767,2.767,0,0,1,1.344.557,1.283,1.283,0,0,0,1.14.229,1.071,1.071,0,0,0,.609-1.2,1.476,1.476,0,0,0-.4-.776,4.507,4.507,0,0,1,1.16,1.04,7.454,7.454,0,0,1,1.027,6.873,14.121,14.121,0,0,1-2.16,3.971.859.859,0,0,0,.017-.143,1.053,1.053,0,0,0-.346-.791.821.821,0,0,0-1.024-.091l-.047.033a.916.916,0,0,0-.1,1.356.816.816,0,0,0,.32.222c.059.025.239.134.1.033a.58.58,0,0,0,.627.033c-.275.39-.55.782-.812,1.189a.347.347,0,0,0-.445.078,4.4,4.4,0,0,0-.417.747,3.175,3.175,0,0,0,.993,4.655.384.384,0,0,0,.358-.006.348.348,0,0,0,.543-.329c0-.03-.012-.057-.016-.086a.314.314,0,0,0,.341-.226c.447,1.906.947,3.8,1.381,5.711a2.96,2.96,0,0,0-1.15-1.777.926.926,0,0,0-.771-.1,1.715,1.715,0,0,0-2.334.827,4.6,4.6,0,0,0,1.479,5.595,1.233,1.233,0,0,0,1.216.068,1.577,1.577,0,0,0,.9.1,1.656,1.656,0,0,0,1.322-1.425c.343,1.921.62,3.856.812,5.8a2.1,2.1,0,0,0-1.528-.814,2.065,2.065,0,0,0-2.49.039,1.58,1.58,0,0,0-.213.064,7.811,7.811,0,0,0-.625-.718.614.614,0,0,0-1.028.35,34.726,34.726,0,0,0,.055,5.472c.1,2.575,3.334,2.329,3.765.377a16.558,16.558,0,0,1,1.439-1.236,1.855,1.855,0,0,0,.831-.808c.063,1.185.094,2.372.079,3.562-.05,3.833-.482,7.689,0,11.509a47.143,47.143,0,0,0,1.166,5.621,1.341,1.341,0,0,0-2.214.354,2.686,2.686,0,0,0-.306,1.232,1.259,1.259,0,0,0-.654,1.28c.118.754.242,1.506.336,2.264a1.862,1.862,0,0,0,.081.61l.031.1a1.744,1.744,0,0,0,.9,1.1c.042.045.082.09.13.133a1.626,1.626,0,0,0,2.618-.5,5.076,5.076,0,0,0,.28-1.33,70.116,70.116,0,0,1,.983,9.966,5.349,5.349,0,0,0-.256-.514.85.85,0,0,0-.179-.212,1.254,1.254,0,0,0-2.309-.175c-.019.038-.043.073-.063.11a1.289,1.289,0,0,0-1.319.841q.291-.446-.127.2a1.834,1.834,0,0,0-.168.562,1.71,1.71,0,0,0,1.854,2.065c0,.013,0,.027,0,.04l.025,0a1.711,1.711,0,0,0,1.5,1.7,1.524,1.524,0,0,0,1.122-.342c0,1.476-.009,2.952-.026,4.425a1.9,1.9,0,0,0-2.124-.759,1.51,1.51,0,0,0-2.7.643,4.656,4.656,0,0,0-.118,2.694,2.251,2.251,0,0,0,.286.572,2.1,2.1,0,0,0,1.528,1.956,1.644,1.644,0,0,0,1.186-.124,1.9,1.9,0,0,0,.444.1,2.02,2.02,0,0,0,1.443-.486v.114c-.014,1.81-.022,3.626-.034,5.445a1.438,1.438,0,0,0-2.738.346c-.09.831-.168,1.666-.258,2.5a1.633,1.633,0,0,0-.147.395,2.206,2.206,0,0,0-.007.868c-.02.148-.037.3-.059.443a1.761,1.761,0,0,0,3.131,1.5c-.085,4.025-.26,8.045-.66,12.029-.711,7.082-2.569,14.433-7.513,19.446a.382.382,0,0,0-.1.385c-1.978.77-3.826,1.712-6.019,1.714h-.012c.012-.04.028-.079.041-.119.18-.6.548-1.531.053-2.029a.129.129,0,0,0-.163-.014c-.366.231-.342.52-.443.951a8.752,8.752,0,0,1-.363,1.162,7.884,7.884,0,0,1-2.536-.718,5.712,5.712,0,0,0,.6-2.04.164.164,0,0,0-.287-.111,17.748,17.748,0,0,0-.962,1.8,6.689,6.689,0,0,1-1.849-1.642,7.232,7.232,0,0,1-.409-.6,11.872,11.872,0,0,0,1.137-1.893.177.177,0,0,0-.28-.211c-.433.452-.827.948-1.219,1.447-1.517-3.188-.19-6.875,1.273-10.179a6.963,6.963,0,0,0-.168.723,3.56,3.56,0,0,0,.235,2.033,1.438,1.438,0,0,0,1.189,1.008,1.341,1.341,0,0,0,1.338-.78,6.4,6.4,0,0,0,.449-1.477,7.386,7.386,0,0,1,.281-1.327,1.754,1.754,0,0,0-1.022-2.008,1.64,1.64,0,0,0-1.6.278c.278-.612.547-1.206.784-1.772a40.829,40.829,0,0,0,1.608-26.555c-.157-.549-.924-.273-.781.276a41.425,41.425,0,0,1,.931,17.089,39.029,39.029,0,0,1-2.168,8c-.93,2.375-2.171,4.6-2.984,7.03a11.269,11.269,0,0,0,.121,8.308c-.11.137-.219.276-.332.41a20.482,20.482,0,0,0-1.934,2.325c-.2.321.225.7.5.492a11.455,11.455,0,0,0,2.068-2.421l.081-.112a7.1,7.1,0,0,0,2.328,2.311c-.419.711-1.172,1.879-1.634,1.652a.306.306,0,0,0-.415.381c.453,1.262,1.652-.036,2.051-.626.219-.324.445-.677.661-1.046a8.572,8.572,0,0,0,2.586.778c-.466.894-1.678,2.893-2.785,2.131-.3-.208-.63.238-.451.536.906,1.506,2.6-.11,3.267-1.029a8.371,8.371,0,0,0,.878-1.552,10.277,10.277,0,0,0,6.831-2.238.379.379,0,0,0,.24-.122c5.233-5.641,7.208-13.337,7.865-21.1.66-7.789.633-15.669.693-23.485C460.928,799.958,461.23,791.885,459.6,784.1Z" fill="#231f20"/>
      <path id="Tracé_304" data-name="Tracé 304" d="M413.591,801.689a.481.481,0,1,1,.933.228c-3.156,13.994-5.592,30.514.7,43.968a15.15,15.15,0,0,0,6.355,7.306,9.143,9.143,0,0,0,5.079,1.024,9.931,9.931,0,0,1-.167-1.786.231.231,0,0,1,.452-.09,12.775,12.775,0,0,1,.545,1.735,6.4,6.4,0,0,0,2.071-.86,8.272,8.272,0,0,1-.908-1.78.189.189,0,0,1,.3-.209,7.555,7.555,0,0,1,1.261,1.505,6.355,6.355,0,0,0,.57-.546,5.392,5.392,0,0,0,.974-1.51,3.958,3.958,0,0,1-1-1.988.094.094,0,0,1,.156-.079,8.01,8.01,0,0,1,1.12,1.231c.633-2.679-.9-5.656-1.852-8.266a68.265,68.265,0,0,1-2.824-9.873c-1.408-7.006-1.612-14.61,1.269-21.226a.161.161,0,0,1,.3.119,42.985,42.985,0,0,0-.15,23.62c.959,3.753,2.417,7.233,3.676,10.862a8.657,8.657,0,0,1,.286,5.553c.023.022.043.048.067.07a8.372,8.372,0,0,0,1.179.91,3.789,3.789,0,0,1,1.081.733c.165.209.1.585-.2.593-.847.024-1.825-.888-2.445-1.526a6.388,6.388,0,0,1-1.286,1.752c-.117.114-.237.22-.357.324.577.692,1.241,1.667,2.113,1.862a.321.321,0,0,1,.192.45c-.571,1.117-1.928-.262-2.993-1.779a7.111,7.111,0,0,1-2.362,1.056c.084.363.168.724.261,1.078a20.348,20.348,0,0,1,.85,3.454.391.391,0,0,1-.72.25,14.594,14.594,0,0,1-1.049-3.658c-.07-.317-.143-.639-.214-.964-3.815.465-7.944-2-10.329-5.2-4.218-5.67-5.631-13.773-6.006-20.853C410.025,819.91,411.557,810.654,413.591,801.689Z" fill="#231f20"/>
      <path id="Tracé_305" data-name="Tracé 305" d="M437.637,744.628a.917.917,0,0,1,1.259.265l.023.01c.032-.006.059-.022.092-.026a.342.342,0,0,1,.311.172c.005.008.007.016.011.023s.024.018.037.026a1.292,1.292,0,0,1,.619,1.591,1.179,1.179,0,0,1-.9.82l-.037.035c-.02.03-.034.063-.056.092-.507.687-1.19.225-1.463-.436-.025-.06-.04-.123-.059-.185A1.63,1.63,0,0,1,437.637,744.628Z" fill="#231f20"/>
      <path id="Tracé_306" data-name="Tracé 306" d="M410.733,745.28a.77.77,0,0,1,.915-.305,1.071,1.071,0,0,1,.318-.037,1.951,1.951,0,0,1,1.629,1.435,1.663,1.663,0,0,1-.868,1.524.913.913,0,0,1-.13.152,1.3,1.3,0,0,1-2.128-1.02,1.247,1.247,0,0,1,.042-.214A1.849,1.849,0,0,1,410.733,745.28Z" fill="#231f20"/>
      <path id="Tracé_307" data-name="Tracé 307" d="M421.219,762.16a.266.266,0,0,1,.241-.219l.075,0,.012,0c.6-.34,1.155-1.86,1.365-2.44a10.639,10.639,0,0,0,.5-2.291,1.171,1.171,0,0,1-.235-.178,1.759,1.759,0,0,1-1.03-.875c-.489-.92.447-1.273,1.129-1.363a3.425,3.425,0,0,1,1.83.269,2.309,2.309,0,0,1,1.468.663.348.348,0,0,1,.019.462c.013.727-1.056,1.241-1.609,1.317a2.679,2.679,0,0,1-.663,0,8.935,8.935,0,0,0,.251,1.528c.251.939.827,1.745,1.032,2.678.053.242-.183.4-.365.255a5.465,5.465,0,0,1-1.455-3.544,8.46,8.46,0,0,1-.475,1.732c-.265.681-.968,2.473-1.789,2.5-.213.006-.328-.187-.308-.4Z" fill="#231f20"/>
      <path id="Tracé_308" data-name="Tracé 308" d="M421.285,768.623c3.433,1.4,8.21.352,10.489-2.836,4.569-6.39-.512-14.607-6.976-15.595a.311.311,0,0,0-.135-.05,6.511,6.511,0,0,0-.856-.049,8.328,8.328,0,0,0-2.137.2c-.1.022-.1.12-.062.193a9.227,9.227,0,0,0-5.773,7.823C415.5,762.157,417.809,767.207,421.285,768.623Zm-2.732-14.982a8.18,8.18,0,0,1,5.9-2.718c3.556.749,6.726,2.718,7.912,6.878,1.375,4.822-1.488,9.657-6.092,10.313-2.3.328-4.732.219-6.51-1.579a11.526,11.526,0,0,1-3.1-6.369A8.717,8.717,0,0,1,418.553,753.641Z" fill="#231f20"/>
      <path id="Tracé_309" data-name="Tracé 309" d="M448.8,770.857c.1-.144.2-.3.307-.451a6.518,6.518,0,0,0,.584-1.49,1.5,1.5,0,0,1,1.647-1.045,2.414,2.414,0,0,1,.791-.3,2.084,2.084,0,0,1,.552-.009,1.862,1.862,0,0,1,.567-.233,2.176,2.176,0,0,1,2,.137,2.051,2.051,0,0,1,.755,2.611,7.143,7.143,0,0,1-.761,1.205,1.528,1.528,0,0,1-.955.6,1.962,1.962,0,0,1-1.655.661q-.258.41-.518.819a1.974,1.974,0,0,1-2.969.771A2.326,2.326,0,0,1,448.8,770.857Z" fill="#231f20"/>
      <path id="Tracé_310" data-name="Tracé 310" d="M440.66,764.158a13.361,13.361,0,0,0,1.4-.078c.028,0,.157-.038.255-.061a1.624,1.624,0,0,1,2.675-.758.746.746,0,0,1,.958.518,3.5,3.5,0,0,1,.2,1.527,3.125,3.125,0,0,1,.037.879,1.412,1.412,0,0,1-.59,1.08,2.477,2.477,0,0,1-.221.871,2.22,2.22,0,0,1-2.4,1.2c-.722-.082-1.376-.515-2.117-.572a2.314,2.314,0,0,1-.2-4.609Z" fill="#231f20"/>
      <path id="Tracé_311" data-name="Tracé 311" d="M447.946,784.058a6.935,6.935,0,0,1,.317-1.429,4.964,4.964,0,0,1,.754-1.655,1.9,1.9,0,0,1,1.824-.708,1.872,1.872,0,0,1,.813,3.267c-.029.026-.06.045-.089.069a2.3,2.3,0,0,1-.553,1.1,4.109,4.109,0,0,1-1.386,1.009,1.213,1.213,0,0,1-1.285-.3A1.556,1.556,0,0,1,447.946,784.058Z" fill="#231f20"/>
      <path id="Tracé_312" data-name="Tracé 312" d="M440.552,781.2a3.964,3.964,0,0,1-.175-.381,2.084,2.084,0,0,1,1.2-2.551,2.378,2.378,0,0,1,1.532,0c.024.008.153.043.255.068.068,0,.136,0,.2,0a2.045,2.045,0,0,1,2,1.49,2.306,2.306,0,0,1-.813,2.489,2.049,2.049,0,0,1-.981.34l-.016,0,0,0h-.014l-.1.021c-.146.084-.311.158-.461.232l-.187.093-.165.095c-.081.054-.235.255-.133.084.018-.018.017-.016.028-.026l.038-.061a.686.686,0,0,0-.119.146,1.273,1.273,0,0,1-.186.3l-.024.036,0-.01a1.271,1.271,0,0,1-2.191-.5A2.2,2.2,0,0,1,440.552,781.2Z" fill="#231f20"/>
      <path id="Tracé_313" data-name="Tracé 313" d="M430.251,777.031a1.574,1.574,0,0,1,.876-.8,1.478,1.478,0,0,1,.8-.015l.005-.026a9.86,9.86,0,0,1,1.434.6,1.731,1.731,0,0,1,.645,2.23,1.582,1.582,0,0,1-.879.8,1.662,1.662,0,0,1-1.182-.107,7.269,7.269,0,0,1-1.06-.463A1.743,1.743,0,0,1,430.251,777.031Z" fill="#231f20"/>
      <path id="Tracé_314" data-name="Tracé 314" d="M414.08,776.729a1.575,1.575,0,0,1,.961-.3,1.545,1.545,0,0,1,.73.192.981.981,0,0,1,.274.09,3.729,3.729,0,0,1,.343.166,1.365,1.365,0,0,1,.5,1.727,1.525,1.525,0,0,1-1.083.949,1.344,1.344,0,0,1-1.406.022,1.755,1.755,0,0,1-.892-1.092A1.665,1.665,0,0,1,414.08,776.729Z" fill="#231f20"/>
      <path id="Tracé_315" data-name="Tracé 315" d="M403.236,770.829a2.133,2.133,0,0,1,2.228,1.064,1.669,1.669,0,0,1,1.5-.04,2.344,2.344,0,0,1,1.11.684c.235.3.425.628.666.931.351.442.392,1.394-.3,1.533-.32.064-.624.155-.932.24a1.755,1.755,0,0,1-1.611,1.068,2.118,2.118,0,0,1-1.937.382c-1.334-.339-1.948-1.569-2.394-2.842A2.36,2.36,0,0,1,403.236,770.829Z" fill="#231f20"/>
      <path id="Tracé_316" data-name="Tracé 316" d="M449.8,792.167a3.673,3.673,0,0,1,.45-.7l0,0a1.868,1.868,0,0,1,2.542-.833.979.979,0,0,1,.382-.031,1.17,1.17,0,0,1,1.02,1.137,3.391,3.391,0,0,1-.539,2.281,2.278,2.278,0,0,1-1.043.765l-.314.4a1.562,1.562,0,0,1-1.784.46,1.821,1.821,0,0,1-1.084-1.578A3.479,3.479,0,0,1,449.8,792.167Z" fill="#231f20"/>
      <path id="Tracé_317" data-name="Tracé 317" d="M441.555,793.4a2.357,2.357,0,0,1,1.754-.934,2.094,2.094,0,0,1,2.225,2.039,2.317,2.317,0,0,1-.286,1.082,1.664,1.664,0,0,1-1.038,1.194,1.96,1.96,0,0,1-1.986-.512,1.678,1.678,0,0,1-.829-.75A1.919,1.919,0,0,1,441.555,793.4Z" fill="#231f20"/>
      <path id="Tracé_318" data-name="Tracé 318" d="M447.5,816.172a2.62,2.62,0,0,1,1.264-1.5,2.049,2.049,0,0,1,3.2-.405,2.991,2.991,0,0,1-.053,4.126,2.4,2.4,0,0,1-.334.254,1.7,1.7,0,0,1-2,1.279,3.77,3.77,0,0,1-.968-.479A2.662,2.662,0,0,1,447.5,816.172Z" fill="#231f20"/>
      <path id="Tracé_319" data-name="Tracé 319" d="M444.737,804.956a1.624,1.624,0,0,0,1.619,1.594l.273-.007.017,0a1.829,1.829,0,0,0,.223.143c.033.03.067.058.1.088a1.56,1.56,0,0,0,2.428-.3,2.069,2.069,0,0,0,.223-1.525,2.235,2.235,0,0,0-.29-1.3,1.988,1.988,0,0,0-1.725-.958,1.93,1.93,0,0,0-1.4.519A1.66,1.66,0,0,0,444.737,804.956Z" fill="#231f20"/>
      <path id="Tracé_320" data-name="Tracé 320" d="M434.017,807.5a2.242,2.242,0,0,1,.867-1.141c.079-.057.535-.444.343-.221a1.841,1.841,0,0,1,1.938-.585,1.515,1.515,0,0,1,.67,0,1.854,1.854,0,0,1,1.266,2.17q0,.5-.117.151l.087.515a8.242,8.242,0,0,1-.087,1.263q-.083.958-.164,1.917a2.041,2.041,0,0,1-2.169,1.694,2.163,2.163,0,0,1-1.862-2.077c-.043-.376-.058-.757-.064-1.14a1.321,1.321,0,0,1-.187-.187A2.291,2.291,0,0,1,434.017,807.5Z" fill="#231f20"/>
      <path id="Tracé_321" data-name="Tracé 321" d="M436.791,819.575a3.728,3.728,0,0,1,.748-.454,1.119,1.119,0,0,1,.373-.4,1.206,1.206,0,0,1,1.725.4c.013.026.023.053.036.078a2.342,2.342,0,0,1,1.079,1.324l-.033-.012a2.183,2.183,0,0,1-.089,1.6,2.243,2.243,0,0,1-3.143.919,2.7,2.7,0,0,1-1.281-1.659A1.667,1.667,0,0,1,436.791,819.575Z" fill="#231f20"/>
      <path id="Tracé_322" data-name="Tracé 322" d="M431.373,821.566a2.149,2.149,0,0,0,1.46.048l.038-.015a2.031,2.031,0,0,0,1.5-1.168,2.412,2.412,0,0,0,.121-1.644,2.078,2.078,0,0,0-.137-.343,2.426,2.426,0,0,0-1.655-1.738,2.287,2.287,0,0,0-2.7,1.844l-.048.229A2.461,2.461,0,0,0,431.373,821.566Z" fill="#231f20"/>
      <path id="Tracé_323" data-name="Tracé 323" d="M433.147,833.15a2.356,2.356,0,0,0,4.05.033,2.655,2.655,0,0,0,.334-2.307,3.038,3.038,0,0,0-1.212-1.538l-.013-.263a1.141,1.141,0,1,0-2.276.115l.01.206a2.745,2.745,0,0,0-1.236,2.231A2.194,2.194,0,0,0,433.147,833.15Z" fill="#231f20"/>
      <path id="Tracé_324" data-name="Tracé 324" d="M431.5,794.471a1.825,1.825,0,0,0,2.5-.814l0,.008a1.536,1.536,0,0,0,.327-.562c.01-.025.022-.049.032-.074l.079-.053.069-.029.056-.018c.074-.007.149-.014.223-.019a1.744,1.744,0,0,0,.979-2.94c-.771-.859-2.266-1.374-3.088-.3a1.56,1.56,0,0,0-.246.495c-.121.055-.36.153-.056.034a4.305,4.305,0,0,0-.659.332,3.39,3.39,0,0,0-1,1.208A2.137,2.137,0,0,0,431.5,794.471Z" fill="#231f20"/>
      <path id="Tracé_325" data-name="Tracé 325" d="M425.911,789.119a2.112,2.112,0,0,1,1.243-.253,1.061,1.061,0,0,1,1.056,1.041,1.087,1.087,0,0,1-.962,1.144,2.09,2.09,0,0,1-1.259-.126A1.1,1.1,0,0,1,425.911,789.119Z" fill="#231f20"/>
      <path id="Tracé_326" data-name="Tracé 326" d="M420.437,793.121a1.29,1.29,0,0,1,.694.032c.185.074.367.154.55.232a1.026,1.026,0,0,1,.432,1.228.908.908,0,0,1-1.064.634c-.189-.06-.379-.116-.564-.19a1.531,1.531,0,0,1-.546-.44A.888.888,0,0,1,420.437,793.121Z" fill="#231f20"/>
      <path id="Tracé_327" data-name="Tracé 327" d="M417.116,785.785a1.449,1.449,0,0,1,.593-.92,2.73,2.73,0,0,1,.794-.337,2.386,2.386,0,0,1,.654-.013,1.757,1.757,0,0,1,1.542.856,2.1,2.1,0,0,1,.238,1.442,1.955,1.955,0,0,1-.75,1.165,1.6,1.6,0,0,1-1.756.089,2.962,2.962,0,0,1-1.127-1.143A1.7,1.7,0,0,1,417.116,785.785Z" fill="#231f20"/>
      <path id="Tracé_328" data-name="Tracé 328" d="M412.471,785.549c1.8-.091,1.93,2.93.131,3.021S410.672,785.641,412.471,785.549Z" fill="#231f20"/>
      <path id="Tracé_329" data-name="Tracé 329" d="M429.662,797.314c2.128-.108,2.287,3.47.155,3.578S427.531,797.422,429.662,797.314Z" fill="#231f20"/>
      <path id="Tracé_330" data-name="Tracé 330" d="M423.1,801.3c2.709-.138,2.91,4.416.2,4.554S420.389,801.435,423.1,801.3Z" fill="#231f20"/>
      <g id="Groupe_304" data-name="Groupe 304">
        <path id="Tracé_331" data-name="Tracé 331" d="M407.874,796.856l-.067,0c.027,0,.055.006.083.008s.058.013.087.025l-.048-.022a3.409,3.409,0,0,1,.619.1,3.765,3.765,0,0,0,.537.231.546.546,0,0,1,.1.027l.046.009a1.476,1.476,0,0,1,1.188.458,2,2,0,0,1,.56,1.289,1.8,1.8,0,0,1-2.1,1.9c.576.1-.225-.013-.339-.027a2.3,2.3,0,0,1-.338-.06,2.551,2.551,0,0,1-1.2-.629,2.931,2.931,0,0,1-.79-2.062A1.223,1.223,0,0,1,407.874,796.856Z" fill="#231f20"/>
        <path id="Tracé_332" data-name="Tracé 332" d="M407.874,796.856l.042,0,.013.006-.039,0Z" fill="#231f20"/>
        <path id="Tracé_333" data-name="Tracé 333" d="M407.916,796.858c-.207-.1.385.013,0,0Z" fill="#231f20"/>
      </g>
      <path id="Tracé_334" data-name="Tracé 334" d="M400.926,808.778a2.519,2.519,0,0,1,1.641-1.931,2.742,2.742,0,0,1,.993-.134c.046-.117.093-.233.134-.352a1.531,1.531,0,0,1,1.736-.869,1.74,1.74,0,0,1,1.222,1.577,4,4,0,0,1-.814,3.189,3.862,3.862,0,0,1-1.479.94,1.029,1.029,0,0,1-.218.087q.6-.313.055-.031a1.359,1.359,0,0,1-.308.152,2.61,2.61,0,0,1-1.371.1C401.327,811.314,400.778,809.921,400.926,808.778Z" fill="#231f20"/>
      <path id="Tracé_335" data-name="Tracé 335" d="M394.417,824.782c.261-.849.522-1.694.743-2.556a1.73,1.73,0,0,1,1.8-1.41,1.758,1.758,0,0,1,1.549,1.729c-.013.315-.034.631-.052.947a2.005,2.005,0,0,1-.018,3.173,10.557,10.557,0,0,1-1.485.621A2.057,2.057,0,0,1,394.417,824.782Z" fill="#231f20"/>
      <g id="Groupe_305" data-name="Groupe 305">
        <path id="Tracé_336" data-name="Tracé 336" d="M402.177,823.211a1.6,1.6,0,0,0,2.1-1.014l.031-.038a.31.31,0,0,0,.091-.02c.014,0,.028,0,.042,0l-.034,0,.008-.006a1.848,1.848,0,0,0,.561.012,1.574,1.574,0,0,0,.655-.283,1.775,1.775,0,0,0,.629-1.925,2.216,2.216,0,0,0-3.048-1.152,3.359,3.359,0,0,0-1.944,1.9A1.885,1.885,0,0,0,402.177,823.211Z" fill="#231f20"/>
        <path id="Tracé_337" data-name="Tracé 337" d="M404.314,822.127H404.3l0,0h.012Z" fill="#231f20"/>
      </g>
      <path id="Tracé_338" data-name="Tracé 338" d="M402.421,840.2a1.239,1.239,0,0,1,1.712-.58c.081.053.163.1.244.152a1.2,1.2,0,0,1,.693.223,1.743,1.743,0,0,1,.744,1.742,1.476,1.476,0,0,1-.627.974,1.364,1.364,0,0,1-1.466.074,1.9,1.9,0,0,1-.4-.287l-.243-.308-.035-.08c-.028-.02-.057-.041-.082-.057A1.459,1.459,0,0,1,402.421,840.2Z" fill="#231f20"/>
      <path id="Tracé_339" data-name="Tracé 339" d="M407.294,846.622a2.533,2.533,0,0,0-.084.906,2.308,2.308,0,0,0,1.612,2.081,2.03,2.03,0,0,0,2.292-1.147,2.976,2.976,0,0,0-.13-2.644,3.508,3.508,0,0,0-.673-.892,2.992,2.992,0,0,0-2.182-.681,1.259,1.259,0,0,0-1.083.871,1.413,1.413,0,0,0,.26,1.362c0,.028,0,.059,0,.088S407.3,846.594,407.294,846.622Z" fill="#231f20"/>
      <path id="Tracé_340" data-name="Tracé 340" d="M404.639,852.456a2.019,2.019,0,0,0,.454,1.2,1.443,1.443,0,0,0,.547.494l.455.181a2.134,2.134,0,0,0,2.048-.66,2.258,2.258,0,0,0,.414-2.111,2.043,2.043,0,0,0-1.435-1.386.747.747,0,0,0-.608.106,2.2,2.2,0,0,0-.9.334l.443-.229a.494.494,0,0,1-.128.048A2.058,2.058,0,0,0,404.639,852.456Z" fill="#231f20"/>
      <path id="Tracé_341" data-name="Tracé 341" d="M399.249,847.713a1.9,1.9,0,0,1,.59-1.435,1.512,1.512,0,0,1,1.424-.393,1.834,1.834,0,0,1,.86.463,5.019,5.019,0,0,1,.387.5l.373.519a2.036,2.036,0,0,1,.238,1.442,1.925,1.925,0,0,1-.75,1.165,1.7,1.7,0,0,1-2.409-.554A3.008,3.008,0,0,1,399.249,847.713Z" fill="#231f20"/>
      <path id="Tracé_342" data-name="Tracé 342" d="M405.083,829.936a2.568,2.568,0,0,1,.4-1.6,3.274,3.274,0,0,1,.566-1.317,1.189,1.189,0,0,1,1.761-.089,1.446,1.446,0,0,1,.083,1.9c-.072.082-.148.155-.223.227a2.429,2.429,0,0,1,.541,1.971,1.4,1.4,0,0,1-1.66,1.134A2.194,2.194,0,0,1,405.083,829.936Z" fill="#231f20"/>
      <path id="Tracé_343" data-name="Tracé 343" d="M406.3,815.976a2.818,2.818,0,0,1,.745-1.424,1.41,1.41,0,0,1,2.034-.1,2.736,2.736,0,0,1,.865,1.342,2.054,2.054,0,0,1-1.71,2.681A2.023,2.023,0,0,1,406.3,815.976Z" fill="#231f20"/>
      <path id="Tracé_344" data-name="Tracé 344" d="M416.349,797.343a1.237,1.237,0,0,1,1.237,1.218,1.267,1.267,0,0,1-1.126,1.338,1.237,1.237,0,0,1-1.236-1.218A1.265,1.265,0,0,1,416.349,797.343Z" fill="#231f20"/>
      <path id="Tracé_345" data-name="Tracé 345" d="M438.228,798.723a1.732,1.732,0,0,1,.38.166.927.927,0,0,1,.065,1.512,1.832,1.832,0,0,1-.364.2c-.548.258-1.157-.295-1.182-.883S437.661,798.521,438.228,798.723Z" fill="#231f20"/>
      <path id="Tracé_346" data-name="Tracé 346" d="M430.027,781.02c2.183-.111,2.346,3.561.159,3.672S427.84,781.131,430.027,781.02Z" fill="#231f20"/>
      <path id="Tracé_347" data-name="Tracé 347" d="M455.911,828.645a1.519,1.519,0,0,1,1.378-1.249,1.5,1.5,0,0,1,1.479,1.1,5.419,5.419,0,0,1,.15.916,4.559,4.559,0,0,1-.112.856c-.121.647-.643,1.4-1.332,1.4a1.572,1.572,0,0,1-1.431-1.2,3.863,3.863,0,0,1-.2-.9A6.575,6.575,0,0,1,455.911,828.645Z" fill="#231f20"/>
      <path id="Tracé_348" data-name="Tracé 348" d="M453.7,838.5c.105-.319.174-.637.288-.956.037-.1.074-.2.109-.3l.018-.053c.146-.465.27-.936.376-1.413a1.767,1.767,0,0,1,2.082-1.423,1.936,1.936,0,0,1,1.316,2.254,7.285,7.285,0,0,1-1.223,3.562,1.669,1.669,0,0,1-2.081.4A1.94,1.94,0,0,1,453.7,838.5Z" fill="#231f20"/>
      <path id="Tracé_349" data-name="Tracé 349" d="M448.886,832.106a1.548,1.548,0,0,1,1.05-.84,1.442,1.442,0,0,1,1.229.4,1.665,1.665,0,0,1,.443,1.518,1.522,1.522,0,0,1-1.165,1.194,1.375,1.375,0,0,1-1.367-.527A1.669,1.669,0,0,1,448.886,832.106Z" fill="#231f20"/>
      <path id="Tracé_350" data-name="Tracé 350" d="M448.8,825.56a2.007,2.007,0,0,1,1.113-1.02,1.754,1.754,0,0,1,1.5.136l.632.464a2.254,2.254,0,0,1,.942,1.2,2.3,2.3,0,0,1-.125,1.621,2,2,0,0,1-1.113,1.02,1.752,1.752,0,0,1-1.5-.135l-.633-.465a2.25,2.25,0,0,1-.942-1.2A2.3,2.3,0,0,1,448.8,825.56Z" fill="#231f20"/>
      <path id="Tracé_351" data-name="Tracé 351" d="M443.41,831.627a5.352,5.352,0,0,1,.892-1.412,1.589,1.589,0,0,1,2.339-.119,1.919,1.919,0,0,1,.109,2.531,4.047,4.047,0,0,0-.378.406c-.019.025-.076.11-.107.154l-.025.043A3.516,3.516,0,0,1,445.2,834.4a1.188,1.188,0,0,1-1.7-.39A2.781,2.781,0,0,1,443.41,831.627Z" fill="#231f20"/>
      <path id="Tracé_352" data-name="Tracé 352" d="M445.353,843.748c.328-.66.718-1.29,1.455-1.443a1.571,1.571,0,0,1,1.216.109,1.638,1.638,0,0,1,.764.978,2.592,2.592,0,0,1-.035,1.474,3.844,3.844,0,0,1-.6,1,1.62,1.62,0,0,1-2.25.26A1.957,1.957,0,0,1,445.353,843.748Z" fill="#231f20"/>
      <path id="Tracé_353" data-name="Tracé 353" d="M451.674,844.595a1.814,1.814,0,0,1,1.132-.575,1.521,1.521,0,0,1,1.312.63,1.856,1.856,0,0,1-.346,2.619,1.831,1.831,0,0,1-1.207.381,2.3,2.3,0,0,1-.744-.233,1.454,1.454,0,0,1-.714-1.21A1.919,1.919,0,0,1,451.674,844.595Z" fill="#231f20"/>
      <path id="Tracé_354" data-name="Tracé 354" d="M443.884,846.488c2.459-.125,2.643,4.011.179,4.136S441.42,846.613,443.884,846.488Z" fill="#231f20"/>
      <path id="Tracé_355" data-name="Tracé 355" d="M435.082,837.607c1.934-.1,2.078,3.155.141,3.253S433.144,837.706,435.082,837.607Z" fill="#231f20"/>
      <path id="Tracé_356" data-name="Tracé 356" d="M423.675,811.473a2.611,2.611,0,0,1,.63-1.274,1.586,1.586,0,0,1,2.338-.118,1.931,1.931,0,0,1,.11,2.53,2.348,2.348,0,0,1-1.113.8A1.6,1.6,0,0,1,423.675,811.473Z" fill="#231f20"/>
      <path id="Tracé_357" data-name="Tracé 357" d="M415.5,807.4a1.45,1.45,0,0,1,1.837-.352,1.7,1.7,0,0,1,.781,1.827,15.746,15.746,0,0,0-.453,1.676,3.151,3.151,0,0,1-1.182,2.17,1.594,1.594,0,0,1-2.411-.922C413.443,810.275,414.72,808.589,415.5,807.4Z" fill="#231f20"/>
      <path id="Tracé_358" data-name="Tracé 358" d="M414.064,816.5a1.648,1.648,0,0,1,2.263-.767,9.916,9.916,0,0,1,1.325.747,2.058,2.058,0,0,1,.656,2.436,1.809,1.809,0,0,1-2.009.883,5.476,5.476,0,0,1-1.527-.85A1.921,1.921,0,0,1,414.064,816.5Z" fill="#231f20"/>
      <path id="Tracé_359" data-name="Tracé 359" d="M419.4,815.126a2.358,2.358,0,0,1,.748-.856,1.8,1.8,0,0,1,1.524-.6,2.218,2.218,0,0,1,1.38.664,3.063,3.063,0,0,1,.8,2.759c-.209.981-1.112,2-2.115,1.757a2.186,2.186,0,0,1-1.336-1.367h0l.012.027-.013-.027a1.457,1.457,0,0,1-.516-.247A1.73,1.73,0,0,1,419.4,815.126Z" fill="#231f20"/>
      <path id="Tracé_360" data-name="Tracé 360" d="M421.17,823.055A1.731,1.731,0,0,1,423,821.628a1.8,1.8,0,0,1,1.569,1.75,7.037,7.037,0,0,0,.057.725c.011.011.1.4.112.457a4.987,4.987,0,0,1,.217,1.031,3.955,3.955,0,0,1-.041.729q-.273.8-.11.325c-.33,1.016-1.3,1.725-2.29,1.146C420.895,826.845,420.918,824.787,421.17,823.055Z" fill="#231f20"/>
      <g id="Groupe_306" data-name="Groupe 306">
        <path id="Tracé_361" data-name="Tracé 361" d="M420.579,829.6c-.015.008-.03.019-.045.027C420.428,829.675,420.388,829.7,420.579,829.6Z" fill="#231f20"/>
        <path id="Tracé_362" data-name="Tracé 362" d="M420.534,829.627a2.34,2.34,0,0,1,.351-.135,1.178,1.178,0,0,1,.726.083,1.139,1.139,0,0,1,1.246.831,1.279,1.279,0,0,1-.729,1.555,2.668,2.668,0,0,1-.48.1,1.5,1.5,0,0,1-.478.122,1.214,1.214,0,0,1-1.118-.62c-.07-.14-.133-.285-.193-.431A1.255,1.255,0,0,1,420.534,829.627Z" fill="#231f20"/>
      </g>
      <path id="Tracé_363" data-name="Tracé 363" d="M414.979,826.8a1.105,1.105,0,0,1,1.37-.263,2.1,2.1,0,0,1,1.071,1.7c.013.088.013.1,0,.035-.02-.1-.013-.052.024.148a1.664,1.664,0,0,1-.011.609c.066.1.122.215.192.316a1.06,1.06,0,0,1-.272,1.384.9.9,0,0,1-1.278-.295c-.083-.118-.15-.247-.226-.37a2.163,2.163,0,0,1-.994-.933A2.189,2.189,0,0,1,414.979,826.8Z" fill="#231f20"/>
      <path id="Tracé_364" data-name="Tracé 364" d="M413.683,825.689a1.487,1.487,0,0,1-.379-.9,1.991,1.991,0,0,1,.607-1.53,1.872,1.872,0,0,1,1.231-.48,1.265,1.265,0,0,1,1.2.784,1.5,1.5,0,0,1-.2,1.511c.213-.3.063-.081.016,0a2.013,2.013,0,0,1-.411.519,1.952,1.952,0,0,1-.753.455,1.425,1.425,0,0,1-.655.011.428.428,0,0,1-.394.477C413.48,826.558,413.381,825.918,413.683,825.689Z" fill="#231f20"/>
      <path id="Tracé_365" data-name="Tracé 365" d="M413.482,834.329a1.7,1.7,0,0,1,2.358-.8,5.827,5.827,0,0,1,2.256,5.581,1.749,1.749,0,0,1-2.031,1.388C413.766,840.1,412.423,836.443,413.482,834.329Z" fill="#231f20"/>
      <path id="Tracé_366" data-name="Tracé 366" d="M422.086,838.6l.233-.786a4.376,4.376,0,0,1,.372-1.073,1.853,1.853,0,0,1,.724-.737,1.41,1.41,0,0,1,1.023-.138,1.694,1.694,0,0,1,1.229,1.587,3.764,3.764,0,0,1-.22,1.125c-.086.26-.171.52-.257.781a1.892,1.892,0,0,1-.686,1.064,1.521,1.521,0,0,1-1.216.236A1.75,1.75,0,0,1,422.086,838.6Z" fill="#231f20"/>
      <path id="Tracé_367" data-name="Tracé 367" d="M425.711,841.59a1.334,1.334,0,0,1,.793-1.537,1.2,1.2,0,0,1,1.453.68,1.987,1.987,0,0,1,.838,1.138,2.376,2.376,0,0,1-.187,1.888,1.269,1.269,0,0,1-1.716.581,2.277,2.277,0,0,1-1.181-2.75Z" fill="#231f20"/>
      <path id="Tracé_368" data-name="Tracé 368" d="M423.9,847.075a2.159,2.159,0,0,1,1.018-.712,3.49,3.49,0,0,1,.352-.122l.136-.059.044-.023a.954.954,0,0,1,.5-.174l.1-.02c.071-.029.18-.071.212-.08a2.773,2.773,0,0,1,.378-.069,1.483,1.483,0,0,1,1.755.218,1.7,1.7,0,0,1,.307,1.931,2.148,2.148,0,0,1-.345.987,3.114,3.114,0,0,1-1.422,1.234c-1.027.356-2.657.253-3.2-.928A2.038,2.038,0,0,1,423.9,847.075Z" fill="#231f20"/>
      <path id="Tracé_369" data-name="Tracé 369" d="M417.615,844.347c.015-.806.558-1.673,1.39-1.651a3.043,3.043,0,0,1,1.084.137,4.76,4.76,0,0,1,1.052.728l-.394-.3a5.118,5.118,0,0,1,.857.789,2.07,2.07,0,0,1,.25,2.525,1.725,1.725,0,0,1-.9.739,1.918,1.918,0,0,1-1.382-.125,3.46,3.46,0,0,1-1.207-.859,2.461,2.461,0,0,1-.7-1.29A3.606,3.606,0,0,1,417.615,844.347Z" fill="#231f20"/>
      <path id="Tracé_370" data-name="Tracé 370" d="M387.06,838.4a1.5,1.5,0,0,0,1.417-.523,1.72,1.72,0,0,0,.281-1.569,1.443,1.443,0,0,0-2.309-.731,2.9,2.9,0,0,0-.32.068,1.115,1.115,0,0,0-.682,1.1A1.822,1.822,0,0,0,387.06,838.4Z" fill="#231f20"/>
      <path id="Tracé_371" data-name="Tracé 371" d="M381.412,834.087a1.427,1.427,0,0,0,1.62-.464,1.809,1.809,0,0,0,.285-1.591,1.57,1.57,0,0,0-1.515-1.1l-.307-.02c-.645-.043-1.173.743-1.129,1.379l.024.365A1.626,1.626,0,0,0,381.412,834.087Z" fill="#231f20"/>
      <path id="Tracé_372" data-name="Tracé 372" d="M377,826.822a4.764,4.764,0,0,0,.416.725c.058.08.12.158.185.231l.108.132c.041.058.174.236.172.234a1.319,1.319,0,0,0,1.533.552,1.507,1.507,0,0,0,.9-1.451,3.745,3.745,0,0,0-.518-2.2,2.249,2.249,0,0,0-2-1.04,1.133,1.133,0,0,0-1.009.949A3.159,3.159,0,0,0,377,826.822Z" fill="#231f20"/>
      <path id="Tracé_373" data-name="Tracé 373" d="M375.334,819.7a1.857,1.857,0,0,0,2.128-1.528,3.344,3.344,0,0,0-.638-3.252,1.647,1.647,0,0,0-2.635.581,3.231,3.231,0,0,0-.224,1.495c0,.027,0,.055,0,.082-.016.107-.025.222-.045.319A1.975,1.975,0,0,0,375.334,819.7Z" fill="#231f20"/>
      <path id="Tracé_374" data-name="Tracé 374" d="M371.477,817.808l.04.079a1.2,1.2,0,0,0,2.135-.165l.041-.085a1.522,1.522,0,0,0,.069-1.033l0-.013c.02-.052.039-.1.062-.154a1.324,1.324,0,0,0-.531-1.681,1.139,1.139,0,0,0-1.553.574,5.255,5.255,0,0,0-.24.7c-.018.069-.035.138-.048.208l0,.009A1.717,1.717,0,0,0,371.477,817.808Z" fill="#231f20"/>
      <path id="Tracé_375" data-name="Tracé 375" d="M372.655,822.671a2.5,2.5,0,0,0,.559.866,3.67,3.67,0,0,0,.928.657,1.356,1.356,0,0,0,1.7-.374,1.7,1.7,0,0,0,.1-1.869,3.5,3.5,0,0,0-.688-.966,3.23,3.23,0,0,0-1.207-.607c-.988-.333-1.837.925-1.525,1.88C372.565,822.4,372.6,822.536,372.655,822.671Z" fill="#231f20"/>
      <path id="Tracé_376" data-name="Tracé 376" d="M374.837,810.908a1.534,1.534,0,0,0,.945.678,1.551,1.551,0,0,0,1.774-1.273l.26-.979a3.387,3.387,0,0,0-.062-1.594,1.4,1.4,0,0,0-2.453-.515,3.208,3.208,0,0,0-.6,1.426l-.1,1.016A1.884,1.884,0,0,0,374.837,810.908Z" fill="#231f20"/>
      <path id="Tracé_377" data-name="Tracé 377" d="M371.018,800.706a1.556,1.556,0,0,0,.728.9,1.407,1.407,0,0,0,1.928-.713,2.457,2.457,0,0,0,.214-.668c.046-.1.028-.1-.052-.009l.081-.117c.088-.194.248-.349.333-.55a2.806,2.806,0,0,0,.094-2.161,1.255,1.255,0,0,0-1.915-.691,2.137,2.137,0,0,0-.935,1.127,3.872,3.872,0,0,0-.224.709,3.192,3.192,0,0,0-.036.531l-.147.456A1.835,1.835,0,0,0,371.018,800.706Z" fill="#231f20"/>
      <path id="Tracé_378" data-name="Tracé 378" d="M378.969,802.1a1.659,1.659,0,0,0,1.325-.292,5.667,5.667,0,0,0,.545-.532,2.135,2.135,0,0,0,.359-2,1.962,1.962,0,0,0-1.415-1.344,1.824,1.824,0,0,0-1.807.667,2.235,2.235,0,0,0-.358,2A1.9,1.9,0,0,0,378.969,802.1Z" fill="#231f20"/>
      <path id="Tracé_379" data-name="Tracé 379" d="M383.361,797.5a1.574,1.574,0,0,0,1.976.889,3.605,3.605,0,0,0,1.488-.925,2.557,2.557,0,0,0,.485-.833c.06-.191.106-.375.148-.571a1.356,1.356,0,0,0-.958-1.563,2.18,2.18,0,0,0-1.127-.073,2.346,2.346,0,0,0-1.081.481c-.138.111-.269.234-.4.35A1.876,1.876,0,0,0,383.361,797.5Z" fill="#231f20"/>
      <path id="Tracé_380" data-name="Tracé 380" d="M389.3,793.472a1.2,1.2,0,0,0,1.611.018,1.7,1.7,0,0,0,1.06-1.283,2.025,2.025,0,0,0-.549-1.873,1.14,1.14,0,0,0-1.4-.121l.107-.061a1.209,1.209,0,0,0-.15.081.234.234,0,0,0-.023.01l-.019.012a1.417,1.417,0,0,0-.424.347,3.265,3.265,0,0,0-.364.566,1.813,1.813,0,0,0-.148.613A1.5,1.5,0,0,0,389.3,793.472Z" fill="#231f20"/>
      <path id="Tracé_381" data-name="Tracé 381" d="M388.742,787.706c.964.484,2.262,1,3.268.364a1.273,1.273,0,0,0,.516-1.138,2.169,2.169,0,0,0-.617-1.217,2.064,2.064,0,0,0-.829-.539,3.137,3.137,0,0,0-1.233-.315,5.339,5.339,0,0,0-.949.186,1.417,1.417,0,0,0-.888,1.265A1.467,1.467,0,0,0,388.742,787.706Z" fill="#231f20"/>
      <path id="Tracé_382" data-name="Tracé 382" d="M383.606,787.291a4.116,4.116,0,0,0,1.508-.369,4.917,4.917,0,0,1,1.113-.426,1.235,1.235,0,0,0,.154-2.393,3.386,3.386,0,0,0-3.9.728A1.515,1.515,0,0,0,383.606,787.291Z" fill="#231f20"/>
      <path id="Tracé_383" data-name="Tracé 383" d="M381.886,793.3a3.84,3.84,0,0,0,3.43.231,2.054,2.054,0,0,0,1.042-2.78,1.783,1.783,0,0,0-2.681-.767c-.041.029-.416.269-.412.273-.21.12-.425.226-.626.368a8.1,8.1,0,0,0-.88.75A1.188,1.188,0,0,0,381.886,793.3Z" fill="#231f20"/>
      <path id="Tracé_384" data-name="Tracé 384" d="M377.038,792.7a4.74,4.74,0,0,1,.407-.293,4.512,4.512,0,0,0,.344-.337c0,.015.034,0,.134-.083.156-.129.3-.273.463-.392.034-.025.086-.053.135-.082s.075-.031.113-.044a2.163,2.163,0,0,0,1.2-2.658,1.926,1.926,0,0,0-2.456-1.3,4.3,4.3,0,0,0-2.146,1.87,3.257,3.257,0,0,0-.211,2.6A1.3,1.3,0,0,0,377.038,792.7Z" fill="#231f20"/>
      <path id="Tracé_385" data-name="Tracé 385" d="M379.755,797.069c2.33-.862,1.1-4.781-1.237-3.918S377.421,797.931,379.755,797.069Z" fill="#231f20"/>
      <path id="Tracé_386" data-name="Tracé 386" d="M406.961,729.334a2.594,2.594,0,0,0-1.1-.582,2.035,2.035,0,0,0-1.26-.05.81.81,0,0,0-.259,1.311,2.054,2.054,0,0,0,1.147.521,2.545,2.545,0,0,0,1.236-.029A.725.725,0,0,0,406.961,729.334Z" fill="#231f20"/>
      <path id="Tracé_387" data-name="Tracé 387" d="M401.273,729.411a1.07,1.07,0,0,0-1.287.285,1.414,1.414,0,0,0-.307,1.29.484.484,0,0,0,.839.2,10.558,10.558,0,0,1,.9-.868A.607.607,0,0,0,401.273,729.411Z" fill="#231f20"/>
      <path id="Tracé_388" data-name="Tracé 388" d="M401.288,736.036a4.9,4.9,0,0,0-.4-.9,9.979,9.979,0,0,0-.627-.79.715.715,0,0,0-1.005-.014.871.871,0,0,0-.151,1.076,8.654,8.654,0,0,0,.593.821,4.744,4.744,0,0,0,.728.6C400.854,737.154,401.486,736.542,401.288,736.036Z" fill="#231f20"/>
      <path id="Tracé_389" data-name="Tracé 389" d="M446.847,726.375a2.7,2.7,0,0,0-.982,3.188.438.438,0,0,0,.634.146,7.478,7.478,0,0,0,1.523-2.175C448.427,726.757,447.52,725.883,446.847,726.375Z" fill="#231f20"/>
      <path id="Tracé_390" data-name="Tracé 390" d="M455.6,729.3a2.8,2.8,0,0,0-.253-.588,4.663,4.663,0,0,0-.423-.465c-.211-.266-.545-.037-.63.214-.044.131-.167.235-.225.364-.079.174-.144.379-.207.559a1.915,1.915,0,0,0-.142.728,1.994,1.994,0,0,0,.238.77.813.813,0,0,0,1.328.117A1.607,1.607,0,0,0,455.6,729.3Z" fill="#231f20"/>
    </g>
  </g>
</svg>
