<svg xmlns="http://www.w3.org/2000/svg" width="178.58" height="249.45" viewBox="0 0 178.58 249.45">
  <g id="fr-zebre" transform="translate(-1137 -106)">
    <g id="Groupe_246" data-name="Groupe 246" transform="translate(3.014 59.392)">
      <g id="Groupe_245" data-name="Groupe 245">
        <rect id="bg" width="178.58" height="249.45" rx="8.5" transform="translate(1133.986 46.608)" fill="#fff"/>
        <path id="Tracé_157" data-name="Tracé 157" d="M1305.486,104.868V56.7a3.012,3.012,0,0,0-3.01-3.01h-158.4a3,3,0,0,0-3,3.01v229.26a3,3,0,0,0,3,3.009h158.4a3.012,3.012,0,0,0,3.01-3.009V138.008m0-.01V104.9M1163,91.558a.072.072,0,0,1,.02-.04.138.138,0,0,0-.02.06" fill="#fceef4"/>
      </g>
    </g>
    <g id="Groupe_284" data-name="Groupe 284" transform="translate(6 51)">
      <path id="Tracé_197" data-name="Tracé 197" d="M1168.158,166.8l-.9.812-.2.177c-9.109,5.357-5.906,19.263-8.781,27.893-.3.9,1.043,1.244,1.369.387,2.206-5.8,2.208-12.153,3.678-17.981.913-1.5,2-2.85,3-4.269a4.4,4.4,0,0,0,1.7-1.081c.849-1.147.741-4.1,1.178-5.111A.674.674,0,0,0,1168.158,166.8Z" fill="#9f9c9f"/>
      <path id="Tracé_198" data-name="Tracé 198" d="M1264.278,140.556c-.919-3.938-3.958-8.63-7.607-10.492a3.773,3.773,0,0,0-1.768-.917.185.185,0,0,0-.223.228c.5,1.6,1.854,3.026,2.727,4.432a19.769,19.769,0,0,1,1.413,2.673,8.733,8.733,0,0,0,.093,2.735c.1.675.126,1.365.168,2.05a23.474,23.474,0,0,0-1.361-2.222,22.42,22.42,0,0,0-1.87-2.464,12.171,12.171,0,0,0-3.917-4.44.27.27,0,0,0-.362.371,26.5,26.5,0,0,1,3.165,6.291,20.923,20.923,0,0,1,.519,2.383c-.068-.035-.141-.066-.215-.1-.8-.885-1.41-1.957-2.213-2.861a13.013,13.013,0,0,0-3.509-2.777,8.2,8.2,0,0,0-7.3-.741c-.632.192-.535,1.237.16,1.209.036,0,.07,0,.106,0a25.576,25.576,0,0,1,4.8,3.745,17.329,17.329,0,0,1,2.392,3.836,42.576,42.576,0,0,0-3.887-2.321c-1.579-.787-3.455-1.73-5.23-1.436a1.462,1.462,0,0,0-1.153-.15.35.35,0,0,0-.232.419c.087.419.4.633.667.94a3.267,3.267,0,0,1,.608,1.307,3.3,3.3,0,0,0,1.528,2.243,1.064,1.064,0,0,0,.557.088,13.123,13.123,0,0,0,2.239,1.842c1.4.939,4.553,3.113,6.149,1.74a.91.91,0,0,0,1.313-.387c1.507-2.369,4.754-1.266,6.57-2.853a18.413,18.413,0,0,0,3.9-1.406C1264.024,142.861,1264.688,142.313,1264.278,140.556Z" fill="#9f9c9f"/>
      <path id="Tracé_199" data-name="Tracé 199" d="M1243.922,156.5c-3.729,1.053-9.489-.175-11.758-3.476a3.587,3.587,0,0,1,.348-.835,6.324,6.324,0,0,1,1.172-1.273,17.66,17.66,0,0,1,3.059-2.305.417.417,0,0,0,.081-.642c-1.723-1.44-3.909-1.925-6.042-2.416-1.259-.29-3.122-.938-3.995.344-.007.009-.005.021-.011.032a1.306,1.306,0,0,0-.24.032.415.415,0,0,0-.279.505c.282.8,1.137,1.3,1.668,1.936a7.628,7.628,0,0,1,1.006,1.563,12.361,12.361,0,0,0-3.924-1.372c-1.646-.3-3.435-1.164-5.109-.812l-.047-.035c-.495-.384-1.325.262-1.087.858.556,1.4,2.4,2.293,3.409,3.344a6.312,6.312,0,0,1,1.406,2.139c-1.068-.28-2.2-.428-3.209-.649a33.589,33.589,0,0,1-3.36-.727c-.951-.313-1.781-.833-2.707-1.156a4.131,4.131,0,0,0-1.26-.76.33.33,0,0,0-.4.409,13.51,13.51,0,0,0,1.931,3.106c.231.348.444.784.673,1.219-2.687-.979-5.405-1.9-8.089-2.917-2.066-.783-4.836-1.882-6.9-.78a3.371,3.371,0,0,0-.413-.049.7.7,0,0,0-.477,1.181c.632.549,1.375.938,1.994,1.506a5.759,5.759,0,0,1,.477.511,9.567,9.567,0,0,1-1.4.234,14.678,14.678,0,0,1-4.061-.427c-1.7-.359-3.421-1.013-4.791.359a.555.555,0,0,0-.16.309.652.652,0,0,0,.05,1.067l.229.11c1.965,2.059,4.985,2.469,7.68,2.828a22.174,22.174,0,0,0,5.682.228c-1.191,4.731,11.58,2.485,16.474,1.432-.045.049-.089.1-.135.149-.9.97-2.2,1.8-2.878,2.938-.187.314.049.838.443.792a2.834,2.834,0,0,0,.754-.2c4.409-.011,9.159-2.128,13.474-3.97.318,0,.61,0,.84,0,3.5.028,7.232-1.671,10.377-3.121C1245.095,157.4,1244.61,156.3,1243.922,156.5Z" fill="#9f9c9f"/>
      <path id="Tracé_200" data-name="Tracé 200" d="M1286.9,166.125c-1.138-.612-2.922.116-4.034.354a49.256,49.256,0,0,0-6.852,2.016c-1.9.709-3.767,1.52-5.6,2.409a30.154,30.154,0,0,0-7.531,3.4c-1.689,1.065-4.536,2.8-6.1,4.811a6.2,6.2,0,0,0-1.962,2.168l-.007.019c-.179.09-.359.181-.54.269a1.1,1.1,0,0,0-.476,1.2c.275,1.888,1.752,4.188,2.855,5.691a9.4,9.4,0,0,0,1.255,1.373c3.112,4.411,8.958,5.079,14.2,4.161a25.082,25.082,0,0,0,9.437-2.68,10.8,10.8,0,0,0,5.67-6.991,27.7,27.7,0,0,0,2.005-9.576C1289.341,172.5,1289.209,167.366,1286.9,166.125Z" fill="#9f9c9f"/>
      <g id="Groupe_283" data-name="Groupe 283">
        <path id="Tracé_201" data-name="Tracé 201" d="M1272.475,155.37a1.092,1.092,0,0,1,.464-1.228,1.223,1.223,0,0,1,1.574.2,1.084,1.084,0,0,1,.289.8.8.8,0,0,1,.014.12.939.939,0,0,1-.575.839,1.421,1.421,0,0,1-.108.262.342.342,0,0,1-.466.126,1.334,1.334,0,0,1-.4-.371A.788.788,0,0,1,1272.475,155.37Z" fill="#231f20"/>
        <path id="Tracé_202" data-name="Tracé 202" d="M1253.545,164.785c.244.47.727.8,1.247.469a1.1,1.1,0,0,0,.468-.691,1.139,1.139,0,0,0-.125-1.534,1.052,1.052,0,0,0-.692-.224,1.15,1.15,0,0,0-1.138.559,1.026,1.026,0,0,0-.134.437A.983.983,0,0,0,1253.545,164.785Z" fill="#231f20"/>
        <path id="Tracé_203" data-name="Tracé 203" d="M1264.6,162.528a.334.334,0,0,1,.248-.027.47.47,0,0,1,.075.024s0-.011.012-.02l0-.005c-.014-.051-.027-.1-.041-.155a.472.472,0,0,0,.114-.1c-.005-.127-.008-.253-.022-.38a.329.329,0,0,1,.023-.167c-3.171-5.818-10.27-6.956-14.392-11.778a.458.458,0,0,0-.466-.127c-.972.392-1.2.964-.995,1.6.109.939,1.157,1.725,1.819,2.275a16.983,16.983,0,0,0,3.11,1.99c1.726.96,3.529,1.77,5.261,2.718a26.409,26.409,0,0,1,3.3,2,10.017,10.017,0,0,1,1.6,1.843.453.453,0,0,0,.276.2C1264.559,162.45,1264.581,162.49,1264.6,162.528Z" fill="#231f20"/>
        <path id="Tracé_204" data-name="Tracé 204" d="M1286.367,162.487a46.624,46.624,0,0,0-7.354-8.525,98.506,98.506,0,0,1-7.836-8.6,11.316,11.316,0,0,0,3.666-2.144c3.18-2.727,4.746-6.8,6.055-10.714a.511.511,0,0,0-.477-.643,20.469,20.469,0,0,0-11.14,2.361c-2.114,1.14-4.478,2.923-4.842,5.375a17.081,17.081,0,0,0-10.181-11.569c-.34-.136-.589.252-.536.551.366,2.089,1.641,3.628,2.82,5.3a11.558,11.558,0,0,1,2.144,5.5,22.671,22.671,0,0,0-8.736-9.112c-.465-.269-.869.339-.546.725,2.005,2.4,4.072,4.954,4.856,8.017a14.5,14.5,0,0,0-6.083-4.776c-2.13-.878-6.56-1.985-7.088,1.467a.5.5,0,0,0,.322.584,13.1,13.1,0,0,1,6.647,5.749,13.132,13.132,0,0,0-9.837-3.024.471.471,0,0,0-.229.865c1.108.812,1.055,1.679,1.317,2.863a1.8,1.8,0,0,0,.5,1c.989,1.071,2.707,1.814,3.924,2.615.18.118.372.252.569.392a17.553,17.553,0,0,0-6.823,1.343,17.44,17.44,0,0,0-7.334-2.961c-1.536-.233-3.542-.435-4.4,1.2a.359.359,0,0,0,.122.477,6.85,6.85,0,0,1,2.594,2.534,15.377,15.377,0,0,0-4.447-1.761,15.608,15.608,0,0,0-2.756-.353c-.562-.02-2.305-.192-2.774.16-.747.563-.458,1.691.065,2.327a16.376,16.376,0,0,0,2.243,1.66,7.137,7.137,0,0,1,1.776,2.389,90.058,90.058,0,0,1-10.351-3.815c-.261-.115-.672.081-.544.429a17.786,17.786,0,0,0,2.364,4.392c-5.167-1.213-10.443-5.812-15.672-2.54a.384.384,0,0,0,.087.686,6.752,6.752,0,0,1,2.819,1.818,18.3,18.3,0,0,1-4.244-.325,11.528,11.528,0,0,0-3.754-.345c-.886.124-3.575,1-3.022,2.446a1.028,1.028,0,0,0,.145.234,20.162,20.162,0,0,0-4.38-.439.52.52,0,0,0-.37,0,19.249,19.249,0,0,0-9.98,3.052,18.99,18.99,0,0,0-6.346,6.881c-4.935,1.041-7.921,6.09-9.011,10.843-1.47,6.409-.471,13.3-2.7,19.5a4.755,4.755,0,0,0-.529-.029.4.4,0,0,0-.408-.284,7.912,7.912,0,0,0-2.839.681c-.591.252-1.622.49-1.82,1.2a.492.492,0,0,0,.216.545l.071.036a.525.525,0,0,0,.327.055c.017.315.368.624.667.4a9.92,9.92,0,0,1,2.625-1.561,9.528,9.528,0,0,0-2.692,2.59.44.44,0,0,0,.682.54,13.471,13.471,0,0,1,1.114-1.054c-.214.336-.419.679-.607,1.037-.225.429.323.887.665.526.387-.408.762-.827,1.137-1.246-.362.778-.721,1.558-1.067,2.344-.2.447.389.821.652.391.738-1.211,1.891-2.591,2.233-3.983a.125.125,0,0,0-.04-.13c6.866-6.342,1.6-19.1,9.168-24.611-.3,4.91.981,9.828,2.3,14.523a97.039,97.039,0,0,1,3.234,39.125.562.562,0,0,0,.4.542,34.166,34.166,0,0,0,6.42.953c1.007.048,2.343.153,2.649-1.088a.566.566,0,0,0,.006-.248,15.14,15.14,0,0,0,.8-3.47,1.075,1.075,0,0,0,.09-.076c0-.273,0-.547.008-.82a5.352,5.352,0,0,1,.1-.837c-.017-.023-.034-.047-.052-.07.075-1.523.05-3.061.064-4.577.037-4.015.024-8.033.092-12.047a33.4,33.4,0,0,1,.485-5.756c.194-1.006.215-1.926,1.444-1.9a8.057,8.057,0,0,1,2.3.715c1.471.564,1.573,1.467,1.563,2.957q-.009,1.318-.018,2.636-.018,2.637-.037,5.273-.038,5.438-.077,10.875c-.012,1.7-.129,3.438-.01,5.134a4.331,4.331,0,0,0,.682,2.323,3,3,0,0,0,2.609,1.06,27.369,27.369,0,0,0,4.48-.251c2.4-.4,1.655-3.926,1.675-5.713q.029-2.478.055-4.955a.909.909,0,0,0,.007-.574q.029-2.526.056-5.051c.022-1.924.021-3.848.051-5.772a6.206,6.206,0,0,1,1.283-4.253,1.384,1.384,0,0,0,.411-.34.505.505,0,0,0,.126.11c5.12,2.984,11.506,3.86,17.307,3.515a44.769,44.769,0,0,0,9.485-1.642c2.309-.651,5.2-1.333,7.309-2.728a80.241,80.241,0,0,0,.078,20.07q.315,2.417.777,4.808c.172.892.24,3.037.915,3.657.759.7,2.787.721,3.766.8a18.158,18.158,0,0,0,4.243-.189.479.479,0,0,0,.346-.465q-.627-7.4-.736-14.839-.048-3.554.031-7.107.039-1.776.11-3.552c.036-.886-.2-2.762.215-3.571,1.235-2.419,2.092.94,2.179,1.3.149.616.248,1.252.362,1.876q.283,1.564.518,3.14c0,.026.007.053.011.079s-.008.024-.013.036c.039.334.069.669.088,1,.03.054.06.109.093.159.3,2.163.531,4.335.721,6.511.417,4.768.625,9.55.827,14.331.01.231.2.5.455.467a39.243,39.243,0,0,1,7.941-.073.462.462,0,0,0,.446-.348c.823-6.272.5-12.566.154-18.861q-.072-1.28-.137-2.558a.806.806,0,0,0-.026-.569c-.108-2.248-.189-4.5-.18-6.749a42.744,42.744,0,0,1,.753-9.381,14.566,14.566,0,0,0,9.579,3.665,30.686,30.686,0,0,0,12.039-2.643,14.9,14.9,0,0,0,7.8-7.512A24.222,24.222,0,0,0,1286.367,162.487Zm-44.055-18.173c-1.017-.667-1.737-.92-2.126-2.216-.109-.363-.079-.693-.206-1.064a3.532,3.532,0,0,0-.66-1.154,12.348,12.348,0,0,1,9.938,4.726c.293.366.923-.028.775-.463a14.117,14.117,0,0,0-7.946-8.589c.886-2.771,5.912-.534,7.491.4a13.877,13.877,0,0,1,5.058,5.287.451.451,0,0,0,.837-.232,15.161,15.161,0,0,0-3.49-8.245,22.153,22.153,0,0,1,6.795,8.9c.192.455.8.171.831-.231a11.777,11.777,0,0,0-1.481-6.747c-1.081-1.876-2.667-3.394-3.341-5.458a17.193,17.193,0,0,1,9.429,12.5c-1.584,2.357-5.977,3.02-8.5,3.343a7.588,7.588,0,0,0-2.6.564c-.905.469-1.3,1.317-2.025,1.991-1.633,1.523-3.517.133-5.008-.837C1244.825,145.968,1243.57,145.138,1242.312,144.314Zm20.747,10.308a22.515,22.515,0,0,0-3.2-3.106,29.962,29.962,0,0,0-4.772-2.875l-.931-.7a8.73,8.73,0,0,0-1.065-.8.513.513,0,0,0-.155-.13,2.867,2.867,0,0,1,1.221-.736c1.44-.413,3.021-.394,4.486-.751a20.719,20.719,0,0,0,3.731-1.181,10.174,10.174,0,0,0-.424,2.191A18.489,18.489,0,0,0,1263.059,154.622Zm-17.916-6.883a.468.468,0,0,0,.332-.156c1.684,1.166,3.688,2.306,5.442,1.375.043-.023.078-.053.119-.078.77.793,2.032.913,3.043,1.238q.843.271,1.673.588a20.247,20.247,0,0,1,2.458,1.419c.418.307.844.614,1.266.928a21.746,21.746,0,0,1,3.209,3.137.357.357,0,0,0,.23.128,11.772,11.772,0,0,0,1.518,1.714c.527,1.161,1.09,2.3,1.646,3.419a.444.444,0,0,0,.824-.229c.123-5.089-2.631-10.69.052-15.465a.256.256,0,0,0-.04-.321.361.361,0,0,0-.013-.168,4.386,4.386,0,0,0-1.675-2.419c-.072-.2-.132-.4-.186-.615l.016-.026a1.581,1.581,0,0,1-.068-.887.606.606,0,0,0-.128-.05c.037-3.664,3.421-5.694,6.368-6.926a20.071,20.071,0,0,1,8.505-1.5,25.021,25.021,0,0,1-3.991,8.019,11.962,11.962,0,0,1-3.141,2.731,9.2,9.2,0,0,1-2.156.939c-.347.1-2.125.638-2.435.218a.413.413,0,0,0-.75.324c.2.891,1.179.894,2.045.751-1.007,2.341-.768,4.825-.579,7.321q.376,4.982.76,9.963c.03.389.624.673.81.225,1.7-4.083.318-8.386-.222-12.639-.043-1.586-.029-3.177.069-4.779a.365.365,0,0,0-.077-.247h0l.165-.037c.189-.043.376-.094.563-.149,1.7,3.293,4.534,5.945,7.1,8.521a51.837,51.837,0,0,1,7.568,8.72,22.672,22.672,0,0,1,1.651,3.192c-3.213-.747-6.679.17-9.723,1.233a99.452,99.452,0,0,0-9.322,3.84c-5.475,2.562-10.793,5.841-14.622,10.673a30.34,30.34,0,0,1-.814-3.029c-.876-4.094-1.1-8.291-1.583-12.443-.216-1.846-.473-3.69-.853-5.509-.14-.671-.305-1.337-.482-2a21.633,21.633,0,0,0,3.722,1.881,49.646,49.646,0,0,1,6.092,2.832c1.581.962,2.834,2.331,4.365,3.336a.369.369,0,0,0,.532-.42c-1.652-6.779-11.6-6.555-14.937-11.827a1.1,1.1,0,0,0-.543-.436.432.432,0,0,0-.18-.346c.223-.257.447-.512.68-.757a.262.262,0,0,0-.311-.414,10.5,10.5,0,0,0-2.281,1.958,7.5,7.5,0,0,1-3.672,1.8,12.482,12.482,0,0,1-7.873-1.552,7.9,7.9,0,0,1-1.488-.819c-1.536-1.29-.963-2.027.35-2.962a16.462,16.462,0,0,1,3.219-1.72A23.9,23.9,0,0,1,1245.143,147.739Zm-53.458,7.709a3.966,3.966,0,0,1,2.07-.639,12.194,12.194,0,0,1,3.068.372,18.437,18.437,0,0,0,5.287.32.411.411,0,0,0,.278-.688,7.123,7.123,0,0,0-2.961-2.324c4.984-2.516,10.48,2.519,15.408,3.219a.388.388,0,0,0,.365-.643,16.744,16.744,0,0,1-2.475-4.082,94.629,94.629,0,0,0,10.429,3.794.393.393,0,0,0,.474-.486,8.458,8.458,0,0,0-1.754-2.949,7.807,7.807,0,0,0-1.2-1.037,4.571,4.571,0,0,1-.779-.5.488.488,0,0,1-.323-.491,1,1,0,0,1-.524-.762c.01-.516.611-.609,1-.63.028,0,.055.006.082.006a8.085,8.085,0,0,1,2.206.125,14.351,14.351,0,0,1,2.536.51,15.268,15.268,0,0,1,4.268,2.062.361.361,0,0,0,.522-.412,7.6,7.6,0,0,0-3.135-3.808c1.146-1.444,4.194-.55,5.6-.164a19.619,19.619,0,0,1,4.819,2.085c-.647.279-1.278.581-1.877.909-1.707.938-4.893,3.013-2.463,5.064a14.5,14.5,0,0,0,9.5,3.114,10.073,10.073,0,0,0,2.035-.359c-.242.2-.492.382-.741.568a2.432,2.432,0,0,0-1.532,1.01,10.968,10.968,0,0,1-2.036.931c-2.289.753-4.73.8-7.058,1.387a36.107,36.107,0,0,0-4.17,1.4,1.145,1.145,0,0,0-.472.115c-.112.055-.206.126-.31.188a24.547,24.547,0,0,1-7.254,1.963,3.4,3.4,0,0,1-1.282.14.362.362,0,0,1-.25-.141c-.09,0-.179,0-.27-.012l.191-.195c-.026-.2.08-.409.329-.379h.04l2.221-2.272a.461.461,0,0,0-.312-.772c-2.745-.293-5.3.511-7.966,1.049a14.594,14.594,0,0,1-3.891.346,11.189,11.189,0,0,1-2.859-.817c-.014-.027-.036-.05-.051-.076a1.708,1.708,0,0,1-.92-.7,1.36,1.36,0,0,0-.2-.049.7.7,0,0,1,.087-.954.422.422,0,0,0-.4-.7,12.84,12.84,0,0,1-5.351.216c-.013-.034-.032-.065-.048-.1a8.782,8.782,0,0,1-3.657-1c-.078.021-.157.039-.233.064-1.257-.449-2.493-.979-3.7-1.524C1191.351,156.424,1190.944,156.165,1191.685,155.448Zm-24.409,17.388c-7.987,5.022-3.721,16.587-8.531,23.456,1.553-4.914,1.324-10.176,1.844-15.318.589-5.83,2.823-11.916,8.428-14.143a17.7,17.7,0,0,0-1.473,4.284C1167.427,171.688,1167.343,172.262,1167.276,172.836Zm14.788,48.9a9.931,9.931,0,0,0-2.817-.853c-1.144-.208-2.8-.553-3.577.555a.432.432,0,0,0,0,.438c.625.957,1.976.944,2.976,1.243,1.069.32,2.115,1.071,3.209,1.31-.035.261-.078.521-.124.78a1.489,1.489,0,0,0-.947-.094c-.184.009-.361.008-.54.011a14.927,14.927,0,0,0-3.6-.383,6.12,6.12,0,0,0-2.5-.266q.281-2.924.381-5.857a1.326,1.326,0,0,0,.306.26c2.371,1.4,4.892.321,7.263-.495C1182.095,219.5,1182.1,220.619,1182.064,221.735Zm.049-5.34a11.9,11.9,0,0,0-3.643.39,4.094,4.094,0,0,1-2.069-.182,1.93,1.93,0,0,0-1.49-.147,1.138,1.138,0,0,0-.338.194c.02-1.679,0-3.359-.072-5.039a4.11,4.11,0,0,0,2.59,1.188c1.77.208,3.394-.663,5.078-1.087Q1182.137,214.053,1182.113,216.4Zm15.195,8.746a11.853,11.853,0,0,1-3.831-.069c-1.205-.081-2.41-.132-3.616-.193,0-.4.019-.8.022-1.166l.007-1.068c.735,1.243,2.681,1.3,3.972,1.269a6.319,6.319,0,0,0,3.513-.956q-.01.653-.02,1.3c0,.25.019.553.04.87A.428.428,0,0,0,1197.308,225.141Zm.162-8.2c-.951-.21-2.046.04-3.023-.083-.943-.119-2.132-.767-3.05-.375a.655.655,0,0,0-.429.775c.3,1.274,2.064,1.739,3.168,1.957a6.049,6.049,0,0,0,3.3-.1q-.018,1.128-.036,2.255v.077c-1.178-.031-2.343.376-3.536.351-1.159-.024-2.44-.762-3.546-.376a.862.862,0,0,0-.421.317l.021-3.3q.015-2.469.031-4.94c2.04,1.286,5.552.438,7.586-.522Q1197.5,214.961,1197.47,216.944Zm.123-7.751c-.012.616-.019,1.232-.029,1.848a.947.947,0,0,0-.583-.05,16.089,16.089,0,0,1-3.753.507c-1.1,0-2.206-.4-3.268-.1q.012-1.749.022-3.5c.016.021.029.044.047.065.914,1.058,2.377,1.043,3.652.974,1.21-.066,2.9-.127,3.911-.96C1197.595,208.4,1197.6,208.81,1197.593,209.193Zm.013-2.507a7.951,7.951,0,0,0-3.134-.272,9.041,9.041,0,0,1-3.267-.526.973.973,0,0,0-1.212.367c.012-1.65.027-3.3.032-4.951,0-.046,0-.092,0-.137a5.5,5.5,0,0,0,3.107,2.134c1.872.518,3.8-.148,5.673-.368A5.473,5.473,0,0,0,1197.606,206.686Zm37.222,3.706a5.652,5.652,0,0,0,3.358.668,27.394,27.394,0,0,1,2.778-.051,12.713,12.713,0,0,0,1.994.221c0,.331-.016.663-.018.994,0,.56.007,1.12.008,1.681-1.1-.557-2.734-.225-3.857-.174a6.591,6.591,0,0,1-2.486-.257c-.7-.242-1.062-.5-1.763-.344C1234.824,212.217,1234.816,211.3,1234.828,210.392Zm.361,8.644c-.016-.166-.038-.331-.053-.5-.08-.854-.138-1.71-.187-2.567,1.931,1.329,6.1.765,8.007-.475.016,1.525.055,3.049.106,4.573a6.529,6.529,0,0,0-2.988-.454c-1.452-.071-2.849.109-4.157-.527A.919.919,0,0,0,1235.189,219.036Zm7.8,6.654a24.194,24.194,0,0,1-6.841-.085c-.241-1.28-.46-2.565-.638-3.857a7.094,7.094,0,0,0,3.132.157c1.245-.077,3.322.124,4.46-.667q.09,2.328.234,4.654A.4.4,0,0,0,1242.992,225.69Zm.213-22.507c-.12,2.3-.187,4.606-.227,6.911a4.4,4.4,0,0,0-2.926-.894c-.924-.045-1.861.032-2.781-.084-.85-.108-1.561-.524-2.4-.651.027-.729.053-1.458.1-2.187a6.469,6.469,0,0,0,2.051,1.325c1.992.587,4.259-.824,5.7-2.125.582-.525.144-1.764-.671-1.66a27.024,27.024,0,0,0-3.337.92c-1.182.3-1.934-.566-3-.936a1.006,1.006,0,0,0-.54-.028c.049-.506.1-1.012.156-1.517a1.119,1.119,0,0,0,1.626-.382c.637-1,1.159-2.083,1.714-3.134.327-.62.725-2.056,1.282-2.449,1.625-1.146,3.487,2.408,4.071,3.416a.345.345,0,0,0,.088.1C1243.18,200.436,1243.259,202.138,1243.2,203.183Zm4.85,3.835c-.194-1.266-.407-2.529-.65-3.787-.026-.133-.054-.277-.082-.426a6.727,6.727,0,0,0,3.974.818,7.749,7.749,0,0,0,2.6-.677,17.506,17.506,0,0,0,3.019-1.312c-.008,1.764.033,3.528.094,5.291a7.35,7.35,0,0,0-3.231-.143c-1.053.082-2.1.291-3.156.275A7.273,7.273,0,0,0,1248.055,207.018Zm.6,4.512q-.1-.909-.222-1.816c2.307,1.122,6.426-1.336,8.573-.951.026,0,.049,0,.074,0,.016.376.03.752.047,1.127q.067,1.56.135,3.119c-2.132-1.5-6.026-1.226-8.247-.889a1.262,1.262,0,0,0-.288.079C1248.7,211.978,1248.682,211.754,1248.656,211.53Zm.3,2.92a1.269,1.269,0,0,0,.713.1,27.45,27.45,0,0,1,4.511-.256,17.486,17.486,0,0,0,3.141.128q.049,1.313.082,2.624a9.47,9.47,0,0,0-2.932-.456,10.828,10.828,0,0,0-4.782.545,1,1,0,0,0-.475.4C1249.135,216.511,1249.053,215.48,1248.956,214.45Zm8.336,11.167a1.017,1.017,0,0,0-.083-.063c-1.1-.578-2.7-.452-3.917-.459a9.849,9.849,0,0,0-3.6.349c-.045-.86-.085-1.719-.133-2.579a1.157,1.157,0,0,0,.422.111c1.51.113,3.016.282,4.525.414a8.006,8.006,0,0,0,2.895.061C1257.374,224.173,1257.337,224.9,1257.292,225.617Zm.132-3.456a8.861,8.861,0,0,0-2.685-.565c-1.495-.236-3-.435-4.488-.689a1.067,1.067,0,0,0-.8.153c-.045-.71-.081-1.42-.131-2.13a.808.808,0,0,0,.634.177c1.406-.14,2.8-.457,4.2-.66,1.079-.156,2.23.044,3.281-.2C1257.454,219.554,1257.448,220.858,1257.424,222.161Zm-.5-21.822c0,.133,0,.267,0,.4-1.032-.98-2.673-.248-3.9.081a6.416,6.416,0,0,1-3.427.127,11.012,11.012,0,0,0-2.463-.725.85.85,0,0,0-.609.224,1.758,1.758,0,0,0-1.636-.881,1.831,1.831,0,0,0-.257.035.369.369,0,0,0,.015-.065A6.017,6.017,0,0,0,1240.62,194c-1.308-.335-2.2.468-2.879,1.531a45.276,45.276,0,0,0-2.719,4.886.478.478,0,0,0-.473.458c0,.028-.006.055-.009.083-2.471.426-4.935,1.709-7.346,2.375a45.51,45.51,0,0,1-9.244,1.61,35.106,35.106,0,0,1-17.093-3.343.507.507,0,0,0-.26-.04.456.456,0,0,0-.279-.16c-.035,0-.071,0-.107,0a3.852,3.852,0,0,0-1.461.034c-.287.039-.582.075-.88.115a13.938,13.938,0,0,0-2.289-.1c-1.92-.071-2.772-1.208-4.089-2.413a1.266,1.266,0,0,0-1.8.167,1.65,1.65,0,0,0-.266-.328,8.775,8.775,0,0,0-3.668-1.445c-.83-.206-1.7-.454-2.276.366-.671.961-.756,2.664-.906,3.8a43.47,43.47,0,0,0-.308,4.506,1.192,1.192,0,0,0-.237-.292c-1.137-1.026-2.956-1.264-4.409-1.6-1.092-.252-2.42-.4-3.2.594a.85.85,0,0,0-.207.8l.046.123c.283.747,1.743.584,2.358.778,1.425.45,3.049,1.578,4.562,1.416a1.447,1.447,0,0,0,1.068-.734c-.021,1.006-.034,2.012-.049,3.018a7.889,7.889,0,0,0-3.521.089,3.517,3.517,0,0,1-2.375-.341,2.931,2.931,0,0,0-1.447-.557.8.8,0,0,0-.461.133c-.036-.555-.071-1.111-.118-1.666q-.345-4.083-1.056-8.114a8.614,8.614,0,0,0,3.345,1.337,23.2,23.2,0,0,1,5.069,1.55.576.576,0,0,0,.771-.791c-1.464-3.187-6.206-2.2-8.386-4.554a1.026,1.026,0,0,0-1.314-.219q-.549-2.668-1.245-5.3a4.245,4.245,0,0,0,1.281.6c1.827.563,3.7,1.7,5.581,2.219,1.393.517,2.824.92,4.216,1.468.538.212.838-.544.519-.915a10.852,10.852,0,0,0-3.92-2.5,9.542,9.542,0,0,0-1.836-.958c-2.1-1.267-3.919-2.918-5.987-4.228a.986.986,0,0,0-1.04.042c-.389-1.385-.769-2.777-1.1-4.18a19.293,19.293,0,0,0,3.942,3.191.791.791,0,0,0,1.044-.049,28.037,28.037,0,0,0,2.449,1.962,38.16,38.16,0,0,0,6.8,4.2c1.095.556,2.051-1.078.966-1.695-1.228-.744-2.465-1.48-3.664-2.266a30.014,30.014,0,0,1-5.625-4.811c-1.129-1.374-2.094-2.976-3.149-4.482-.181-.334-.348-.688-.519-1.037a12.582,12.582,0,0,0-2.952-5.257.238.238,0,0,0-.171-.06,17.914,17.914,0,0,1,1.047-4.323,1.02,1.02,0,0,0,.378.226c2.1.69,3.982,3.785,5.136,5.581a28.963,28.963,0,0,1,3.011,6.285,1.023,1.023,0,0,0,1.969-.557,42.77,42.77,0,0,0-4.065-10.237c-1.07-1.758-2.834-4.445-5.079-4.081a17.688,17.688,0,0,1,3.164-3.911,1.06,1.06,0,0,0,.879.988c4.351.92,5.261,5.725,5.955,9.561a66.862,66.862,0,0,1,.932,7.5,57,57,0,0,0,.1,6.257.966.966,0,0,0,1.932,0q-.012-1.243-.04-2.5c.022-5.09.552-10.276-.664-15.235-.829-3.384-2.7-7.564-6.146-8.772a17.787,17.787,0,0,1,3.871-1.728,1.135,1.135,0,0,0,.5.989c3.728,2.394,5.8,5.261,6.076,9.833a35.536,35.536,0,0,1-1.391,11.488.747.747,0,0,0,1.437.407,40.268,40.268,0,0,0,2.2-15.877c-.2-2.5-.3-5.913-2.164-7.73a26.339,26.339,0,0,1,4.941.594c.287.1.549.184.738.266q.872.377,1.755.723c-2.3,1.629-3.227,5.849-3.358,8.677a60.85,60.85,0,0,0,.823,9.6c-.127,4.921-.049,9.9-1.55,13.743-.783,1.455,1.645,2.83,2.356,1.281,4.6-10.009-1.3-23.006,7.416-31.105a.709.709,0,0,0,.236-.7,13.7,13.7,0,0,0,3.683-.174,1.27,1.27,0,0,0,.136.781c-5.852,1.727-7.09,8.192-7.079,13.745a88.433,88.433,0,0,0,1.689,14.341,48.887,48.887,0,0,0,1.193,9.308l.03,0a.956.956,0,0,0,1.849,0c1.258-5.7.368-11.711-.214-17.458a31.477,31.477,0,0,1-.067-8.977c.511-2.72,2.385-7.636,5.636-7.859a1.018,1.018,0,0,0,.889-.835c.143.032.277.057.387.072a11.247,11.247,0,0,0,2.152.055,1.268,1.268,0,0,0-.616.77,40.852,40.852,0,0,0-1.579,9.378,46.7,46.7,0,0,0-.8,6.564c-.369,5.816-.237,12.087,2.407,17.392.29.583,1.012.131.938-.406-.844-6.129-2.1-12.133-.709-18.3a51.394,51.394,0,0,1,2.322-7.455c.9-2.293,2.078-4.419,2.337-6.91a1.335,1.335,0,0,0-1.313-1.347l-.925.047c2.387-.431,4.747-1.18,7.178-1.151q-1.362,1.389-2.726,2.776a.466.466,0,0,0,.2.766c.171.032.339.047.508.071-2.7,2.619-2.554,6.331-2.506,10.126a40.968,40.968,0,0,1-1.091,11.688c-.617,1.532-1.3,3.039-1.95,4.567-.507,1.19,1.114,2.244,1.741,1.044a28.694,28.694,0,0,0,4.735-12.669c.612-5.051-.231-11.5,4.316-14.768a.478.478,0,0,0,.2-.386c.857-.219,1.707-.486,2.553-.784-1.72,2.775-1.214,7.33-1.223,10.21-.015,4.72-.073,9.466-1.507,13.82a34.978,34.978,0,0,1-2.675,5.307,1.165,1.165,0,0,0,2,1.2,30.518,30.518,0,0,0,5.578-14.557c.731-6.625-.431-12.657,4-18.146.222-.063.444-.126.668-.181,1.108-.275,2.241-.437,3.37-.609-5.789,7.9-4.048,18.446-6.618,27.643q-.686,1.934-1.4,3.876l.023.006a1.131,1.131,0,0,0,2.055.893,42.485,42.485,0,0,0,5.382-15.954c.806-5.372.232-11.09,3.548-15.667a.815.815,0,0,0-.6-1.2l-.014-.023a13.739,13.739,0,0,0,2.035-.611,8.861,8.861,0,0,0-.6,1.45c-.559,1.969-1.322,4.572-1.093,6.8a21.954,21.954,0,0,0-.108,7.323c.719,3.886,3.254,6.844,5.454,9.955,2.46,3.477,4.718,7.269,7.532,10.454.617.7,1.654-.2,1.233-.977-3.238-5.971-8.978-10.974-11.21-17.482-1.22-3.556-.469-7.733.574-11.265.805-2.727,2.527-5.251,2.981-8.037a.6.6,0,0,0-.033-.309.774.774,0,0,0-.16-.849c.719-.62,1.412-1.273,2.1-1.922a4.424,4.424,0,0,0,.133.6c-.935,2.009-.608,4.3-1.545,6.4a25.218,25.218,0,0,0-2.04,5.062,15.718,15.718,0,0,0,.923,9.934l.01.05c1.1,5.318,4.478,11.476,9.074,14.4.806.513,1.534-.615.964-1.282-2.275-2.662-4.743-4.75-6.449-7.928a20.77,20.77,0,0,1-1.66-4.016.72.72,0,0,0,.015-.31,36.777,36.777,0,0,1-.628-6.134c.02-.2.027-.406.055-.611.459-3.4,2.418-6.316,2.859-9.634.033-.251.054-.5.066-.748.414,2.045.677,4.122.9,6.2.535,5.031.821,10.173,2.405,15.005.037.114.082.223.121.336a.446.446,0,0,0,.2.552,20.494,20.494,0,0,0,5.094,7.91A34.025,34.025,0,0,0,1256.926,200.339Zm29.821-15.267a14.677,14.677,0,0,1-8.841,7.252,28.094,28.094,0,0,1-11.015,1.841c-6.623-.5-10.8-5.422-13.01-11.271,3.8-4.929,9-8.219,14.5-10.844,6.053-2.89,12.226-5.79,19.013-5.483A22.87,22.87,0,0,1,1286.747,185.072Z" fill="#231f20"/>
        <path id="Tracé_205" data-name="Tracé 205" d="M1230.736,195.45a25.858,25.858,0,0,0,6.717-12.832c.166-.891,1.286-.835,1.71-.23,3.006,4.283,6.164,9.013,7.863,14.033.147.435-.481.827-.774.462-2.71-3.373-4.736-7.326-7.057-11.028a33.755,33.755,0,0,1-2.565,6.355c-1.045,1.966-2.214,4.388-4.2,5.495A1.43,1.43,0,0,1,1230.736,195.45Z" fill="#231f20"/>
        <path id="Tracé_206" data-name="Tracé 206" d="M1280.36,179.773a.366.366,0,0,0,.611.166c.424-.47,1.656-1.42.941-2.125a3.422,3.422,0,0,1,.343-.195,6.727,6.727,0,0,1,2.53-.488.2.2,0,0,0,.051-.39C1283.232,176.225,1279.428,177.386,1280.36,179.773Z" fill="#231f20"/>
        <path id="Tracé_207" data-name="Tracé 207" d="M1262.825,185.249a4.791,4.791,0,0,1,2.61-1.49c.653-.147,1.793-.354,2.294.266.883,1.092-1.192,2.237-1.539.665a.331.331,0,0,1,.143-.36,1.8,1.8,0,0,1,.218-.1c-.77-.344-3.093.966-3.555,1.247C1262.853,185.563,1262.723,185.37,1262.825,185.249Z" fill="#231f20"/>
      </g>
    </g>
  </g>
</svg>
