<?xml version="1.0" encoding="utf-8"?>
<!-- Generator: Adobe Illustrator 26.3.1, SVG Export Plug-In . SVG Version: 6.00 Build 0)  -->
<svg version="1.1" xmlns="http://www.w3.org/2000/svg" xmlns:xlink="http://www.w3.org/1999/xlink" x="0px" y="0px"
	 viewBox="0 0 178.6 249.4" style="enable-background:new 0 0 178.6 249.4;" xml:space="preserve">
<style type="text/css">
	.st0{fill:#E00A70;}
	.st1{fill:none;}
	.st2{fill:#FFFFFF;}
	.st3{fill:#FCEEF4;}
	.st4{fill:#F9D9E2;}
	.st5{fill:#F5A8C2;}
	.st6{fill:#B2D8EE;}
</style>
<g id="carte">
	<path class="st0" d="M686.4,31.8c-0.5,1.2-1.4,2.1-2.8,2.7C685,33.7,685.9,32.8,686.4,31.8z"/>
	<path class="st0" d="M686.4,31.8c0.3-0.8,0.4-1.8,0.3-2.7C686.9,30,686.8,30.9,686.4,31.8z"/>
	<path class="st1" d="M556-34.4C556-34.5,556-34.5,556-34.4C556-34.5,556-34.4,556-34.4"/>
	<path id="bg" class="st2" d="M8.5,0h161.6c4.7,0,8.5,3.8,8.5,8.5v232.4c0,4.7-3.8,8.5-8.5,8.5H8.5c-4.7,0-8.5-3.8-8.5-8.5V8.5
		C0,3.8,3.8,0,8.5,0z"/>
	<g id="waves">
		<path class="st3" d="M171.5,10.1v48.2c-0.1,0-0.2,0-0.4,0c-1,0.1-2,0.1-3,0.1c-0.2,0-0.3,0-0.5,0c-0.4,0-0.9,0-1.3-0.1
			c0,0-0.1,0-0.1,0c-4.9-0.6-12-3.2-13.4-8.5c0,0,0,0,0-0.1c-0.1-0.2-0.1-0.3-0.1-0.5c-0.1-0.2-0.1-0.5-0.1-0.8c0-0.2,0-0.4,0-0.6
			c0-0.1,0-0.3,0-0.4c0-0.6,0.1-1.2,0.3-1.9c0.6-2.3,1.8-2.5,2.7-1.7c0.8,0.7,1.4,2.1,1.5,3.5c1.2-0.5,2-1.2,2.4-2.1l0,0
			c0.5-0.9,0.5-2,0.3-3.1l0,0c-0.3-1.1-0.8-2.2-1.6-3.2c-2.4-3-6.3-4.4-9.8-3.9c-9.9,1.4-15.4,10.2-23,16.2c-5,3.9-10.9,6.1-16.9,7
			l-1.2,0.2c-0.3,0-0.6,0.1-1,0.1c-0.2,0-0.5,0-0.7,0.1c-0.5,0-0.9,0.1-1.4,0.1c-0.5,0-1,0-1.5,0h-0.2c-0.3,0-0.6,0-0.9,0
			c-0.2,0-0.3,0-0.5,0c-5.9-0.7-16.3-5-13.3-13.3c0.9-2.6,2.2-2.2,3.1-0.9c0.6,0.8,0.9,2,0.9,3.2c1.2-0.5,2-1.2,2.4-2.1l0,0
			c0.5-0.9,0.5-2,0.3-3.1l0,0c-0.3-1.1-0.8-2.2-1.6-3.2c-2.3-3-6.3-4.5-9.8-3.9c-9.8,1.4-15.4,10.2-23,16.2
			c-5.7,4.5-12.7,6.8-19.6,7.2c-1,0.1-2,0.1-3,0.1c-0.2,0-0.3,0-0.5,0c-0.4,0-0.8,0-1.3-0.1c0,0,0,0-0.1,0c-4.9-0.6-12-3.2-13.4-8.5
			c0,0,0-0.1,0-0.1c-0.1-0.6-0.2-1.2-0.2-1.9c0-0.2,0-0.3,0-0.5v0c0-0.6,0.1-1.1,0.3-1.7c0.6-2.3,1.8-2.5,2.7-1.7
			c0.8,0.7,1.4,2.1,1.5,3.5c1.3-0.5,2.1-1.3,2.5-2.3c0,0,0,0,0-0.1c0.4-1,0.4-2.1,0-3.2c0,0,0,0,0-0.1c-0.4-1.3-1.2-2.6-2.2-3.6
			c-3.2-3.2-7.4-3.7-11.4-2.6c-3.1,0.8-5.8,2.4-8.3,4.3V10.1c0-1.7,1.3-3,3-3h158.4C170.2,7.1,171.5,8.4,171.5,10.1z"/>
		<path class="st4" d="M171.5,58.3v33.1c-0.7,0.1-1.5,0.1-2.2,0.1c-0.4,0-0.8,0-1.2,0c-0.4,0-0.8,0-1.2,0c-5-0.1-19-5.9-13.6-14.2
			c2.3-3.5,3.8,1.2,3.3,3.5c3.9-2.3,3.8-6.4,0.7-9.6c-2.7-2.8-6.7-3.9-10.2-3.1c-9.4,2-14.8,10.7-22.2,16.5
			c-4.9,3.9-10.9,5.9-17,6.7c-0.2,0-0.4,0.1-0.6,0.1c-0.2,0-0.4,0.1-0.7,0.1c-0.5,0.1-1,0.1-1.5,0.1c-0.9,0.1-1.9,0.1-2.8,0.1H102
			c-5.5,0-17.6-4.6-14.3-13.4c1.2-3.2,3.1-1.6,3.8,0.6c0,0.1,0.1,0.2,0.1,0.2c0,0.1,0.1,0.2,0.1,0.3c0,0.1,0.1,0.2,0.1,0.4
			c0,0.2,0.1,0.5,0.1,0.7c4-2.2,2.9-6.8,0-9.5c-3.2-3-7.2-3.3-11.1-2.4c-8.8,2.1-14,10.6-21,16.1c-5.6,4.4-12.7,6.5-19.5,7
			c-0.2,0-0.5,0-0.7,0c-0.2,0-0.4,0-0.6,0c-0.3,0-0.5,0-0.8,0c-0.6,0-1.1,0-1.7,0c-5-0.1-19-5.9-13.6-14.2c2.3-3.5,3.8,1.2,3.3,3.5
			c3.9-2.3,3.8-6.4,0.7-9.6c-2.8-2.9-7-4-10.6-3c-3.5,0.9-6.4,2.6-9.1,4.7V39.4c2.4-1.8,4.9-3.3,7.9-4c4.1-1.1,8.9-0.8,12.2,2.6
			c0.9,0.9,1.5,2.2,1.9,3.6c0,0,0,0,0,0.1c0.3,1.1,0.3,2.3,0,3.2c0,0,0,0,0,0.1c-0.4,1.1-1.2,2-2.5,2.3c0.2-1.6-0.5-3-1.5-3.5
			c-0.9-0.5-2-0.2-2.6,1.7c-0.2,0.6-0.3,1.2-0.4,1.7v0c0,0.2,0,0.3,0,0.5c0,0.7,0,1.3,0.2,1.9c0,0,0,0.1,0,0.1
			c1.5,5,8.9,7.9,13.4,8.5c0,0,0,0,0.1,0c0.5,0.1,0.9,0.1,1.3,0.1c0,0,0.1,0,0.1,0h0.4c1,0,2,0,3-0.1c6.8-0.5,13.7-2.9,19.2-7.2
			c7.6-6,13.1-14.8,23-16.2c3.6-0.5,8.1,0.6,10.5,3.9c0.7,0.9,1.1,2.1,1.3,3.2l0,0c0.2,1.1,0.1,2.2-0.3,3.1l0,0
			c-0.4,1-1.2,1.8-2.4,2.1c0.1-1.3-0.3-2.5-0.9-3.2c-0.9-1-2.3-0.9-3.1,1.4C85,53.1,95.3,57.6,101,58.3c0.2,0,0.3,0,0.5,0
			c0.3,0,0.6,0,0.9,0h0.2c0.5,0,1,0,1.5,0c0.5,0,0.9,0,1.4-0.1c0.2,0,0.5,0,0.7-0.1c0.3,0,0.7,0,1-0.1l1.2-0.2
			c5.9-0.9,11.8-3.2,16.6-7c7.6-6,13.1-14.8,22.9-16.2c3.6-0.5,8.1,0.6,10.5,3.9c0.7,0.9,1.1,2.1,1.3,3.2l0,0
			c0.2,1.1,0.1,2.2-0.3,3.1l0,0c-0.4,1-1.2,1.8-2.4,2.1c0.1-1.6-0.6-3-1.5-3.5c-0.9-0.5-1.9-0.1-2.6,1.7c-0.2,0.7-0.4,1.3-0.4,1.9
			c0,0.1,0,0.3,0,0.4c0,0.2,0,0.4,0,0.6c0,0.3,0.1,0.5,0.1,0.8c0,0.2,0.1,0.3,0.1,0.5c0,0,0,0,0,0.1c1.5,5,8.9,7.9,13.4,8.5
			c0,0,0.1,0,0.1,0c0.5,0.1,0.9,0.1,1.3,0.1c0,0,0.1,0,0.1,0h0.4c1,0,2,0,3-0.1C171.3,58.3,171.4,58.3,171.5,58.3L171.5,58.3z"/>
		<path class="st5" d="M171.5,91.4v33.1c-0.4,0-0.7,0.1-1.1,0.1c-0.4,0-0.9,0.1-1.4,0.1c-0.6,0-1.1,0-1.7,0H167
			c-5-0.1-18.9-6-13.6-14.2c2.3-3.5,3.8,1.2,3.3,3.5c1.4-0.8,2.3-1.7,2.8-2.7c0.4-0.9,0.5-1.8,0.3-2.7c-0.9-4.2-7.7-8.1-11.8-7.4
			c-10,1.6-15.5,10.7-23.3,16.7c-4.6,3.5-10.2,5.6-15.8,6.4c-0.4,0.1-0.7,0.1-1.1,0.2c-0.3,0-0.6,0.1-0.9,0.1
			c-0.8,0.1-1.6,0.2-2.4,0.2c-0.6,0-1.1,0-1.6,0h-0.4c-5.6-0.1-18-4.3-14.8-13.4c1.3-3.6,3.3-1.6,3.9,0.8c0,0.1,0.1,0.2,0.1,0.3
			c0,0.1,0,0.2,0.1,0.3c0,0.1,0,0.2,0,0.2c0,0.2,0,0.3,0,0.5c4-2.2,2.9-6.8,0-9.5c-3.2-3-7.2-3.3-11.1-2.4
			c-8.9,2.1-14.2,10.9-21.4,16.3c-4.8,3.7-10.6,5.7-16.5,6.4c-0.4,0.1-0.8,0.1-1.2,0.1c-0.6,0.1-1.2,0.1-1.9,0.2
			c-0.5,0-0.9,0.1-1.3,0.1c-0.6,0-1.1,0-1.7,0h-0.4c-5-0.1-18.9-6-13.6-14.2c2.3-3.5,3.8,1.2,3.3,3.5c4.3-2.6,3.5-7.3,0-10.3
			c-3.1-2.7-7-3-10.7-2.1c-3.1,0.8-5.8,2.4-8.3,4.3V72.6c2.6-2,5.4-3.6,8.7-4.4c3.8-1,8.5-0.1,11.4,3c2.8,3,3,8.1-1.1,9.6
			c0.4-2.4-1.1-6.6-3.3-3.1c-5,8.1,9.1,13.7,14,13.8c0.4,0,0.9,0,1.3,0c0.3,0,0.5,0,0.8,0c0.2,0,0.4,0,0.6,0c0.2,0,0.5,0,0.7,0
			c6.7-0.4,13.7-2.7,19.1-7c7.6-6,13.1-14.9,23-16.5c3.7-0.6,7.8,0.3,10.5,3.5c2.3,2.7,2.7,7.6-1,8.8c0-0.2,0-0.5-0.1-0.7
			c0-0.1,0-0.2-0.1-0.4c0-0.1-0.1-0.2-0.1-0.3c0-0.1-0.1-0.2-0.1-0.2c-0.8-2.3-3.1-3.2-3.9,0.3c-2,8.3,9.4,12.4,14.8,12.5h0.1
			c0.9,0,1.9,0,2.8-0.1c0.5,0,1-0.1,1.5-0.1c0.2,0,0.4,0,0.7-0.1c0.2,0,0.4-0.1,0.6-0.1c5.9-0.8,11.8-2.9,16.6-6.7
			c7.4-5.8,13-14.9,22.6-16.5c3.6-0.6,7.8,0.3,10.6,3.2c2.8,3,3,8.1-1.1,9.6c0.4-2.4-1.1-6.6-3.3-3.1c-4.9,8.1,9.2,13.7,14,13.8
			c0.3,0,0.5,0,0.8,0c0.4,0,0.8,0,1.2,0c0.3,0,0.6,0,0.9-0.1C170.6,91.4,171.1,91.4,171.5,91.4L171.5,91.4z"/>
		<path class="st6" d="M171.5,124.5v114.9c0,1.7-1.4,3-3,3H10.1c-1.7,0-3-1.4-3-3V105.6c2.4-1.8,4.9-3.2,7.9-4
			c4-1.1,8.6-0.8,11.8,2.4c3,2.9,3.6,8.3-0.7,10c0.4-2.4-1.1-6.6-3.3-3.1c-4.9,8.1,9.1,13.8,13.9,13.8c0.6,0,1.1,0,1.7,0
			c0.5,0,0.9,0,1.3-0.1c0.6,0,1.2-0.1,1.9-0.2c0.4,0,0.8-0.1,1.2-0.1c5.7-0.8,11.4-2.9,16.1-6.4c7.8-6,13.4-15.1,23.4-16.7
			c3.7-0.6,7.8,0.3,10.5,3.5c2.3,2.7,2.7,7.6-1,8.8c0-0.2,0-0.3,0-0.5c0-0.1,0-0.2,0-0.2c0-0.1,0-0.2-0.1-0.3c0-0.1-0.1-0.2-0.1-0.3
			c-0.7-2.6-3.1-3.7-4,0c-2.1,8.6,9.9,12.4,15.3,12.5c0.5,0,1.1,0,1.6,0c0.8,0,1.6-0.1,2.4-0.2c0.3,0,0.6-0.1,0.9-0.1
			c0.4-0.1,0.7-0.1,1.1-0.2c5.6-0.9,11.3-3.1,15.8-6.7c7.7-6.1,13.4-15.1,23.4-16.5c3.6-0.5,7.6,0.6,10.1,3.6c1,1.2,1.6,2.5,1.7,3.9
			c0.1,0.9,0,1.9-0.3,2.7c-0.5,1.2-1.4,2.1-2.8,2.7c0.4-2.4-1.1-6.6-3.3-3.1c-4.9,8.1,9.1,13.8,14,13.8c0.6,0,1.1,0,1.7,0
			c0.4,0,0.9,0,1.4-0.1C170.8,124.5,171.1,124.5,171.5,124.5L171.5,124.5z"/>
	</g>
	<path id="inner-border" class="st1" d="M171.5,10.1v229.3c0,1.7-1.4,3-3,3H10.1c-1.7,0-3-1.4-3-3V10.1c0-1.7,1.3-3,3-3h158.4
		C170.2,7.1,171.5,8.4,171.5,10.1z"/>
</g>
<g id="carte-vide">
	<g>
		<path id="bg_00000034778414732065354830000007792179176255029136_" class="st2" d="M232.9,0h161.6c4.7,0,8.5,3.8,8.5,8.5v232.4
			c0,4.7-3.8,8.5-8.5,8.5H232.9c-4.7,0-8.5-3.8-8.5-8.5V8.5C224.4,3.8,228.2,0,232.9,0z"/>
		<path class="st3" d="M395.9,58.3V10.1c0-1.7-1.3-3-3-3H234.5c-1.7,0-3,1.3-3,3v229.3c0,1.7,1.3,3,3,3h158.4c1.7,0,3-1.3,3-3v-148
			 M395.9,91.4V58.3 M253.4,44.9C253.4,44.9,253.4,44.9,253.4,44.9C253.4,44.9,253.4,44.9,253.4,44.9"/>
	</g>
</g>
</svg>
