<?xml version="1.0" encoding="UTF-8"?><svg id="carte" xmlns="http://www.w3.org/2000/svg" width="686.83" height="283.94" viewBox="0 0 686.83 283.94"><defs><style>.cls-1{fill:none;}.cls-2{fill:#f9d9e2;}.cls-3{fill:#fff;}.cls-4{fill:#f5a8c2;}.cls-5{fill:#fceef4;}.cls-6{fill:#b2d8ee;}.cls-7{fill:#e00a70;}</style></defs><path class="cls-7" d="M686.4,66.33c-.47,1.16-1.38,2.12-2.76,2.66,1.39-.82,2.28-1.73,2.76-2.66Z"/><path class="cls-7" d="M686.4,66.33c.34-.84,.44-1.78,.33-2.73,.2,.9,.12,1.83-.33,2.73Z"/><path class="cls-1" d="M555.98,.04s.01-.03,.02-.04c-.01,.02-.02,.04-.02,.06"/><rect id="bg" class="cls-3" y="34.49" width="178.58" height="249.45" rx="8.5" ry="8.5"/><g id="waves"><path class="cls-5" d="M171.5,44.58v48.2c-.12,.02-.24,.03-.36,.03-1,.08-2,.12-2.99,.11h-.51c-.42-.02-.86-.05-1.32-.1-.03,0-.05,0-.08,0-4.94-.57-11.97-3.2-13.4-8.55,0-.02,0-.05-.02-.07-.05-.17-.09-.34-.12-.52-.05-.25-.08-.51-.1-.78-.02-.2-.03-.42-.02-.63,0-.14,0-.29,.02-.43,.02-.6,.12-1.22,.28-1.86,.59-2.34,1.76-2.52,2.72-1.7,.8,.69,1.45,2.08,1.47,3.48,1.21-.48,2-1.21,2.44-2.07h0c.47-.94,.52-2.03,.26-3.14h0c-.26-1.11-.84-2.24-1.65-3.25-2.35-2.96-6.3-4.44-9.76-3.94-9.85,1.43-15.39,10.22-22.96,16.22-4.96,3.94-10.91,6.13-16.94,6.96l-1.2,.15c-.32,.04-.64,.07-.97,.09-.24,.03-.47,.05-.71,.06-.47,.03-.95,.06-1.43,.07-.49,.02-.99,.03-1.48,.03h-.22c-.29,0-.6-.02-.93-.05-.16-.02-.33-.03-.5-.05-5.95-.65-16.31-5.01-13.32-13.3,.94-2.61,2.25-2.25,3.12-.93,.56,.83,.93,2.05,.94,3.15,1.22-.48,2-1.21,2.44-2.07h0c.47-.94,.53-2.03,.26-3.14h0c-.26-1.11-.84-2.24-1.64-3.25-2.35-2.96-6.3-4.45-9.76-3.94-9.85,1.43-15.4,10.23-22.96,16.22-5.66,4.5-12.67,6.76-19.57,7.25-1,.08-2,.12-2.99,.11h-.51c-.41-.02-.85-.05-1.31-.1-.02,0-.04,0-.06,0-4.94-.56-11.99-3.19-13.42-8.55-.02-.04-.03-.09-.03-.14-.15-.58-.23-1.21-.23-1.86,0-.16,0-.33,.02-.5v-.05c.04-.56,.13-1.14,.28-1.74,.59-2.35,1.77-2.52,2.73-1.68,.8,.68,1.44,2.07,1.45,3.46,1.34-.52,2.14-1.34,2.55-2.3,0-.02,.01-.04,.02-.06,.39-.98,.36-2.11,.02-3.22,0-.02-.01-.05-.02-.07-.4-1.29-1.19-2.57-2.21-3.6-3.18-3.23-7.44-3.69-11.44-2.64-3.14,.83-5.82,2.41-8.29,4.35v-29.64c0-1.66,1.34-3.01,3-3.01H168.49c1.66,0,3.01,1.35,3.01,3.01Z"/><path class="cls-2" d="M171.5,92.77v33.12c-.74,.06-1.47,.1-2.19,.12-.39,.01-.78,.02-1.16,.02-.4,0-.79-.01-1.19-.02-4.96-.13-18.97-5.95-13.56-14.24,2.28-3.49,3.76,1.16,3.27,3.51,3.87-2.27,3.84-6.42,.72-9.63-2.68-2.76-6.67-3.88-10.22-3.13-9.43,2-14.76,10.66-22.16,16.45-4.93,3.86-10.95,5.92-16.98,6.67-.2,.04-.41,.07-.61,.09-.22,.03-.43,.05-.65,.07-.5,.05-.99,.09-1.49,.13-.95,.07-1.9,.09-2.83,.09h-.4c-5.51-.03-17.59-4.63-14.35-13.39,1.2-3.21,3.08-1.56,3.77,.6,.03,.08,.05,.16,.08,.24,.02,.09,.05,.18,.07,.28,.03,.12,.05,.24,.07,.36,.04,.23,.06,.48,.07,.73,4.04-2.16,2.92-6.78-.03-9.54-3.18-2.98-7.15-3.34-11.05-2.41-8.76,2.08-14.04,10.64-20.97,16.08-5.61,4.39-12.68,6.54-19.53,6.97-.23,.01-.46,.03-.69,.04-.21,.01-.42,.01-.62,.02-.27,.01-.54,.02-.8,.02-.57,.01-1.14,.01-1.71-.01-4.97-.13-18.97-5.95-13.56-14.24,2.28-3.49,3.76,1.16,3.27,3.51,3.87-2.27,3.83-6.42,.72-9.63-2.78-2.86-6.97-3.96-10.62-3.03-3.5,.89-6.41,2.62-9.08,4.74v-33.46c2.36-1.81,4.92-3.27,7.89-4.05,4.13-1.09,8.94-.84,12.2,2.64,.86,.91,1.53,2.24,1.85,3.6,.01,.02,.02,.05,.02,.07,.26,1.12,.28,2.26-.02,3.22,0,.02-.02,.04-.02,.06-.37,1.11-1.18,1.98-2.55,2.3,.16-1.59-.55-2.96-1.45-3.46-.89-.51-1.97-.16-2.61,1.68-.21,.6-.34,1.18-.4,1.74v.05c-.02,.17-.02,.34-.02,.5-.03,.65,.05,1.27,.23,1.86,0,.05,0,.1,.03,.14,1.51,5.02,8.91,7.94,13.42,8.55,.02,0,.04,0,.06,0,.47,.06,.92,.1,1.31,.1h.51c.99,0,1.99-.03,2.99-.11,6.76-.52,13.66-2.87,19.18-7.25,7.56-6,13.1-14.77,22.95-16.22,3.64-.54,8.05,.62,10.48,3.94,.67,.91,1.13,2.07,1.32,3.24h0c.19,1.11,.12,2.22-.26,3.14h0c-.42,1.02-1.2,1.79-2.44,2.08,.13-1.31-.29-2.48-.94-3.15-.93-1-2.33-.92-3.12,1.37-2.65,7.69,7.65,12.11,13.32,12.86,.17,.02,.34,.03,.5,.05,.33,.03,.64,.05,.93,.05h.22c.49,0,.98,0,1.48-.03,.47,0,.95-.03,1.43-.07,.24,0,.47-.03,.71-.06,.33-.02,.65-.05,.97-.09l1.2-.15c5.9-.87,11.76-3.15,16.55-6.96,7.57-6,13.1-14.77,22.95-16.22,3.64-.54,8.05,.62,10.48,3.94,.67,.91,1.14,2.07,1.33,3.24h0c.18,1.11,.11,2.22-.26,3.14h0c-.42,1.02-1.2,1.79-2.44,2.08,.15-1.6-.56-2.98-1.47-3.48-.89-.48-1.95-.12-2.59,1.7-.22,.65-.36,1.26-.41,1.86,0,.14-.02,.29-.02,.43,0,.21,0,.43,.02,.63,.02,.27,.05,.53,.1,.78,.03,.18,.07,.35,.12,.52,0,.02,.02,.05,.02,.07,1.49,5.01,8.88,7.93,13.4,8.55,.03,0,.05,0,.08,0,.48,.06,.92,.1,1.32,.1h.51c.99,0,1.99-.03,2.99-.11,.12,0,.24-.02,.36-.04v.02Z"/><path class="cls-4" d="M171.5,125.88v33.07c-.36,.04-.72,.07-1.08,.09-.45,.03-.91,.05-1.36,.06-.57,.02-1.14,.03-1.7,.02h-.4c-4.98-.06-18.94-6-13.56-14.24,2.28-3.5,3.76,1.15,3.27,3.51,1.39-.82,2.28-1.73,2.76-2.66,.45-.9,.53-1.83,.33-2.73-.91-4.18-7.74-8.05-11.8-7.39-10,1.63-15.53,10.73-23.35,16.7-4.58,3.51-10.16,5.55-15.75,6.37-.36,.05-.71,.1-1.07,.15-.29,.04-.58,.07-.86,.09-.82,.09-1.64,.15-2.45,.17-.55,.03-1.09,.04-1.63,.03h-.4c-5.64-.07-17.96-4.3-14.75-13.41,1.29-3.63,3.27-1.59,3.86,.85,.02,.1,.05,.2,.07,.3,.02,.11,.04,.21,.06,.32,.01,.08,.02,.17,.03,.25,.02,.17,.03,.34,.04,.51,4.04-2.16,2.92-6.77-.03-9.54-3.18-2.98-7.15-3.34-11.05-2.41-8.92,2.13-14.25,10.88-21.37,16.32-4.82,3.69-10.64,5.67-16.47,6.43-.39,.05-.78,.1-1.17,.14-.62,.07-1.24,.12-1.86,.15-.45,.03-.9,.05-1.35,.07-.58,.02-1.14,.03-1.71,.02h-.39c-4.99-.06-18.94-6-13.56-14.24,2.28-3.5,3.76,1.15,3.27,3.51,4.34-2.56,3.54-7.27-.02-10.32-3.11-2.68-6.97-3.04-10.67-2.06-3.14,.83-5.82,2.4-8.29,4.33v-33.29c2.56-1.98,5.36-3.59,8.69-4.43,3.81-.97,8.47-.08,11.35,3.03,2.81,3.03,3,8.07-1.06,9.63,.36-2.39-1.15-6.58-3.27-3.1-4.95,8.09,9.15,13.7,13.95,13.83,.44,.01,.88,.01,1.32,.01,.26,0,.53-.01,.8-.02,.2-.01,.41-.01,.62-.02,.23,0,.46-.03,.69-.04,6.7-.45,13.71-2.72,19.13-6.97,7.63-5.98,13.12-14.87,22.96-16.47,3.71-.6,7.84,.35,10.49,3.53,2.27,2.71,2.73,7.61-1,8.81-.01-.25-.03-.5-.07-.73-.02-.12-.04-.24-.07-.36-.02-.1-.05-.19-.07-.28-.03-.08-.05-.16-.08-.24-.83-2.27-3.05-3.19-3.89,.27-2,8.27,9.38,12.43,14.76,12.52h.11c.93,0,1.88-.02,2.83-.09,.5-.03,.99-.07,1.49-.13,.22-.02,.43-.04,.65-.07,.2-.02,.41-.05,.61-.09,5.88-.8,11.82-2.95,16.58-6.67,7.42-5.81,12.96-14.93,22.56-16.52,3.65-.61,7.84,.26,10.57,3.2,2.81,3.03,2.99,8.07-1.07,9.63,.37-2.39-1.14-6.58-3.27-3.1-4.94,8.09,9.16,13.7,13.96,13.83,.26,.01,.52,.02,.79,.02,.38,0,.77-.01,1.16-.02,.29-.01,.58-.03,.87-.05,.44-.02,.88-.04,1.32-.08h0Z"/><path class="cls-6" d="M171.5,158.95v114.89c0,1.66-1.35,3.01-3.01,3.01H10.09c-1.66,0-3-1.35-3-3.01V140.04c2.36-1.79,4.92-3.24,7.89-4.03,4.01-1.07,8.56-.78,11.81,2.39,3.02,2.95,3.59,8.32-.72,9.99,.36-2.4-1.15-6.58-3.27-3.11-4.92,8.05,9.14,13.78,13.95,13.84,.57,.01,1.13,0,1.71-.02,.45,0,.9-.03,1.35-.07,.62-.03,1.24-.08,1.86-.15,.39-.04,.78-.09,1.17-.14,5.71-.81,11.43-2.86,16.07-6.43,7.82-5.97,13.36-15.08,23.36-16.7,3.71-.61,7.84,.34,10.49,3.52,2.27,2.71,2.73,7.61-1,8.81-.01-.17-.02-.34-.04-.51,0-.08-.02-.17-.03-.25-.02-.11-.04-.21-.06-.32-.02-.1-.05-.2-.07-.3-.72-2.56-3.07-3.74-3.98,.04-2.06,8.63,9.86,12.45,15.27,12.52,.54,.01,1.08,0,1.63-.03,.81-.02,1.63-.08,2.45-.17,.28-.02,.57-.05,.86-.09,.36-.05,.71-.1,1.07-.15,5.62-.89,11.27-3.11,15.75-6.67,7.66-6.11,13.36-15.08,23.35-16.47,3.59-.5,7.56,.55,10.11,3.59,.96,1.15,1.55,2.52,1.69,3.87,.11,.95,0,1.89-.33,2.73-.47,1.16-1.38,2.12-2.76,2.66,.37-2.4-1.14-6.58-3.27-3.11-4.92,8.05,9.14,13.78,13.96,13.84,.56,.01,1.13,0,1.7-.02,.45,0,.91-.03,1.36-.06,.36-.02,.72-.05,1.08-.09h0Z"/></g><path id="inner-border" class="cls-1" d="M171.5,44.58v229.26c0,1.66-1.35,3.01-3.01,3.01H10.09c-1.66,0-3-1.35-3-3.01V44.58c0-1.66,1.34-3.01,3-3.01H168.49c1.66,0,3.01,1.35,3.01,3.01Z"/><g><rect id="bg-2" class="cls-3" x="224.42" y="34.49" width="178.58" height="249.45" rx="8.5" ry="8.5"/><path class="cls-5" d="M395.92,92.75V44.58c0-1.66-1.35-3.01-3.01-3.01H234.51c-1.66,0-3,1.35-3,3.01v229.26c0,1.66,1.34,3.01,3,3.01h158.4c1.66,0,3.01-1.35,3.01-3.01V125.89m0-.01v-33.1m-142.49-13.34s.01-.03,.02-.04c-.01,.02-.02,.04-.02,.06"/></g><path id="inner-border-2" class="cls-1" d="M395.92,44.58v229.26c0,1.66-1.35,3.01-3.01,3.01H234.51c-1.66,0-3-1.35-3-3.01V44.58c0-1.66,1.34-3.01,3-3.01h158.4c1.66,0,3.01,1.35,3.01,3.01Z"/></svg>